<svg width="1800" height="90" viewBox="0 0 1800 90" fill="none" xmlns="http://www.w3.org/2000/svg">
<g clip-path="url(#clip0_363_52)">
<rect width="1800" height="90" fill="url(#paint0_radial_363_52)"/>
<path d="M701.984 51.8039C703.653 52.1221 702.745 56.3705 702.254 58.2876C701.309 61.9847 692.989 59.1393 694.287 55.8196C695.64 52.3592 700.405 51.5027 701.984 51.8039Z" fill="#313447"/>
<path fill-rule="evenodd" clip-rule="evenodd" d="M596.806 -74.8784C601.397 -74.345 611.796 -73.0393 616.663 -72.0836C622.746 -70.889 630.073 -80.1571 625.551 -80.9173C621.412 -81.6132 617.292 -82.4774 613.397 -83.2946C602.616 -85.5565 593.549 -87.4586 590.519 -84.4371C587.995 -81.9213 591.61 -79.4756 594.37 -77.6077C596.123 -76.4216 597.532 -75.4685 596.806 -74.8784ZM519.281 -66.2092C515.764 -62.9232 507.82 -56.519 504.287 -53.7277C505.274 -53.5996 505.776 -52.884 506.405 -51.9874C507.339 -50.6551 508.554 -48.923 512.057 -48.1237C517.918 -46.7864 531.412 -60.5415 529.776 -64.5535C528.141 -68.5654 523.677 -70.3166 519.281 -66.2092ZM1434 443.503C1434 724.616 1206.11 952.503 925 952.503C643.887 952.503 416 724.616 416 443.503C416 343.852 416.092 286.86 465.585 208.366C557.468 42.6299 743.538 -65.4969 925 -65.4969C1206.11 -65.4969 1434 162.39 1434 443.503Z" fill="url(#paint1_linear_363_52)"/>
<ellipse rx="13.5" ry="12.5" transform="matrix(-1 0 0 1 998.5 94.5)" fill="#383B51"/>
<path d="M397.5 88.5C393.5 90.9 393.5 93 393 94.5C392.5 93.5 392 91.4 388 89C391 86 391.5 85 392.5 83C393 84 393.5 86.1 397.5 88.5Z" fill="#383B51"/>
<path d="M393 94.5L392.553 94.7236L393.093 95.8033L393.474 94.6581L393 94.5ZM397.5 88.5L397.757 88.9287L398.472 88.5L397.757 88.0713L397.5 88.5ZM392.5 83L392.947 82.7764L392.5 81.882L392.053 82.7764L392.5 83ZM388 89L387.646 88.6464L387.194 89.0993L387.743 89.4287L388 89ZM393.474 94.6581C393.759 93.8056 393.84 93.0419 394.375 92.0803C394.886 91.1604 395.815 90.094 397.757 88.9287L397.243 88.0713C395.185 89.306 394.114 90.4896 393.5 91.5947C392.91 92.6581 392.741 93.6944 392.526 94.3419L393.474 94.6581ZM392.053 83.2236C392.268 83.6539 392.564 84.525 393.282 85.5181C394.015 86.5306 395.194 87.6992 397.243 88.9287L397.757 88.0713C395.806 86.9008 394.735 85.8194 394.093 84.9319C393.436 84.025 393.232 83.3461 392.947 82.7764L392.053 83.2236ZM393.447 94.2764C393.232 93.8461 392.936 92.975 392.218 91.9819C391.485 90.9694 390.306 89.8008 388.257 88.5713L387.743 89.4287C389.694 90.5992 390.765 91.6806 391.407 92.5681C392.064 93.475 392.268 94.1539 392.553 94.7236L393.447 94.2764ZM392.053 82.7764C391.552 83.7785 391.192 84.4954 390.593 85.3344C389.992 86.1766 389.139 87.1541 387.646 88.6464L388.354 89.3536C389.861 87.8459 390.758 86.8234 391.407 85.9156C392.058 85.0046 392.448 84.2215 392.947 83.2236L392.053 82.7764Z" fill="#383B51"/>
<path d="M1052.5 77.5C1048.5 79.9 1048.5 82 1048 83.5C1047.5 82.5 1047 80.4 1043 78C1046 75 1046.5 74 1047.5 72C1048 73 1048.5 75.1 1052.5 77.5Z" fill="#383B51"/>
<path d="M1048 83.5L1047.55 83.7236L1048.09 84.8033L1048.47 83.6581L1048 83.5ZM1052.5 77.5L1052.76 77.9287L1053.47 77.5L1052.76 77.0713L1052.5 77.5ZM1047.5 72L1047.95 71.7764L1047.5 70.882L1047.05 71.7764L1047.5 72ZM1043 78L1042.65 77.6464L1042.19 78.0993L1042.74 78.4287L1043 78ZM1048.47 83.6581C1048.76 82.8056 1048.84 82.0419 1049.37 81.0803C1049.89 80.1604 1050.82 79.094 1052.76 77.9287L1052.24 77.0713C1050.18 78.306 1049.11 79.4896 1048.5 80.5947C1047.91 81.6581 1047.74 82.6944 1047.53 83.3419L1048.47 83.6581ZM1047.05 72.2236C1047.27 72.6539 1047.56 73.525 1048.28 74.5181C1049.02 75.5306 1050.19 76.6992 1052.24 77.9287L1052.76 77.0713C1050.81 75.9008 1049.73 74.8194 1049.09 73.9319C1048.44 73.025 1048.23 72.3461 1047.95 71.7764L1047.05 72.2236ZM1048.45 83.2764C1048.23 82.8461 1047.94 81.975 1047.22 80.9819C1046.48 79.9694 1045.31 78.8008 1043.26 77.5713L1042.74 78.4287C1044.69 79.5992 1045.77 80.6806 1046.41 81.5681C1047.06 82.475 1047.27 83.1539 1047.55 83.7236L1048.45 83.2764ZM1047.05 71.7764C1046.55 72.7785 1046.19 73.4954 1045.59 74.3344C1044.99 75.1766 1044.14 76.1541 1042.65 77.6464L1043.35 78.3536C1044.86 76.8459 1045.76 75.8234 1046.41 74.9156C1047.06 74.0046 1047.45 73.2215 1047.95 72.2236L1047.05 71.7764Z" fill="#383B51"/>
<mask id="mask0_363_52" style="mask-type:alpha" maskUnits="userSpaceOnUse" x="653" y="-9" width="1019" height="1030">
<path fill-rule="evenodd" clip-rule="evenodd" d="M1119.64 4.79973C1117.81 1.8148 1117.58 -1.33578 1120.57 -4.52575C1128.68 -13.1756 1152.93 -7.73025 1181.77 -1.2552C1192.05 1.05314 1202.92 3.49235 1213.84 5.47045C1470.6 31.4431 1671 248.25 1671 511.863C1671 792.976 1443.11 1020.86 1162 1020.86C880.888 1020.86 653 792.976 653 511.863C653 412.212 653.093 355.22 702.585 276.726C747.202 196.247 814.027 129.352 891.75 81.8252C901.889 73.2072 921.177 56.4932 930.013 47.6565C940.176 37.494 950.474 39.8592 955.908 48.1027C1008.28 24.7982 1063.82 9.87451 1119.64 4.79973Z" fill="url(#paint2_linear_363_52)"/>
</mask>
<g mask="url(#mask0_363_52)">
<path d="M825.602 63.7785C749.835 89.382 682.342 65.9857 694.879 29.5402C736.396 -118.116 890.773 -25.3321 891.292 -15.1489C891.811 -4.96569 920.312 31.774 825.602 63.7785Z" fill="url(#paint3_radial_363_52)"/>
<g filter="url(#filter0_f_363_52)">
<path d="M960.691 158.736C905.658 224.664 838.297 223.84 826.147 177.808C781.332 8.02192 962.148 18.75 976.011 55.8347C980.517 67.8886 1029.48 76.3267 960.691 158.736Z" fill="url(#paint4_radial_363_52)"/>
</g>
</g>
<mask id="mask1_363_52" style="mask-type:alpha" maskUnits="userSpaceOnUse" x="652" y="-6" width="382" height="357">
<path d="M1033.29 172.39C1033.29 270.586 948.095 350.19 843.006 350.19C737.916 350.19 652.725 270.586 652.725 172.39C652.725 141.227 657.164 113.973 672.237 88.5049C704.66 33.7223 771.267 -5.40991 843.006 -5.40991C948.095 -5.40991 1033.29 74.1938 1033.29 172.39Z" fill="url(#paint5_linear_363_52)"/>
</mask>
<g mask="url(#mask1_363_52)">
<ellipse rx="106.507" ry="105.599" transform="matrix(0.575184 0.818024 -0.852215 0.523191 731.542 122.467)" fill="url(#paint6_radial_363_52)"/>
</g>
<path d="M804.34 -7.45719C830.351 -10.8797 853.288 -11.1293 850.4 -0.461948C847.512 10.2054 830.351 24.3335 804.34 27.7561C778.329 31.1786 748.921 27.7527 751.809 17.0854C754.697 6.41809 778.329 -4.03466 804.34 -7.45719Z" fill="url(#paint7_radial_363_52)"/>
<mask id="mask2_363_52" style="mask-type:alpha" maskUnits="userSpaceOnUse" x="751" y="-10" width="100" height="40">
<path d="M804.34 -7.45719C830.351 -10.8797 853.288 -11.1293 850.4 -0.461948C847.512 10.2054 830.351 24.3335 804.34 27.7561C778.329 31.1786 748.921 27.7527 751.809 17.0854C754.697 6.41809 778.329 -4.03466 804.34 -7.45719Z" fill="url(#paint8_radial_363_52)"/>
</mask>
<g mask="url(#mask2_363_52)">
<g filter="url(#filter1_f_363_52)">
<path d="M844.132 9.05373C853.098 -16.2575 728.316 10.0585 779.041 26.5169C774.126 31.1095 741.097 19.9446 736.91 6.16703C732.723 -7.61056 744.009 -1.8274 761.666 -13.3938C779.324 -24.9601 830.657 -23.2592 849.043 -22.919C867.428 -22.5789 864.516 -9.99193 866.154 -4.03865C867.465 0.723974 847.226 4.12101 844.132 9.05373Z" fill="url(#paint9_radial_363_52)"/>
</g>
</g>
<mask id="mask3_363_52" style="mask-type:alpha" maskUnits="userSpaceOnUse" x="993" y="11" width="100" height="40">
<path d="M1046.47 13.5428C1072.48 10.1203 1095.41 9.87074 1092.53 20.5381C1089.64 31.2054 1072.48 45.3335 1046.47 48.7561C1020.46 52.1786 991.048 48.7527 993.936 38.0854C996.823 27.4181 1020.46 16.9653 1046.47 13.5428Z" fill="url(#paint10_radial_363_52)"/>
</mask>
<g mask="url(#mask3_363_52)">
<g filter="url(#filter2_f_363_52)">
<path d="M1086.26 30.0537C1095.22 4.74243 970.443 31.0584 1021.17 47.5169C1016.25 52.1095 983.223 40.9446 979.036 27.167C974.849 13.3894 986.136 19.1725 1003.79 7.60617C1021.45 -3.96021 1072.78 -2.25929 1091.17 -1.91911C1109.55 -1.57892 1106.64 11.008 1108.28 16.9613C1109.59 21.7239 1089.35 25.121 1086.26 30.0537Z" fill="url(#paint11_radial_363_52)"/>
</g>
</g>
<ellipse rx="48.7983" ry="56.7568" transform="matrix(0.965609 0.259999 -0.249707 0.968322 680.293 83.2206)" fill="#2C2F41"/>
<ellipse rx="66.6944" ry="70.3405" transform="matrix(0.877554 0.479477 0.509231 -0.86063 904.794 77.5805)" fill="#2C2F42"/>
<ellipse rx="45.1484" ry="52.5116" transform="matrix(0.965609 0.259999 -0.249707 0.968322 680.293 83.2205)" fill="url(#paint12_radial_363_52)"/>
<ellipse rx="62.6209" ry="66.044" transform="matrix(0.877316 0.479914 0.50873 -0.860926 904.402 76.2155)" fill="url(#paint13_radial_363_52)"/>
<ellipse rx="62.6209" ry="66.044" transform="matrix(0.877316 0.479914 0.50873 -0.860926 1149.54 67.9117)" fill="url(#paint14_radial_363_52)"/>
<g filter="url(#filter3_f_363_52)">
<path d="M833.966 17.2755C800.233 45.9793 823.876 129.686 826.339 131.048C857.602 202.885 758.034 160.874 775.656 75.7671C793.279 -9.33976 867.699 -11.4283 833.966 17.2755Z" fill="#2C2F41"/>
</g>
<path d="M807.355 2.26101C811.881 1.02414 816.54 0.749588 818.536 3.64116C821.414 7.8075 817.334 8.79759 814.065 11.345C810.934 13.7851 809.353 17.9873 805.61 14.6066C801.162 10.5899 805.002 2.90398 807.355 2.26101Z" fill="#313447"/>
<path d="M745.156 22.3217C746.049 23.0737 746.736 23.9812 746.332 24.7728C745.552 26.2995 741.719 25.0588 742.057 23.6198C742.394 22.1809 744.692 21.9309 745.156 22.3217Z" fill="#313447"/>
<path d="M707.405 1.01748C705.891 0.565075 706.558 -0.857517 707.405 -2.32301C709.039 -5.14929 714.848 -5.51712 712.957 -3.03301C710.985 -0.443599 708.839 1.44574 707.405 1.01748Z" fill="#313447"/>
<path d="M794.776 85.4784C792.956 88.7694 788.629 87.0056 784.212 84.8316C775.693 80.6388 782.586 73.9796 791.785 75.2951C800.98 76.61 796.499 82.3631 794.776 85.4784Z" fill="#313447"/>
<path fill-rule="evenodd" clip-rule="evenodd" d="M139.124 18.3028C143.242 12.083 149.022 8.84268 151.398 8C152.425 10.1386 154.008 16.1828 152.118 23.2508C149.755 32.0859 141.397 49.3709 140.74 49.6201C140.703 49.634 140.674 49.6873 140.652 49.776L143.724 67.5728L132.368 63.5727C128.958 70.4327 121.977 81.0814 120.471 76.5973C119.452 73.564 120.771 66.4612 122.414 60.0666L112 56.3987L119.45 50.8611C120.747 49.6884 122.212 48.4674 123.492 47.4004L123.492 47.4004C125.414 45.7989 126.919 44.5441 126.818 44.3187C126.546 43.7161 133.977 26.0777 139.124 18.3028Z" fill="url(#paint15_linear_363_52)"/>
<path fill-rule="evenodd" clip-rule="evenodd" d="M378.124 12.3028C382.242 6.083 388.022 2.84268 390.398 2C391.425 4.13859 393.008 10.1828 391.118 17.2508C388.755 26.0859 380.397 43.3709 379.74 43.6201C379.703 43.634 379.674 43.6873 379.652 43.776L382.724 61.5728L371.368 57.5727C367.958 64.4327 360.977 75.0814 359.471 70.5973C358.452 67.564 359.771 60.4612 361.414 54.0666L351 50.3987L358.45 44.8611C359.747 43.6884 361.212 42.4674 362.492 41.4004L362.492 41.4004C364.414 39.7989 365.919 38.5441 365.818 38.3187C365.546 37.7161 372.977 20.0777 378.124 12.3028Z" fill="url(#paint16_linear_363_52)"/>
<path fill-rule="evenodd" clip-rule="evenodd" d="M528.124 34.3028C532.242 28.083 538.022 24.8427 540.398 24C541.425 26.1386 543.008 32.1828 541.118 39.2508C538.755 48.0859 530.397 65.3709 529.74 65.6201C529.703 65.634 529.674 65.6873 529.652 65.776L532.724 83.5728L521.368 79.5727C517.958 86.4327 510.977 97.0814 509.471 92.5973C508.452 89.564 509.771 82.4612 511.414 76.0666L501 72.3987L508.45 66.8611C509.747 65.6884 511.212 64.4674 512.492 63.4004L512.492 63.4004C514.414 61.7989 515.919 60.5441 515.818 60.3187C515.546 59.7161 522.977 42.0777 528.124 34.3028Z" fill="url(#paint17_linear_363_52)"/>
<path fill-rule="evenodd" clip-rule="evenodd" d="M1321.12 15.3028C1325.24 9.083 1331.02 5.84268 1333.4 5C1334.43 7.13859 1336.01 13.1828 1334.12 20.2508C1331.76 29.0859 1323.4 46.3709 1322.74 46.6201C1322.7 46.634 1322.67 46.6873 1322.65 46.776L1325.72 64.5728L1314.37 60.5727C1310.96 67.4327 1303.98 78.0814 1302.47 73.5973C1301.45 70.564 1302.77 63.4612 1304.41 57.0666L1294 53.3987L1301.45 47.8611C1302.75 46.6884 1304.21 45.4674 1305.49 44.4004L1305.49 44.4004C1307.41 42.7989 1308.92 41.5441 1308.82 41.3187C1308.55 40.7161 1315.98 23.0777 1321.12 15.3028Z" fill="url(#paint18_linear_363_52)"/>
<path fill-rule="evenodd" clip-rule="evenodd" d="M1572.12 32.3028C1576.24 26.083 1582.02 22.8427 1584.4 22C1585.43 24.1386 1587.01 30.1828 1585.12 37.2508C1582.76 46.0859 1574.4 63.3709 1573.74 63.6201C1573.7 63.634 1573.67 63.6873 1573.65 63.776L1576.72 81.5728L1565.37 77.5727C1561.96 84.4327 1554.98 95.0814 1553.47 90.5973C1552.45 87.564 1553.77 80.4612 1555.41 74.0666L1545 70.3987L1552.45 64.8611C1553.75 63.6884 1555.21 62.4674 1556.49 61.4004L1556.49 61.4004C1558.41 59.7989 1559.92 58.5441 1559.82 58.3187C1559.55 57.7161 1566.98 40.0777 1572.12 32.3028Z" fill="url(#paint19_linear_363_52)"/>
<path fill-rule="evenodd" clip-rule="evenodd" d="M1657.12 19.3028C1661.24 13.083 1667.02 9.84268 1669.4 9C1670.43 11.1386 1672.01 17.1828 1670.12 24.2508C1667.76 33.0859 1659.4 50.3709 1658.74 50.6201C1658.7 50.634 1658.67 50.6873 1658.65 50.776L1661.72 68.5728L1650.37 64.5727C1646.96 71.4327 1639.98 82.0814 1638.47 77.5973C1637.45 74.564 1638.77 67.4612 1640.41 61.0666L1630 57.3987L1637.45 51.8611C1638.75 50.6884 1640.21 49.4674 1641.49 48.4004L1641.49 48.4004C1643.41 46.7989 1644.92 45.5441 1644.82 45.3187C1644.55 44.7161 1651.98 27.0777 1657.12 19.3028Z" fill="url(#paint20_linear_363_52)"/>
<path fill-rule="evenodd" clip-rule="evenodd" d="M629.26 99.7325C636.13 88.4237 645.776 82.5321 649.74 81C651.454 84.8884 654.095 95.8778 650.941 108.729C646.999 124.793 633.051 156.22 631.956 156.673C631.895 156.699 631.846 156.796 631.808 156.957L636.935 189.315L617.985 182.042C612.296 194.514 600.647 213.876 598.134 205.723C596.435 200.208 598.635 187.293 601.376 175.667L584 168.998L596.433 158.929C598.597 156.797 601.041 154.577 603.177 152.637C606.383 149.726 608.895 147.444 608.725 147.034C608.272 145.939 620.671 113.869 629.26 99.7325Z" fill="url(#paint21_linear_363_52)"/>
</g>
<path d="M209.5 39.5C205.5 41.9 205.5 44 205 45.5C204.5 44.5 204 42.4 200 40C203 37 203.5 36 204.5 34C205 35 205.5 37.1 209.5 39.5Z" fill="#383B51"/>
<path d="M205 45.5L204.553 45.7236L205.093 46.8033L205.474 45.6581L205 45.5ZM209.5 39.5L209.757 39.9287L210.472 39.5L209.757 39.0713L209.5 39.5ZM204.5 34L204.947 33.7764L204.5 32.882L204.053 33.7764L204.5 34ZM200 40L199.646 39.6464L199.194 40.0993L199.743 40.4287L200 40ZM205.474 45.6581C205.759 44.8056 205.84 44.0419 206.375 43.0803C206.886 42.1604 207.815 41.094 209.757 39.9287L209.243 39.0713C207.185 40.306 206.114 41.4896 205.5 42.5947C204.91 43.6581 204.741 44.6944 204.526 45.3419L205.474 45.6581ZM204.053 34.2236C204.268 34.6539 204.564 35.525 205.282 36.5181C206.015 37.5306 207.194 38.6992 209.243 39.9287L209.757 39.0713C207.806 37.9008 206.735 36.8194 206.093 35.9319C205.436 35.025 205.232 34.3461 204.947 33.7764L204.053 34.2236ZM205.447 45.2764C205.232 44.8461 204.936 43.975 204.218 42.9819C203.485 41.9694 202.306 40.8008 200.257 39.5713L199.743 40.4287C201.694 41.5992 202.765 42.6806 203.407 43.5681C204.064 44.475 204.268 45.1539 204.553 45.7236L205.447 45.2764ZM204.053 33.7764C203.552 34.7785 203.192 35.4954 202.593 36.3344C201.992 37.1766 201.139 38.1541 199.646 39.6464L200.354 40.3536C201.861 38.8459 202.758 37.8234 203.407 36.9156C204.058 36.0046 204.448 35.2215 204.947 34.2236L204.053 33.7764Z" fill="#383B51"/>
<path d="M178.5 51.5C174.5 53.9 174.5 56 174 57.5C173.5 56.5 173 54.4 169 52C172 49 172.5 48 173.5 46C174 47 174.5 49.1 178.5 51.5Z" fill="#383B51"/>
<path d="M174 57.5L173.553 57.7236L174.093 58.8033L174.474 57.6581L174 57.5ZM178.5 51.5L178.757 51.9287L179.472 51.5L178.757 51.0713L178.5 51.5ZM173.5 46L173.947 45.7764L173.5 44.882L173.053 45.7764L173.5 46ZM169 52L168.646 51.6464L168.194 52.0993L168.743 52.4287L169 52ZM174.474 57.6581C174.759 56.8056 174.84 56.0419 175.375 55.0803C175.886 54.1604 176.815 53.094 178.757 51.9287L178.243 51.0713C176.185 52.306 175.114 53.4896 174.5 54.5947C173.91 55.6581 173.741 56.6944 173.526 57.3419L174.474 57.6581ZM173.053 46.2236C173.268 46.6539 173.564 47.525 174.282 48.5181C175.015 49.5306 176.194 50.6992 178.243 51.9287L178.757 51.0713C176.806 49.9008 175.735 48.8194 175.093 47.9319C174.436 47.025 174.232 46.3461 173.947 45.7764L173.053 46.2236ZM174.447 57.2764C174.232 56.8461 173.936 55.975 173.218 54.9819C172.485 53.9694 171.306 52.8008 169.257 51.5713L168.743 52.4287C170.694 53.5992 171.765 54.6806 172.407 55.5681C173.064 56.475 173.268 57.1539 173.553 57.7236L174.447 57.2764ZM173.053 45.7764C172.552 46.7785 172.192 47.4954 171.593 48.3344C170.992 49.1766 170.139 50.1541 168.646 51.6464L169.354 52.3536C170.861 50.8459 171.758 49.8234 172.407 48.9156C173.058 48.0046 173.448 47.2215 173.947 46.2236L173.053 45.7764Z" fill="#383B51"/>
<path d="M34.5 45.5C30.5 47.9 30.5 50 30 51.5C29.5 50.5 29 48.4 25 46C28 43 28.5 42 29.5 40C30 41 30.5 43.1 34.5 45.5Z" fill="#383B51"/>
<path d="M30 51.5L29.5528 51.7236L30.0926 52.8033L30.4743 51.6581L30 51.5ZM34.5 45.5L34.7572 45.9287L35.4718 45.5L34.7572 45.0713L34.5 45.5ZM29.5 40L29.9472 39.7764L29.5 38.882L29.0528 39.7764L29.5 40ZM25 46L24.6464 45.6464L24.1936 46.0993L24.7428 46.4287L25 46ZM30.4743 51.6581C30.7585 50.8056 30.8404 50.0419 31.3746 49.0803C31.8857 48.1604 32.8152 47.094 34.7572 45.9287L34.2428 45.0713C32.1848 46.306 31.1143 47.4896 30.5004 48.5947C29.9096 49.6581 29.7415 50.6944 29.5257 51.3419L30.4743 51.6581ZM29.0528 40.2236C29.2679 40.6539 29.5637 41.525 30.2824 42.5181C31.0151 43.5306 32.1936 44.6992 34.2428 45.9287L34.7572 45.0713C32.8064 43.9008 31.7349 42.8194 31.0926 41.9319C30.4363 41.025 30.2321 40.3461 29.9472 39.7764L29.0528 40.2236ZM30.4472 51.2764C30.2321 50.8461 29.9363 49.975 29.2176 48.9819C28.4849 47.9694 27.3064 46.8008 25.2572 45.5713L24.7428 46.4287C26.6936 47.5992 27.7651 48.6806 28.4074 49.5681C29.0637 50.475 29.2679 51.1539 29.5528 51.7236L30.4472 51.2764ZM29.0528 39.7764C28.5517 40.7785 28.1924 41.4954 27.5931 42.3344C26.9916 43.1766 26.1388 44.1541 24.6464 45.6464L25.3536 46.3536C26.8612 44.8459 27.7584 43.8234 28.4069 42.9156C29.0576 42.0046 29.4483 41.2215 29.9472 40.2236L29.0528 39.7764Z" fill="#383B51"/>
<path d="M67.5 28.5C63.5 30.9 63.5 33 63 34.5C62.5 33.5 62 31.4 58 29C61 26 61.5 25 62.5 23C63 24 63.5 26.1 67.5 28.5Z" fill="#383B51"/>
<path d="M63 34.5L62.5528 34.7236L63.0926 35.8033L63.4743 34.6581L63 34.5ZM67.5 28.5L67.7572 28.9287L68.4718 28.5L67.7572 28.0713L67.5 28.5ZM62.5 23L62.9472 22.7764L62.5 21.882L62.0528 22.7764L62.5 23ZM58 29L57.6464 28.6464L57.1936 29.0993L57.7428 29.4287L58 29ZM63.4743 34.6581C63.7585 33.8056 63.8404 33.0419 64.3746 32.0803C64.8857 31.1604 65.8152 30.094 67.7572 28.9287L67.2428 28.0713C65.1848 29.306 64.1143 30.4896 63.5004 31.5947C62.9096 32.6581 62.7415 33.6944 62.5257 34.3419L63.4743 34.6581ZM62.0528 23.2236C62.2679 23.6539 62.5637 24.525 63.2824 25.5181C64.0151 26.5306 65.1936 27.6992 67.2428 28.9287L67.7572 28.0713C65.8064 26.9008 64.7349 25.8194 64.0926 24.9319C63.4363 24.025 63.2321 23.3461 62.9472 22.7764L62.0528 23.2236ZM63.4472 34.2764C63.2321 33.8461 62.9363 32.975 62.2176 31.9819C61.4849 30.9694 60.3064 29.8008 58.2572 28.5713L57.7428 29.4287C59.6936 30.5992 60.7651 31.6806 61.4074 32.5681C62.0637 33.475 62.2679 34.1539 62.5528 34.7236L63.4472 34.2764ZM62.0528 22.7764C61.5517 23.7785 61.1924 24.4954 60.5931 25.3344C59.9916 26.1766 59.1388 27.1541 57.6464 28.6464L58.3536 29.3536C59.8612 27.8459 60.7584 26.8234 61.4069 25.9156C62.0576 25.0046 62.4483 24.2215 62.9472 23.2236L62.0528 22.7764Z" fill="#383B51"/>
<path d="M72.5 63.5C68.5 65.9 68.5 68 68 69.5C67.5 68.5 67 66.4 63 64C66 61 66.5 60 67.5 58C68 59 68.5 61.1 72.5 63.5Z" fill="#383B51"/>
<path d="M68 69.5L67.5528 69.7236L68.0926 70.8033L68.4743 69.6581L68 69.5ZM72.5 63.5L72.7572 63.9287L73.4718 63.5L72.7572 63.0713L72.5 63.5ZM67.5 58L67.9472 57.7764L67.5 56.882L67.0528 57.7764L67.5 58ZM63 64L62.6464 63.6464L62.1936 64.0993L62.7428 64.4287L63 64ZM68.4743 69.6581C68.7585 68.8056 68.8404 68.0419 69.3746 67.0803C69.8857 66.1604 70.8152 65.094 72.7572 63.9287L72.2428 63.0713C70.1848 64.306 69.1143 65.4896 68.5004 66.5947C67.9096 67.6581 67.7415 68.6944 67.5257 69.3419L68.4743 69.6581ZM67.0528 58.2236C67.2679 58.6539 67.5637 59.525 68.2824 60.5181C69.0151 61.5306 70.1936 62.6992 72.2428 63.9287L72.7572 63.0713C70.8064 61.9008 69.7349 60.8194 69.0926 59.9319C68.4363 59.025 68.2321 58.3461 67.9472 57.7764L67.0528 58.2236ZM68.4472 69.2764C68.2321 68.8461 67.9363 67.975 67.2176 66.9819C66.4849 65.9694 65.3064 64.8008 63.2572 63.5713L62.7428 64.4287C64.6936 65.5992 65.7651 66.6806 66.4074 67.5681C67.0637 68.475 67.2679 69.1539 67.5528 69.7236L68.4472 69.2764ZM67.0528 57.7764C66.5517 58.7785 66.1924 59.4954 65.5931 60.3344C64.9916 61.1766 64.1388 62.1541 62.6464 63.6464L63.3536 64.3536C64.8612 62.8459 65.7584 61.8234 66.4069 60.9156C67.0576 60.0046 67.4483 59.2215 67.9472 58.2236L67.0528 57.7764Z" fill="#383B51"/>
<path d="M121.5 34.5C117.5 36.9 117.5 39 117 40.5C116.5 39.5 116 37.4 112 35C115 32 115.5 31 116.5 29C117 30 117.5 32.1 121.5 34.5Z" fill="#383B51"/>
<path d="M117 40.5L116.553 40.7236L117.093 41.8033L117.474 40.6581L117 40.5ZM121.5 34.5L121.757 34.9287L122.472 34.5L121.757 34.0713L121.5 34.5ZM116.5 29L116.947 28.7764L116.5 27.882L116.053 28.7764L116.5 29ZM112 35L111.646 34.6464L111.194 35.0993L111.743 35.4287L112 35ZM117.474 40.6581C117.759 39.8056 117.84 39.0419 118.375 38.0803C118.886 37.1604 119.815 36.094 121.757 34.9287L121.243 34.0713C119.185 35.306 118.114 36.4896 117.5 37.5947C116.91 38.6581 116.741 39.6944 116.526 40.3419L117.474 40.6581ZM116.053 29.2236C116.268 29.6539 116.564 30.525 117.282 31.5181C118.015 32.5306 119.194 33.6992 121.243 34.9287L121.757 34.0713C119.806 32.9008 118.735 31.8194 118.093 30.9319C117.436 30.025 117.232 29.3461 116.947 28.7764L116.053 29.2236ZM117.447 40.2764C117.232 39.8461 116.936 38.975 116.218 37.9819C115.485 36.9694 114.306 35.8008 112.257 34.5713L111.743 35.4287C113.694 36.5992 114.765 37.6806 115.407 38.5681C116.064 39.475 116.268 40.1539 116.553 40.7236L117.447 40.2764ZM116.053 28.7764C115.552 29.7785 115.192 30.4954 114.593 31.3344C113.992 32.1766 113.139 33.1541 111.646 34.6464L112.354 35.3536C113.861 33.8459 114.758 32.8234 115.407 31.9156C116.058 31.0046 116.448 30.2215 116.947 29.2236L116.053 28.7764Z" fill="#383B51"/>
<path d="M94.5 34.5C90.5 36.9 90.5 39 90 40.5C89.5 39.5 89 37.4 85 35C88 32 88.5 31 89.5 29C90 30 90.5 32.1 94.5 34.5Z" fill="#383B51"/>
<path d="M90 40.5L89.5528 40.7236L90.0926 41.8033L90.4743 40.6581L90 40.5ZM94.5 34.5L94.7572 34.9287L95.4718 34.5L94.7572 34.0713L94.5 34.5ZM89.5 29L89.9472 28.7764L89.5 27.882L89.0528 28.7764L89.5 29ZM85 35L84.6464 34.6464L84.1936 35.0993L84.7428 35.4287L85 35ZM90.4743 40.6581C90.7585 39.8056 90.8404 39.0419 91.3746 38.0803C91.8857 37.1604 92.8152 36.094 94.7572 34.9287L94.2428 34.0713C92.1848 35.306 91.1143 36.4896 90.5004 37.5947C89.9096 38.6581 89.7415 39.6944 89.5257 40.3419L90.4743 40.6581ZM89.0528 29.2236C89.2679 29.6539 89.5637 30.525 90.2824 31.5181C91.0151 32.5306 92.1936 33.6992 94.2428 34.9287L94.7572 34.0713C92.8064 32.9008 91.7349 31.8194 91.0926 30.9319C90.4363 30.025 90.2321 29.3461 89.9472 28.7764L89.0528 29.2236ZM90.4472 40.2764C90.2321 39.8461 89.9363 38.975 89.2176 37.9819C88.4849 36.9694 87.3064 35.8008 85.2572 34.5713L84.7428 35.4287C86.6936 36.5992 87.7651 37.6806 88.4074 38.5681C89.0637 39.475 89.2679 40.1539 89.5528 40.7236L90.4472 40.2764ZM89.0528 28.7764C88.5517 29.7785 88.1924 30.4954 87.5931 31.3344C86.9916 32.1766 86.1388 33.1541 84.6464 34.6464L85.3536 35.3536C86.8612 33.8459 87.7584 32.8234 88.4069 31.9156C89.0576 31.0046 89.4483 30.2215 89.9472 29.2236L89.0528 28.7764Z" fill="#383B51"/>
<path d="M219.5 75.5C215.5 77.9 215.5 80 215 81.5C214.5 80.5 214 78.4 210 76C213 73 213.5 72 214.5 70C215 71 215.5 73.1 219.5 75.5Z" fill="#383B51"/>
<path d="M215 81.5L214.553 81.7236L215.093 82.8033L215.474 81.6581L215 81.5ZM219.5 75.5L219.757 75.9287L220.472 75.5L219.757 75.0713L219.5 75.5ZM214.5 70L214.947 69.7764L214.5 68.882L214.053 69.7764L214.5 70ZM210 76L209.646 75.6464L209.194 76.0993L209.743 76.4287L210 76ZM215.474 81.6581C215.759 80.8056 215.84 80.0419 216.375 79.0803C216.886 78.1604 217.815 77.094 219.757 75.9287L219.243 75.0713C217.185 76.306 216.114 77.4896 215.5 78.5947C214.91 79.6581 214.741 80.6944 214.526 81.3419L215.474 81.6581ZM214.053 70.2236C214.268 70.6539 214.564 71.525 215.282 72.5181C216.015 73.5306 217.194 74.6992 219.243 75.9287L219.757 75.0713C217.806 73.9008 216.735 72.8194 216.093 71.9319C215.436 71.025 215.232 70.3461 214.947 69.7764L214.053 70.2236ZM215.447 81.2764C215.232 80.8461 214.936 79.975 214.218 78.9819C213.485 77.9694 212.306 76.8008 210.257 75.5713L209.743 76.4287C211.694 77.5992 212.765 78.6806 213.407 79.5681C214.064 80.475 214.268 81.1539 214.553 81.7236L215.447 81.2764ZM214.053 69.7764C213.552 70.7785 213.192 71.4954 212.593 72.3344C211.992 73.1766 211.139 74.1541 209.646 75.6464L210.354 76.3536C211.861 74.8459 212.758 73.8234 213.407 72.9156C214.058 72.0046 214.448 71.2215 214.947 70.2236L214.053 69.7764Z" fill="#383B51"/>
<path d="M242.5 35.5C238.5 37.9 238.5 40 238 41.5C237.5 40.5 237 38.4 233 36C236 33 236.5 32 237.5 30C238 31 238.5 33.1 242.5 35.5Z" fill="#383B51"/>
<path d="M238 41.5L237.553 41.7236L238.093 42.8033L238.474 41.6581L238 41.5ZM242.5 35.5L242.757 35.9287L243.472 35.5L242.757 35.0713L242.5 35.5ZM237.5 30L237.947 29.7764L237.5 28.882L237.053 29.7764L237.5 30ZM233 36L232.646 35.6464L232.194 36.0993L232.743 36.4287L233 36ZM238.474 41.6581C238.759 40.8056 238.84 40.0419 239.375 39.0803C239.886 38.1604 240.815 37.094 242.757 35.9287L242.243 35.0713C240.185 36.306 239.114 37.4896 238.5 38.5947C237.91 39.6581 237.741 40.6944 237.526 41.3419L238.474 41.6581ZM237.053 30.2236C237.268 30.6539 237.564 31.525 238.282 32.5181C239.015 33.5306 240.194 34.6992 242.243 35.9287L242.757 35.0713C240.806 33.9008 239.735 32.8194 239.093 31.9319C238.436 31.025 238.232 30.3461 237.947 29.7764L237.053 30.2236ZM238.447 41.2764C238.232 40.8461 237.936 39.975 237.218 38.9819C236.485 37.9694 235.306 36.8008 233.257 35.5713L232.743 36.4287C234.694 37.5992 235.765 38.6806 236.407 39.5681C237.064 40.475 237.268 41.1539 237.553 41.7236L238.447 41.2764ZM237.053 29.7764C236.552 30.7785 236.192 31.4954 235.593 32.3344C234.992 33.1766 234.139 34.1541 232.646 35.6464L233.354 36.3536C234.861 34.8459 235.758 33.8234 236.407 32.9156C237.058 32.0046 237.448 31.2215 237.947 30.2236L237.053 29.7764Z" fill="#383B51"/>
<path d="M204.5 22.5C200.5 24.9 200.5 27 200 28.5C199.5 27.5 199 25.4 195 23C198 20 198.5 19 199.5 17C200 18 200.5 20.1 204.5 22.5Z" fill="#383B51"/>
<path d="M200 28.5L199.553 28.7236L200.093 29.8033L200.474 28.6581L200 28.5ZM204.5 22.5L204.757 22.9287L205.472 22.5L204.757 22.0713L204.5 22.5ZM199.5 17L199.947 16.7764L199.5 15.882L199.053 16.7764L199.5 17ZM195 23L194.646 22.6464L194.194 23.0993L194.743 23.4287L195 23ZM200.474 28.6581C200.759 27.8056 200.84 27.0419 201.375 26.0803C201.886 25.1604 202.815 24.094 204.757 22.9287L204.243 22.0713C202.185 23.306 201.114 24.4896 200.5 25.5947C199.91 26.6581 199.741 27.6944 199.526 28.3419L200.474 28.6581ZM199.053 17.2236C199.268 17.6539 199.564 18.525 200.282 19.5181C201.015 20.5306 202.194 21.6992 204.243 22.9287L204.757 22.0713C202.806 20.9008 201.735 19.8194 201.093 18.9319C200.436 18.025 200.232 17.3461 199.947 16.7764L199.053 17.2236ZM200.447 28.2764C200.232 27.8461 199.936 26.975 199.218 25.9819C198.485 24.9694 197.306 23.8008 195.257 22.5713L194.743 23.4287C196.694 24.5992 197.765 25.6806 198.407 26.5681C199.064 27.475 199.268 28.1539 199.553 28.7236L200.447 28.2764ZM199.053 16.7764C198.552 17.7785 198.192 18.4954 197.593 19.3344C196.992 20.1766 196.139 21.1541 194.646 22.6464L195.354 23.3536C196.861 21.8459 197.758 20.8234 198.407 19.9156C199.058 19.0046 199.448 18.2215 199.947 17.2236L199.053 16.7764Z" fill="#383B51"/>
<path d="M275.5 69.5C271.5 71.9 271.5 74 271 75.5C270.5 74.5 270 72.4 266 70C269 67 269.5 66 270.5 64C271 65 271.5 67.1 275.5 69.5Z" fill="#383B51"/>
<path d="M271 75.5L270.553 75.7236L271.093 76.8033L271.474 75.6581L271 75.5ZM275.5 69.5L275.757 69.9287L276.472 69.5L275.757 69.0713L275.5 69.5ZM270.5 64L270.947 63.7764L270.5 62.882L270.053 63.7764L270.5 64ZM266 70L265.646 69.6464L265.194 70.0993L265.743 70.4287L266 70ZM271.474 75.6581C271.759 74.8056 271.84 74.0419 272.375 73.0803C272.886 72.1604 273.815 71.094 275.757 69.9287L275.243 69.0713C273.185 70.306 272.114 71.4896 271.5 72.5947C270.91 73.6581 270.741 74.6944 270.526 75.3419L271.474 75.6581ZM270.053 64.2236C270.268 64.6539 270.564 65.525 271.282 66.5181C272.015 67.5306 273.194 68.6992 275.243 69.9287L275.757 69.0713C273.806 67.9008 272.735 66.8194 272.093 65.9319C271.436 65.025 271.232 64.3461 270.947 63.7764L270.053 64.2236ZM271.447 75.2764C271.232 74.8461 270.936 73.975 270.218 72.9819C269.485 71.9694 268.306 70.8008 266.257 69.5713L265.743 70.4287C267.694 71.5992 268.765 72.6806 269.407 73.5681C270.064 74.475 270.268 75.1539 270.553 75.7236L271.447 75.2764ZM270.053 63.7764C269.552 64.7785 269.192 65.4954 268.593 66.3344C267.992 67.1766 267.139 68.1541 265.646 69.6464L266.354 70.3536C267.861 68.8459 268.758 67.8234 269.407 66.9156C270.058 66.0046 270.448 65.2215 270.947 64.2236L270.053 63.7764Z" fill="#383B51"/>
<path d="M296.5 30.5C292.5 32.9 292.5 35 292 36.5C291.5 35.5 291 33.4 287 31C290 28 290.5 27 291.5 25C292 26 292.5 28.1 296.5 30.5Z" fill="#383B51"/>
<path d="M292 36.5L291.553 36.7236L292.093 37.8033L292.474 36.6581L292 36.5ZM296.5 30.5L296.757 30.9287L297.472 30.5L296.757 30.0713L296.5 30.5ZM291.5 25L291.947 24.7764L291.5 23.882L291.053 24.7764L291.5 25ZM287 31L286.646 30.6464L286.194 31.0993L286.743 31.4287L287 31ZM292.474 36.6581C292.759 35.8056 292.84 35.0419 293.375 34.0803C293.886 33.1604 294.815 32.094 296.757 30.9287L296.243 30.0713C294.185 31.306 293.114 32.4896 292.5 33.5947C291.91 34.6581 291.741 35.6944 291.526 36.3419L292.474 36.6581ZM291.053 25.2236C291.268 25.6539 291.564 26.525 292.282 27.5181C293.015 28.5306 294.194 29.6992 296.243 30.9287L296.757 30.0713C294.806 28.9008 293.735 27.8194 293.093 26.9319C292.436 26.025 292.232 25.3461 291.947 24.7764L291.053 25.2236ZM292.447 36.2764C292.232 35.8461 291.936 34.975 291.218 33.9819C290.485 32.9694 289.306 31.8008 287.257 30.5713L286.743 31.4287C288.694 32.5992 289.765 33.6806 290.407 34.5681C291.064 35.475 291.268 36.1539 291.553 36.7236L292.447 36.2764ZM291.053 24.7764C290.552 25.7785 290.192 26.4954 289.593 27.3344C288.992 28.1766 288.139 29.1541 286.646 30.6464L287.354 31.3536C288.861 29.8459 289.758 28.8234 290.407 27.9156C291.058 27.0046 291.448 26.2215 291.947 25.2236L291.053 24.7764Z" fill="#383B51"/>
<path d="M318.5 47.5C314.5 49.9 314.5 52 314 53.5C313.5 52.5 313 50.4 309 48C312 45 312.5 44 313.5 42C314 43 314.5 45.1 318.5 47.5Z" fill="#383B51"/>
<path d="M314 53.5L313.553 53.7236L314.093 54.8033L314.474 53.6581L314 53.5ZM318.5 47.5L318.757 47.9287L319.472 47.5L318.757 47.0713L318.5 47.5ZM313.5 42L313.947 41.7764L313.5 40.882L313.053 41.7764L313.5 42ZM309 48L308.646 47.6464L308.194 48.0993L308.743 48.4287L309 48ZM314.474 53.6581C314.759 52.8056 314.84 52.0419 315.375 51.0803C315.886 50.1604 316.815 49.094 318.757 47.9287L318.243 47.0713C316.185 48.306 315.114 49.4896 314.5 50.5947C313.91 51.6581 313.741 52.6944 313.526 53.3419L314.474 53.6581ZM313.053 42.2236C313.268 42.6539 313.564 43.525 314.282 44.5181C315.015 45.5306 316.194 46.6992 318.243 47.9287L318.757 47.0713C316.806 45.9008 315.735 44.8194 315.093 43.9319C314.436 43.025 314.232 42.3461 313.947 41.7764L313.053 42.2236ZM314.447 53.2764C314.232 52.8461 313.936 51.975 313.218 50.9819C312.485 49.9694 311.306 48.8008 309.257 47.5713L308.743 48.4287C310.694 49.5992 311.765 50.6806 312.407 51.5681C313.064 52.475 313.268 53.1539 313.553 53.7236L314.447 53.2764ZM313.053 41.7764C312.552 42.7785 312.192 43.4954 311.593 44.3344C310.992 45.1766 310.139 46.1541 308.646 47.6464L309.354 48.3536C310.861 46.8459 311.758 45.8234 312.407 44.9156C313.058 44.0046 313.448 43.2215 313.947 42.2236L313.053 41.7764Z" fill="#383B51"/>
<path d="M445.5 47.5C441.5 49.9 441.5 52 441 53.5C440.5 52.5 440 50.4 436 48C439 45 439.5 44 440.5 42C441 43 441.5 45.1 445.5 47.5Z" fill="#383B51"/>
<path d="M441 53.5L440.553 53.7236L441.093 54.8033L441.474 53.6581L441 53.5ZM445.5 47.5L445.757 47.9287L446.472 47.5L445.757 47.0713L445.5 47.5ZM440.5 42L440.947 41.7764L440.5 40.882L440.053 41.7764L440.5 42ZM436 48L435.646 47.6464L435.194 48.0993L435.743 48.4287L436 48ZM441.474 53.6581C441.759 52.8056 441.84 52.0419 442.375 51.0803C442.886 50.1604 443.815 49.094 445.757 47.9287L445.243 47.0713C443.185 48.306 442.114 49.4896 441.5 50.5947C440.91 51.6581 440.741 52.6944 440.526 53.3419L441.474 53.6581ZM440.053 42.2236C440.268 42.6539 440.564 43.525 441.282 44.5181C442.015 45.5306 443.194 46.6992 445.243 47.9287L445.757 47.0713C443.806 45.9008 442.735 44.8194 442.093 43.9319C441.436 43.025 441.232 42.3461 440.947 41.7764L440.053 42.2236ZM441.447 53.2764C441.232 52.8461 440.936 51.975 440.218 50.9819C439.485 49.9694 438.306 48.8008 436.257 47.5713L435.743 48.4287C437.694 49.5992 438.765 50.6806 439.407 51.5681C440.064 52.475 440.268 53.1539 440.553 53.7236L441.447 53.2764ZM440.053 41.7764C439.552 42.7785 439.192 43.4954 438.593 44.3344C437.992 45.1766 437.139 46.1541 435.646 47.6464L436.354 48.3536C437.861 46.8459 438.758 45.8234 439.407 44.9156C440.058 44.0046 440.448 43.2215 440.947 42.2236L440.053 41.7764Z" fill="#383B51"/>
<path d="M416.5 39.5C412.5 41.9 412.5 44 412 45.5C411.5 44.5 411 42.4 407 40C410 37 410.5 36 411.5 34C412 35 412.5 37.1 416.5 39.5Z" fill="#383B51"/>
<path d="M412 45.5L411.553 45.7236L412.093 46.8033L412.474 45.6581L412 45.5ZM416.5 39.5L416.757 39.9287L417.472 39.5L416.757 39.0713L416.5 39.5ZM411.5 34L411.947 33.7764L411.5 32.882L411.053 33.7764L411.5 34ZM407 40L406.646 39.6464L406.194 40.0993L406.743 40.4287L407 40ZM412.474 45.6581C412.759 44.8056 412.84 44.0419 413.375 43.0803C413.886 42.1604 414.815 41.094 416.757 39.9287L416.243 39.0713C414.185 40.306 413.114 41.4896 412.5 42.5947C411.91 43.6581 411.741 44.6944 411.526 45.3419L412.474 45.6581ZM411.053 34.2236C411.268 34.6539 411.564 35.525 412.282 36.5181C413.015 37.5306 414.194 38.6992 416.243 39.9287L416.757 39.0713C414.806 37.9008 413.735 36.8194 413.093 35.9319C412.436 35.025 412.232 34.3461 411.947 33.7764L411.053 34.2236ZM412.447 45.2764C412.232 44.8461 411.936 43.975 411.218 42.9819C410.485 41.9694 409.306 40.8008 407.257 39.5713L406.743 40.4287C408.694 41.5992 409.765 42.6806 410.407 43.5681C411.064 44.475 411.268 45.1539 411.553 45.7236L412.447 45.2764ZM411.053 33.7764C410.552 34.7785 410.192 35.4954 409.593 36.3344C408.992 37.1766 408.139 38.1541 406.646 39.6464L407.354 40.3536C408.861 38.8459 409.758 37.8234 410.407 36.9156C411.058 36.0046 411.448 35.2215 411.947 34.2236L411.053 33.7764Z" fill="#383B51"/>
<path d="M426.5 69.5C422.5 71.9 422.5 74 422 75.5C421.5 74.5 421 72.4 417 70C420 67 420.5 66 421.5 64C422 65 422.5 67.1 426.5 69.5Z" fill="#383B51"/>
<path d="M422 75.5L421.553 75.7236L422.093 76.8033L422.474 75.6581L422 75.5ZM426.5 69.5L426.757 69.9287L427.472 69.5L426.757 69.0713L426.5 69.5ZM421.5 64L421.947 63.7764L421.5 62.882L421.053 63.7764L421.5 64ZM417 70L416.646 69.6464L416.194 70.0993L416.743 70.4287L417 70ZM422.474 75.6581C422.759 74.8056 422.84 74.0419 423.375 73.0803C423.886 72.1604 424.815 71.094 426.757 69.9287L426.243 69.0713C424.185 70.306 423.114 71.4896 422.5 72.5947C421.91 73.6581 421.741 74.6944 421.526 75.3419L422.474 75.6581ZM421.053 64.2236C421.268 64.6539 421.564 65.525 422.282 66.5181C423.015 67.5306 424.194 68.6992 426.243 69.9287L426.757 69.0713C424.806 67.9008 423.735 66.8194 423.093 65.9319C422.436 65.025 422.232 64.3461 421.947 63.7764L421.053 64.2236ZM422.447 75.2764C422.232 74.8461 421.936 73.975 421.218 72.9819C420.485 71.9694 419.306 70.8008 417.257 69.5713L416.743 70.4287C418.694 71.5992 419.765 72.6806 420.407 73.5681C421.064 74.475 421.268 75.1539 421.553 75.7236L422.447 75.2764ZM421.053 63.7764C420.552 64.7785 420.192 65.4954 419.593 66.3344C418.992 67.1766 418.139 68.1541 416.646 69.6464L417.354 70.3536C418.861 68.8459 419.758 67.8234 420.407 66.9156C421.058 66.0046 421.448 65.2215 421.947 64.2236L421.053 63.7764Z" fill="#383B51"/>
<path d="M450.5 23.5C446.5 25.9 446.5 28 446 29.5C445.5 28.5 445 26.4 441 24C444 21 444.5 20 445.5 18C446 19 446.5 21.1 450.5 23.5Z" fill="#383B51"/>
<path d="M446 29.5L445.553 29.7236L446.093 30.8033L446.474 29.6581L446 29.5ZM450.5 23.5L450.757 23.9287L451.472 23.5L450.757 23.0713L450.5 23.5ZM445.5 18L445.947 17.7764L445.5 16.882L445.053 17.7764L445.5 18ZM441 24L440.646 23.6464L440.194 24.0993L440.743 24.4287L441 24ZM446.474 29.6581C446.759 28.8056 446.84 28.0419 447.375 27.0803C447.886 26.1604 448.815 25.094 450.757 23.9287L450.243 23.0713C448.185 24.306 447.114 25.4896 446.5 26.5947C445.91 27.6581 445.741 28.6944 445.526 29.3419L446.474 29.6581ZM445.053 18.2236C445.268 18.6539 445.564 19.525 446.282 20.5181C447.015 21.5306 448.194 22.6992 450.243 23.9287L450.757 23.0713C448.806 21.9008 447.735 20.8194 447.093 19.9319C446.436 19.025 446.232 18.3461 445.947 17.7764L445.053 18.2236ZM446.447 29.2764C446.232 28.8461 445.936 27.975 445.218 26.9819C444.485 25.9694 443.306 24.8008 441.257 23.5713L440.743 24.4287C442.694 25.5992 443.765 26.6806 444.407 27.5681C445.064 28.475 445.268 29.1539 445.553 29.7236L446.447 29.2764ZM445.053 17.7764C444.552 18.7785 444.192 19.4954 443.593 20.3344C442.992 21.1766 442.139 22.1541 440.646 23.6464L441.354 24.3536C442.861 22.8459 443.758 21.8234 444.407 20.9156C445.058 20.0046 445.448 19.2215 445.947 18.2236L445.053 17.7764Z" fill="#383B51"/>
<path d="M482.5 75.5C478.5 77.9 478.5 80 478 81.5C477.5 80.5 477 78.4 473 76C476 73 476.5 72 477.5 70C478 71 478.5 73.1 482.5 75.5Z" fill="#383B51"/>
<path d="M478 81.5L477.553 81.7236L478.093 82.8033L478.474 81.6581L478 81.5ZM482.5 75.5L482.757 75.9287L483.472 75.5L482.757 75.0713L482.5 75.5ZM477.5 70L477.947 69.7764L477.5 68.882L477.053 69.7764L477.5 70ZM473 76L472.646 75.6464L472.194 76.0993L472.743 76.4287L473 76ZM478.474 81.6581C478.759 80.8056 478.84 80.0419 479.375 79.0803C479.886 78.1604 480.815 77.094 482.757 75.9287L482.243 75.0713C480.185 76.306 479.114 77.4896 478.5 78.5947C477.91 79.6581 477.741 80.6944 477.526 81.3419L478.474 81.6581ZM477.053 70.2236C477.268 70.6539 477.564 71.525 478.282 72.5181C479.015 73.5306 480.194 74.6992 482.243 75.9287L482.757 75.0713C480.806 73.9008 479.735 72.8194 479.093 71.9319C478.436 71.025 478.232 70.3461 477.947 69.7764L477.053 70.2236ZM478.447 81.2764C478.232 80.8461 477.936 79.975 477.218 78.9819C476.485 77.9694 475.306 76.8008 473.257 75.5713L472.743 76.4287C474.694 77.5992 475.765 78.6806 476.407 79.5681C477.064 80.475 477.268 81.1539 477.553 81.7236L478.447 81.2764ZM477.053 69.7764C476.552 70.7785 476.192 71.4954 475.593 72.3344C474.992 73.1766 474.139 74.1541 472.646 75.6464L473.354 76.3536C474.861 74.8459 475.758 73.8234 476.407 72.9156C477.058 72.0046 477.448 71.2215 477.947 70.2236L477.053 69.7764Z" fill="#383B51"/>
<path d="M558.5 35.5C554.5 37.9 554.5 40 554 41.5C553.5 40.5 553 38.4 549 36C552 33 552.5 32 553.5 30C554 31 554.5 33.1 558.5 35.5Z" fill="#383B51"/>
<path d="M554 41.5L553.553 41.7236L554.093 42.8033L554.474 41.6581L554 41.5ZM558.5 35.5L558.757 35.9287L559.472 35.5L558.757 35.0713L558.5 35.5ZM553.5 30L553.947 29.7764L553.5 28.882L553.053 29.7764L553.5 30ZM549 36L548.646 35.6464L548.194 36.0993L548.743 36.4287L549 36ZM554.474 41.6581C554.759 40.8056 554.84 40.0419 555.375 39.0803C555.886 38.1604 556.815 37.094 558.757 35.9287L558.243 35.0713C556.185 36.306 555.114 37.4896 554.5 38.5947C553.91 39.6581 553.741 40.6944 553.526 41.3419L554.474 41.6581ZM553.053 30.2236C553.268 30.6539 553.564 31.525 554.282 32.5181C555.015 33.5306 556.194 34.6992 558.243 35.9287L558.757 35.0713C556.806 33.9008 555.735 32.8194 555.093 31.9319C554.436 31.025 554.232 30.3461 553.947 29.7764L553.053 30.2236ZM554.447 41.2764C554.232 40.8461 553.936 39.975 553.218 38.9819C552.485 37.9694 551.306 36.8008 549.257 35.5713L548.743 36.4287C550.694 37.5992 551.765 38.6806 552.407 39.5681C553.064 40.475 553.268 41.1539 553.553 41.7236L554.447 41.2764ZM553.053 29.7764C552.552 30.7785 552.192 31.4954 551.593 32.3344C550.992 33.1766 550.139 34.1541 548.646 35.6464L549.354 36.3536C550.861 34.8459 551.758 33.8234 552.407 32.9156C553.058 32.0046 553.448 31.2215 553.947 30.2236L553.053 29.7764Z" fill="#383B51"/>
<path d="M1268.5 18.5C1264.5 20.9 1264.5 23 1264 24.5C1263.5 23.5 1263 21.4 1259 19C1262 16 1262.5 15 1263.5 13C1264 14 1264.5 16.1 1268.5 18.5Z" fill="#383B51"/>
<path d="M1264 24.5L1263.55 24.7236L1264.09 25.8033L1264.47 24.6581L1264 24.5ZM1268.5 18.5L1268.76 18.9287L1269.47 18.5L1268.76 18.0713L1268.5 18.5ZM1263.5 13L1263.95 12.7764L1263.5 11.882L1263.05 12.7764L1263.5 13ZM1259 19L1258.65 18.6464L1258.19 19.0993L1258.74 19.4287L1259 19ZM1264.47 24.6581C1264.76 23.8056 1264.84 23.0419 1265.37 22.0803C1265.89 21.1604 1266.82 20.094 1268.76 18.9287L1268.24 18.0713C1266.18 19.306 1265.11 20.4896 1264.5 21.5947C1263.91 22.6581 1263.74 23.6944 1263.53 24.3419L1264.47 24.6581ZM1263.05 13.2236C1263.27 13.6539 1263.56 14.525 1264.28 15.5181C1265.02 16.5306 1266.19 17.6992 1268.24 18.9287L1268.76 18.0713C1266.81 16.9008 1265.73 15.8194 1265.09 14.9319C1264.44 14.025 1264.23 13.3461 1263.95 12.7764L1263.05 13.2236ZM1264.45 24.2764C1264.23 23.8461 1263.94 22.975 1263.22 21.9819C1262.48 20.9694 1261.31 19.8008 1259.26 18.5713L1258.74 19.4287C1260.69 20.5992 1261.77 21.6806 1262.41 22.5681C1263.06 23.475 1263.27 24.1539 1263.55 24.7236L1264.45 24.2764ZM1263.05 12.7764C1262.55 13.7785 1262.19 14.4954 1261.59 15.3344C1260.99 16.1766 1260.14 17.1541 1258.65 18.6464L1259.35 19.3536C1260.86 17.8459 1261.76 16.8234 1262.41 15.9156C1263.06 15.0046 1263.45 14.2215 1263.95 13.2236L1263.05 12.7764Z" fill="#383B51"/>
<path d="M1273.5 47.5C1269.5 49.9 1269.5 52 1269 53.5C1268.5 52.5 1268 50.4 1264 48C1267 45 1267.5 44 1268.5 42C1269 43 1269.5 45.1 1273.5 47.5Z" fill="#383B51"/>
<path d="M1269 53.5L1268.55 53.7236L1269.09 54.8033L1269.47 53.6581L1269 53.5ZM1273.5 47.5L1273.76 47.9287L1274.47 47.5L1273.76 47.0713L1273.5 47.5ZM1268.5 42L1268.95 41.7764L1268.5 40.882L1268.05 41.7764L1268.5 42ZM1264 48L1263.65 47.6464L1263.19 48.0993L1263.74 48.4287L1264 48ZM1269.47 53.6581C1269.76 52.8056 1269.84 52.0419 1270.37 51.0803C1270.89 50.1604 1271.82 49.094 1273.76 47.9287L1273.24 47.0713C1271.18 48.306 1270.11 49.4896 1269.5 50.5947C1268.91 51.6581 1268.74 52.6944 1268.53 53.3419L1269.47 53.6581ZM1268.05 42.2236C1268.27 42.6539 1268.56 43.525 1269.28 44.5181C1270.02 45.5306 1271.19 46.6992 1273.24 47.9287L1273.76 47.0713C1271.81 45.9008 1270.73 44.8194 1270.09 43.9319C1269.44 43.025 1269.23 42.3461 1268.95 41.7764L1268.05 42.2236ZM1269.45 53.2764C1269.23 52.8461 1268.94 51.975 1268.22 50.9819C1267.48 49.9694 1266.31 48.8008 1264.26 47.5713L1263.74 48.4287C1265.69 49.5992 1266.77 50.6806 1267.41 51.5681C1268.06 52.475 1268.27 53.1539 1268.55 53.7236L1269.45 53.2764ZM1268.05 41.7764C1267.55 42.7785 1267.19 43.4954 1266.59 44.3344C1265.99 45.1766 1265.14 46.1541 1263.65 47.6464L1264.35 48.3536C1265.86 46.8459 1266.76 45.8234 1267.41 44.9156C1268.06 44.0046 1268.45 43.2215 1268.95 42.2236L1268.05 41.7764Z" fill="#383B51"/>
<path d="M1310.5 24.5C1306.5 26.9 1306.5 29 1306 30.5C1305.5 29.5 1305 27.4 1301 25C1304 22 1304.5 21 1305.5 19C1306 20 1306.5 22.1 1310.5 24.5Z" fill="#383B51"/>
<path d="M1306 30.5L1305.55 30.7236L1306.09 31.8033L1306.47 30.6581L1306 30.5ZM1310.5 24.5L1310.76 24.9287L1311.47 24.5L1310.76 24.0713L1310.5 24.5ZM1305.5 19L1305.95 18.7764L1305.5 17.882L1305.05 18.7764L1305.5 19ZM1301 25L1300.65 24.6464L1300.19 25.0993L1300.74 25.4287L1301 25ZM1306.47 30.6581C1306.76 29.8056 1306.84 29.0419 1307.37 28.0803C1307.89 27.1604 1308.82 26.094 1310.76 24.9287L1310.24 24.0713C1308.18 25.306 1307.11 26.4896 1306.5 27.5947C1305.91 28.6581 1305.74 29.6944 1305.53 30.3419L1306.47 30.6581ZM1305.05 19.2236C1305.27 19.6539 1305.56 20.525 1306.28 21.5181C1307.02 22.5306 1308.19 23.6992 1310.24 24.9287L1310.76 24.0713C1308.81 22.9008 1307.73 21.8194 1307.09 20.9319C1306.44 20.025 1306.23 19.3461 1305.95 18.7764L1305.05 19.2236ZM1306.45 30.2764C1306.23 29.8461 1305.94 28.975 1305.22 27.9819C1304.48 26.9694 1303.31 25.8008 1301.26 24.5713L1300.74 25.4287C1302.69 26.5992 1303.77 27.6806 1304.41 28.5681C1305.06 29.475 1305.27 30.1539 1305.55 30.7236L1306.45 30.2764ZM1305.05 18.7764C1304.55 19.7785 1304.19 20.4954 1303.59 21.3344C1302.99 22.1766 1302.14 23.1541 1300.65 24.6464L1301.35 25.3536C1302.86 23.8459 1303.76 22.8234 1304.41 21.9156C1305.06 21.0046 1305.45 20.2215 1305.95 19.2236L1305.05 18.7764Z" fill="#383B51"/>
<path d="M1351.5 76.5C1347.5 78.9 1347.5 81 1347 82.5C1346.5 81.5 1346 79.4 1342 77C1345 74 1345.5 73 1346.5 71C1347 72 1347.5 74.1 1351.5 76.5Z" fill="#383B51"/>
<path d="M1347 82.5L1346.55 82.7236L1347.09 83.8033L1347.47 82.6581L1347 82.5ZM1351.5 76.5L1351.76 76.9287L1352.47 76.5L1351.76 76.0713L1351.5 76.5ZM1346.5 71L1346.95 70.7764L1346.5 69.882L1346.05 70.7764L1346.5 71ZM1342 77L1341.65 76.6464L1341.19 77.0993L1341.74 77.4287L1342 77ZM1347.47 82.6581C1347.76 81.8056 1347.84 81.0419 1348.37 80.0803C1348.89 79.1604 1349.82 78.094 1351.76 76.9287L1351.24 76.0713C1349.18 77.306 1348.11 78.4896 1347.5 79.5947C1346.91 80.6581 1346.74 81.6944 1346.53 82.3419L1347.47 82.6581ZM1346.05 71.2236C1346.27 71.6539 1346.56 72.525 1347.28 73.5181C1348.02 74.5306 1349.19 75.6992 1351.24 76.9287L1351.76 76.0713C1349.81 74.9008 1348.73 73.8194 1348.09 72.9319C1347.44 72.025 1347.23 71.3461 1346.95 70.7764L1346.05 71.2236ZM1347.45 82.2764C1347.23 81.8461 1346.94 80.975 1346.22 79.9819C1345.48 78.9694 1344.31 77.8008 1342.26 76.5713L1341.74 77.4287C1343.69 78.5992 1344.77 79.6806 1345.41 80.5681C1346.06 81.475 1346.27 82.1539 1346.55 82.7236L1347.45 82.2764ZM1346.05 70.7764C1345.55 71.7785 1345.19 72.4954 1344.59 73.3344C1343.99 74.1766 1343.14 75.1541 1341.65 76.6464L1342.35 77.3536C1343.86 75.8459 1344.76 74.8234 1345.41 73.9156C1346.06 73.0046 1346.45 72.2215 1346.95 71.2236L1346.05 70.7764Z" fill="#383B51"/>
<path d="M1361.5 44.5C1357.5 46.9 1357.5 49 1357 50.5C1356.5 49.5 1356 47.4 1352 45C1355 42 1355.5 41 1356.5 39C1357 40 1357.5 42.1 1361.5 44.5Z" fill="#383B51"/>
<path d="M1357 50.5L1356.55 50.7236L1357.09 51.8033L1357.47 50.6581L1357 50.5ZM1361.5 44.5L1361.76 44.9287L1362.47 44.5L1361.76 44.0713L1361.5 44.5ZM1356.5 39L1356.95 38.7764L1356.5 37.882L1356.05 38.7764L1356.5 39ZM1352 45L1351.65 44.6464L1351.19 45.0993L1351.74 45.4287L1352 45ZM1357.47 50.6581C1357.76 49.8056 1357.84 49.0419 1358.37 48.0803C1358.89 47.1604 1359.82 46.094 1361.76 44.9287L1361.24 44.0713C1359.18 45.306 1358.11 46.4896 1357.5 47.5947C1356.91 48.6581 1356.74 49.6944 1356.53 50.3419L1357.47 50.6581ZM1356.05 39.2236C1356.27 39.6539 1356.56 40.525 1357.28 41.5181C1358.02 42.5306 1359.19 43.6992 1361.24 44.9287L1361.76 44.0713C1359.81 42.9008 1358.73 41.8194 1358.09 40.9319C1357.44 40.025 1357.23 39.3461 1356.95 38.7764L1356.05 39.2236ZM1357.45 50.2764C1357.23 49.8461 1356.94 48.975 1356.22 47.9819C1355.48 46.9694 1354.31 45.8008 1352.26 44.5713L1351.74 45.4287C1353.69 46.5992 1354.77 47.6806 1355.41 48.5681C1356.06 49.475 1356.27 50.1539 1356.55 50.7236L1357.45 50.2764ZM1356.05 38.7764C1355.55 39.7785 1355.19 40.4954 1354.59 41.3344C1353.99 42.1766 1353.14 43.1541 1351.65 44.6464L1352.35 45.3536C1353.86 43.8459 1354.76 42.8234 1355.41 41.9156C1356.06 41.0046 1356.45 40.2215 1356.95 39.2236L1356.05 38.7764Z" fill="#383B51"/>
<path d="M1388.5 76.5C1384.5 78.9 1384.5 81 1384 82.5C1383.5 81.5 1383 79.4 1379 77C1382 74 1382.5 73 1383.5 71C1384 72 1384.5 74.1 1388.5 76.5Z" fill="#383B51"/>
<path d="M1384 82.5L1383.55 82.7236L1384.09 83.8033L1384.47 82.6581L1384 82.5ZM1388.5 76.5L1388.76 76.9287L1389.47 76.5L1388.76 76.0713L1388.5 76.5ZM1383.5 71L1383.95 70.7764L1383.5 69.882L1383.05 70.7764L1383.5 71ZM1379 77L1378.65 76.6464L1378.19 77.0993L1378.74 77.4287L1379 77ZM1384.47 82.6581C1384.76 81.8056 1384.84 81.0419 1385.37 80.0803C1385.89 79.1604 1386.82 78.094 1388.76 76.9287L1388.24 76.0713C1386.18 77.306 1385.11 78.4896 1384.5 79.5947C1383.91 80.6581 1383.74 81.6944 1383.53 82.3419L1384.47 82.6581ZM1383.05 71.2236C1383.27 71.6539 1383.56 72.525 1384.28 73.5181C1385.02 74.5306 1386.19 75.6992 1388.24 76.9287L1388.76 76.0713C1386.81 74.9008 1385.73 73.8194 1385.09 72.9319C1384.44 72.025 1384.23 71.3461 1383.95 70.7764L1383.05 71.2236ZM1384.45 82.2764C1384.23 81.8461 1383.94 80.975 1383.22 79.9819C1382.48 78.9694 1381.31 77.8008 1379.26 76.5713L1378.74 77.4287C1380.69 78.5992 1381.77 79.6806 1382.41 80.5681C1383.06 81.475 1383.27 82.1539 1383.55 82.7236L1384.45 82.2764ZM1383.05 70.7764C1382.55 71.7785 1382.19 72.4954 1381.59 73.3344C1380.99 74.1766 1380.14 75.1541 1378.65 76.6464L1379.35 77.3536C1380.86 75.8459 1381.76 74.8234 1382.41 73.9156C1383.06 73.0046 1383.45 72.2215 1383.95 71.2236L1383.05 70.7764Z" fill="#383B51"/>
<path d="M1408.5 36.5C1404.5 38.9 1404.5 41 1404 42.5C1403.5 41.5 1403 39.4 1399 37C1402 34 1402.5 33 1403.5 31C1404 32 1404.5 34.1 1408.5 36.5Z" fill="#383B51"/>
<path d="M1404 42.5L1403.55 42.7236L1404.09 43.8033L1404.47 42.6581L1404 42.5ZM1408.5 36.5L1408.76 36.9287L1409.47 36.5L1408.76 36.0713L1408.5 36.5ZM1403.5 31L1403.95 30.7764L1403.5 29.882L1403.05 30.7764L1403.5 31ZM1399 37L1398.65 36.6464L1398.19 37.0993L1398.74 37.4287L1399 37ZM1404.47 42.6581C1404.76 41.8056 1404.84 41.0419 1405.37 40.0803C1405.89 39.1604 1406.82 38.094 1408.76 36.9287L1408.24 36.0713C1406.18 37.306 1405.11 38.4896 1404.5 39.5947C1403.91 40.6581 1403.74 41.6944 1403.53 42.3419L1404.47 42.6581ZM1403.05 31.2236C1403.27 31.6539 1403.56 32.525 1404.28 33.5181C1405.02 34.5306 1406.19 35.6992 1408.24 36.9287L1408.76 36.0713C1406.81 34.9008 1405.73 33.8194 1405.09 32.9319C1404.44 32.025 1404.23 31.3461 1403.95 30.7764L1403.05 31.2236ZM1404.45 42.2764C1404.23 41.8461 1403.94 40.975 1403.22 39.9819C1402.48 38.9694 1401.31 37.8008 1399.26 36.5713L1398.74 37.4287C1400.69 38.5992 1401.77 39.6806 1402.41 40.5681C1403.06 41.475 1403.27 42.1539 1403.55 42.7236L1404.45 42.2764ZM1403.05 30.7764C1402.55 31.7785 1402.19 32.4954 1401.59 33.3344C1400.99 34.1766 1400.14 35.1541 1398.65 36.6464L1399.35 37.3536C1400.86 35.8459 1401.76 34.8234 1402.41 33.9156C1403.06 33.0046 1403.45 32.2215 1403.95 31.2236L1403.05 30.7764Z" fill="#383B51"/>
<path d="M1418.5 63.5C1414.5 65.9 1414.5 68 1414 69.5C1413.5 68.5 1413 66.4 1409 64C1412 61 1412.5 60 1413.5 58C1414 59 1414.5 61.1 1418.5 63.5Z" fill="#383B51"/>
<path d="M1414 69.5L1413.55 69.7236L1414.09 70.8033L1414.47 69.6581L1414 69.5ZM1418.5 63.5L1418.76 63.9287L1419.47 63.5L1418.76 63.0713L1418.5 63.5ZM1413.5 58L1413.95 57.7764L1413.5 56.882L1413.05 57.7764L1413.5 58ZM1409 64L1408.65 63.6464L1408.19 64.0993L1408.74 64.4287L1409 64ZM1414.47 69.6581C1414.76 68.8056 1414.84 68.0419 1415.37 67.0803C1415.89 66.1604 1416.82 65.094 1418.76 63.9287L1418.24 63.0713C1416.18 64.306 1415.11 65.4896 1414.5 66.5947C1413.91 67.6581 1413.74 68.6944 1413.53 69.3419L1414.47 69.6581ZM1413.05 58.2236C1413.27 58.6539 1413.56 59.525 1414.28 60.5181C1415.02 61.5306 1416.19 62.6992 1418.24 63.9287L1418.76 63.0713C1416.81 61.9008 1415.73 60.8194 1415.09 59.9319C1414.44 59.025 1414.23 58.3461 1413.95 57.7764L1413.05 58.2236ZM1414.45 69.2764C1414.23 68.8461 1413.94 67.975 1413.22 66.9819C1412.48 65.9694 1411.31 64.8008 1409.26 63.5713L1408.74 64.4287C1410.69 65.5992 1411.77 66.6806 1412.41 67.5681C1413.06 68.475 1413.27 69.1539 1413.55 69.7236L1414.45 69.2764ZM1413.05 57.7764C1412.55 58.7785 1412.19 59.4954 1411.59 60.3344C1410.99 61.1766 1410.14 62.1541 1408.65 63.6464L1409.35 64.3536C1410.86 62.8459 1411.76 61.8234 1412.41 60.9156C1413.06 60.0046 1413.45 59.2215 1413.95 58.2236L1413.05 57.7764Z" fill="#383B51"/>
<path d="M1455.5 41.5C1451.5 43.9 1451.5 46 1451 47.5C1450.5 46.5 1450 44.4 1446 42C1449 39 1449.5 38 1450.5 36C1451 37 1451.5 39.1 1455.5 41.5Z" fill="#383B51"/>
<path d="M1451 47.5L1450.55 47.7236L1451.09 48.8033L1451.47 47.6581L1451 47.5ZM1455.5 41.5L1455.76 41.9287L1456.47 41.5L1455.76 41.0713L1455.5 41.5ZM1450.5 36L1450.95 35.7764L1450.5 34.882L1450.05 35.7764L1450.5 36ZM1446 42L1445.65 41.6464L1445.19 42.0993L1445.74 42.4287L1446 42ZM1451.47 47.6581C1451.76 46.8056 1451.84 46.0419 1452.37 45.0803C1452.89 44.1604 1453.82 43.094 1455.76 41.9287L1455.24 41.0713C1453.18 42.306 1452.11 43.4896 1451.5 44.5947C1450.91 45.6581 1450.74 46.6944 1450.53 47.3419L1451.47 47.6581ZM1450.05 36.2236C1450.27 36.6539 1450.56 37.525 1451.28 38.5181C1452.02 39.5306 1453.19 40.6992 1455.24 41.9287L1455.76 41.0713C1453.81 39.9008 1452.73 38.8194 1452.09 37.9319C1451.44 37.025 1451.23 36.3461 1450.95 35.7764L1450.05 36.2236ZM1451.45 47.2764C1451.23 46.8461 1450.94 45.975 1450.22 44.9819C1449.48 43.9694 1448.31 42.8008 1446.26 41.5713L1445.74 42.4287C1447.69 43.5992 1448.77 44.6806 1449.41 45.5681C1450.06 46.475 1450.27 47.1539 1450.55 47.7236L1451.45 47.2764ZM1450.05 35.7764C1449.55 36.7785 1449.19 37.4954 1448.59 38.3344C1447.99 39.1766 1447.14 40.1541 1445.65 41.6464L1446.35 42.3536C1447.86 40.8459 1448.76 39.8234 1449.41 38.9156C1450.06 38.0046 1450.45 37.2215 1450.95 36.2236L1450.05 35.7764Z" fill="#383B51"/>
<path d="M1445.5 75.5C1441.5 77.9 1441.5 80 1441 81.5C1440.5 80.5 1440 78.4 1436 76C1439 73 1439.5 72 1440.5 70C1441 71 1441.5 73.1 1445.5 75.5Z" fill="#383B51"/>
<path d="M1441 81.5L1440.55 81.7236L1441.09 82.8033L1441.47 81.6581L1441 81.5ZM1445.5 75.5L1445.76 75.9287L1446.47 75.5L1445.76 75.0713L1445.5 75.5ZM1440.5 70L1440.95 69.7764L1440.5 68.882L1440.05 69.7764L1440.5 70ZM1436 76L1435.65 75.6464L1435.19 76.0993L1435.74 76.4287L1436 76ZM1441.47 81.6581C1441.76 80.8056 1441.84 80.0419 1442.37 79.0803C1442.89 78.1604 1443.82 77.094 1445.76 75.9287L1445.24 75.0713C1443.18 76.306 1442.11 77.4896 1441.5 78.5947C1440.91 79.6581 1440.74 80.6944 1440.53 81.3419L1441.47 81.6581ZM1440.05 70.2236C1440.27 70.6539 1440.56 71.525 1441.28 72.5181C1442.02 73.5306 1443.19 74.6992 1445.24 75.9287L1445.76 75.0713C1443.81 73.9008 1442.73 72.8194 1442.09 71.9319C1441.44 71.025 1441.23 70.3461 1440.95 69.7764L1440.05 70.2236ZM1441.45 81.2764C1441.23 80.8461 1440.94 79.975 1440.22 78.9819C1439.48 77.9694 1438.31 76.8008 1436.26 75.5713L1435.74 76.4287C1437.69 77.5992 1438.77 78.6806 1439.41 79.5681C1440.06 80.475 1440.27 81.1539 1440.55 81.7236L1441.45 81.2764ZM1440.05 69.7764C1439.55 70.7785 1439.19 71.4954 1438.59 72.3344C1437.99 73.1766 1437.14 74.1541 1435.65 75.6464L1436.35 76.3536C1437.86 74.8459 1438.76 73.8234 1439.41 72.9156C1440.06 72.0046 1440.45 71.2215 1440.95 70.2236L1440.05 69.7764Z" fill="#383B51"/>
<path d="M1482.5 65.5C1478.5 67.9 1478.5 70 1478 71.5C1477.5 70.5 1477 68.4 1473 66C1476 63 1476.5 62 1477.5 60C1478 61 1478.5 63.1 1482.5 65.5Z" fill="#383B51"/>
<path d="M1478 71.5L1477.55 71.7236L1478.09 72.8033L1478.47 71.6581L1478 71.5ZM1482.5 65.5L1482.76 65.9287L1483.47 65.5L1482.76 65.0713L1482.5 65.5ZM1477.5 60L1477.95 59.7764L1477.5 58.882L1477.05 59.7764L1477.5 60ZM1473 66L1472.65 65.6464L1472.19 66.0993L1472.74 66.4287L1473 66ZM1478.47 71.6581C1478.76 70.8056 1478.84 70.0419 1479.37 69.0803C1479.89 68.1604 1480.82 67.094 1482.76 65.9287L1482.24 65.0713C1480.18 66.306 1479.11 67.4896 1478.5 68.5947C1477.91 69.6581 1477.74 70.6944 1477.53 71.3419L1478.47 71.6581ZM1477.05 60.2236C1477.27 60.6539 1477.56 61.525 1478.28 62.5181C1479.02 63.5306 1480.19 64.6992 1482.24 65.9287L1482.76 65.0713C1480.81 63.9008 1479.73 62.8194 1479.09 61.9319C1478.44 61.025 1478.23 60.3461 1477.95 59.7764L1477.05 60.2236ZM1478.45 71.2764C1478.23 70.8461 1477.94 69.975 1477.22 68.9819C1476.48 67.9694 1475.31 66.8008 1473.26 65.5713L1472.74 66.4287C1474.69 67.5992 1475.77 68.6806 1476.41 69.5681C1477.06 70.475 1477.27 71.1539 1477.55 71.7236L1478.45 71.2764ZM1477.05 59.7764C1476.55 60.7785 1476.19 61.4954 1475.59 62.3344C1474.99 63.1766 1474.14 64.1541 1472.65 65.6464L1473.35 66.3536C1474.86 64.8459 1475.76 63.8234 1476.41 62.9156C1477.06 62.0046 1477.45 61.2215 1477.95 60.2236L1477.05 59.7764Z" fill="#383B51"/>
<path d="M1506.5 33.5C1502.5 35.9 1502.5 38 1502 39.5C1501.5 38.5 1501 36.4 1497 34C1500 31 1500.5 30 1501.5 28C1502 29 1502.5 31.1 1506.5 33.5Z" fill="#383B51"/>
<path d="M1502 39.5L1501.55 39.7236L1502.09 40.8033L1502.47 39.6581L1502 39.5ZM1506.5 33.5L1506.76 33.9287L1507.47 33.5L1506.76 33.0713L1506.5 33.5ZM1501.5 28L1501.95 27.7764L1501.5 26.882L1501.05 27.7764L1501.5 28ZM1497 34L1496.65 33.6464L1496.19 34.0993L1496.74 34.4287L1497 34ZM1502.47 39.6581C1502.76 38.8056 1502.84 38.0419 1503.37 37.0803C1503.89 36.1604 1504.82 35.094 1506.76 33.9287L1506.24 33.0713C1504.18 34.306 1503.11 35.4896 1502.5 36.5947C1501.91 37.6581 1501.74 38.6944 1501.53 39.3419L1502.47 39.6581ZM1501.05 28.2236C1501.27 28.6539 1501.56 29.525 1502.28 30.5181C1503.02 31.5306 1504.19 32.6992 1506.24 33.9287L1506.76 33.0713C1504.81 31.9008 1503.73 30.8194 1503.09 29.9319C1502.44 29.025 1502.23 28.3461 1501.95 27.7764L1501.05 28.2236ZM1502.45 39.2764C1502.23 38.8461 1501.94 37.975 1501.22 36.9819C1500.48 35.9694 1499.31 34.8008 1497.26 33.5713L1496.74 34.4287C1498.69 35.5992 1499.77 36.6806 1500.41 37.5681C1501.06 38.475 1501.27 39.1539 1501.55 39.7236L1502.45 39.2764ZM1501.05 27.7764C1500.55 28.7785 1500.19 29.4954 1499.59 30.3344C1498.99 31.1766 1498.14 32.1541 1496.65 33.6464L1497.35 34.3536C1498.86 32.8459 1499.76 31.8234 1500.41 30.9156C1501.06 30.0046 1501.45 29.2215 1501.95 28.2236L1501.05 27.7764Z" fill="#383B51"/>
<path d="M1538.5 71.5C1534.5 73.9 1534.5 76 1534 77.5C1533.5 76.5 1533 74.4 1529 72C1532 69 1532.5 68 1533.5 66C1534 67 1534.5 69.1 1538.5 71.5Z" fill="#383B51"/>
<path d="M1534 77.5L1533.55 77.7236L1534.09 78.8033L1534.47 77.6581L1534 77.5ZM1538.5 71.5L1538.76 71.9287L1539.47 71.5L1538.76 71.0713L1538.5 71.5ZM1533.5 66L1533.95 65.7764L1533.5 64.882L1533.05 65.7764L1533.5 66ZM1529 72L1528.65 71.6464L1528.19 72.0993L1528.74 72.4287L1529 72ZM1534.47 77.6581C1534.76 76.8056 1534.84 76.0419 1535.37 75.0803C1535.89 74.1604 1536.82 73.094 1538.76 71.9287L1538.24 71.0713C1536.18 72.306 1535.11 73.4896 1534.5 74.5947C1533.91 75.6581 1533.74 76.6944 1533.53 77.3419L1534.47 77.6581ZM1533.05 66.2236C1533.27 66.6539 1533.56 67.525 1534.28 68.5181C1535.02 69.5306 1536.19 70.6992 1538.24 71.9287L1538.76 71.0713C1536.81 69.9008 1535.73 68.8194 1535.09 67.9319C1534.44 67.025 1534.23 66.3461 1533.95 65.7764L1533.05 66.2236ZM1534.45 77.2764C1534.23 76.8461 1533.94 75.975 1533.22 74.9819C1532.48 73.9694 1531.31 72.8008 1529.26 71.5713L1528.74 72.4287C1530.69 73.5992 1531.77 74.6806 1532.41 75.5681C1533.06 76.475 1533.27 77.1539 1533.55 77.7236L1534.45 77.2764ZM1533.05 65.7764C1532.55 66.7785 1532.19 67.4954 1531.59 68.3344C1530.99 69.1766 1530.14 70.1541 1528.65 71.6464L1529.35 72.3536C1530.86 70.8459 1531.76 69.8234 1532.41 68.9156C1533.06 68.0046 1533.45 67.2215 1533.95 66.2236L1533.05 65.7764Z" fill="#383B51"/>
<path d="M1423.5 12.5C1419.5 14.9 1419.5 17 1419 18.5C1418.5 17.5 1418 15.4 1414 13C1417 10 1417.5 9 1418.5 7C1419 8 1419.5 10.1 1423.5 12.5Z" fill="#383B51"/>
<path d="M1419 18.5L1418.55 18.7236L1419.09 19.8033L1419.47 18.6581L1419 18.5ZM1423.5 12.5L1423.76 12.9287L1424.47 12.5L1423.76 12.0713L1423.5 12.5ZM1418.5 7L1418.95 6.77639L1418.5 5.88197L1418.05 6.77639L1418.5 7ZM1414 13L1413.65 12.6464L1413.19 13.0993L1413.74 13.4287L1414 13ZM1419.47 18.6581C1419.76 17.8056 1419.84 17.0419 1420.37 16.0803C1420.89 15.1604 1421.82 14.094 1423.76 12.9287L1423.24 12.0713C1421.18 13.306 1420.11 14.4896 1419.5 15.5947C1418.91 16.6581 1418.74 17.6944 1418.53 18.3419L1419.47 18.6581ZM1418.05 7.22361C1418.27 7.6539 1418.56 8.52502 1419.28 9.51813C1420.02 10.5306 1421.19 11.6992 1423.24 12.9287L1423.76 12.0713C1421.81 10.9008 1420.73 9.81944 1420.09 8.93187C1419.44 8.02498 1419.23 7.3461 1418.95 6.77639L1418.05 7.22361ZM1419.45 18.2764C1419.23 17.8461 1418.94 16.975 1418.22 15.9819C1417.48 14.9694 1416.31 13.8008 1414.26 12.5713L1413.74 13.4287C1415.69 14.5992 1416.77 15.6806 1417.41 16.5681C1418.06 17.475 1418.27 18.1539 1418.55 18.7236L1419.45 18.2764ZM1418.05 6.77639C1417.55 7.77851 1417.19 8.49538 1416.59 9.33438C1415.99 10.1766 1415.14 11.1541 1413.65 12.6464L1414.35 13.3536C1415.86 11.8459 1416.76 10.8234 1417.41 9.91562C1418.06 9.00462 1418.45 8.22149 1418.95 7.22361L1418.05 6.77639Z" fill="#383B51"/>
<path d="M1564.5 19.5C1560.5 21.9 1560.5 24 1560 25.5C1559.5 24.5 1559 22.4 1555 20C1558 17 1558.5 16 1559.5 14C1560 15 1560.5 17.1 1564.5 19.5Z" fill="#383B51"/>
<path d="M1560 25.5L1559.55 25.7236L1560.09 26.8033L1560.47 25.6581L1560 25.5ZM1564.5 19.5L1564.76 19.9287L1565.47 19.5L1564.76 19.0713L1564.5 19.5ZM1559.5 14L1559.95 13.7764L1559.5 12.882L1559.05 13.7764L1559.5 14ZM1555 20L1554.65 19.6464L1554.19 20.0993L1554.74 20.4287L1555 20ZM1560.47 25.6581C1560.76 24.8056 1560.84 24.0419 1561.37 23.0803C1561.89 22.1604 1562.82 21.094 1564.76 19.9287L1564.24 19.0713C1562.18 20.306 1561.11 21.4896 1560.5 22.5947C1559.91 23.6581 1559.74 24.6944 1559.53 25.3419L1560.47 25.6581ZM1559.05 14.2236C1559.27 14.6539 1559.56 15.525 1560.28 16.5181C1561.02 17.5306 1562.19 18.6992 1564.24 19.9287L1564.76 19.0713C1562.81 17.9008 1561.73 16.8194 1561.09 15.9319C1560.44 15.025 1560.23 14.3461 1559.95 13.7764L1559.05 14.2236ZM1560.45 25.2764C1560.23 24.8461 1559.94 23.975 1559.22 22.9819C1558.48 21.9694 1557.31 20.8008 1555.26 19.5713L1554.74 20.4287C1556.69 21.5992 1557.77 22.6806 1558.41 23.5681C1559.06 24.475 1559.27 25.1539 1559.55 25.7236L1560.45 25.2764ZM1559.05 13.7764C1558.55 14.7785 1558.19 15.4954 1557.59 16.3344C1556.99 17.1766 1556.14 18.1541 1554.65 19.6464L1555.35 20.3536C1556.86 18.8459 1557.76 17.8234 1558.41 16.9156C1559.06 16.0046 1559.45 15.2215 1559.95 14.2236L1559.05 13.7764Z" fill="#383B51"/>
<path d="M1528.5 18.5C1524.5 20.9 1524.5 23 1524 24.5C1523.5 23.5 1523 21.4 1519 19C1522 16 1522.5 15 1523.5 13C1524 14 1524.5 16.1 1528.5 18.5Z" fill="#383B51"/>
<path d="M1524 24.5L1523.55 24.7236L1524.09 25.8033L1524.47 24.6581L1524 24.5ZM1528.5 18.5L1528.76 18.9287L1529.47 18.5L1528.76 18.0713L1528.5 18.5ZM1523.5 13L1523.95 12.7764L1523.5 11.882L1523.05 12.7764L1523.5 13ZM1519 19L1518.65 18.6464L1518.19 19.0993L1518.74 19.4287L1519 19ZM1524.47 24.6581C1524.76 23.8056 1524.84 23.0419 1525.37 22.0803C1525.89 21.1604 1526.82 20.094 1528.76 18.9287L1528.24 18.0713C1526.18 19.306 1525.11 20.4896 1524.5 21.5947C1523.91 22.6581 1523.74 23.6944 1523.53 24.3419L1524.47 24.6581ZM1523.05 13.2236C1523.27 13.6539 1523.56 14.525 1524.28 15.5181C1525.02 16.5306 1526.19 17.6992 1528.24 18.9287L1528.76 18.0713C1526.81 16.9008 1525.73 15.8194 1525.09 14.9319C1524.44 14.025 1524.23 13.3461 1523.95 12.7764L1523.05 13.2236ZM1524.45 24.2764C1524.23 23.8461 1523.94 22.975 1523.22 21.9819C1522.48 20.9694 1521.31 19.8008 1519.26 18.5713L1518.74 19.4287C1520.69 20.5992 1521.77 21.6806 1522.41 22.5681C1523.06 23.475 1523.27 24.1539 1523.55 24.7236L1524.45 24.2764ZM1523.05 12.7764C1522.55 13.7785 1522.19 14.4954 1521.59 15.3344C1520.99 16.1766 1520.14 17.1541 1518.65 18.6464L1519.35 19.3536C1520.86 17.8459 1521.76 16.8234 1522.41 15.9156C1523.06 15.0046 1523.45 14.2215 1523.95 13.2236L1523.05 12.7764Z" fill="#383B51"/>
<path d="M1600.5 50.5C1596.5 52.9 1596.5 55 1596 56.5C1595.5 55.5 1595 53.4 1591 51C1594 48 1594.5 47 1595.5 45C1596 46 1596.5 48.1 1600.5 50.5Z" fill="#383B51"/>
<path d="M1596 56.5L1595.55 56.7236L1596.09 57.8033L1596.47 56.6581L1596 56.5ZM1600.5 50.5L1600.76 50.9287L1601.47 50.5L1600.76 50.0713L1600.5 50.5ZM1595.5 45L1595.95 44.7764L1595.5 43.882L1595.05 44.7764L1595.5 45ZM1591 51L1590.65 50.6464L1590.19 51.0993L1590.74 51.4287L1591 51ZM1596.47 56.6581C1596.76 55.8056 1596.84 55.0419 1597.37 54.0803C1597.89 53.1604 1598.82 52.094 1600.76 50.9287L1600.24 50.0713C1598.18 51.306 1597.11 52.4896 1596.5 53.5947C1595.91 54.6581 1595.74 55.6944 1595.53 56.3419L1596.47 56.6581ZM1595.05 45.2236C1595.27 45.6539 1595.56 46.525 1596.28 47.5181C1597.02 48.5306 1598.19 49.6992 1600.24 50.9287L1600.76 50.0713C1598.81 48.9008 1597.73 47.8194 1597.09 46.9319C1596.44 46.025 1596.23 45.3461 1595.95 44.7764L1595.05 45.2236ZM1596.45 56.2764C1596.23 55.8461 1595.94 54.975 1595.22 53.9819C1594.48 52.9694 1593.31 51.8008 1591.26 50.5713L1590.74 51.4287C1592.69 52.5992 1593.77 53.6806 1594.41 54.5681C1595.06 55.475 1595.27 56.1539 1595.55 56.7236L1596.45 56.2764ZM1595.05 44.7764C1594.55 45.7785 1594.19 46.4954 1593.59 47.3344C1592.99 48.1766 1592.14 49.1541 1590.65 50.6464L1591.35 51.3536C1592.86 49.8459 1593.76 48.8234 1594.41 47.9156C1595.06 47.0046 1595.45 46.2215 1595.95 45.2236L1595.05 44.7764Z" fill="#383B51"/>
<path d="M1605.5 75.5C1601.5 77.9 1601.5 80 1601 81.5C1600.5 80.5 1600 78.4 1596 76C1599 73 1599.5 72 1600.5 70C1601 71 1601.5 73.1 1605.5 75.5Z" fill="#383B51"/>
<path d="M1601 81.5L1600.55 81.7236L1601.09 82.8033L1601.47 81.6581L1601 81.5ZM1605.5 75.5L1605.76 75.9287L1606.47 75.5L1605.76 75.0713L1605.5 75.5ZM1600.5 70L1600.95 69.7764L1600.5 68.882L1600.05 69.7764L1600.5 70ZM1596 76L1595.65 75.6464L1595.19 76.0993L1595.74 76.4287L1596 76ZM1601.47 81.6581C1601.76 80.8056 1601.84 80.0419 1602.37 79.0803C1602.89 78.1604 1603.82 77.094 1605.76 75.9287L1605.24 75.0713C1603.18 76.306 1602.11 77.4896 1601.5 78.5947C1600.91 79.6581 1600.74 80.6944 1600.53 81.3419L1601.47 81.6581ZM1600.05 70.2236C1600.27 70.6539 1600.56 71.525 1601.28 72.5181C1602.02 73.5306 1603.19 74.6992 1605.24 75.9287L1605.76 75.0713C1603.81 73.9008 1602.73 72.8194 1602.09 71.9319C1601.44 71.025 1601.23 70.3461 1600.95 69.7764L1600.05 70.2236ZM1601.45 81.2764C1601.23 80.8461 1600.94 79.975 1600.22 78.9819C1599.48 77.9694 1598.31 76.8008 1596.26 75.5713L1595.74 76.4287C1597.69 77.5992 1598.77 78.6806 1599.41 79.5681C1600.06 80.475 1600.27 81.1539 1600.55 81.7236L1601.45 81.2764ZM1600.05 69.7764C1599.55 70.7785 1599.19 71.4954 1598.59 72.3344C1597.99 73.1766 1597.14 74.1541 1595.65 75.6464L1596.35 76.3536C1597.86 74.8459 1598.76 73.8234 1599.41 72.9156C1600.06 72.0046 1600.45 71.2215 1600.95 70.2236L1600.05 69.7764Z" fill="#383B51"/>
<path d="M1640.5 28.5C1636.5 30.9 1636.5 33 1636 34.5C1635.5 33.5 1635 31.4 1631 29C1634 26 1634.5 25 1635.5 23C1636 24 1636.5 26.1 1640.5 28.5Z" fill="#383B51"/>
<path d="M1636 34.5L1635.55 34.7236L1636.09 35.8033L1636.47 34.6581L1636 34.5ZM1640.5 28.5L1640.76 28.9287L1641.47 28.5L1640.76 28.0713L1640.5 28.5ZM1635.5 23L1635.95 22.7764L1635.5 21.882L1635.05 22.7764L1635.5 23ZM1631 29L1630.65 28.6464L1630.19 29.0993L1630.74 29.4287L1631 29ZM1636.47 34.6581C1636.76 33.8056 1636.84 33.0419 1637.37 32.0803C1637.89 31.1604 1638.82 30.094 1640.76 28.9287L1640.24 28.0713C1638.18 29.306 1637.11 30.4896 1636.5 31.5947C1635.91 32.6581 1635.74 33.6944 1635.53 34.3419L1636.47 34.6581ZM1635.05 23.2236C1635.27 23.6539 1635.56 24.525 1636.28 25.5181C1637.02 26.5306 1638.19 27.6992 1640.24 28.9287L1640.76 28.0713C1638.81 26.9008 1637.73 25.8194 1637.09 24.9319C1636.44 24.025 1636.23 23.3461 1635.95 22.7764L1635.05 23.2236ZM1636.45 34.2764C1636.23 33.8461 1635.94 32.975 1635.22 31.9819C1634.48 30.9694 1633.31 29.8008 1631.26 28.5713L1630.74 29.4287C1632.69 30.5992 1633.77 31.6806 1634.41 32.5681C1635.06 33.475 1635.27 34.1539 1635.55 34.7236L1636.45 34.2764ZM1635.05 22.7764C1634.55 23.7785 1634.19 24.4954 1633.59 25.3344C1632.99 26.1766 1632.14 27.1541 1630.65 28.6464L1631.35 29.3536C1632.86 27.8459 1633.76 26.8234 1634.41 25.9156C1635.06 25.0046 1635.45 24.2215 1635.95 23.2236L1635.05 22.7764Z" fill="#383B51"/>
<path d="M1615.5 22.5C1611.5 24.9 1611.5 27 1611 28.5C1610.5 27.5 1610 25.4 1606 23C1609 20 1609.5 19 1610.5 17C1611 18 1611.5 20.1 1615.5 22.5Z" fill="#383B51"/>
<path d="M1611 28.5L1610.55 28.7236L1611.09 29.8033L1611.47 28.6581L1611 28.5ZM1615.5 22.5L1615.76 22.9287L1616.47 22.5L1615.76 22.0713L1615.5 22.5ZM1610.5 17L1610.95 16.7764L1610.5 15.882L1610.05 16.7764L1610.5 17ZM1606 23L1605.65 22.6464L1605.19 23.0993L1605.74 23.4287L1606 23ZM1611.47 28.6581C1611.76 27.8056 1611.84 27.0419 1612.37 26.0803C1612.89 25.1604 1613.82 24.094 1615.76 22.9287L1615.24 22.0713C1613.18 23.306 1612.11 24.4896 1611.5 25.5947C1610.91 26.6581 1610.74 27.6944 1610.53 28.3419L1611.47 28.6581ZM1610.05 17.2236C1610.27 17.6539 1610.56 18.525 1611.28 19.5181C1612.02 20.5306 1613.19 21.6992 1615.24 22.9287L1615.76 22.0713C1613.81 20.9008 1612.73 19.8194 1612.09 18.9319C1611.44 18.025 1611.23 17.3461 1610.95 16.7764L1610.05 17.2236ZM1611.45 28.2764C1611.23 27.8461 1610.94 26.975 1610.22 25.9819C1609.48 24.9694 1608.31 23.8008 1606.26 22.5713L1605.74 23.4287C1607.69 24.5992 1608.77 25.6806 1609.41 26.5681C1610.06 27.475 1610.27 28.1539 1610.55 28.7236L1611.45 28.2764ZM1610.05 16.7764C1609.55 17.7785 1609.19 18.4954 1608.59 19.3344C1607.99 20.1766 1607.14 21.1541 1605.65 22.6464L1606.35 23.3536C1607.86 21.8459 1608.76 20.8234 1609.41 19.9156C1610.06 19.0046 1610.45 18.2215 1610.95 17.2236L1610.05 16.7764Z" fill="#383B51"/>
<path d="M1699.5 69.5C1695.5 71.9 1695.5 74 1695 75.5C1694.5 74.5 1694 72.4 1690 70C1693 67 1693.5 66 1694.5 64C1695 65 1695.5 67.1 1699.5 69.5Z" fill="#383B51"/>
<path d="M1695 75.5L1694.55 75.7236L1695.09 76.8033L1695.47 75.6581L1695 75.5ZM1699.5 69.5L1699.76 69.9287L1700.47 69.5L1699.76 69.0713L1699.5 69.5ZM1694.5 64L1694.95 63.7764L1694.5 62.882L1694.05 63.7764L1694.5 64ZM1690 70L1689.65 69.6464L1689.19 70.0993L1689.74 70.4287L1690 70ZM1695.47 75.6581C1695.76 74.8056 1695.84 74.0419 1696.37 73.0803C1696.89 72.1604 1697.82 71.094 1699.76 69.9287L1699.24 69.0713C1697.18 70.306 1696.11 71.4896 1695.5 72.5947C1694.91 73.6581 1694.74 74.6944 1694.53 75.3419L1695.47 75.6581ZM1694.05 64.2236C1694.27 64.6539 1694.56 65.525 1695.28 66.5181C1696.02 67.5306 1697.19 68.6992 1699.24 69.9287L1699.76 69.0713C1697.81 67.9008 1696.73 66.8194 1696.09 65.9319C1695.44 65.025 1695.23 64.3461 1694.95 63.7764L1694.05 64.2236ZM1695.45 75.2764C1695.23 74.8461 1694.94 73.975 1694.22 72.9819C1693.48 71.9694 1692.31 70.8008 1690.26 69.5713L1689.74 70.4287C1691.69 71.5992 1692.77 72.6806 1693.41 73.5681C1694.06 74.475 1694.27 75.1539 1694.55 75.7236L1695.45 75.2764ZM1694.05 63.7764C1693.55 64.7785 1693.19 65.4954 1692.59 66.3344C1691.99 67.1766 1691.14 68.1541 1689.65 69.6464L1690.35 70.3536C1691.86 68.8459 1692.76 67.8234 1693.41 66.9156C1694.06 66.0046 1694.45 65.2215 1694.95 64.2236L1694.05 63.7764Z" fill="#383B51"/>
<path d="M1709.5 37.5C1705.5 39.9 1705.5 42 1705 43.5C1704.5 42.5 1704 40.4 1700 38C1703 35 1703.5 34 1704.5 32C1705 33 1705.5 35.1 1709.5 37.5Z" fill="#383B51"/>
<path d="M1705 43.5L1704.55 43.7236L1705.09 44.8033L1705.47 43.6581L1705 43.5ZM1709.5 37.5L1709.76 37.9287L1710.47 37.5L1709.76 37.0713L1709.5 37.5ZM1704.5 32L1704.95 31.7764L1704.5 30.882L1704.05 31.7764L1704.5 32ZM1700 38L1699.65 37.6464L1699.19 38.0993L1699.74 38.4287L1700 38ZM1705.47 43.6581C1705.76 42.8056 1705.84 42.0419 1706.37 41.0803C1706.89 40.1604 1707.82 39.094 1709.76 37.9287L1709.24 37.0713C1707.18 38.306 1706.11 39.4896 1705.5 40.5947C1704.91 41.6581 1704.74 42.6944 1704.53 43.3419L1705.47 43.6581ZM1704.05 32.2236C1704.27 32.6539 1704.56 33.525 1705.28 34.5181C1706.02 35.5306 1707.19 36.6992 1709.24 37.9287L1709.76 37.0713C1707.81 35.9008 1706.73 34.8194 1706.09 33.9319C1705.44 33.025 1705.23 32.3461 1704.95 31.7764L1704.05 32.2236ZM1705.45 43.2764C1705.23 42.8461 1704.94 41.975 1704.22 40.9819C1703.48 39.9694 1702.31 38.8008 1700.26 37.5713L1699.74 38.4287C1701.69 39.5992 1702.77 40.6806 1703.41 41.5681C1704.06 42.475 1704.27 43.1539 1704.55 43.7236L1705.45 43.2764ZM1704.05 31.7764C1703.55 32.7785 1703.19 33.4954 1702.59 34.3344C1701.99 35.1766 1701.14 36.1541 1699.65 37.6464L1700.35 38.3536C1701.86 36.8459 1702.76 35.8234 1703.41 34.9156C1704.06 34.0046 1704.45 33.2215 1704.95 32.2236L1704.05 31.7764Z" fill="#383B51"/>
<path d="M1736.5 69.5C1732.5 71.9 1732.5 74 1732 75.5C1731.5 74.5 1731 72.4 1727 70C1730 67 1730.5 66 1731.5 64C1732 65 1732.5 67.1 1736.5 69.5Z" fill="#383B51"/>
<path d="M1732 75.5L1731.55 75.7236L1732.09 76.8033L1732.47 75.6581L1732 75.5ZM1736.5 69.5L1736.76 69.9287L1737.47 69.5L1736.76 69.0713L1736.5 69.5ZM1731.5 64L1731.95 63.7764L1731.5 62.882L1731.05 63.7764L1731.5 64ZM1727 70L1726.65 69.6464L1726.19 70.0993L1726.74 70.4287L1727 70ZM1732.47 75.6581C1732.76 74.8056 1732.84 74.0419 1733.37 73.0803C1733.89 72.1604 1734.82 71.094 1736.76 69.9287L1736.24 69.0713C1734.18 70.306 1733.11 71.4896 1732.5 72.5947C1731.91 73.6581 1731.74 74.6944 1731.53 75.3419L1732.47 75.6581ZM1731.05 64.2236C1731.27 64.6539 1731.56 65.525 1732.28 66.5181C1733.02 67.5306 1734.19 68.6992 1736.24 69.9287L1736.76 69.0713C1734.81 67.9008 1733.73 66.8194 1733.09 65.9319C1732.44 65.025 1732.23 64.3461 1731.95 63.7764L1731.05 64.2236ZM1732.45 75.2764C1732.23 74.8461 1731.94 73.975 1731.22 72.9819C1730.48 71.9694 1729.31 70.8008 1727.26 69.5713L1726.74 70.4287C1728.69 71.5992 1729.77 72.6806 1730.41 73.5681C1731.06 74.475 1731.27 75.1539 1731.55 75.7236L1732.45 75.2764ZM1731.05 63.7764C1730.55 64.7785 1730.19 65.4954 1729.59 66.3344C1728.99 67.1766 1728.14 68.1541 1726.65 69.6464L1727.35 70.3536C1728.86 68.8459 1729.76 67.8234 1730.41 66.9156C1731.06 66.0046 1731.45 65.2215 1731.95 64.2236L1731.05 63.7764Z" fill="#383B51"/>
<path d="M1775.5 41.5C1771.5 43.9 1771.5 46 1771 47.5C1770.5 46.5 1770 44.4 1766 42C1769 39 1769.5 38 1770.5 36C1771 37 1771.5 39.1 1775.5 41.5Z" fill="#383B51"/>
<path d="M1771 47.5L1770.55 47.7236L1771.09 48.8033L1771.47 47.6581L1771 47.5ZM1775.5 41.5L1775.76 41.9287L1776.47 41.5L1775.76 41.0713L1775.5 41.5ZM1770.5 36L1770.95 35.7764L1770.5 34.882L1770.05 35.7764L1770.5 36ZM1766 42L1765.65 41.6464L1765.19 42.0993L1765.74 42.4287L1766 42ZM1771.47 47.6581C1771.76 46.8056 1771.84 46.0419 1772.37 45.0803C1772.89 44.1604 1773.82 43.094 1775.76 41.9287L1775.24 41.0713C1773.18 42.306 1772.11 43.4896 1771.5 44.5947C1770.91 45.6581 1770.74 46.6944 1770.53 47.3419L1771.47 47.6581ZM1770.05 36.2236C1770.27 36.6539 1770.56 37.525 1771.28 38.5181C1772.02 39.5306 1773.19 40.6992 1775.24 41.9287L1775.76 41.0713C1773.81 39.9008 1772.73 38.8194 1772.09 37.9319C1771.44 37.025 1771.23 36.3461 1770.95 35.7764L1770.05 36.2236ZM1771.45 47.2764C1771.23 46.8461 1770.94 45.975 1770.22 44.9819C1769.48 43.9694 1768.31 42.8008 1766.26 41.5713L1765.74 42.4287C1767.69 43.5992 1768.77 44.6806 1769.41 45.5681C1770.06 46.475 1770.27 47.1539 1770.55 47.7236L1771.45 47.2764ZM1770.05 35.7764C1769.55 36.7785 1769.19 37.4954 1768.59 38.3344C1767.99 39.1766 1767.14 40.1541 1765.65 41.6464L1766.35 42.3536C1767.86 40.8459 1768.76 39.8234 1769.41 38.9156C1770.06 38.0046 1770.45 37.2215 1770.95 36.2236L1770.05 35.7764Z" fill="#383B51"/>
<path d="M1746.5 23.5C1742.5 25.9 1742.5 28 1742 29.5C1741.5 28.5 1741 26.4 1737 24C1740 21 1740.5 20 1741.5 18C1742 19 1742.5 21.1 1746.5 23.5Z" fill="#383B51"/>
<path d="M1742 29.5L1741.55 29.7236L1742.09 30.8033L1742.47 29.6581L1742 29.5ZM1746.5 23.5L1746.76 23.9287L1747.47 23.5L1746.76 23.0713L1746.5 23.5ZM1741.5 18L1741.95 17.7764L1741.5 16.882L1741.05 17.7764L1741.5 18ZM1737 24L1736.65 23.6464L1736.19 24.0993L1736.74 24.4287L1737 24ZM1742.47 29.6581C1742.76 28.8056 1742.84 28.0419 1743.37 27.0803C1743.89 26.1604 1744.82 25.094 1746.76 23.9287L1746.24 23.0713C1744.18 24.306 1743.11 25.4896 1742.5 26.5947C1741.91 27.6581 1741.74 28.6944 1741.53 29.3419L1742.47 29.6581ZM1741.05 18.2236C1741.27 18.6539 1741.56 19.525 1742.28 20.5181C1743.02 21.5306 1744.19 22.6992 1746.24 23.9287L1746.76 23.0713C1744.81 21.9008 1743.73 20.8194 1743.09 19.9319C1742.44 19.025 1742.23 18.3461 1741.95 17.7764L1741.05 18.2236ZM1742.45 29.2764C1742.23 28.8461 1741.94 27.975 1741.22 26.9819C1740.48 25.9694 1739.31 24.8008 1737.26 23.5713L1736.74 24.4287C1738.69 25.5992 1739.77 26.6806 1740.41 27.5681C1741.06 28.475 1741.27 29.1539 1741.55 29.7236L1742.45 29.2764ZM1741.05 17.7764C1740.55 18.7785 1740.19 19.4954 1739.59 20.3344C1738.99 21.1766 1738.14 22.1541 1736.65 23.6464L1737.35 24.3536C1738.86 22.8459 1739.76 21.8234 1740.41 20.9156C1741.06 20.0046 1741.45 19.2215 1741.95 18.2236L1741.05 17.7764Z" fill="#383B51"/>
<path d="M1751.5 50.5C1747.5 52.9 1747.5 55 1747 56.5C1746.5 55.5 1746 53.4 1742 51C1745 48 1745.5 47 1746.5 45C1747 46 1747.5 48.1 1751.5 50.5Z" fill="#383B51"/>
<path d="M1747 56.5L1746.55 56.7236L1747.09 57.8033L1747.47 56.6581L1747 56.5ZM1751.5 50.5L1751.76 50.9287L1752.47 50.5L1751.76 50.0713L1751.5 50.5ZM1746.5 45L1746.95 44.7764L1746.5 43.882L1746.05 44.7764L1746.5 45ZM1742 51L1741.65 50.6464L1741.19 51.0993L1741.74 51.4287L1742 51ZM1747.47 56.6581C1747.76 55.8056 1747.84 55.0419 1748.37 54.0803C1748.89 53.1604 1749.82 52.094 1751.76 50.9287L1751.24 50.0713C1749.18 51.306 1748.11 52.4896 1747.5 53.5947C1746.91 54.6581 1746.74 55.6944 1746.53 56.3419L1747.47 56.6581ZM1746.05 45.2236C1746.27 45.6539 1746.56 46.525 1747.28 47.5181C1748.02 48.5306 1749.19 49.6992 1751.24 50.9287L1751.76 50.0713C1749.81 48.9008 1748.73 47.8194 1748.09 46.9319C1747.44 46.025 1747.23 45.3461 1746.95 44.7764L1746.05 45.2236ZM1747.45 56.2764C1747.23 55.8461 1746.94 54.975 1746.22 53.9819C1745.48 52.9694 1744.31 51.8008 1742.26 50.5713L1741.74 51.4287C1743.69 52.5992 1744.77 53.6806 1745.41 54.5681C1746.06 55.475 1746.27 56.1539 1746.55 56.7236L1747.45 56.2764ZM1746.05 44.7764C1745.55 45.7785 1745.19 46.4954 1744.59 47.3344C1743.99 48.1766 1743.14 49.1541 1741.65 50.6464L1742.35 51.3536C1743.86 49.8459 1744.76 48.8234 1745.41 47.9156C1746.06 47.0046 1746.45 46.2215 1746.95 45.2236L1746.05 44.7764Z" fill="#383B51"/>
<path d="M1788.5 23.5C1784.5 25.9 1784.5 28 1784 29.5C1783.5 28.5 1783 26.4 1779 24C1782 21 1782.5 20 1783.5 18C1784 19 1784.5 21.1 1788.5 23.5Z" fill="#383B51"/>
<path d="M1784 29.5L1783.55 29.7236L1784.09 30.8033L1784.47 29.6581L1784 29.5ZM1788.5 23.5L1788.76 23.9287L1789.47 23.5L1788.76 23.0713L1788.5 23.5ZM1783.5 18L1783.95 17.7764L1783.5 16.882L1783.05 17.7764L1783.5 18ZM1779 24L1778.65 23.6464L1778.19 24.0993L1778.74 24.4287L1779 24ZM1784.47 29.6581C1784.76 28.8056 1784.84 28.0419 1785.37 27.0803C1785.89 26.1604 1786.82 25.094 1788.76 23.9287L1788.24 23.0713C1786.18 24.306 1785.11 25.4896 1784.5 26.5947C1783.91 27.6581 1783.74 28.6944 1783.53 29.3419L1784.47 29.6581ZM1783.05 18.2236C1783.27 18.6539 1783.56 19.525 1784.28 20.5181C1785.02 21.5306 1786.19 22.6992 1788.24 23.9287L1788.76 23.0713C1786.81 21.9008 1785.73 20.8194 1785.09 19.9319C1784.44 19.025 1784.23 18.3461 1783.95 17.7764L1783.05 18.2236ZM1784.45 29.2764C1784.23 28.8461 1783.94 27.975 1783.22 26.9819C1782.48 25.9694 1781.31 24.8008 1779.26 23.5713L1778.74 24.4287C1780.69 25.5992 1781.77 26.6806 1782.41 27.5681C1783.06 28.475 1783.27 29.1539 1783.55 29.7236L1784.45 29.2764ZM1783.05 17.7764C1782.55 18.7785 1782.19 19.4954 1781.59 20.3344C1780.99 21.1766 1780.14 22.1541 1778.65 23.6464L1779.35 24.3536C1780.86 22.8459 1781.76 21.8234 1782.41 20.9156C1783.06 20.0046 1783.45 19.2215 1783.95 18.2236L1783.05 17.7764Z" fill="#383B51"/>
<path d="M1798.5 66.5C1794.5 68.9 1794.5 71 1794 72.5C1793.5 71.5 1793 69.4 1789 67C1792 64 1792.5 63 1793.5 61C1794 62 1794.5 64.1 1798.5 66.5Z" fill="#383B51"/>
<path d="M1794 72.5L1793.55 72.7236L1794.09 73.8033L1794.47 72.6581L1794 72.5ZM1798.5 66.5L1798.76 66.9287L1799.47 66.5L1798.76 66.0713L1798.5 66.5ZM1793.5 61L1793.95 60.7764L1793.5 59.882L1793.05 60.7764L1793.5 61ZM1789 67L1788.65 66.6464L1788.19 67.0993L1788.74 67.4287L1789 67ZM1794.47 72.6581C1794.76 71.8056 1794.84 71.0419 1795.37 70.0803C1795.89 69.1604 1796.82 68.094 1798.76 66.9287L1798.24 66.0713C1796.18 67.306 1795.11 68.4896 1794.5 69.5947C1793.91 70.6581 1793.74 71.6944 1793.53 72.3419L1794.47 72.6581ZM1793.05 61.2236C1793.27 61.6539 1793.56 62.525 1794.28 63.5181C1795.02 64.5306 1796.19 65.6992 1798.24 66.9287L1798.76 66.0713C1796.81 64.9008 1795.73 63.8194 1795.09 62.9319C1794.44 62.025 1794.23 61.3461 1793.95 60.7764L1793.05 61.2236ZM1794.45 72.2764C1794.23 71.8461 1793.94 70.975 1793.22 69.9819C1792.48 68.9694 1791.31 67.8008 1789.26 66.5713L1788.74 67.4287C1790.69 68.5992 1791.77 69.6806 1792.41 70.5681C1793.06 71.475 1793.27 72.1539 1793.55 72.7236L1794.45 72.2764ZM1793.05 60.7764C1792.55 61.7785 1792.19 62.4954 1791.59 63.3344C1790.99 64.1766 1790.14 65.1541 1788.65 66.6464L1789.35 67.3536C1790.86 65.8459 1791.76 64.8234 1792.41 63.9156C1793.06 63.0046 1793.45 62.2215 1793.95 61.2236L1793.05 60.7764Z" fill="#383B51"/>
<path d="M492.5 35.5C488.5 37.9 488.5 40 488 41.5C487.5 40.5 487 38.4 483 36C486 33 486.5 32 487.5 30C488 31 488.5 33.1 492.5 35.5Z" fill="#383B51"/>
<path d="M488 41.5L487.553 41.7236L488.093 42.8033L488.474 41.6581L488 41.5ZM492.5 35.5L492.757 35.9287L493.472 35.5L492.757 35.0713L492.5 35.5ZM487.5 30L487.947 29.7764L487.5 28.882L487.053 29.7764L487.5 30ZM483 36L482.646 35.6464L482.194 36.0993L482.743 36.4287L483 36ZM488.474 41.6581C488.759 40.8056 488.84 40.0419 489.375 39.0803C489.886 38.1604 490.815 37.094 492.757 35.9287L492.243 35.0713C490.185 36.306 489.114 37.4896 488.5 38.5947C487.91 39.6581 487.741 40.6944 487.526 41.3419L488.474 41.6581ZM487.053 30.2236C487.268 30.6539 487.564 31.525 488.282 32.5181C489.015 33.5306 490.194 34.6992 492.243 35.9287L492.757 35.0713C490.806 33.9008 489.735 32.8194 489.093 31.9319C488.436 31.025 488.232 30.3461 487.947 29.7764L487.053 30.2236ZM488.447 41.2764C488.232 40.8461 487.936 39.975 487.218 38.9819C486.485 37.9694 485.306 36.8008 483.257 35.5713L482.743 36.4287C484.694 37.5992 485.765 38.6806 486.407 39.5681C487.064 40.475 487.268 41.1539 487.553 41.7236L488.447 41.2764ZM487.053 29.7764C486.552 30.7785 486.192 31.4954 485.593 32.3344C484.992 33.1766 484.139 34.1541 482.646 35.6464L483.354 36.3536C484.861 34.8459 485.758 33.8234 486.407 32.9156C487.058 32.0046 487.448 31.2215 487.947 30.2236L487.053 29.7764Z" fill="#383B51"/>
<path d="M502.5 64.5C498.5 66.9 498.5 69 498 70.5C497.5 69.5 497 67.4 493 65C496 62 496.5 61 497.5 59C498 60 498.5 62.1 502.5 64.5Z" fill="#383B51"/>
<path d="M498 70.5L497.553 70.7236L498.093 71.8033L498.474 70.6581L498 70.5ZM502.5 64.5L502.757 64.9287L503.472 64.5L502.757 64.0713L502.5 64.5ZM497.5 59L497.947 58.7764L497.5 57.882L497.053 58.7764L497.5 59ZM493 65L492.646 64.6464L492.194 65.0993L492.743 65.4287L493 65ZM498.474 70.6581C498.759 69.8056 498.84 69.0419 499.375 68.0803C499.886 67.1604 500.815 66.094 502.757 64.9287L502.243 64.0713C500.185 65.306 499.114 66.4896 498.5 67.5947C497.91 68.6581 497.741 69.6944 497.526 70.3419L498.474 70.6581ZM497.053 59.2236C497.268 59.6539 497.564 60.525 498.282 61.5181C499.015 62.5306 500.194 63.6992 502.243 64.9287L502.757 64.0713C500.806 62.9008 499.735 61.8194 499.093 60.9319C498.436 60.025 498.232 59.3461 497.947 58.7764L497.053 59.2236ZM498.447 70.2764C498.232 69.8461 497.936 68.975 497.218 67.9819C496.485 66.9694 495.306 65.8008 493.257 64.5713L492.743 65.4287C494.694 66.5992 495.765 67.6806 496.407 68.5681C497.064 69.475 497.268 70.1539 497.553 70.7236L498.447 70.2764ZM497.053 58.7764C496.552 59.7785 496.192 60.4954 495.593 61.3344C494.992 62.1766 494.139 63.1541 492.646 64.6464L493.354 65.3536C494.861 63.8459 495.758 62.8234 496.407 61.9156C497.058 61.0046 497.448 60.2215 497.947 59.2236L497.053 58.7764Z" fill="#383B51"/>
<path d="M351.5 35.5C347.5 37.9 347.5 40 347 41.5C346.5 40.5 346 38.4 342 36C345 33 345.5 32 346.5 30C347 31 347.5 33.1 351.5 35.5Z" fill="#383B51"/>
<path d="M347 41.5L346.553 41.7236L347.093 42.8033L347.474 41.6581L347 41.5ZM351.5 35.5L351.757 35.9287L352.472 35.5L351.757 35.0713L351.5 35.5ZM346.5 30L346.947 29.7764L346.5 28.882L346.053 29.7764L346.5 30ZM342 36L341.646 35.6464L341.194 36.0993L341.743 36.4287L342 36ZM347.474 41.6581C347.759 40.8056 347.84 40.0419 348.375 39.0803C348.886 38.1604 349.815 37.094 351.757 35.9287L351.243 35.0713C349.185 36.306 348.114 37.4896 347.5 38.5947C346.91 39.6581 346.741 40.6944 346.526 41.3419L347.474 41.6581ZM346.053 30.2236C346.268 30.6539 346.564 31.525 347.282 32.5181C348.015 33.5306 349.194 34.6992 351.243 35.9287L351.757 35.0713C349.806 33.9008 348.735 32.8194 348.093 31.9319C347.436 31.025 347.232 30.3461 346.947 29.7764L346.053 30.2236ZM347.447 41.2764C347.232 40.8461 346.936 39.975 346.218 38.9819C345.485 37.9694 344.306 36.8008 342.257 35.5713L341.743 36.4287C343.694 37.5992 344.765 38.6806 345.407 39.5681C346.064 40.475 346.268 41.1539 346.553 41.7236L347.447 41.2764ZM346.053 29.7764C345.552 30.7785 345.192 31.4954 344.593 32.3344C343.992 33.1766 343.139 34.1541 341.646 35.6464L342.354 36.3536C343.861 34.8459 344.758 33.8234 345.407 32.9156C346.058 32.0046 346.448 31.2215 346.947 30.2236L346.053 29.7764Z" fill="#383B51"/>
<path d="M378.5 69.5C374.5 71.9 374.5 74 374 75.5C373.5 74.5 373 72.4 369 70C372 67 372.5 66 373.5 64C374 65 374.5 67.1 378.5 69.5Z" fill="#383B51"/>
<path d="M374 75.5L373.553 75.7236L374.093 76.8033L374.474 75.6581L374 75.5ZM378.5 69.5L378.757 69.9287L379.472 69.5L378.757 69.0713L378.5 69.5ZM373.5 64L373.947 63.7764L373.5 62.882L373.053 63.7764L373.5 64ZM369 70L368.646 69.6464L368.194 70.0993L368.743 70.4287L369 70ZM374.474 75.6581C374.759 74.8056 374.84 74.0419 375.375 73.0803C375.886 72.1604 376.815 71.094 378.757 69.9287L378.243 69.0713C376.185 70.306 375.114 71.4896 374.5 72.5947C373.91 73.6581 373.741 74.6944 373.526 75.3419L374.474 75.6581ZM373.053 64.2236C373.268 64.6539 373.564 65.525 374.282 66.5181C375.015 67.5306 376.194 68.6992 378.243 69.9287L378.757 69.0713C376.806 67.9008 375.735 66.8194 375.093 65.9319C374.436 65.025 374.232 64.3461 373.947 63.7764L373.053 64.2236ZM374.447 75.2764C374.232 74.8461 373.936 73.975 373.218 72.9819C372.485 71.9694 371.306 70.8008 369.257 69.5713L368.743 70.4287C370.694 71.5992 371.765 72.6806 372.407 73.5681C373.064 74.475 373.268 75.1539 373.553 75.7236L374.447 75.2764ZM373.053 63.7764C372.552 64.7785 372.192 65.4954 371.593 66.3344C370.992 67.1766 370.139 68.1541 368.646 69.6464L369.354 70.3536C370.861 68.8459 371.758 67.8234 372.407 66.9156C373.058 66.0046 373.448 65.2215 373.947 64.2236L373.053 63.7764Z" fill="#383B51"/>
<path d="M328.5 75.5C324.5 77.9 324.5 80 324 81.5C323.5 80.5 323 78.4 319 76C322 73 322.5 72 323.5 70C324 71 324.5 73.1 328.5 75.5Z" fill="#383B51"/>
<path d="M324 81.5L323.553 81.7236L324.093 82.8033L324.474 81.6581L324 81.5ZM328.5 75.5L328.757 75.9287L329.472 75.5L328.757 75.0713L328.5 75.5ZM323.5 70L323.947 69.7764L323.5 68.882L323.053 69.7764L323.5 70ZM319 76L318.646 75.6464L318.194 76.0993L318.743 76.4287L319 76ZM324.474 81.6581C324.759 80.8056 324.84 80.0419 325.375 79.0803C325.886 78.1604 326.815 77.094 328.757 75.9287L328.243 75.0713C326.185 76.306 325.114 77.4896 324.5 78.5947C323.91 79.6581 323.741 80.6944 323.526 81.3419L324.474 81.6581ZM323.053 70.2236C323.268 70.6539 323.564 71.525 324.282 72.5181C325.015 73.5306 326.194 74.6992 328.243 75.9287L328.757 75.0713C326.806 73.9008 325.735 72.8194 325.093 71.9319C324.436 71.025 324.232 70.3461 323.947 69.7764L323.053 70.2236ZM324.447 81.2764C324.232 80.8461 323.936 79.975 323.218 78.9819C322.485 77.9694 321.306 76.8008 319.257 75.5713L318.743 76.4287C320.694 77.5992 321.765 78.6806 322.407 79.5681C323.064 80.475 323.268 81.1539 323.553 81.7236L324.447 81.2764ZM323.053 69.7764C322.552 70.7785 322.192 71.4954 321.593 72.3344C320.992 73.1766 320.139 74.1541 318.646 75.6464L319.354 76.3536C320.861 74.8459 321.758 73.8234 322.407 72.9156C323.058 72.0046 323.448 71.2215 323.947 70.2236L323.053 69.7764Z" fill="#383B51"/>
<defs>
<filter id="filter0_f_363_52" x="799.025" y="13.1908" width="218.078" height="217.347" filterUnits="userSpaceOnUse" color-interpolation-filters="sRGB">
<feFlood flood-opacity="0" result="BackgroundImageFix"/>
<feBlend mode="normal" in="SourceGraphic" in2="BackgroundImageFix" result="shape"/>
<feGaussianBlur stdDeviation="10" result="effect1_foregroundBlur_363_52"/>
</filter>
<filter id="filter1_f_363_52" x="726.036" y="-33.2043" width="150.179" height="70.7701" filterUnits="userSpaceOnUse" color-interpolation-filters="sRGB">
<feFlood flood-opacity="0" result="BackgroundImageFix"/>
<feBlend mode="normal" in="SourceGraphic" in2="BackgroundImageFix" result="shape"/>
<feGaussianBlur stdDeviation="5" result="effect1_foregroundBlur_363_52"/>
</filter>
<filter id="filter2_f_363_52" x="968.163" y="-12.2043" width="150.179" height="70.77" filterUnits="userSpaceOnUse" color-interpolation-filters="sRGB">
<feFlood flood-opacity="0" result="BackgroundImageFix"/>
<feBlend mode="normal" in="SourceGraphic" in2="BackgroundImageFix" result="shape"/>
<feGaussianBlur stdDeviation="5" result="effect1_foregroundBlur_363_52"/>
</filter>
<filter id="filter3_f_363_52" x="753.548" y="-19.3168" width="109.083" height="206.994" filterUnits="userSpaceOnUse" color-interpolation-filters="sRGB">
<feFlood flood-opacity="0" result="BackgroundImageFix"/>
<feBlend mode="normal" in="SourceGraphic" in2="BackgroundImageFix" result="shape"/>
<feGaussianBlur stdDeviation="10" result="effect1_foregroundBlur_363_52"/>
</filter>
<radialGradient id="paint0_radial_363_52" cx="0" cy="0" r="1" gradientUnits="userSpaceOnUse" gradientTransform="translate(1148.38 29.8919) rotate(176.912) scale(1254.21 207.288)">
<stop stop-color="#242535"/>
<stop offset="0.861983" stop-color="#242535"/>
<stop offset="1" stop-color="#242535"/>
</radialGradient>
<linearGradient id="paint1_linear_363_52" x1="798.5" y1="-64.067" x2="1152.86" y2="677.758" gradientUnits="userSpaceOnUse">
<stop stop-color="#2C2F41"/>
<stop offset="0.283302" stop-color="#2C2F41"/>
<stop offset="0.51521" stop-color="#2C2F41"/>
<stop offset="1" stop-color="#2C2F41"/>
</linearGradient>
<linearGradient id="paint2_linear_363_52" x1="1035.5" y1="12.7505" x2="1385.07" y2="750.676" gradientUnits="userSpaceOnUse">
<stop stop-color="#3C417C"/>
<stop offset="1" stop-color="#0C0D1C"/>
</linearGradient>
<radialGradient id="paint3_radial_363_52" cx="0" cy="0" r="1" gradientUnits="userSpaceOnUse" gradientTransform="translate(794.789 15.3005) rotate(86.8192) scale(72.6095 139.585)">
<stop stop-color="#2B2E41"/>
<stop offset="0.332336" stop-color="#2C2E41"/>
<stop offset="0.581437" stop-color="#2D3041"/>
</radialGradient>
<radialGradient id="paint4_radial_363_52" cx="0" cy="0" r="1" gradientUnits="userSpaceOnUse" gradientTransform="translate(983.952 160.789) rotate(-140.433) scale(162.321 251.434)">
<stop stop-color="#303361" stop-opacity="0.83"/>
<stop offset="0.983218" stop-color="#191B34" stop-opacity="0"/>
</radialGradient>
<linearGradient id="paint5_linear_363_52" x1="795.716" y1="2.10029" x2="910.285" y2="263.946" gradientUnits="userSpaceOnUse">
<stop stop-color="#3C417C"/>
<stop offset="1" stop-color="#0C0D1C"/>
</linearGradient>
<radialGradient id="paint6_radial_363_52" cx="0" cy="0" r="1" gradientUnits="userSpaceOnUse" gradientTransform="translate(95.5074 110.868) rotate(-84.7776) scale(111.106 111.833)">
<stop offset="0.477659" stop-color="#292C3E"/>
<stop offset="1" stop-color="#2D3044" stop-opacity="0"/>
</radialGradient>
<radialGradient id="paint7_radial_363_52" cx="0" cy="0" r="1" gradientUnits="userSpaceOnUse" gradientTransform="translate(800.469 10.6588) rotate(174.56) scale(47.2108 16.7743)">
<stop stop-color="#2C2F42"/>
<stop offset="0.52458" stop-color="#2B2E40"/>
<stop offset="0.974002" stop-color="#262837"/>
</radialGradient>
<radialGradient id="paint8_radial_363_52" cx="0" cy="0" r="1" gradientUnits="userSpaceOnUse" gradientTransform="translate(800.469 10.6588) rotate(174.289) scale(48.8748 17.3679)">
<stop stop-color="#2C2F42"/>
<stop offset="0.791667" stop-color="#313567"/>
<stop offset="1" stop-color="#2E3263"/>
</radialGradient>
<radialGradient id="paint9_radial_363_52" cx="0" cy="0" r="1" gradientUnits="userSpaceOnUse" gradientTransform="translate(798.671 -8.93949) rotate(71.5848) scale(33.5896 76.2254)">
<stop offset="0.140928" stop-color="#252737"/>
<stop offset="1" stop-color="#272A3B"/>
</radialGradient>
<radialGradient id="paint10_radial_363_52" cx="0" cy="0" r="1" gradientUnits="userSpaceOnUse" gradientTransform="translate(1042.6 31.6588) rotate(174.289) scale(48.8748 17.3679)">
<stop stop-color="#2C2F42"/>
<stop offset="0.791667" stop-color="#313567"/>
<stop offset="1" stop-color="#2E3263"/>
</radialGradient>
<radialGradient id="paint11_radial_363_52" cx="0" cy="0" r="1" gradientUnits="userSpaceOnUse" gradientTransform="translate(1040.8 12.0604) rotate(71.5848) scale(33.5896 76.2254)">
<stop offset="0.140928" stop-color="#252737"/>
<stop offset="1" stop-color="#272A3B"/>
</radialGradient>
<radialGradient id="paint12_radial_363_52" cx="0" cy="0" r="1" gradientUnits="userSpaceOnUse" gradientTransform="translate(47.825 63.8218) rotate(-97.6926) scale(64.064 55.1187)">
<stop stop-color="#2D3041"/>
<stop offset="0.596662" stop-color="#2B2E41"/>
<stop offset="1" stop-color="#242635"/>
</radialGradient>
<radialGradient id="paint13_radial_363_52" cx="0" cy="0" r="1" gradientUnits="userSpaceOnUse" gradientTransform="translate(111.235 49.221) rotate(143.353) scale(115.821 108.215)">
<stop stop-color="#252737"/>
<stop offset="0.60513" stop-color="#2C2F42"/>
<stop offset="0.841688" stop-color="#262838"/>
<stop offset="1" stop-color="#252737"/>
</radialGradient>
<radialGradient id="paint14_radial_363_52" cx="0" cy="0" r="1" gradientUnits="userSpaceOnUse" gradientTransform="translate(111.235 49.221) rotate(143.353) scale(115.821 108.215)">
<stop stop-color="#252737"/>
<stop offset="0.60513" stop-color="#2C2F42"/>
<stop offset="0.841688" stop-color="#262838"/>
<stop offset="1" stop-color="#252737"/>
</radialGradient>
<linearGradient id="paint15_linear_363_52" x1="132.5" y1="8" x2="119.742" y2="90.3553" gradientUnits="userSpaceOnUse">
<stop stop-color="#383B51"/>
<stop offset="1" stop-color="#383B51"/>
</linearGradient>
<linearGradient id="paint16_linear_363_52" x1="371.5" y1="2" x2="358.742" y2="84.3553" gradientUnits="userSpaceOnUse">
<stop stop-color="#383B51"/>
<stop offset="1" stop-color="#383B51"/>
</linearGradient>
<linearGradient id="paint17_linear_363_52" x1="521.5" y1="24" x2="508.742" y2="106.355" gradientUnits="userSpaceOnUse">
<stop stop-color="#383B51"/>
<stop offset="1" stop-color="#383B51"/>
</linearGradient>
<linearGradient id="paint18_linear_363_52" x1="1314.5" y1="5" x2="1301.74" y2="87.3553" gradientUnits="userSpaceOnUse">
<stop stop-color="#383B51"/>
<stop offset="1" stop-color="#383B51"/>
</linearGradient>
<linearGradient id="paint19_linear_363_52" x1="1565.5" y1="22" x2="1552.74" y2="104.355" gradientUnits="userSpaceOnUse">
<stop stop-color="#383B51"/>
<stop offset="1" stop-color="#383B51"/>
</linearGradient>
<linearGradient id="paint20_linear_363_52" x1="1650.5" y1="9" x2="1637.74" y2="91.3553" gradientUnits="userSpaceOnUse">
<stop stop-color="#383B51"/>
<stop offset="1" stop-color="#383B51"/>
</linearGradient>
<linearGradient id="paint21_linear_363_52" x1="618.206" y1="81" x2="593.041" y2="230.083" gradientUnits="userSpaceOnUse">
<stop stop-color="#383B51"/>
<stop offset="1" stop-color="#383B51"/>
</linearGradient>
<clipPath id="clip0_363_52">
<rect width="1800" height="90" fill="white"/>
</clipPath>
</defs>
</svg>
