<svg width="745" height="74" viewBox="0 0 745 74" fill="none" xmlns="http://www.w3.org/2000/svg">
<g clip-path="url(#clip0_361_70)">
<rect width="745" height="74" fill="url(#paint0_radial_361_70)"/>
<path d="M78.5 48.5C74.5 50.9 74.5 53 74 54.5C73.5 53.5 73 51.4 69 49C72 46 72.5 45 73.5 43C74 44 74.5 46.1 78.5 48.5Z" fill="#383B51"/>
<path d="M74 54.5L73.5528 54.7236L74.0926 55.8033L74.4743 54.6581L74 54.5ZM78.5 48.5L78.7572 48.9287L79.4718 48.5L78.7572 48.0713L78.5 48.5ZM73.5 43L73.9472 42.7764L73.5 41.882L73.0528 42.7764L73.5 43ZM69 49L68.6464 48.6464L68.1936 49.0993L68.7428 49.4287L69 49ZM74.4743 54.6581C74.7585 53.8056 74.8404 53.0419 75.3746 52.0803C75.8857 51.1604 76.8152 50.094 78.7572 48.9287L78.2428 48.0713C76.1848 49.306 75.1143 50.4896 74.5004 51.5947C73.9096 52.6581 73.7415 53.6944 73.5257 54.3419L74.4743 54.6581ZM73.0528 43.2236C73.2679 43.6539 73.5637 44.525 74.2824 45.5181C75.0151 46.5306 76.1936 47.6992 78.2428 48.9287L78.7572 48.0713C76.8064 46.9008 75.7349 45.8194 75.0926 44.9319C74.4363 44.025 74.2321 43.3461 73.9472 42.7764L73.0528 43.2236ZM74.4472 54.2764C74.2321 53.8461 73.9363 52.975 73.2176 51.9819C72.4849 50.9694 71.3064 49.8008 69.2572 48.5713L68.7428 49.4287C70.6936 50.5992 71.7651 51.6806 72.4074 52.5681C73.0637 53.475 73.2679 54.1539 73.5528 54.7236L74.4472 54.2764ZM73.0528 42.7764C72.5517 43.7785 72.1924 44.4954 71.5931 45.3344C70.9916 46.1766 70.1388 47.1541 68.6464 48.6464L69.3536 49.3536C70.8612 47.8459 71.7584 46.8234 72.4069 45.9156C73.0576 45.0046 73.4483 44.2215 73.9472 43.2236L73.0528 42.7764Z" fill="#383B51"/>
<path d="M733.5 37.5C729.5 39.9 729.5 42 729 43.5C728.5 42.5 728 40.4 724 38C727 35 727.5 34 728.5 32C729 33 729.5 35.1 733.5 37.5Z" fill="#383B51"/>
<path d="M729 43.5L728.553 43.7236L729.093 44.8033L729.474 43.6581L729 43.5ZM733.5 37.5L733.757 37.9287L734.472 37.5L733.757 37.0713L733.5 37.5ZM728.5 32L728.947 31.7764L728.5 30.882L728.053 31.7764L728.5 32ZM724 38L723.646 37.6464L723.194 38.0993L723.743 38.4287L724 38ZM729.474 43.6581C729.759 42.8056 729.84 42.0419 730.375 41.0803C730.886 40.1604 731.815 39.094 733.757 37.9287L733.243 37.0713C731.185 38.306 730.114 39.4896 729.5 40.5947C728.91 41.6581 728.741 42.6944 728.526 43.3419L729.474 43.6581ZM728.053 32.2236C728.268 32.6539 728.564 33.525 729.282 34.5181C730.015 35.5306 731.194 36.6992 733.243 37.9287L733.757 37.0713C731.806 35.9008 730.735 34.8194 730.093 33.9319C729.436 33.025 729.232 32.3461 728.947 31.7764L728.053 32.2236ZM729.447 43.2764C729.232 42.8461 728.936 41.975 728.218 40.9819C727.485 39.9694 726.306 38.8008 724.257 37.5713L723.743 38.4287C725.694 39.5992 726.765 40.6806 727.407 41.5681C728.064 42.475 728.268 43.1539 728.553 43.7236L729.447 43.2764ZM728.053 31.7764C727.552 32.7785 727.192 33.4954 726.593 34.3344C725.992 35.1766 725.139 36.1541 723.646 37.6464L724.354 38.3536C725.861 36.8459 726.758 35.8234 727.407 34.9156C728.058 34.0046 728.448 33.2215 728.947 32.2236L728.053 31.7764Z" fill="#383B51"/>
<path d="M337.5 48.5C333.5 50.9 333.5 53 333 54.5C332.5 53.5 332 51.4 328 49C331 46 331.5 45 332.5 43C333 44 333.5 46.1 337.5 48.5Z" fill="#383B51"/>
<path d="M333 54.5L332.553 54.7236L333.093 55.8033L333.474 54.6581L333 54.5ZM337.5 48.5L337.757 48.9287L338.472 48.5L337.757 48.0713L337.5 48.5ZM332.5 43L332.947 42.7764L332.5 41.882L332.053 42.7764L332.5 43ZM328 49L327.646 48.6464L327.194 49.0993L327.743 49.4287L328 49ZM333.474 54.6581C333.759 53.8056 333.84 53.0419 334.375 52.0803C334.886 51.1604 335.815 50.094 337.757 48.9287L337.243 48.0713C335.185 49.306 334.114 50.4896 333.5 51.5947C332.91 52.6581 332.741 53.6944 332.526 54.3419L333.474 54.6581ZM332.053 43.2236C332.268 43.6539 332.564 44.525 333.282 45.5181C334.015 46.5306 335.194 47.6992 337.243 48.9287L337.757 48.0713C335.806 46.9008 334.735 45.8194 334.093 44.9319C333.436 44.025 333.232 43.3461 332.947 42.7764L332.053 43.2236ZM333.447 54.2764C333.232 53.8461 332.936 52.975 332.218 51.9819C331.485 50.9694 330.306 49.8008 328.257 48.5713L327.743 49.4287C329.694 50.5992 330.765 51.6806 331.407 52.5681C332.064 53.475 332.268 54.1539 332.553 54.7236L333.447 54.2764ZM332.053 42.7764C331.552 43.7785 331.192 44.4954 330.593 45.3344C329.992 46.1766 329.139 47.1541 327.646 48.6464L328.354 49.3536C329.861 47.8459 330.758 46.8234 331.407 45.9156C332.058 45.0046 332.448 44.2215 332.947 43.2236L332.053 42.7764Z" fill="#383B51"/>
<path d="M372.5 16.5C368.5 18.9 368.5 21 368 22.5C367.5 21.5 367 19.4 363 17C366 14 366.5 13 367.5 11C368 12 368.5 14.1 372.5 16.5Z" fill="#383B51"/>
<path d="M368 22.5L367.553 22.7236L368.093 23.8033L368.474 22.6581L368 22.5ZM372.5 16.5L372.757 16.9287L373.472 16.5L372.757 16.0713L372.5 16.5ZM367.5 11L367.947 10.7764L367.5 9.88197L367.053 10.7764L367.5 11ZM363 17L362.646 16.6464L362.194 17.0993L362.743 17.4287L363 17ZM368.474 22.6581C368.759 21.8056 368.84 21.0419 369.375 20.0803C369.886 19.1604 370.815 18.094 372.757 16.9287L372.243 16.0713C370.185 17.306 369.114 18.4896 368.5 19.5947C367.91 20.6581 367.741 21.6944 367.526 22.3419L368.474 22.6581ZM367.053 11.2236C367.268 11.6539 367.564 12.525 368.282 13.5181C369.015 14.5306 370.194 15.6992 372.243 16.9287L372.757 16.0713C370.806 14.9008 369.735 13.8194 369.093 12.9319C368.436 12.025 368.232 11.3461 367.947 10.7764L367.053 11.2236ZM368.447 22.2764C368.232 21.8461 367.936 20.975 367.218 19.9819C366.485 18.9694 365.306 17.8008 363.257 16.5713L362.743 17.4287C364.694 18.5992 365.765 19.6806 366.407 20.5681C367.064 21.475 367.268 22.1539 367.553 22.7236L368.447 22.2764ZM367.053 10.7764C366.552 11.7785 366.192 12.4954 365.593 13.3344C364.992 14.1766 364.139 15.1541 362.646 16.6464L363.354 17.3536C364.861 15.8459 365.758 14.8234 366.407 13.9156C367.058 13.0046 367.448 12.2215 367.947 11.2236L367.053 10.7764Z" fill="#383B51"/>
<mask id="mask0_361_70" style="mask-type:alpha" maskUnits="userSpaceOnUse" x="110" y="-89" width="1019" height="1031">
<path fill-rule="evenodd" clip-rule="evenodd" d="M577.353 -74.472C575.526 -77.4569 575.295 -80.6075 578.285 -83.7975C586.392 -92.4473 610.645 -87.002 639.484 -80.5269C649.765 -78.2186 660.629 -75.7794 671.552 -73.8013C928.315 -47.8286 1128.71 168.979 1128.71 432.591C1128.71 713.704 900.825 941.591 619.712 941.591C338.599 941.591 110.712 713.704 110.712 432.591C110.712 332.941 110.804 275.948 160.297 197.454C204.913 116.976 271.739 50.0806 349.461 2.55348C359.6 -6.06453 378.888 -22.7785 387.725 -31.6152C397.887 -41.7777 408.186 -39.4126 413.619 -31.169C465.993 -54.4736 521.528 -69.3972 577.353 -74.472Z" fill="url(#paint1_linear_361_70)"/>
</mask>
<g mask="url(#mask0_361_70)">
<path d="M573.158 121.662C370.48 194.959 189.938 127.981 223.475 23.6456C334.531 -399.061 747.488 -133.441 748.876 -104.289C750.264 -75.137 826.504 30.0404 573.158 121.662Z" fill="url(#paint2_radial_361_70)"/>
<g filter="url(#filter0_f_361_70)">
<path d="M934.518 393.505C787.306 582.24 607.115 579.883 574.614 448.102C454.735 -37.9562 938.415 -7.24415 975.5 98.9207C987.554 133.428 1118.53 157.585 934.518 393.505Z" fill="url(#paint3_radial_361_70)"/>
</g>
</g>
<path d="M465.5 56.5C461.5 58.9 461.5 61 461 62.5C460.5 61.5 460 59.4 456 57C459 54 459.5 53 460.5 51C461 52 461.5 54.1 465.5 56.5Z" fill="#383B51"/>
<path d="M461 62.5L460.553 62.7236L461.093 63.8033L461.474 62.6581L461 62.5ZM465.5 56.5L465.757 56.9287L466.472 56.5L465.757 56.0713L465.5 56.5ZM460.5 51L460.947 50.7764L460.5 49.882L460.053 50.7764L460.5 51ZM456 57L455.646 56.6464L455.194 57.0993L455.743 57.4287L456 57ZM461.474 62.6581C461.759 61.8056 461.84 61.0419 462.375 60.0803C462.886 59.1604 463.815 58.094 465.757 56.9287L465.243 56.0713C463.185 57.306 462.114 58.4896 461.5 59.5947C460.91 60.6581 460.741 61.6944 460.526 62.3419L461.474 62.6581ZM460.053 51.2236C460.268 51.6539 460.564 52.525 461.282 53.5181C462.015 54.5306 463.194 55.6992 465.243 56.9287L465.757 56.0713C463.806 54.9008 462.735 53.8194 462.093 52.9319C461.436 52.025 461.232 51.3461 460.947 50.7764L460.053 51.2236ZM461.447 62.2764C461.232 61.8461 460.936 60.975 460.218 59.9819C459.485 58.9694 458.306 57.8008 456.257 56.5713L455.743 57.4287C457.694 58.5992 458.765 59.6806 459.407 60.5681C460.064 61.475 460.268 62.1539 460.553 62.7236L461.447 62.2764ZM460.053 50.7764C459.552 51.7785 459.192 52.4954 458.593 53.3344C457.992 54.1766 457.139 55.1541 455.646 56.6464L456.354 57.3536C457.861 55.8459 458.758 54.8234 459.407 53.9156C460.058 53.0046 460.448 52.2215 460.947 51.2236L460.053 50.7764Z" fill="#383B51"/>
<path d="M406.5 39.5C402.5 41.9 402.5 44 402 45.5C401.5 44.5 401 42.4 397 40C400 37 400.5 36 401.5 34C402 35 402.5 37.1 406.5 39.5Z" fill="#383B51"/>
<path d="M402 45.5L401.553 45.7236L402.093 46.8033L402.474 45.6581L402 45.5ZM406.5 39.5L406.757 39.9287L407.472 39.5L406.757 39.0713L406.5 39.5ZM401.5 34L401.947 33.7764L401.5 32.882L401.053 33.7764L401.5 34ZM397 40L396.646 39.6464L396.194 40.0993L396.743 40.4287L397 40ZM402.474 45.6581C402.759 44.8056 402.84 44.0419 403.375 43.0803C403.886 42.1604 404.815 41.094 406.757 39.9287L406.243 39.0713C404.185 40.306 403.114 41.4896 402.5 42.5947C401.91 43.6581 401.741 44.6944 401.526 45.3419L402.474 45.6581ZM401.053 34.2236C401.268 34.6539 401.564 35.525 402.282 36.5181C403.015 37.5306 404.194 38.6992 406.243 39.9287L406.757 39.0713C404.806 37.9008 403.735 36.8194 403.093 35.9319C402.436 35.025 402.232 34.3461 401.947 33.7764L401.053 34.2236ZM402.447 45.2764C402.232 44.8461 401.936 43.975 401.218 42.9819C400.485 41.9694 399.306 40.8008 397.257 39.5713L396.743 40.4287C398.694 41.5992 399.765 42.6806 400.407 43.5681C401.064 44.475 401.268 45.1539 401.553 45.7236L402.447 45.2764ZM401.053 33.7764C400.552 34.7785 400.192 35.4954 399.593 36.3344C398.992 37.1766 398.139 38.1541 396.646 39.6464L397.354 40.3536C398.861 38.8459 399.758 37.8234 400.407 36.9156C401.058 36.0046 401.448 35.2215 401.947 34.2236L401.053 33.7764Z" fill="#383B51"/>
<path d="M428.5 16.5C424.5 18.9 424.5 21 424 22.5C423.5 21.5 423 19.4 419 17C422 14 422.5 13 423.5 11C424 12 424.5 14.1 428.5 16.5Z" fill="#383B51"/>
<path d="M424 22.5L423.553 22.7236L424.093 23.8033L424.474 22.6581L424 22.5ZM428.5 16.5L428.757 16.9287L429.472 16.5L428.757 16.0713L428.5 16.5ZM423.5 11L423.947 10.7764L423.5 9.88197L423.053 10.7764L423.5 11ZM419 17L418.646 16.6464L418.194 17.0993L418.743 17.4287L419 17ZM424.474 22.6581C424.759 21.8056 424.84 21.0419 425.375 20.0803C425.886 19.1604 426.815 18.094 428.757 16.9287L428.243 16.0713C426.185 17.306 425.114 18.4896 424.5 19.5947C423.91 20.6581 423.741 21.6944 423.526 22.3419L424.474 22.6581ZM423.053 11.2236C423.268 11.6539 423.564 12.525 424.282 13.5181C425.015 14.5306 426.194 15.6992 428.243 16.9287L428.757 16.0713C426.806 14.9008 425.735 13.8194 425.093 12.9319C424.436 12.025 424.232 11.3461 423.947 10.7764L423.053 11.2236ZM424.447 22.2764C424.232 21.8461 423.936 20.975 423.218 19.9819C422.485 18.9694 421.306 17.8008 419.257 16.5713L418.743 17.4287C420.694 18.5992 421.765 19.6806 422.407 20.5681C423.064 21.475 423.268 22.1539 423.553 22.7236L424.447 22.2764ZM423.053 10.7764C422.552 11.7785 422.192 12.4954 421.593 13.3344C420.992 14.1766 420.139 15.1541 418.646 16.6464L419.354 17.3536C420.861 15.8459 421.758 14.8234 422.407 13.9156C423.058 13.0046 423.448 12.2215 423.947 11.2236L423.053 10.7764Z" fill="#383B51"/>
<path d="M485.5 17.5C481.5 19.9 481.5 22 481 23.5C480.5 22.5 480 20.4 476 18C479 15 479.5 14 480.5 12C481 13 481.5 15.1 485.5 17.5Z" fill="#383B51"/>
<path d="M481 23.5L480.553 23.7236L481.093 24.8033L481.474 23.6581L481 23.5ZM485.5 17.5L485.757 17.9287L486.472 17.5L485.757 17.0713L485.5 17.5ZM480.5 12L480.947 11.7764L480.5 10.882L480.053 11.7764L480.5 12ZM476 18L475.646 17.6464L475.194 18.0993L475.743 18.4287L476 18ZM481.474 23.6581C481.759 22.8056 481.84 22.0419 482.375 21.0803C482.886 20.1604 483.815 19.094 485.757 17.9287L485.243 17.0713C483.185 18.306 482.114 19.4896 481.5 20.5947C480.91 21.6581 480.741 22.6944 480.526 23.3419L481.474 23.6581ZM480.053 12.2236C480.268 12.6539 480.564 13.525 481.282 14.5181C482.015 15.5306 483.194 16.6992 485.243 17.9287L485.757 17.0713C483.806 15.9008 482.735 14.8194 482.093 13.9319C481.436 13.025 481.232 12.3461 480.947 11.7764L480.053 12.2236ZM481.447 23.2764C481.232 22.8461 480.936 21.975 480.218 20.9819C479.485 19.9694 478.306 18.8008 476.257 17.5713L475.743 18.4287C477.694 19.5992 478.765 20.6806 479.407 21.5681C480.064 22.475 480.268 23.1539 480.553 23.7236L481.447 23.2764ZM480.053 11.7764C479.552 12.7785 479.192 13.4954 478.593 14.3344C477.992 15.1766 477.139 16.1541 475.646 17.6464L476.354 18.3536C477.861 16.8459 478.758 15.8234 479.407 14.9156C480.058 14.0046 480.448 13.2215 480.947 12.2236L480.053 11.7764Z" fill="#383B51"/>
<path d="M538.5 60.5C534.5 62.9 534.5 65 534 66.5C533.5 65.5 533 63.4 529 61C532 58 532.5 57 533.5 55C534 56 534.5 58.1 538.5 60.5Z" fill="#383B51"/>
<path d="M534 66.5L533.553 66.7236L534.093 67.8033L534.474 66.6581L534 66.5ZM538.5 60.5L538.757 60.9287L539.472 60.5L538.757 60.0713L538.5 60.5ZM533.5 55L533.947 54.7764L533.5 53.882L533.053 54.7764L533.5 55ZM529 61L528.646 60.6464L528.194 61.0993L528.743 61.4287L529 61ZM534.474 66.6581C534.759 65.8056 534.84 65.0419 535.375 64.0803C535.886 63.1604 536.815 62.094 538.757 60.9287L538.243 60.0713C536.185 61.306 535.114 62.4896 534.5 63.5947C533.91 64.6581 533.741 65.6944 533.526 66.3419L534.474 66.6581ZM533.053 55.2236C533.268 55.6539 533.564 56.525 534.282 57.5181C535.015 58.5306 536.194 59.6992 538.243 60.9287L538.757 60.0713C536.806 58.9008 535.735 57.8194 535.093 56.9319C534.436 56.025 534.232 55.3461 533.947 54.7764L533.053 55.2236ZM534.447 66.2764C534.232 65.8461 533.936 64.975 533.218 63.9819C532.485 62.9694 531.306 61.8008 529.257 60.5713L528.743 61.4287C530.694 62.5992 531.765 63.6806 532.407 64.5681C533.064 65.475 533.268 66.1539 533.553 66.7236L534.447 66.2764ZM533.053 54.7764C532.552 55.7785 532.192 56.4954 531.593 57.3344C530.992 58.1766 530.139 59.1541 528.646 60.6464L529.354 61.3536C530.861 59.8459 531.758 58.8234 532.407 57.9156C533.058 57.0046 533.448 56.2215 533.947 55.2236L533.053 54.7764Z" fill="#383B51"/>
<path d="M553.5 26.5C549.5 28.9 549.5 31 549 32.5C548.5 31.5 548 29.4 544 27C547 24 547.5 23 548.5 21C549 22 549.5 24.1 553.5 26.5Z" fill="#383B51"/>
<path d="M549 32.5L548.553 32.7236L549.093 33.8033L549.474 32.6581L549 32.5ZM553.5 26.5L553.757 26.9287L554.472 26.5L553.757 26.0713L553.5 26.5ZM548.5 21L548.947 20.7764L548.5 19.882L548.053 20.7764L548.5 21ZM544 27L543.646 26.6464L543.194 27.0993L543.743 27.4287L544 27ZM549.474 32.6581C549.759 31.8056 549.84 31.0419 550.375 30.0803C550.886 29.1604 551.815 28.094 553.757 26.9287L553.243 26.0713C551.185 27.306 550.114 28.4896 549.5 29.5947C548.91 30.6581 548.741 31.6944 548.526 32.3419L549.474 32.6581ZM548.053 21.2236C548.268 21.6539 548.564 22.525 549.282 23.5181C550.015 24.5306 551.194 25.6992 553.243 26.9287L553.757 26.0713C551.806 24.9008 550.735 23.8194 550.093 22.9319C549.436 22.025 549.232 21.3461 548.947 20.7764L548.053 21.2236ZM549.447 32.2764C549.232 31.8461 548.936 30.975 548.218 29.9819C547.485 28.9694 546.306 27.8008 544.257 26.5713L543.743 27.4287C545.694 28.5992 546.765 29.6806 547.407 30.5681C548.064 31.475 548.268 32.1539 548.553 32.7236L549.447 32.2764ZM548.053 20.7764C547.552 21.7785 547.192 22.4954 546.593 23.3344C545.992 24.1766 545.139 25.1541 543.646 26.6464L544.354 27.3536C545.861 25.8459 546.758 24.8234 547.407 23.9156C548.058 23.0046 548.448 22.2215 548.947 21.2236L548.053 20.7764Z" fill="#383B51"/>
<path d="M528.5 34.5C524.5 36.9 524.5 39 524 40.5C523.5 39.5 523 37.4 519 35C522 32 522.5 31 523.5 29C524 30 524.5 32.1 528.5 34.5Z" fill="#383B51"/>
<path d="M524 40.5L523.553 40.7236L524.093 41.8033L524.474 40.6581L524 40.5ZM528.5 34.5L528.757 34.9287L529.472 34.5L528.757 34.0713L528.5 34.5ZM523.5 29L523.947 28.7764L523.5 27.882L523.053 28.7764L523.5 29ZM519 35L518.646 34.6464L518.194 35.0993L518.743 35.4287L519 35ZM524.474 40.6581C524.759 39.8056 524.84 39.0419 525.375 38.0803C525.886 37.1604 526.815 36.094 528.757 34.9287L528.243 34.0713C526.185 35.306 525.114 36.4896 524.5 37.5947C523.91 38.6581 523.741 39.6944 523.526 40.3419L524.474 40.6581ZM523.053 29.2236C523.268 29.6539 523.564 30.525 524.282 31.5181C525.015 32.5306 526.194 33.6992 528.243 34.9287L528.757 34.0713C526.806 32.9008 525.735 31.8194 525.093 30.9319C524.436 30.025 524.232 29.3461 523.947 28.7764L523.053 29.2236ZM524.447 40.2764C524.232 39.8461 523.936 38.975 523.218 37.9819C522.485 36.9694 521.306 35.8008 519.257 34.5713L518.743 35.4287C520.694 36.5992 521.765 37.6806 522.407 38.5681C523.064 39.475 523.268 40.1539 523.553 40.7236L524.447 40.2764ZM523.053 28.7764C522.552 29.7785 522.192 30.4954 521.593 31.3344C520.992 32.1766 520.139 33.1541 518.646 34.6464L519.354 35.3536C520.861 33.8459 521.758 32.8234 522.407 31.9156C523.058 31.0046 523.448 30.2215 523.947 29.2236L523.053 28.7764Z" fill="#383B51"/>
<path d="M574.5 54.5C570.5 56.9 570.5 59 570 60.5C569.5 59.5 569 57.4 565 55C568 52 568.5 51 569.5 49C570 50 570.5 52.1 574.5 54.5Z" fill="#383B51"/>
<path d="M570 60.5L569.553 60.7236L570.093 61.8033L570.474 60.6581L570 60.5ZM574.5 54.5L574.757 54.9287L575.472 54.5L574.757 54.0713L574.5 54.5ZM569.5 49L569.947 48.7764L569.5 47.882L569.053 48.7764L569.5 49ZM565 55L564.646 54.6464L564.194 55.0993L564.743 55.4287L565 55ZM570.474 60.6581C570.759 59.8056 570.84 59.0419 571.375 58.0803C571.886 57.1604 572.815 56.094 574.757 54.9287L574.243 54.0713C572.185 55.306 571.114 56.4896 570.5 57.5947C569.91 58.6581 569.741 59.6944 569.526 60.3419L570.474 60.6581ZM569.053 49.2236C569.268 49.6539 569.564 50.525 570.282 51.5181C571.015 52.5306 572.194 53.6992 574.243 54.9287L574.757 54.0713C572.806 52.9008 571.735 51.8194 571.093 50.9319C570.436 50.025 570.232 49.3461 569.947 48.7764L569.053 49.2236ZM570.447 60.2764C570.232 59.8461 569.936 58.975 569.218 57.9819C568.485 56.9694 567.306 55.8008 565.257 54.5713L564.743 55.4287C566.694 56.5992 567.765 57.6806 568.407 58.5681C569.064 59.475 569.268 60.1539 569.553 60.7236L570.447 60.2764ZM569.053 48.7764C568.552 49.7785 568.192 50.4954 567.593 51.3344C566.992 52.1766 566.139 53.1541 564.646 54.6464L565.354 55.3536C566.861 53.8459 567.758 52.8234 568.407 51.9156C569.058 51.0046 569.448 50.2215 569.947 49.2236L569.053 48.7764Z" fill="#383B51"/>
<path d="M600.5 19.5C596.5 21.9 596.5 24 596 25.5C595.5 24.5 595 22.4 591 20C594 17 594.5 16 595.5 14C596 15 596.5 17.1 600.5 19.5Z" fill="#383B51"/>
<path d="M596 25.5L595.553 25.7236L596.093 26.8033L596.474 25.6581L596 25.5ZM600.5 19.5L600.757 19.9287L601.472 19.5L600.757 19.0713L600.5 19.5ZM595.5 14L595.947 13.7764L595.5 12.882L595.053 13.7764L595.5 14ZM591 20L590.646 19.6464L590.194 20.0993L590.743 20.4287L591 20ZM596.474 25.6581C596.759 24.8056 596.84 24.0419 597.375 23.0803C597.886 22.1604 598.815 21.094 600.757 19.9287L600.243 19.0713C598.185 20.306 597.114 21.4896 596.5 22.5947C595.91 23.6581 595.741 24.6944 595.526 25.3419L596.474 25.6581ZM595.053 14.2236C595.268 14.6539 595.564 15.525 596.282 16.5181C597.015 17.5306 598.194 18.6992 600.243 19.9287L600.757 19.0713C598.806 17.9008 597.735 16.8194 597.093 15.9319C596.436 15.025 596.232 14.3461 595.947 13.7764L595.053 14.2236ZM596.447 25.2764C596.232 24.8461 595.936 23.975 595.218 22.9819C594.485 21.9694 593.306 20.8008 591.257 19.5713L590.743 20.4287C592.694 21.5992 593.765 22.6806 594.407 23.5681C595.064 24.475 595.268 25.1539 595.553 25.7236L596.447 25.2764ZM595.053 13.7764C594.552 14.7785 594.192 15.4954 593.593 16.3344C592.992 17.1766 592.139 18.1541 590.646 19.6464L591.354 20.3536C592.861 18.8459 593.758 17.8234 594.407 16.9156C595.058 16.0046 595.448 15.2215 595.947 14.2236L595.053 13.7764Z" fill="#383B51"/>
<path d="M605.5 59.5C601.5 61.9 601.5 64 601 65.5C600.5 64.5 600 62.4 596 60C599 57 599.5 56 600.5 54C601 55 601.5 57.1 605.5 59.5Z" fill="#383B51"/>
<path d="M601 65.5L600.553 65.7236L601.093 66.8033L601.474 65.6581L601 65.5ZM605.5 59.5L605.757 59.9287L606.472 59.5L605.757 59.0713L605.5 59.5ZM600.5 54L600.947 53.7764L600.5 52.882L600.053 53.7764L600.5 54ZM596 60L595.646 59.6464L595.194 60.0993L595.743 60.4287L596 60ZM601.474 65.6581C601.759 64.8056 601.84 64.0419 602.375 63.0803C602.886 62.1604 603.815 61.094 605.757 59.9287L605.243 59.0713C603.185 60.306 602.114 61.4896 601.5 62.5947C600.91 63.6581 600.741 64.6944 600.526 65.3419L601.474 65.6581ZM600.053 54.2236C600.268 54.6539 600.564 55.525 601.282 56.5181C602.015 57.5306 603.194 58.6992 605.243 59.9287L605.757 59.0713C603.806 57.9008 602.735 56.8194 602.093 55.9319C601.436 55.025 601.232 54.3461 600.947 53.7764L600.053 54.2236ZM601.447 65.2764C601.232 64.8461 600.936 63.975 600.218 62.9819C599.485 61.9694 598.306 60.8008 596.257 59.5713L595.743 60.4287C597.694 61.5992 598.765 62.6806 599.407 63.5681C600.064 64.475 600.268 65.1539 600.553 65.7236L601.447 65.2764ZM600.053 53.7764C599.552 54.7785 599.192 55.4954 598.593 56.3344C597.992 57.1766 597.139 58.1541 595.646 59.6464L596.354 60.3536C597.861 58.8459 598.758 57.8234 599.407 56.9156C600.058 56.0046 600.448 55.2215 600.947 54.2236L600.053 53.7764Z" fill="#383B51"/>
<path d="M624.5 35.5C620.5 37.9 620.5 40 620 41.5C619.5 40.5 619 38.4 615 36C618 33 618.5 32 619.5 30C620 31 620.5 33.1 624.5 35.5Z" fill="#383B51"/>
<path d="M620 41.5L619.553 41.7236L620.093 42.8033L620.474 41.6581L620 41.5ZM624.5 35.5L624.757 35.9287L625.472 35.5L624.757 35.0713L624.5 35.5ZM619.5 30L619.947 29.7764L619.5 28.882L619.053 29.7764L619.5 30ZM615 36L614.646 35.6464L614.194 36.0993L614.743 36.4287L615 36ZM620.474 41.6581C620.759 40.8056 620.84 40.0419 621.375 39.0803C621.886 38.1604 622.815 37.094 624.757 35.9287L624.243 35.0713C622.185 36.306 621.114 37.4896 620.5 38.5947C619.91 39.6581 619.741 40.6944 619.526 41.3419L620.474 41.6581ZM619.053 30.2236C619.268 30.6539 619.564 31.525 620.282 32.5181C621.015 33.5306 622.194 34.6992 624.243 35.9287L624.757 35.0713C622.806 33.9008 621.735 32.8194 621.093 31.9319C620.436 31.025 620.232 30.3461 619.947 29.7764L619.053 30.2236ZM620.447 41.2764C620.232 40.8461 619.936 39.975 619.218 38.9819C618.485 37.9694 617.306 36.8008 615.257 35.5713L614.743 36.4287C616.694 37.5992 617.765 38.6806 618.407 39.5681C619.064 40.475 619.268 41.1539 619.553 41.7236L620.447 41.2764ZM619.053 29.7764C618.552 30.7785 618.192 31.4954 617.593 32.3344C616.992 33.1766 616.139 34.1541 614.646 35.6464L615.354 36.3536C616.861 34.8459 617.758 33.8234 618.407 32.9156C619.058 32.0046 619.448 31.2215 619.947 30.2236L619.053 29.7764Z" fill="#383B51"/>
<path d="M648.5 60.5C644.5 62.9 644.5 65 644 66.5C643.5 65.5 643 63.4 639 61C642 58 642.5 57 643.5 55C644 56 644.5 58.1 648.5 60.5Z" fill="#383B51"/>
<path d="M644 66.5L643.553 66.7236L644.093 67.8033L644.474 66.6581L644 66.5ZM648.5 60.5L648.757 60.9287L649.472 60.5L648.757 60.0713L648.5 60.5ZM643.5 55L643.947 54.7764L643.5 53.882L643.053 54.7764L643.5 55ZM639 61L638.646 60.6464L638.194 61.0993L638.743 61.4287L639 61ZM644.474 66.6581C644.759 65.8056 644.84 65.0419 645.375 64.0803C645.886 63.1604 646.815 62.094 648.757 60.9287L648.243 60.0713C646.185 61.306 645.114 62.4896 644.5 63.5947C643.91 64.6581 643.741 65.6944 643.526 66.3419L644.474 66.6581ZM643.053 55.2236C643.268 55.6539 643.564 56.525 644.282 57.5181C645.015 58.5306 646.194 59.6992 648.243 60.9287L648.757 60.0713C646.806 58.9008 645.735 57.8194 645.093 56.9319C644.436 56.025 644.232 55.3461 643.947 54.7764L643.053 55.2236ZM644.447 66.2764C644.232 65.8461 643.936 64.975 643.218 63.9819C642.485 62.9694 641.306 61.8008 639.257 60.5713L638.743 61.4287C640.694 62.5992 641.765 63.6806 642.407 64.5681C643.064 65.475 643.268 66.1539 643.553 66.7236L644.447 66.2764ZM643.053 54.7764C642.552 55.7785 642.192 56.4954 641.593 57.3344C640.992 58.1766 640.139 59.1541 638.646 60.6464L639.354 61.3536C640.861 59.8459 641.758 58.8234 642.407 57.9156C643.058 57.0046 643.448 56.2215 643.947 55.2236L643.053 54.7764Z" fill="#383B51"/>
<path d="M658.5 27.5C654.5 29.9 654.5 32 654 33.5C653.5 32.5 653 30.4 649 28C652 25 652.5 24 653.5 22C654 23 654.5 25.1 658.5 27.5Z" fill="#383B51"/>
<path d="M654 33.5L653.553 33.7236L654.093 34.8033L654.474 33.6581L654 33.5ZM658.5 27.5L658.757 27.9287L659.472 27.5L658.757 27.0713L658.5 27.5ZM653.5 22L653.947 21.7764L653.5 20.882L653.053 21.7764L653.5 22ZM649 28L648.646 27.6464L648.194 28.0993L648.743 28.4287L649 28ZM654.474 33.6581C654.759 32.8056 654.84 32.0419 655.375 31.0803C655.886 30.1604 656.815 29.094 658.757 27.9287L658.243 27.0713C656.185 28.306 655.114 29.4896 654.5 30.5947C653.91 31.6581 653.741 32.6944 653.526 33.3419L654.474 33.6581ZM653.053 22.2236C653.268 22.6539 653.564 23.525 654.282 24.5181C655.015 25.5306 656.194 26.6992 658.243 27.9287L658.757 27.0713C656.806 25.9008 655.735 24.8194 655.093 23.9319C654.436 23.025 654.232 22.3461 653.947 21.7764L653.053 22.2236ZM654.447 33.2764C654.232 32.8461 653.936 31.975 653.218 30.9819C652.485 29.9694 651.306 28.8008 649.257 27.5713L648.743 28.4287C650.694 29.5992 651.765 30.6806 652.407 31.5681C653.064 32.475 653.268 33.1539 653.553 33.7236L654.447 33.2764ZM653.053 21.7764C652.552 22.7785 652.192 23.4954 651.593 24.3344C650.992 25.1766 650.139 26.1541 648.646 27.6464L649.354 28.3536C650.861 26.8459 651.758 25.8234 652.407 24.9156C653.058 24.0046 653.448 23.2215 653.947 22.2236L653.053 21.7764Z" fill="#383B51"/>
<path d="M397.5 61.5C393.5 63.9 393.5 66 393 67.5C392.5 66.5 392 64.4 388 62C391 59 391.5 58 392.5 56C393 57 393.5 59.1 397.5 61.5Z" fill="#383B51"/>
<path d="M393 67.5L392.553 67.7236L393.093 68.8033L393.474 67.6581L393 67.5ZM397.5 61.5L397.757 61.9287L398.472 61.5L397.757 61.0713L397.5 61.5ZM392.5 56L392.947 55.7764L392.5 54.882L392.053 55.7764L392.5 56ZM388 62L387.646 61.6464L387.194 62.0993L387.743 62.4287L388 62ZM393.474 67.6581C393.759 66.8056 393.84 66.0419 394.375 65.0803C394.886 64.1604 395.815 63.094 397.757 61.9287L397.243 61.0713C395.185 62.306 394.114 63.4896 393.5 64.5947C392.91 65.6581 392.741 66.6944 392.526 67.3419L393.474 67.6581ZM392.053 56.2236C392.268 56.6539 392.564 57.525 393.282 58.5181C394.015 59.5306 395.194 60.6992 397.243 61.9287L397.757 61.0713C395.806 59.9008 394.735 58.8194 394.093 57.9319C393.436 57.025 393.232 56.3461 392.947 55.7764L392.053 56.2236ZM393.447 67.2764C393.232 66.8461 392.936 65.975 392.218 64.9819C391.485 63.9694 390.306 62.8008 388.257 61.5713L387.743 62.4287C389.694 63.5992 390.765 64.6806 391.407 65.5681C392.064 66.475 392.268 67.1539 392.553 67.7236L393.447 67.2764ZM392.053 55.7764C391.552 56.7785 391.192 57.4954 390.593 58.3344C389.992 59.1766 389.139 60.1541 387.646 61.6464L388.354 62.3536C389.861 60.8459 390.758 59.8234 391.407 58.9156C392.058 58.0046 392.448 57.2215 392.947 56.2236L392.053 55.7764Z" fill="#383B51"/>
<path fill-rule="evenodd" clip-rule="evenodd" d="M445.17 10.6408C448.384 6.02805 452.896 3.62495 454.75 3C455.552 4.58603 456.787 9.06853 455.312 14.3104C453.468 20.8627 446.944 33.6817 446.431 33.8665C446.403 33.8768 446.38 33.9165 446.362 33.9825L448.76 47.1806L439.897 44.2141C437.236 49.3016 431.787 57.199 430.612 53.8734C429.817 51.6239 430.846 46.3563 432.128 41.6139L424 38.8936L429.816 34.7861C430.828 33.9165 431.971 33.0114 432.97 32.2203L432.97 32.2202C434.47 31.0326 435.645 30.102 435.565 29.9348C435.353 29.4879 441.153 16.4068 445.17 10.6408Z" fill="url(#paint4_linear_361_70)"/>
<path fill-rule="evenodd" clip-rule="evenodd" d="M132.17 26.6408C135.384 22.0281 139.896 19.625 141.75 19C142.552 20.586 143.787 25.0685 142.312 30.3104C140.468 36.8627 133.944 49.6817 133.431 49.8665C133.403 49.8768 133.38 49.9165 133.362 49.9825L135.76 63.1806L126.897 60.2141C124.236 65.3016 118.787 73.199 117.612 69.8734C116.817 67.6239 117.846 62.3563 119.128 57.6139L111 54.8936L116.816 50.7861C117.828 49.9165 118.971 49.0114 119.97 48.2203L119.97 48.2202C121.47 47.0326 122.645 46.102 122.565 45.9348C122.353 45.4879 128.153 32.4068 132.17 26.6408Z" fill="url(#paint5_linear_361_70)"/>
<path fill-rule="evenodd" clip-rule="evenodd" d="M253.17 10.6408C256.384 6.02805 260.896 3.62495 262.75 3C263.552 4.58603 264.787 9.06853 263.312 14.3104C261.468 20.8627 254.944 33.6817 254.431 33.8665C254.403 33.8768 254.38 33.9165 254.362 33.9825L256.76 47.1806L247.897 44.2141C245.236 49.3016 239.787 57.199 238.612 53.8734C237.817 51.6239 238.846 46.3563 240.128 41.6139L232 38.8936L237.816 34.7861C238.828 33.9165 239.971 33.0114 240.97 32.2203L240.97 32.2202C242.47 31.0326 243.645 30.102 243.565 29.9348C243.353 29.4879 249.153 16.4068 253.17 10.6408Z" fill="url(#paint6_linear_361_70)"/>
<path fill-rule="evenodd" clip-rule="evenodd" d="M502.17 23.6408C505.384 19.0281 509.896 16.625 511.75 16C512.552 17.586 513.787 22.0685 512.312 27.3104C510.468 33.8627 503.944 46.6817 503.431 46.8665C503.403 46.8768 503.38 46.9165 503.362 46.9825L505.76 60.1806L496.897 57.2141C494.236 62.3016 488.787 70.199 487.612 66.8734C486.817 64.6239 487.846 59.3563 489.128 54.6139L481 51.8936L486.816 47.7861C487.828 46.9165 488.971 46.0114 489.97 45.2203L489.97 45.2202C491.47 44.0326 492.645 43.102 492.565 42.9348C492.353 42.4879 498.153 29.4068 502.17 23.6408Z" fill="url(#paint7_linear_361_70)"/>
<path fill-rule="evenodd" clip-rule="evenodd" d="M704.17 11.6408C707.384 7.02805 711.896 4.62495 713.75 4C714.552 5.58603 715.787 10.0685 714.312 15.3104C712.468 21.8627 705.944 34.6817 705.431 34.8665C705.403 34.8768 705.38 34.9165 705.362 34.9825L707.76 48.1806L698.897 45.2141C696.236 50.3016 690.787 58.199 689.612 54.8734C688.817 52.6239 689.846 47.3563 691.128 42.6139L683 39.8936L688.816 35.7861C689.828 34.9165 690.971 34.0114 691.97 33.2203L691.97 33.2202C693.47 32.0326 694.645 31.102 694.565 30.9348C694.353 30.4879 700.153 17.4068 704.17 11.6408Z" fill="url(#paint8_linear_361_70)"/>
<path d="M194.5 28.5C190.5 30.9 190.5 33 190 34.5C189.5 33.5 189 31.4 185 29C188 26 188.5 25 189.5 23C190 24 190.5 26.1 194.5 28.5Z" fill="#383B51"/>
<path d="M190 34.5L189.553 34.7236L190.093 35.8033L190.474 34.6581L190 34.5ZM194.5 28.5L194.757 28.9287L195.472 28.5L194.757 28.0713L194.5 28.5ZM189.5 23L189.947 22.7764L189.5 21.882L189.053 22.7764L189.5 23ZM185 29L184.646 28.6464L184.194 29.0993L184.743 29.4287L185 29ZM190.474 34.6581C190.759 33.8056 190.84 33.0419 191.375 32.0803C191.886 31.1604 192.815 30.094 194.757 28.9287L194.243 28.0713C192.185 29.306 191.114 30.4896 190.5 31.5947C189.91 32.6581 189.741 33.6944 189.526 34.3419L190.474 34.6581ZM189.053 23.2236C189.268 23.6539 189.564 24.525 190.282 25.5181C191.015 26.5306 192.194 27.6992 194.243 28.9287L194.757 28.0713C192.806 26.9008 191.735 25.8194 191.093 24.9319C190.436 24.025 190.232 23.3461 189.947 22.7764L189.053 23.2236ZM190.447 34.2764C190.232 33.8461 189.936 32.975 189.218 31.9819C188.485 30.9694 187.306 29.8008 185.257 28.5713L184.743 29.4287C186.694 30.5992 187.765 31.6806 188.407 32.5681C189.064 33.475 189.268 34.1539 189.553 34.7236L190.447 34.2764ZM189.053 22.7764C188.552 23.7785 188.192 24.4954 187.593 25.3344C186.992 26.1766 186.139 27.1541 184.646 28.6464L185.354 29.3536C186.861 27.8459 187.758 26.8234 188.407 25.9156C189.058 25.0046 189.448 24.2215 189.947 23.2236L189.053 22.7764Z" fill="#383B51"/>
<path d="M157.5 13.5C153.5 15.9 153.5 18 153 19.5C152.5 18.5 152 16.4 148 14C151 11 151.5 10 152.5 8C153 9 153.5 11.1 157.5 13.5Z" fill="#383B51"/>
<path d="M153 19.5L152.553 19.7236L153.093 20.8033L153.474 19.6581L153 19.5ZM157.5 13.5L157.757 13.9287L158.472 13.5L157.757 13.0713L157.5 13.5ZM152.5 8L152.947 7.77639L152.5 6.88197L152.053 7.77639L152.5 8ZM148 14L147.646 13.6464L147.194 14.0993L147.743 14.4287L148 14ZM153.474 19.6581C153.759 18.8056 153.84 18.0419 154.375 17.0803C154.886 16.1604 155.815 15.094 157.757 13.9287L157.243 13.0713C155.185 14.306 154.114 15.4896 153.5 16.5947C152.91 17.6581 152.741 18.6944 152.526 19.3419L153.474 19.6581ZM152.053 8.22361C152.268 8.6539 152.564 9.52502 153.282 10.5181C154.015 11.5306 155.194 12.6992 157.243 13.9287L157.757 13.0713C155.806 11.9008 154.735 10.8194 154.093 9.93187C153.436 9.02498 153.232 8.3461 152.947 7.77639L152.053 8.22361ZM153.447 19.2764C153.232 18.8461 152.936 17.975 152.218 16.9819C151.485 15.9694 150.306 14.8008 148.257 13.5713L147.743 14.4287C149.694 15.5992 150.765 16.6806 151.407 17.5681C152.064 18.475 152.268 19.1539 152.553 19.7236L153.447 19.2764ZM152.053 7.77639C151.552 8.77851 151.192 9.49538 150.593 10.3344C149.992 11.1766 149.139 12.1541 147.646 13.6464L148.354 14.3536C149.861 12.8459 150.758 11.8234 151.407 10.9156C152.058 10.0046 152.448 9.22149 152.947 8.22361L152.053 7.77639Z" fill="#383B51"/>
<path d="M216.5 60.5C212.5 62.9 212.5 65 212 66.5C211.5 65.5 211 63.4 207 61C210 58 210.5 57 211.5 55C212 56 212.5 58.1 216.5 60.5Z" fill="#383B51"/>
<path d="M212 66.5L211.553 66.7236L212.093 67.8033L212.474 66.6581L212 66.5ZM216.5 60.5L216.757 60.9287L217.472 60.5L216.757 60.0713L216.5 60.5ZM211.5 55L211.947 54.7764L211.5 53.882L211.053 54.7764L211.5 55ZM207 61L206.646 60.6464L206.194 61.0993L206.743 61.4287L207 61ZM212.474 66.6581C212.759 65.8056 212.84 65.0419 213.375 64.0803C213.886 63.1604 214.815 62.094 216.757 60.9287L216.243 60.0713C214.185 61.306 213.114 62.4896 212.5 63.5947C211.91 64.6581 211.741 65.6944 211.526 66.3419L212.474 66.6581ZM211.053 55.2236C211.268 55.6539 211.564 56.525 212.282 57.5181C213.015 58.5306 214.194 59.6992 216.243 60.9287L216.757 60.0713C214.806 58.9008 213.735 57.8194 213.093 56.9319C212.436 56.025 212.232 55.3461 211.947 54.7764L211.053 55.2236ZM212.447 66.2764C212.232 65.8461 211.936 64.975 211.218 63.9819C210.485 62.9694 209.306 61.8008 207.257 60.5713L206.743 61.4287C208.694 62.5992 209.765 63.6806 210.407 64.5681C211.064 65.475 211.268 66.1539 211.553 66.7236L212.447 66.2764ZM211.053 54.7764C210.552 55.7785 210.192 56.4954 209.593 57.3344C208.992 58.1766 208.139 59.1541 206.646 60.6464L207.354 61.3536C208.861 59.8459 209.758 58.8234 210.407 57.9156C211.058 57.0046 211.448 56.2215 211.947 55.2236L211.053 54.7764Z" fill="#383B51"/>
<path d="M293.5 18.5C289.5 20.9 289.5 23 289 24.5C288.5 23.5 288 21.4 284 19C287 16 287.5 15 288.5 13C289 14 289.5 16.1 293.5 18.5Z" fill="#383B51"/>
<path d="M289 24.5L288.553 24.7236L289.093 25.8033L289.474 24.6581L289 24.5ZM293.5 18.5L293.757 18.9287L294.472 18.5L293.757 18.0713L293.5 18.5ZM288.5 13L288.947 12.7764L288.5 11.882L288.053 12.7764L288.5 13ZM284 19L283.646 18.6464L283.194 19.0993L283.743 19.4287L284 19ZM289.474 24.6581C289.759 23.8056 289.84 23.0419 290.375 22.0803C290.886 21.1604 291.815 20.094 293.757 18.9287L293.243 18.0713C291.185 19.306 290.114 20.4896 289.5 21.5947C288.91 22.6581 288.741 23.6944 288.526 24.3419L289.474 24.6581ZM288.053 13.2236C288.268 13.6539 288.564 14.525 289.282 15.5181C290.015 16.5306 291.194 17.6992 293.243 18.9287L293.757 18.0713C291.806 16.9008 290.735 15.8194 290.093 14.9319C289.436 14.025 289.232 13.3461 288.947 12.7764L288.053 13.2236ZM289.447 24.2764C289.232 23.8461 288.936 22.975 288.218 21.9819C287.485 20.9694 286.306 19.8008 284.257 18.5713L283.743 19.4287C285.694 20.5992 286.765 21.6806 287.407 22.5681C288.064 23.475 288.268 24.1539 288.553 24.7236L289.447 24.2764ZM288.053 12.7764C287.552 13.7785 287.192 14.4954 286.593 15.3344C285.992 16.1766 285.139 17.1541 283.646 18.6464L284.354 19.3536C285.861 17.8459 286.758 16.8234 287.407 15.9156C288.058 15.0046 288.448 14.2215 288.947 13.2236L288.053 12.7764Z" fill="#383B51"/>
<path d="M231.5 14.5C227.5 16.9 227.5 19 227 20.5C226.5 19.5 226 17.4 222 15C225 12 225.5 11 226.5 9C227 10 227.5 12.1 231.5 14.5Z" fill="#383B51"/>
<path d="M227 20.5L226.553 20.7236L227.093 21.8033L227.474 20.6581L227 20.5ZM231.5 14.5L231.757 14.9287L232.472 14.5L231.757 14.0713L231.5 14.5ZM226.5 9L226.947 8.77639L226.5 7.88197L226.053 8.77639L226.5 9ZM222 15L221.646 14.6464L221.194 15.0993L221.743 15.4287L222 15ZM227.474 20.6581C227.759 19.8056 227.84 19.0419 228.375 18.0803C228.886 17.1604 229.815 16.094 231.757 14.9287L231.243 14.0713C229.185 15.306 228.114 16.4896 227.5 17.5947C226.91 18.6581 226.741 19.6944 226.526 20.3419L227.474 20.6581ZM226.053 9.22361C226.268 9.6539 226.564 10.525 227.282 11.5181C228.015 12.5306 229.194 13.6992 231.243 14.9287L231.757 14.0713C229.806 12.9008 228.735 11.8194 228.093 10.9319C227.436 10.025 227.232 9.3461 226.947 8.77639L226.053 9.22361ZM227.447 20.2764C227.232 19.8461 226.936 18.975 226.218 17.9819C225.485 16.9694 224.306 15.8008 222.257 14.5713L221.743 15.4287C223.694 16.5992 224.765 17.6806 225.407 18.5681C226.064 19.475 226.268 20.1539 226.553 20.7236L227.447 20.2764ZM226.053 8.77639C225.552 9.77851 225.192 10.4954 224.593 11.3344C223.992 12.1766 223.139 13.1541 221.646 14.6464L222.354 15.3536C223.861 13.8459 224.758 12.8234 225.407 11.9156C226.058 11.0046 226.448 10.2215 226.947 9.22361L226.053 8.77639Z" fill="#383B51"/>
<path d="M157.5 52.5C153.5 54.9 153.5 57 153 58.5C152.5 57.5 152 55.4 148 53C151 50 151.5 49 152.5 47C153 48 153.5 50.1 157.5 52.5Z" fill="#383B51"/>
<path d="M153 58.5L152.553 58.7236L153.093 59.8033L153.474 58.6581L153 58.5ZM157.5 52.5L157.757 52.9287L158.472 52.5L157.757 52.0713L157.5 52.5ZM152.5 47L152.947 46.7764L152.5 45.882L152.053 46.7764L152.5 47ZM148 53L147.646 52.6464L147.194 53.0993L147.743 53.4287L148 53ZM153.474 58.6581C153.759 57.8056 153.84 57.0419 154.375 56.0803C154.886 55.1604 155.815 54.094 157.757 52.9287L157.243 52.0713C155.185 53.306 154.114 54.4896 153.5 55.5947C152.91 56.6581 152.741 57.6944 152.526 58.3419L153.474 58.6581ZM152.053 47.2236C152.268 47.6539 152.564 48.525 153.282 49.5181C154.015 50.5306 155.194 51.6992 157.243 52.9287L157.757 52.0713C155.806 50.9008 154.735 49.8194 154.093 48.9319C153.436 48.025 153.232 47.3461 152.947 46.7764L152.053 47.2236ZM153.447 58.2764C153.232 57.8461 152.936 56.975 152.218 55.9819C151.485 54.9694 150.306 53.8008 148.257 52.5713L147.743 53.4287C149.694 54.5992 150.765 55.6806 151.407 56.5681C152.064 57.475 152.268 58.1539 152.553 58.7236L153.447 58.2764ZM152.053 46.7764C151.552 47.7785 151.192 48.4954 150.593 49.3344C149.992 50.1766 149.139 51.1541 147.646 52.6464L148.354 53.3536C149.861 51.8459 150.758 50.8234 151.407 49.9156C152.058 49.0046 152.448 48.2215 152.947 47.2236L152.053 46.7764Z" fill="#383B51"/>
<path d="M101.5 12.5C97.5 14.9 97.5 17 97 18.5C96.5 17.5 96 15.4 92 13C95 10 95.5 9 96.5 7C97 8 97.5 10.1 101.5 12.5Z" fill="#383B51"/>
<path d="M97 18.5L96.5528 18.7236L97.0926 19.8033L97.4743 18.6581L97 18.5ZM101.5 12.5L101.757 12.9287L102.472 12.5L101.757 12.0713L101.5 12.5ZM96.5 7L96.9472 6.77639L96.5 5.88197L96.0528 6.77639L96.5 7ZM92 13L91.6464 12.6464L91.1936 13.0993L91.7428 13.4287L92 13ZM97.4743 18.6581C97.7585 17.8056 97.8404 17.0419 98.3746 16.0803C98.8857 15.1604 99.8152 14.094 101.757 12.9287L101.243 12.0713C99.1848 13.306 98.1143 14.4896 97.5004 15.5947C96.9096 16.6581 96.7415 17.6944 96.5257 18.3419L97.4743 18.6581ZM96.0528 7.22361C96.2679 7.6539 96.5637 8.52502 97.2824 9.51813C98.0151 10.5306 99.1936 11.6992 101.243 12.9287L101.757 12.0713C99.8064 10.9008 98.7349 9.81944 98.0926 8.93187C97.4363 8.02498 97.2321 7.3461 96.9472 6.77639L96.0528 7.22361ZM97.4472 18.2764C97.2321 17.8461 96.9363 16.975 96.2176 15.9819C95.4849 14.9694 94.3064 13.8008 92.2572 12.5713L91.7428 13.4287C93.6936 14.5992 94.7651 15.6806 95.4074 16.5681C96.0637 17.475 96.2679 18.1539 96.5528 18.7236L97.4472 18.2764ZM96.0528 6.77639C95.5517 7.77851 95.1924 8.49538 94.5931 9.33438C93.9916 10.1766 93.1388 11.1541 91.6464 12.6464L92.3536 13.3536C93.8612 11.8459 94.7584 10.8234 95.4069 9.91562C96.0576 9.00462 96.4483 8.22149 96.9472 7.22361L96.0528 6.77639Z" fill="#383B51"/>
<path d="M58.5 23.5C54.5 25.9 54.5 28 54 29.5C53.5 28.5 53 26.4 49 24C52 21 52.5 20 53.5 18C54 19 54.5 21.1 58.5 23.5Z" fill="#383B51"/>
<path d="M54 29.5L53.5528 29.7236L54.0926 30.8033L54.4743 29.6581L54 29.5ZM58.5 23.5L58.7572 23.9287L59.4718 23.5L58.7572 23.0713L58.5 23.5ZM53.5 18L53.9472 17.7764L53.5 16.882L53.0528 17.7764L53.5 18ZM49 24L48.6464 23.6464L48.1936 24.0993L48.7428 24.4287L49 24ZM54.4743 29.6581C54.7585 28.8056 54.8404 28.0419 55.3746 27.0803C55.8857 26.1604 56.8152 25.094 58.7572 23.9287L58.2428 23.0713C56.1848 24.306 55.1143 25.4896 54.5004 26.5947C53.9096 27.6581 53.7415 28.6944 53.5257 29.3419L54.4743 29.6581ZM53.0528 18.2236C53.2679 18.6539 53.5637 19.525 54.2824 20.5181C55.0151 21.5306 56.1936 22.6992 58.2428 23.9287L58.7572 23.0713C56.8064 21.9008 55.7349 20.8194 55.0926 19.9319C54.4363 19.025 54.2321 18.3461 53.9472 17.7764L53.0528 18.2236ZM54.4472 29.2764C54.2321 28.8461 53.9363 27.975 53.2176 26.9819C52.4849 25.9694 51.3064 24.8008 49.2572 23.5713L48.7428 24.4287C50.6936 25.5992 51.7651 26.6806 52.4074 27.5681C53.0637 28.475 53.2679 29.1539 53.5528 29.7236L54.4472 29.2764ZM53.0528 17.7764C52.5517 18.7785 52.1924 19.4954 51.5931 20.3344C50.9916 21.1766 50.1388 22.1541 48.6464 23.6464L49.3536 24.3536C50.8612 22.8459 51.7584 21.8234 52.4069 20.9156C53.0576 20.0046 53.4483 19.2215 53.9472 18.2236L53.0528 17.7764Z" fill="#383B51"/>
<path d="M388.5 20.5C384.5 22.9 384.5 25 384 26.5C383.5 25.5 383 23.4 379 21C382 18 382.5 17 383.5 15C384 16 384.5 18.1 388.5 20.5Z" fill="#383B51"/>
<path d="M384 26.5L383.553 26.7236L384.093 27.8033L384.474 26.6581L384 26.5ZM388.5 20.5L388.757 20.9287L389.472 20.5L388.757 20.0713L388.5 20.5ZM383.5 15L383.947 14.7764L383.5 13.882L383.053 14.7764L383.5 15ZM379 21L378.646 20.6464L378.194 21.0993L378.743 21.4287L379 21ZM384.474 26.6581C384.759 25.8056 384.84 25.0419 385.375 24.0803C385.886 23.1604 386.815 22.094 388.757 20.9287L388.243 20.0713C386.185 21.306 385.114 22.4896 384.5 23.5947C383.91 24.6581 383.741 25.6944 383.526 26.3419L384.474 26.6581ZM383.053 15.2236C383.268 15.6539 383.564 16.525 384.282 17.5181C385.015 18.5306 386.194 19.6992 388.243 20.9287L388.757 20.0713C386.806 18.9008 385.735 17.8194 385.093 16.9319C384.436 16.025 384.232 15.3461 383.947 14.7764L383.053 15.2236ZM384.447 26.2764C384.232 25.8461 383.936 24.975 383.218 23.9819C382.485 22.9694 381.306 21.8008 379.257 20.5713L378.743 21.4287C380.694 22.5992 381.765 23.6806 382.407 24.5681C383.064 25.475 383.268 26.1539 383.553 26.7236L384.447 26.2764ZM383.053 14.7764C382.552 15.7785 382.192 16.4954 381.593 17.3344C380.992 18.1766 380.139 19.1541 378.646 20.6464L379.354 21.3536C380.861 19.8459 381.758 18.8234 382.407 17.9156C383.058 17.0046 383.448 16.2215 383.947 15.2236L383.053 14.7764Z" fill="#383B51"/>
<path d="M337.5 50.5C333.5 52.9 333.5 55 333 56.5C332.5 55.5 332 53.4 328 51C331 48 331.5 47 332.5 45C333 46 333.5 48.1 337.5 50.5Z" fill="#383B51"/>
<path d="M333 56.5L332.553 56.7236L333.093 57.8033L333.474 56.6581L333 56.5ZM337.5 50.5L337.757 50.9287L338.472 50.5L337.757 50.0713L337.5 50.5ZM332.5 45L332.947 44.7764L332.5 43.882L332.053 44.7764L332.5 45ZM328 51L327.646 50.6464L327.194 51.0993L327.743 51.4287L328 51ZM333.474 56.6581C333.759 55.8056 333.84 55.0419 334.375 54.0803C334.886 53.1604 335.815 52.094 337.757 50.9287L337.243 50.0713C335.185 51.306 334.114 52.4896 333.5 53.5947C332.91 54.6581 332.741 55.6944 332.526 56.3419L333.474 56.6581ZM332.053 45.2236C332.268 45.6539 332.564 46.525 333.282 47.5181C334.015 48.5306 335.194 49.6992 337.243 50.9287L337.757 50.0713C335.806 48.9008 334.735 47.8194 334.093 46.9319C333.436 46.025 333.232 45.3461 332.947 44.7764L332.053 45.2236ZM333.447 56.2764C333.232 55.8461 332.936 54.975 332.218 53.9819C331.485 52.9694 330.306 51.8008 328.257 50.5713L327.743 51.4287C329.694 52.5992 330.765 53.6806 331.407 54.5681C332.064 55.475 332.268 56.1539 332.553 56.7236L333.447 56.2764ZM332.053 44.7764C331.552 45.7785 331.192 46.4954 330.593 47.3344C329.992 48.1766 329.139 49.1541 327.646 50.6464L328.354 51.3536C329.861 49.8459 330.758 48.8234 331.407 47.9156C332.058 47.0046 332.448 46.2215 332.947 45.2236L332.053 44.7764Z" fill="#383B51"/>
<path d="M365.5 47.5C361.5 49.9 361.5 52 361 53.5C360.5 52.5 360 50.4 356 48C359 45 359.5 44 360.5 42C361 43 361.5 45.1 365.5 47.5Z" fill="#383B51"/>
<path d="M361 53.5L360.553 53.7236L361.093 54.8033L361.474 53.6581L361 53.5ZM365.5 47.5L365.757 47.9287L366.472 47.5L365.757 47.0713L365.5 47.5ZM360.5 42L360.947 41.7764L360.5 40.882L360.053 41.7764L360.5 42ZM356 48L355.646 47.6464L355.194 48.0993L355.743 48.4287L356 48ZM361.474 53.6581C361.759 52.8056 361.84 52.0419 362.375 51.0803C362.886 50.1604 363.815 49.094 365.757 47.9287L365.243 47.0713C363.185 48.306 362.114 49.4896 361.5 50.5947C360.91 51.6581 360.741 52.6944 360.526 53.3419L361.474 53.6581ZM360.053 42.2236C360.268 42.6539 360.564 43.525 361.282 44.5181C362.015 45.5306 363.194 46.6992 365.243 47.9287L365.757 47.0713C363.806 45.9008 362.735 44.8194 362.093 43.9319C361.436 43.025 361.232 42.3461 360.947 41.7764L360.053 42.2236ZM361.447 53.2764C361.232 52.8461 360.936 51.975 360.218 50.9819C359.485 49.9694 358.306 48.8008 356.257 47.5713L355.743 48.4287C357.694 49.5992 358.765 50.6806 359.407 51.5681C360.064 52.475 360.268 53.1539 360.553 53.7236L361.447 53.2764ZM360.053 41.7764C359.552 42.7785 359.192 43.4954 358.593 44.3344C357.992 45.1766 357.139 46.1541 355.646 47.6464L356.354 48.3536C357.861 46.8459 358.758 45.8234 359.407 44.9156C360.058 44.0046 360.448 43.2215 360.947 42.2236L360.053 41.7764Z" fill="#383B51"/>
<path d="M350.5 25.5C346.5 27.9 346.5 30 346 31.5C345.5 30.5 345 28.4 341 26C344 23 344.5 22 345.5 20C346 21 346.5 23.1 350.5 25.5Z" fill="#383B51"/>
<path d="M346 31.5L345.553 31.7236L346.093 32.8033L346.474 31.6581L346 31.5ZM350.5 25.5L350.757 25.9287L351.472 25.5L350.757 25.0713L350.5 25.5ZM345.5 20L345.947 19.7764L345.5 18.882L345.053 19.7764L345.5 20ZM341 26L340.646 25.6464L340.194 26.0993L340.743 26.4287L341 26ZM346.474 31.6581C346.759 30.8056 346.84 30.0419 347.375 29.0803C347.886 28.1604 348.815 27.094 350.757 25.9287L350.243 25.0713C348.185 26.306 347.114 27.4896 346.5 28.5947C345.91 29.6581 345.741 30.6944 345.526 31.3419L346.474 31.6581ZM345.053 20.2236C345.268 20.6539 345.564 21.525 346.282 22.5181C347.015 23.5306 348.194 24.6992 350.243 25.9287L350.757 25.0713C348.806 23.9008 347.735 22.8194 347.093 21.9319C346.436 21.025 346.232 20.3461 345.947 19.7764L345.053 20.2236ZM346.447 31.2764C346.232 30.8461 345.936 29.975 345.218 28.9819C344.485 27.9694 343.306 26.8008 341.257 25.5713L340.743 26.4287C342.694 27.5992 343.765 28.6806 344.407 29.5681C345.064 30.475 345.268 31.1539 345.553 31.7236L346.447 31.2764ZM345.053 19.7764C344.552 20.7785 344.192 21.4954 343.593 22.3344C342.992 23.1766 342.139 24.1541 340.646 25.6464L341.354 26.3536C342.861 24.8459 343.758 23.8234 344.407 22.9156C345.058 22.0046 345.448 21.2215 345.947 20.2236L345.053 19.7764Z" fill="#383B51"/>
<path d="M305.5 62.5C301.5 64.9 301.5 67 301 68.5C300.5 67.5 300 65.4 296 63C299 60 299.5 59 300.5 57C301 58 301.5 60.1 305.5 62.5Z" fill="#383B51"/>
<path d="M301 68.5L300.553 68.7236L301.093 69.8033L301.474 68.6581L301 68.5ZM305.5 62.5L305.757 62.9287L306.472 62.5L305.757 62.0713L305.5 62.5ZM300.5 57L300.947 56.7764L300.5 55.882L300.053 56.7764L300.5 57ZM296 63L295.646 62.6464L295.194 63.0993L295.743 63.4287L296 63ZM301.474 68.6581C301.759 67.8056 301.84 67.0419 302.375 66.0803C302.886 65.1604 303.815 64.094 305.757 62.9287L305.243 62.0713C303.185 63.306 302.114 64.4896 301.5 65.5947C300.91 66.6581 300.741 67.6944 300.526 68.3419L301.474 68.6581ZM300.053 57.2236C300.268 57.6539 300.564 58.525 301.282 59.5181C302.015 60.5306 303.194 61.6992 305.243 62.9287L305.757 62.0713C303.806 60.9008 302.735 59.8194 302.093 58.9319C301.436 58.025 301.232 57.3461 300.947 56.7764L300.053 57.2236ZM301.447 68.2764C301.232 67.8461 300.936 66.975 300.218 65.9819C299.485 64.9694 298.306 63.8008 296.257 62.5713L295.743 63.4287C297.694 64.5992 298.765 65.6806 299.407 66.5681C300.064 67.475 300.268 68.1539 300.553 68.7236L301.447 68.2764ZM300.053 56.7764C299.552 57.7785 299.192 58.4954 298.593 59.3344C297.992 60.1766 297.139 61.1541 295.646 62.6464L296.354 63.3536C297.861 61.8459 298.758 60.8234 299.407 59.9156C300.058 59.0046 300.448 58.2215 300.947 57.2236L300.053 56.7764Z" fill="#383B51"/>
</g>
<defs>
<filter id="filter0_f_361_70" x="535.565" y="14.0963" width="516.356" height="547.703" filterUnits="userSpaceOnUse" color-interpolation-filters="sRGB">
<feFlood flood-opacity="0" result="BackgroundImageFix"/>
<feBlend mode="normal" in="SourceGraphic" in2="BackgroundImageFix" result="shape"/>
<feGaussianBlur stdDeviation="10" result="effect1_foregroundBlur_361_70"/>
</filter>
<radialGradient id="paint0_radial_361_70" cx="0" cy="0" r="1" gradientUnits="userSpaceOnUse" gradientTransform="translate(475.304 24.5778) rotate(173.882) scale(521.32 169.713)">
<stop stop-color="#242535"/>
<stop offset="0.861983" stop-color="#242535"/>
<stop offset="1" stop-color="#242535"/>
</radialGradient>
<linearGradient id="paint1_linear_361_70" x1="493.212" y1="-66.5212" x2="842.779" y2="671.404" gradientUnits="userSpaceOnUse">
<stop stop-color="#3C417C"/>
<stop offset="1" stop-color="#0C0D1C"/>
</linearGradient>
<radialGradient id="paint2_radial_361_70" cx="0" cy="0" r="1" gradientUnits="userSpaceOnUse" gradientTransform="translate(490.733 -17.1195) rotate(87.0275) scale(207.824 373.461)">
<stop stop-color="#2B2E41"/>
<stop offset="0.332336" stop-color="#2C2E41"/>
<stop offset="0.581437" stop-color="#2D3041"/>
</radialGradient>
<radialGradient id="paint3_radial_361_70" cx="0" cy="0" r="1" gradientUnits="userSpaceOnUse" gradientTransform="translate(996.741 399.382) rotate(-138.513) scale(446.825 699.472)">
<stop stop-color="#303361" stop-opacity="0.83"/>
<stop offset="0.983218" stop-color="#191B34" stop-opacity="0"/>
</radialGradient>
<linearGradient id="paint4_linear_361_70" x1="440" y1="3" x2="430.989" y2="64.2161" gradientUnits="userSpaceOnUse">
<stop stop-color="#383B51"/>
<stop offset="1" stop-color="#383B51"/>
</linearGradient>
<linearGradient id="paint5_linear_361_70" x1="127" y1="19" x2="117.989" y2="80.2161" gradientUnits="userSpaceOnUse">
<stop stop-color="#383B51"/>
<stop offset="1" stop-color="#383B51"/>
</linearGradient>
<linearGradient id="paint6_linear_361_70" x1="248" y1="3" x2="238.989" y2="64.2161" gradientUnits="userSpaceOnUse">
<stop stop-color="#383B51"/>
<stop offset="1" stop-color="#383B51"/>
</linearGradient>
<linearGradient id="paint7_linear_361_70" x1="497" y1="16" x2="487.989" y2="77.2161" gradientUnits="userSpaceOnUse">
<stop stop-color="#383B51"/>
<stop offset="1" stop-color="#383B51"/>
</linearGradient>
<linearGradient id="paint8_linear_361_70" x1="699" y1="4" x2="689.989" y2="65.2161" gradientUnits="userSpaceOnUse">
<stop stop-color="#383B51"/>
<stop offset="1" stop-color="#383B51"/>
</linearGradient>
<clipPath id="clip0_361_70">
<rect width="745" height="74" fill="white"/>
</clipPath>
</defs>
</svg>
