<svg width="1424" height="288" viewBox="0 0 1424 288" fill="none" xmlns="http://www.w3.org/2000/svg">
<g clip-path="url(#clip0_361_2)">
<rect width="1424" height="288" fill="url(#paint0_radial_361_2)"/>
<path d="M730.481 198.381C734.945 199.292 732.514 211.454 731.203 216.942C728.674 227.526 706.419 219.381 709.89 209.877C713.509 199.971 726.255 197.519 730.481 198.381Z" fill="#313447"/>
<path fill-rule="evenodd" clip-rule="evenodd" d="M1065.35 36.5279C1063.53 33.543 1063.3 30.3924 1066.29 27.2024C1074.39 18.5525 1098.65 23.9979 1127.48 30.473C1137.77 32.7813 1148.63 35.2205 1159.55 37.1986C1416.32 63.1712 1616.71 279.979 1616.71 543.591C1616.71 824.704 1388.82 1052.59 1107.71 1052.59C826.599 1052.59 598.712 824.704 598.712 543.591C598.712 443.94 598.804 386.948 648.297 308.454C692.913 227.975 759.739 161.08 837.461 113.553C847.6 104.935 866.888 88.2214 875.725 79.3847C885.887 69.2221 896.186 71.5873 901.619 79.8309C953.993 56.5263 1009.53 41.6027 1065.35 36.5279Z" fill="url(#paint1_linear_361_2)"/>
<path fill-rule="evenodd" clip-rule="evenodd" d="M1182.06 156.37C1165.46 148.849 1153.29 139.898 1154.89 136.376C1155.94 134.054 1162.72 134.673 1171.97 137.521C1170.37 139.18 1169.09 141.145 1168.23 143.318C1172.95 145.544 1175 146.421 1184 150.46C1193 154.5 1195.69 155.537 1201.15 157.842C1202.09 155.905 1202.69 153.774 1202.88 151.526C1211.13 156.604 1216.06 161.288 1215.01 163.61C1213.41 167.132 1198.66 163.89 1182.06 156.37Z" fill="#FF8A01"/>
<path d="M1166.95 149.993C1166.95 159.934 1175.01 167.993 1184.95 167.993C1194.89 167.993 1202.95 159.934 1202.95 149.993C1202.95 140.052 1194.89 131.993 1184.95 131.993C1175.01 131.993 1166.95 140.052 1166.95 149.993Z" fill="#383B51"/>
<path fill-rule="evenodd" clip-rule="evenodd" d="M1182.06 156.37C1165.46 148.849 1153.29 139.898 1154.89 136.376C1155.94 134.054 1162.72 134.673 1171.97 137.521C1170.37 139.18 1169.09 141.145 1168.23 143.318C1172.95 145.544 1175 146.421 1184 150.46C1193 154.5 1195.69 155.537 1201.15 157.842C1202.09 155.905 1202.69 153.774 1202.88 151.526C1211.13 156.604 1216.06 161.288 1215.01 163.61C1213.41 167.132 1198.66 163.89 1182.06 156.37Z" fill="#383B51"/>
<path d="M747.5 173.5C743.5 175.9 743.5 178 743 179.5C742.5 178.5 742 176.4 738 174C741 171 741.5 170 742.5 168C743 169 743.5 171.1 747.5 173.5Z" fill="#383B51"/>
<path d="M743 179.5L742.553 179.724L743.093 180.803L743.474 179.658L743 179.5ZM747.5 173.5L747.757 173.929L748.472 173.5L747.757 173.071L747.5 173.5ZM742.5 168L742.947 167.776L742.5 166.882L742.053 167.776L742.5 168ZM738 174L737.646 173.646L737.194 174.099L737.743 174.429L738 174ZM743.474 179.658C743.759 178.806 743.84 178.042 744.375 177.08C744.886 176.16 745.815 175.094 747.757 173.929L747.243 173.071C745.185 174.306 744.114 175.49 743.5 176.595C742.91 177.658 742.741 178.694 742.526 179.342L743.474 179.658ZM742.053 168.224C742.268 168.654 742.564 169.525 743.282 170.518C744.015 171.531 745.194 172.699 747.243 173.929L747.757 173.071C745.806 171.901 744.735 170.819 744.093 169.932C743.436 169.025 743.232 168.346 742.947 167.776L742.053 168.224ZM743.447 179.276C743.232 178.846 742.936 177.975 742.218 176.982C741.485 175.969 740.306 174.801 738.257 173.571L737.743 174.429C739.694 175.599 740.765 176.681 741.407 177.568C742.064 178.475 742.268 179.154 742.553 179.724L743.447 179.276ZM742.053 167.776C741.552 168.779 741.192 169.495 740.593 170.334C739.992 171.177 739.139 172.154 737.646 173.646L738.354 174.354C739.861 172.846 740.758 171.823 741.407 170.916C742.058 170.005 742.448 169.221 742.947 168.224L742.053 167.776Z" fill="#383B51"/>
<path d="M1279.5 277.5C1275.5 279.9 1275.5 282 1275 283.5C1274.5 282.5 1274 280.4 1270 278C1273 275 1273.5 274 1274.5 272C1275 273 1275.5 275.1 1279.5 277.5Z" fill="#383B51"/>
<path d="M1275 283.5L1274.55 283.724L1275.09 284.803L1275.47 283.658L1275 283.5ZM1279.5 277.5L1279.76 277.929L1280.47 277.5L1279.76 277.071L1279.5 277.5ZM1274.5 272L1274.95 271.776L1274.5 270.882L1274.05 271.776L1274.5 272ZM1270 278L1269.65 277.646L1269.19 278.099L1269.74 278.429L1270 278ZM1275.47 283.658C1275.76 282.806 1275.84 282.042 1276.37 281.08C1276.89 280.16 1277.82 279.094 1279.76 277.929L1279.24 277.071C1277.18 278.306 1276.11 279.49 1275.5 280.595C1274.91 281.658 1274.74 282.694 1274.53 283.342L1275.47 283.658ZM1274.05 272.224C1274.27 272.654 1274.56 273.525 1275.28 274.518C1276.02 275.531 1277.19 276.699 1279.24 277.929L1279.76 277.071C1277.81 275.901 1276.73 274.819 1276.09 273.932C1275.44 273.025 1275.23 272.346 1274.95 271.776L1274.05 272.224ZM1275.45 283.276C1275.23 282.846 1274.94 281.975 1274.22 280.982C1273.48 279.969 1272.31 278.801 1270.26 277.571L1269.74 278.429C1271.69 279.599 1272.77 280.681 1273.41 281.568C1274.06 282.475 1274.27 283.154 1274.55 283.724L1275.45 283.276ZM1274.05 271.776C1273.55 272.779 1273.19 273.495 1272.59 274.334C1271.99 275.177 1271.14 276.154 1269.65 277.646L1270.35 278.354C1271.86 276.846 1272.76 275.823 1273.41 274.916C1274.06 274.005 1274.45 273.221 1274.95 272.224L1274.05 271.776Z" fill="#383B51"/>
<path d="M951.5 124.5C947.5 126.9 947.5 129 947 130.5C946.5 129.5 946 127.4 942 125C945 122 945.5 121 946.5 119C947 120 947.5 122.1 951.5 124.5Z" fill="#383B51"/>
<path d="M947 130.5L946.553 130.724L947.093 131.803L947.474 130.658L947 130.5ZM951.5 124.5L951.757 124.929L952.472 124.5L951.757 124.071L951.5 124.5ZM946.5 119L946.947 118.776L946.5 117.882L946.053 118.776L946.5 119ZM942 125L941.646 124.646L941.194 125.099L941.743 125.429L942 125ZM947.474 130.658C947.759 129.806 947.84 129.042 948.375 128.08C948.886 127.16 949.815 126.094 951.757 124.929L951.243 124.071C949.185 125.306 948.114 126.49 947.5 127.595C946.91 128.658 946.741 129.694 946.526 130.342L947.474 130.658ZM946.053 119.224C946.268 119.654 946.564 120.525 947.282 121.518C948.015 122.531 949.194 123.699 951.243 124.929L951.757 124.071C949.806 122.901 948.735 121.819 948.093 120.932C947.436 120.025 947.232 119.346 946.947 118.776L946.053 119.224ZM947.447 130.276C947.232 129.846 946.936 128.975 946.218 127.982C945.485 126.969 944.306 125.801 942.257 124.571L941.743 125.429C943.694 126.599 944.765 127.681 945.407 128.568C946.064 129.475 946.268 130.154 946.553 130.724L947.447 130.276ZM946.053 118.776C945.552 119.779 945.192 120.495 944.593 121.334C943.992 122.177 943.139 123.154 941.646 124.646L942.354 125.354C943.861 123.846 944.758 122.823 945.407 121.916C946.058 121.005 946.448 120.221 946.947 119.224L946.053 118.776Z" fill="#383B51"/>
<path d="M206.5 212.5C202.5 214.9 202.5 217 202 218.5C201.5 217.5 201 215.4 197 213C200 210 200.5 209 201.5 207C202 208 202.5 210.1 206.5 212.5Z" fill="#383B51"/>
<path d="M202 218.5L201.553 218.724L202.093 219.803L202.474 218.658L202 218.5ZM206.5 212.5L206.757 212.929L207.472 212.5L206.757 212.071L206.5 212.5ZM201.5 207L201.947 206.776L201.5 205.882L201.053 206.776L201.5 207ZM197 213L196.646 212.646L196.194 213.099L196.743 213.429L197 213ZM202.474 218.658C202.759 217.806 202.84 217.042 203.375 216.08C203.886 215.16 204.815 214.094 206.757 212.929L206.243 212.071C204.185 213.306 203.114 214.49 202.5 215.595C201.91 216.658 201.741 217.694 201.526 218.342L202.474 218.658ZM201.053 207.224C201.268 207.654 201.564 208.525 202.282 209.518C203.015 210.531 204.194 211.699 206.243 212.929L206.757 212.071C204.806 210.901 203.735 209.819 203.093 208.932C202.436 208.025 202.232 207.346 201.947 206.776L201.053 207.224ZM202.447 218.276C202.232 217.846 201.936 216.975 201.218 215.982C200.485 214.969 199.306 213.801 197.257 212.571L196.743 213.429C198.694 214.599 199.765 215.681 200.407 216.568C201.064 217.475 201.268 218.154 201.553 218.724L202.447 218.276ZM201.053 206.776C200.552 207.779 200.192 208.495 199.593 209.334C198.992 210.177 198.139 211.154 196.646 212.646L197.354 213.354C198.861 211.846 199.758 210.823 200.407 209.916C201.058 209.005 201.448 208.221 201.947 207.224L201.053 206.776Z" fill="#383B51"/>
<path d="M397.5 88.5C393.5 90.9 393.5 93 393 94.5C392.5 93.5 392 91.4 388 89C391 86 391.5 85 392.5 83C393 84 393.5 86.1 397.5 88.5Z" fill="#383B51"/>
<path d="M393 94.5L392.553 94.7236L393.093 95.8033L393.474 94.6581L393 94.5ZM397.5 88.5L397.757 88.9287L398.472 88.5L397.757 88.0713L397.5 88.5ZM392.5 83L392.947 82.7764L392.5 81.882L392.053 82.7764L392.5 83ZM388 89L387.646 88.6464L387.194 89.0993L387.743 89.4287L388 89ZM393.474 94.6581C393.759 93.8056 393.84 93.0419 394.375 92.0803C394.886 91.1604 395.815 90.094 397.757 88.9287L397.243 88.0713C395.185 89.306 394.114 90.4896 393.5 91.5947C392.91 92.6581 392.741 93.6944 392.526 94.3419L393.474 94.6581ZM392.053 83.2236C392.268 83.6539 392.564 84.525 393.282 85.5181C394.015 86.5306 395.194 87.6992 397.243 88.9287L397.757 88.0713C395.806 86.9008 394.735 85.8194 394.093 84.9319C393.436 84.025 393.232 83.3461 392.947 82.7764L392.053 83.2236ZM393.447 94.2764C393.232 93.8461 392.936 92.975 392.218 91.9819C391.485 90.9694 390.306 89.8008 388.257 88.5713L387.743 89.4287C389.694 90.5992 390.765 91.6806 391.407 92.5681C392.064 93.475 392.268 94.1539 392.553 94.7236L393.447 94.2764ZM392.053 82.7764C391.552 83.7785 391.192 84.4954 390.593 85.3344C389.992 86.1766 389.139 87.1541 387.646 88.6464L388.354 89.3536C389.861 87.8459 390.758 86.8234 391.407 85.9156C392.058 85.0046 392.448 84.2215 392.947 83.2236L392.053 82.7764Z" fill="#383B51"/>
<path d="M40.5 277.5C36.5 279.9 36.5 282 36 283.5C35.5 282.5 35 280.4 31 278C34 275 34.5 274 35.5 272C36 273 36.5 275.1 40.5 277.5Z" fill="#383B51"/>
<path d="M36 283.5L35.5528 283.724L36.0926 284.803L36.4743 283.658L36 283.5ZM40.5 277.5L40.7572 277.929L41.4718 277.5L40.7572 277.071L40.5 277.5ZM35.5 272L35.9472 271.776L35.5 270.882L35.0528 271.776L35.5 272ZM31 278L30.6464 277.646L30.1936 278.099L30.7428 278.429L31 278ZM36.4743 283.658C36.7585 282.806 36.8404 282.042 37.3746 281.08C37.8857 280.16 38.8152 279.094 40.7572 277.929L40.2428 277.071C38.1848 278.306 37.1143 279.49 36.5004 280.595C35.9096 281.658 35.7415 282.694 35.5257 283.342L36.4743 283.658ZM35.0528 272.224C35.2679 272.654 35.5637 273.525 36.2824 274.518C37.0151 275.531 38.1936 276.699 40.2428 277.929L40.7572 277.071C38.8064 275.901 37.7349 274.819 37.0926 273.932C36.4363 273.025 36.2321 272.346 35.9472 271.776L35.0528 272.224ZM36.4472 283.276C36.2321 282.846 35.9363 281.975 35.2176 280.982C34.4849 279.969 33.3064 278.801 31.2572 277.571L30.7428 278.429C32.6936 279.599 33.7651 280.681 34.4074 281.568C35.0637 282.475 35.2679 283.154 35.5528 283.724L36.4472 283.276ZM35.0528 271.776C34.5517 272.779 34.1924 273.495 33.5931 274.334C32.9916 275.177 32.1388 276.154 30.6464 277.646L31.3536 278.354C32.8612 276.846 33.7584 275.823 34.4069 274.916C35.0576 274.005 35.4483 273.221 35.9472 272.224L35.0528 271.776Z" fill="#383B51"/>
<path d="M1378.5 196.5C1374.5 198.9 1374.5 201 1374 202.5C1373.5 201.5 1373 199.4 1369 197C1372 194 1372.5 193 1373.5 191C1374 192 1374.5 194.1 1378.5 196.5Z" fill="#383B51"/>
<path d="M1374 202.5L1373.55 202.724L1374.09 203.803L1374.47 202.658L1374 202.5ZM1378.5 196.5L1378.76 196.929L1379.47 196.5L1378.76 196.071L1378.5 196.5ZM1373.5 191L1373.95 190.776L1373.5 189.882L1373.05 190.776L1373.5 191ZM1369 197L1368.65 196.646L1368.19 197.099L1368.74 197.429L1369 197ZM1374.47 202.658C1374.76 201.806 1374.84 201.042 1375.37 200.08C1375.89 199.16 1376.82 198.094 1378.76 196.929L1378.24 196.071C1376.18 197.306 1375.11 198.49 1374.5 199.595C1373.91 200.658 1373.74 201.694 1373.53 202.342L1374.47 202.658ZM1373.05 191.224C1373.27 191.654 1373.56 192.525 1374.28 193.518C1375.02 194.531 1376.19 195.699 1378.24 196.929L1378.76 196.071C1376.81 194.901 1375.73 193.819 1375.09 192.932C1374.44 192.025 1374.23 191.346 1373.95 190.776L1373.05 191.224ZM1374.45 202.276C1374.23 201.846 1373.94 200.975 1373.22 199.982C1372.48 198.969 1371.31 197.801 1369.26 196.571L1368.74 197.429C1370.69 198.599 1371.77 199.681 1372.41 200.568C1373.06 201.475 1373.27 202.154 1373.55 202.724L1374.45 202.276ZM1373.05 190.776C1372.55 191.779 1372.19 192.495 1371.59 193.334C1370.99 194.177 1370.14 195.154 1368.65 196.646L1369.35 197.354C1370.86 195.846 1371.76 194.823 1372.41 193.916C1373.06 193.005 1373.45 192.221 1373.95 191.224L1373.05 190.776Z" fill="#383B51"/>
<path d="M1052.5 77.5C1048.5 79.9 1048.5 82 1048 83.5C1047.5 82.5 1047 80.4 1043 78C1046 75 1046.5 74 1047.5 72C1048 73 1048.5 75.1 1052.5 77.5Z" fill="#383B51"/>
<path d="M1048 83.5L1047.55 83.7236L1048.09 84.8033L1048.47 83.6581L1048 83.5ZM1052.5 77.5L1052.76 77.9287L1053.47 77.5L1052.76 77.0713L1052.5 77.5ZM1047.5 72L1047.95 71.7764L1047.5 70.882L1047.05 71.7764L1047.5 72ZM1043 78L1042.65 77.6464L1042.19 78.0993L1042.74 78.4287L1043 78ZM1048.47 83.6581C1048.76 82.8056 1048.84 82.0419 1049.37 81.0803C1049.89 80.1604 1050.82 79.094 1052.76 77.9287L1052.24 77.0713C1050.18 78.306 1049.11 79.4896 1048.5 80.5947C1047.91 81.6581 1047.74 82.6944 1047.53 83.3419L1048.47 83.6581ZM1047.05 72.2236C1047.27 72.6539 1047.56 73.525 1048.28 74.5181C1049.02 75.5306 1050.19 76.6992 1052.24 77.9287L1052.76 77.0713C1050.81 75.9008 1049.73 74.8194 1049.09 73.9319C1048.44 73.025 1048.23 72.3461 1047.95 71.7764L1047.05 72.2236ZM1048.45 83.2764C1048.23 82.8461 1047.94 81.975 1047.22 80.9819C1046.48 79.9694 1045.31 78.8008 1043.26 77.5713L1042.74 78.4287C1044.69 79.5992 1045.77 80.6806 1046.41 81.5681C1047.06 82.475 1047.27 83.1539 1047.55 83.7236L1048.45 83.2764ZM1047.05 71.7764C1046.55 72.7785 1046.19 73.4954 1045.59 74.3344C1044.99 75.1766 1044.14 76.1541 1042.65 77.6464L1043.35 78.3536C1044.86 76.8459 1045.76 75.8234 1046.41 74.9156C1047.06 74.0046 1047.45 73.2215 1047.95 72.2236L1047.05 71.7764Z" fill="#383B51"/>
<path d="M1073.5 261.5C1069.5 263.9 1069.5 266 1069 267.5C1068.5 266.5 1068 264.4 1064 262C1067 259 1067.5 258 1068.5 256C1069 257 1069.5 259.1 1073.5 261.5Z" fill="#383B51"/>
<path d="M1069 267.5L1068.55 267.724L1069.09 268.803L1069.47 267.658L1069 267.5ZM1073.5 261.5L1073.76 261.929L1074.47 261.5L1073.76 261.071L1073.5 261.5ZM1068.5 256L1068.95 255.776L1068.5 254.882L1068.05 255.776L1068.5 256ZM1064 262L1063.65 261.646L1063.19 262.099L1063.74 262.429L1064 262ZM1069.47 267.658C1069.76 266.806 1069.84 266.042 1070.37 265.08C1070.89 264.16 1071.82 263.094 1073.76 261.929L1073.24 261.071C1071.18 262.306 1070.11 263.49 1069.5 264.595C1068.91 265.658 1068.74 266.694 1068.53 267.342L1069.47 267.658ZM1068.05 256.224C1068.27 256.654 1068.56 257.525 1069.28 258.518C1070.02 259.531 1071.19 260.699 1073.24 261.929L1073.76 261.071C1071.81 259.901 1070.73 258.819 1070.09 257.932C1069.44 257.025 1069.23 256.346 1068.95 255.776L1068.05 256.224ZM1069.45 267.276C1069.23 266.846 1068.94 265.975 1068.22 264.982C1067.48 263.969 1066.31 262.801 1064.26 261.571L1063.74 262.429C1065.69 263.599 1066.77 264.681 1067.41 265.568C1068.06 266.475 1068.27 267.154 1068.55 267.724L1069.45 267.276ZM1068.05 255.776C1067.55 256.779 1067.19 257.495 1066.59 258.334C1065.99 259.177 1065.14 260.154 1063.65 261.646L1064.35 262.354C1065.86 260.846 1066.76 259.823 1067.41 258.916C1068.06 258.005 1068.45 257.221 1068.95 256.224L1068.05 255.776Z" fill="#383B51"/>
<mask id="mask0_361_2" style="mask-type:alpha" maskUnits="userSpaceOnUse" x="598" y="22" width="1019" height="1031">
<path fill-rule="evenodd" clip-rule="evenodd" d="M1065.35 36.528C1063.53 33.5431 1063.3 30.3925 1066.29 27.2025C1074.39 18.5527 1098.65 23.998 1127.48 30.4731C1137.77 32.7814 1148.63 35.2206 1159.55 37.1987C1416.32 63.1714 1616.71 279.979 1616.71 543.591C1616.71 824.704 1388.82 1052.59 1107.71 1052.59C826.599 1052.59 598.712 824.704 598.712 543.591C598.712 443.941 598.804 386.948 648.297 308.454C692.913 227.976 759.739 161.081 837.461 113.553C847.6 104.935 866.888 88.2215 875.725 79.3848C885.887 69.2223 896.186 71.5874 901.619 79.831C953.993 56.5264 1009.53 41.6028 1065.35 36.528Z" fill="url(#paint2_linear_361_2)"/>
</mask>
<g mask="url(#mask0_361_2)">
<path d="M1061.16 232.662C858.48 305.959 677.938 238.981 711.475 134.646C822.531 -288.061 1235.49 -22.4413 1236.88 6.71089C1238.26 35.8631 1314.5 141.04 1061.16 232.662Z" fill="url(#paint3_radial_361_2)"/>
<g filter="url(#filter0_f_361_2)">
<path d="M1422.52 504.505C1275.31 693.24 1095.12 690.883 1062.61 559.102C942.735 73.0438 1426.41 103.756 1463.5 209.921C1475.55 244.428 1606.53 268.585 1422.52 504.505Z" fill="url(#paint4_radial_361_2)"/>
</g>
</g>
<mask id="mask1_361_2" style="mask-type:alpha" maskUnits="userSpaceOnUse" x="598" y="34" width="1019" height="1019">
<path d="M1616.71 543.591C1616.71 824.704 1388.82 1052.59 1107.71 1052.59C826.599 1052.59 598.712 824.704 598.712 543.591C598.712 454.379 610.588 376.357 650.908 303.448C737.639 146.618 915.812 34.5913 1107.71 34.5913C1388.82 34.5913 1616.71 262.478 1616.71 543.591Z" fill="url(#paint5_linear_361_2)"/>
</mask>
<g mask="url(#mask1_361_2)">
<ellipse cx="809.548" cy="400.674" rx="298.437" ry="288.041" transform="rotate(56.6945 809.548 400.674)" fill="url(#paint6_radial_361_2)"/>
</g>
<path d="M1004.28 28.7305C1073.86 18.9325 1135.22 18.2182 1127.49 48.7562C1119.77 79.2943 1073.86 119.74 1004.28 129.538C934.703 139.336 856.038 129.528 863.762 98.9902C871.487 68.4522 934.703 38.5284 1004.28 28.7305Z" fill="url(#paint7_radial_361_2)"/>
<mask id="mask2_361_2" style="mask-type:alpha" maskUnits="userSpaceOnUse" x="863" y="22" width="266" height="112">
<path d="M1004.28 28.7305C1073.86 18.9325 1135.22 18.2182 1127.49 48.7562C1119.77 79.2943 1073.86 119.74 1004.28 129.538C934.703 139.336 856.038 129.528 863.762 98.9902C871.487 68.4522 934.703 38.5284 1004.28 28.7305Z" fill="url(#paint8_radial_361_2)"/>
</mask>
<g mask="url(#mask2_361_2)">
<g filter="url(#filter1_f_361_2)">
<path d="M1110.72 75.9974C1134.71 3.53716 800.92 78.8737 936.608 125.991C923.461 139.138 835.107 107.176 823.907 67.7335C812.708 28.2914 842.898 44.8473 890.131 11.7354C937.364 -21.3765 1074.68 -16.5072 1123.86 -15.5333C1173.04 -14.5594 1165.25 21.4741 1169.63 38.517C1173.14 52.1513 1119 61.8762 1110.72 75.9974Z" fill="url(#paint9_radial_361_2)"/>
</g>
</g>
<ellipse rx="131.174" ry="161.838" transform="matrix(0.960901 0.276894 -0.234256 0.972175 725.957 431.459)" fill="#2C2F41"/>
<ellipse rx="181.362" ry="198.028" transform="matrix(0.863252 0.504773 0.483855 -0.875148 1326.49 415.312)" fill="#2C2F42"/>
<ellipse rx="121.363" ry="149.733" transform="matrix(0.960901 0.276894 -0.234256 0.972175 725.957 431.458)" fill="url(#paint10_radial_361_2)"/>
<ellipse rx="170.29" ry="185.939" transform="matrix(0.862992 0.505218 0.483363 -0.87542 1325.44 411.405)" fill="url(#paint11_radial_361_2)"/>
<path d="M1003.67 31.1541C1038.41 26.2618 1070.9 23.6698 1093.69 26.0545C1105.1 27.2482 1113.88 29.6714 1119.32 33.5251C1124.71 37.339 1126.7 42.441 1125.02 49.1048C1121.4 63.3984 1108.73 80.4002 1088.14 95.1599C1067.58 109.894 1039.27 122.274 1004.9 127.114C970.326 131.982 933.514 131.973 906.366 126.974C892.78 124.473 881.749 120.746 874.619 115.854C867.435 110.924 864.603 105.105 866.238 98.6416C867.964 91.8199 872.815 84.864 880.506 77.9775C888.221 71.069 898.665 64.3561 911.197 58.1937C936.252 45.8735 969.106 36.0211 1003.67 31.1541Z" stroke="#2C2F41" stroke-width="5"/>
<g filter="url(#filter2_f_361_2)">
<path d="M1137.03 242.673C1046.8 324.845 1110.04 564.479 1116.63 568.376C1200.26 774.031 933.912 653.762 981.053 410.121C1028.19 166.479 1227.26 160.5 1137.03 242.673Z" fill="#2C2F41"/>
</g>
<path d="M1271.56 69.1297C1263.81 69.1297 1253.31 65.3555 1250 61.9231C1243.62 55.3035 1264.9 49.276 1272.35 54.5007C1279.8 59.7255 1275.58 69.1297 1271.56 69.1297Z" fill="#313447"/>
<path d="M1065.85 199.69C1077.95 196.149 1090.41 195.363 1095.76 203.641C1103.45 215.568 1092.54 218.402 1083.79 225.695C1075.42 232.681 1071.19 244.71 1061.18 235.032C1049.28 223.533 1059.55 201.53 1065.85 199.69Z" fill="#313447"/>
<path d="M899.464 257.119C901.852 259.272 903.69 261.87 902.609 264.136C900.524 268.507 890.27 264.955 891.173 260.835C892.075 256.716 898.223 256 899.464 257.119Z" fill="#313447"/>
<path d="M1247.61 146.476C1250 148.628 1251.83 151.226 1250.75 153.493C1248.67 157.863 1238.42 154.311 1239.32 150.192C1240.22 146.072 1246.37 145.357 1247.61 146.476Z" fill="#313447"/>
<path d="M798.481 196.13C794.431 194.835 796.215 190.762 798.481 186.567C802.852 178.476 818.392 177.423 813.333 184.534C808.059 191.947 802.316 197.356 798.481 196.13Z" fill="#313447"/>
<path d="M1142.53 40.5134C1142.21 43.2061 1141.39 45.8068 1139.52 46.4072C1135.92 47.565 1133.74 39.1977 1136.68 37.4461C1139.62 35.6944 1142.69 39.1136 1142.53 40.5134Z" fill="#383B51"/>
<path d="M857.763 109.061C859.816 110.831 861.506 112.973 860.956 114.854C859.895 118.483 851.746 115.594 851.944 112.179C852.142 108.764 856.695 108.141 857.763 109.061Z" fill="#383B51"/>
<path fill-rule="evenodd" clip-rule="evenodd" d="M149.26 53.7325C156.13 42.4237 165.776 36.5321 169.74 35C171.454 38.8884 174.095 49.8778 170.941 62.7289C166.999 78.7928 153.051 110.22 151.956 110.673C151.895 110.699 151.846 110.796 151.808 110.957L156.935 143.315L137.985 136.042C132.296 148.514 120.647 167.876 118.134 159.723C116.435 154.208 118.635 141.293 121.376 129.667L104 122.998L116.433 112.929C118.597 110.797 121.041 108.577 123.177 106.637C126.383 103.726 128.895 101.444 128.725 101.034C128.272 99.9386 140.671 67.8686 149.26 53.7325Z" fill="url(#paint12_linear_361_2)"/>
<path fill-rule="evenodd" clip-rule="evenodd" d="M629.26 99.7325C636.13 88.4237 645.776 82.5321 649.74 81C651.454 84.8884 654.095 95.8778 650.941 108.729C646.999 124.793 633.051 156.22 631.956 156.673C631.895 156.699 631.846 156.796 631.808 156.957L636.935 189.315L617.985 182.042C612.296 194.514 600.647 213.876 598.134 205.723C596.435 200.208 598.635 187.293 601.376 175.667L584 168.998L596.433 158.929C598.597 156.797 601.041 154.577 603.177 152.637C606.383 149.726 608.895 147.444 608.725 147.034C608.272 145.939 620.671 113.869 629.26 99.7325Z" fill="url(#paint13_linear_361_2)"/>
</g>
<defs>
<filter id="filter0_f_361_2" x="1023.56" y="125.096" width="516.356" height="547.703" filterUnits="userSpaceOnUse" color-interpolation-filters="sRGB">
<feFlood flood-opacity="0" result="BackgroundImageFix"/>
<feBlend mode="normal" in="SourceGraphic" in2="BackgroundImageFix" result="shape"/>
<feGaussianBlur stdDeviation="10" result="effect1_foregroundBlur_361_2"/>
</filter>
<filter id="filter1_f_361_2" x="811.57" y="-26.3499" width="368.227" height="165.343" filterUnits="userSpaceOnUse" color-interpolation-filters="sRGB">
<feFlood flood-opacity="0" result="BackgroundImageFix"/>
<feBlend mode="normal" in="SourceGraphic" in2="BackgroundImageFix" result="shape"/>
<feGaussianBlur stdDeviation="5" result="effect1_foregroundBlur_361_2"/>
</filter>
<filter id="filter2_f_361_2" x="955.414" y="175.173" width="224.796" height="518.064" filterUnits="userSpaceOnUse" color-interpolation-filters="sRGB">
<feFlood flood-opacity="0" result="BackgroundImageFix"/>
<feBlend mode="normal" in="SourceGraphic" in2="BackgroundImageFix" result="shape"/>
<feGaussianBlur stdDeviation="10" result="effect1_foregroundBlur_361_2"/>
</filter>
<radialGradient id="paint0_radial_361_2" cx="0" cy="0" r="1" gradientUnits="userSpaceOnUse" gradientTransform="translate(908.5 95.654) rotate(167.689) scale(1014.1 649.011)">
<stop stop-color="#242535"/>
<stop offset="0.861983" stop-color="#242535"/>
<stop offset="1" stop-color="#242535"/>
</radialGradient>
<linearGradient id="paint1_linear_361_2" x1="981.212" y1="44.4787" x2="1330.78" y2="782.404" gradientUnits="userSpaceOnUse">
<stop stop-color="#2C2F41"/>
<stop offset="0.283302" stop-color="#2C2F41"/>
<stop offset="0.51521" stop-color="#2C2F41"/>
<stop offset="1" stop-color="#2C2F41"/>
</linearGradient>
<linearGradient id="paint2_linear_361_2" x1="981.212" y1="44.4788" x2="1330.78" y2="782.404" gradientUnits="userSpaceOnUse">
<stop stop-color="#3C417C"/>
<stop offset="1" stop-color="#0C0D1C"/>
</linearGradient>
<radialGradient id="paint3_radial_361_2" cx="0" cy="0" r="1" gradientUnits="userSpaceOnUse" gradientTransform="translate(978.733 93.8806) rotate(87.0275) scale(207.824 373.461)">
<stop stop-color="#2B2E41"/>
<stop offset="0.332336" stop-color="#2C2E41"/>
<stop offset="0.581437" stop-color="#2D3041"/>
</radialGradient>
<radialGradient id="paint4_radial_361_2" cx="0" cy="0" r="1" gradientUnits="userSpaceOnUse" gradientTransform="translate(1484.74 510.382) rotate(-138.513) scale(446.825 699.472)">
<stop stop-color="#303361" stop-opacity="0.83"/>
<stop offset="0.983218" stop-color="#191B34" stop-opacity="0"/>
</radialGradient>
<linearGradient id="paint5_linear_361_2" x1="981.212" y1="56.0913" x2="1324.21" y2="788.591" gradientUnits="userSpaceOnUse">
<stop stop-color="#3C417C"/>
<stop offset="1" stop-color="#0C0D1C"/>
</linearGradient>
<radialGradient id="paint6_radial_361_2" cx="0" cy="0" r="1" gradientUnits="userSpaceOnUse" gradientTransform="translate(778.726 415.046) rotate(-84.6361) scale(303.131 313.29)">
<stop offset="0.477659" stop-color="#292C3E"/>
<stop offset="1" stop-color="#2D3044" stop-opacity="0"/>
</radialGradient>
<radialGradient id="paint7_radial_361_2" cx="0" cy="0" r="1" gradientUnits="userSpaceOnUse" gradientTransform="translate(993.927 80.5923) rotate(174.18) scale(126.371 47.9897)">
<stop stop-color="#2C2F42"/>
<stop offset="0.52458" stop-color="#2B2E40"/>
<stop offset="0.974002" stop-color="#262837"/>
</radialGradient>
<radialGradient id="paint8_radial_361_2" cx="0" cy="0" r="1" gradientUnits="userSpaceOnUse" gradientTransform="translate(993.927 80.5923) rotate(173.891) scale(130.834 49.6844)">
<stop stop-color="#2C2F42"/>
<stop offset="0.791667" stop-color="#313567"/>
<stop offset="1" stop-color="#2E3263"/>
</radialGradient>
<radialGradient id="paint9_radial_361_2" cx="0" cy="0" r="1" gradientUnits="userSpaceOnUse" gradientTransform="translate(989.116 24.487) rotate(72.7185) scale(95.5486 205.205)">
<stop offset="0.140928" stop-color="#252737"/>
<stop offset="1" stop-color="#272A3B"/>
</radialGradient>
<radialGradient id="paint10_radial_361_2" cx="0" cy="0" r="1" gradientUnits="userSpaceOnUse" gradientTransform="translate(128.558 181.983) rotate(-97.2568) scale(182.491 148.312)">
<stop stop-color="#2D3041"/>
<stop offset="0.596662" stop-color="#2B2E41"/>
<stop offset="1" stop-color="#242635"/>
</radialGradient>
<radialGradient id="paint11_radial_361_2" cx="0" cy="0" r="1" gradientUnits="userSpaceOnUse" gradientTransform="translate(302.492 138.575) rotate(142.397) scale(318.966 300.84)">
<stop stop-color="#252737"/>
<stop offset="0.60513" stop-color="#2C2F42"/>
<stop offset="0.841688" stop-color="#262838"/>
<stop offset="1" stop-color="#252737"/>
</radialGradient>
<linearGradient id="paint12_linear_361_2" x1="138.206" y1="35" x2="113.041" y2="184.083" gradientUnits="userSpaceOnUse">
<stop stop-color="#383B51"/>
<stop offset="1" stop-color="#383B51"/>
</linearGradient>
<linearGradient id="paint13_linear_361_2" x1="618.206" y1="81" x2="593.041" y2="230.083" gradientUnits="userSpaceOnUse">
<stop stop-color="#383B51"/>
<stop offset="1" stop-color="#383B51"/>
</linearGradient>
<clipPath id="clip0_361_2">
<rect width="1424" height="288" fill="white"/>
</clipPath>
</defs>
</svg>
