<svg width="1424" height="971" viewBox="0 0 1424 971" fill="none" xmlns="http://www.w3.org/2000/svg">
<g clip-path="url(#clip0_310_7)">
<rect width="1424" height="971" fill="url(#paint0_radial_310_7)"/>
<path d="M742.769 682.79C747.233 683.701 744.802 695.863 743.491 701.351C740.962 711.935 718.707 703.79 722.178 694.286C725.797 684.38 738.543 681.928 742.769 682.79Z" fill="#313447"/>
<path fill-rule="evenodd" clip-rule="evenodd" d="M1077.64 520.937C1075.81 517.952 1075.58 514.801 1078.57 511.611C1086.68 502.961 1110.93 508.407 1139.77 514.882C1150.05 517.19 1160.92 519.629 1171.84 521.607C1428.6 547.58 1629 764.387 1629 1028C1629 1309.11 1401.11 1537 1120 1537C838.887 1537 611 1309.11 611 1028C611 928.349 611.092 871.356 660.585 792.863C705.202 712.384 772.027 645.489 849.749 597.962C859.888 589.344 879.176 572.63 888.013 563.793C898.175 553.631 908.474 555.996 913.907 564.24C966.281 540.935 1021.82 526.011 1077.64 520.937Z" fill="url(#paint1_linear_310_7)"/>
<circle r="36" transform="matrix(-1 0 0 1 1433 475)" fill="#383B51"/>
<path fill-rule="evenodd" clip-rule="evenodd" d="M1182.06 156.37C1165.46 148.849 1153.29 139.898 1154.89 136.376C1155.94 134.054 1162.72 134.673 1171.97 137.521C1170.37 139.18 1169.09 141.145 1168.23 143.318C1172.95 145.544 1175 146.421 1184 150.46C1193 154.5 1195.69 155.537 1201.15 157.842C1202.09 155.905 1202.69 153.774 1202.88 151.526C1211.13 156.604 1216.06 161.288 1215.01 163.61C1213.41 167.132 1198.66 163.89 1182.06 156.37Z" fill="#FF8A01"/>
<path d="M1166.95 149.993C1166.95 159.934 1175.01 167.993 1184.95 167.993C1194.89 167.993 1202.95 159.934 1202.95 149.993C1202.95 140.052 1194.89 131.993 1184.95 131.993C1175.01 131.993 1166.95 140.052 1166.95 149.993Z" fill="#383B51"/>
<path fill-rule="evenodd" clip-rule="evenodd" d="M1182.06 156.37C1165.46 148.849 1153.29 139.898 1154.89 136.376C1155.94 134.054 1162.72 134.673 1171.97 137.521C1170.37 139.18 1169.09 141.145 1168.23 143.318C1172.95 145.544 1175 146.421 1184 150.46C1193 154.5 1195.69 155.537 1201.15 157.842C1202.09 155.905 1202.69 153.774 1202.88 151.526C1211.13 156.604 1216.06 161.288 1215.01 163.61C1213.41 167.132 1198.66 163.89 1182.06 156.37Z" fill="#383B51"/>
<path fill-rule="evenodd" clip-rule="evenodd" d="M510.219 777.149C517.09 765.84 526.735 759.949 530.699 758.417C532.414 762.305 535.055 773.295 531.901 786.146C527.959 802.21 514.011 833.637 512.915 834.09C512.854 834.115 512.806 834.212 512.768 834.374L517.895 866.731L498.945 859.458C493.255 871.931 481.606 891.293 479.094 883.14C477.394 877.625 479.594 864.71 482.335 853.084L464.959 846.415L477.393 836.346C479.556 834.213 482 831.994 484.136 830.054C487.342 827.142 489.854 824.861 489.685 824.451C489.232 823.355 501.631 791.285 510.219 777.149Z" fill="url(#paint2_linear_310_7)"/>
<path d="M762.5 524.5C758.5 526.9 758.5 529 758 530.5C757.5 529.5 757 527.4 753 525C756 522 756.5 521 757.5 519C758 520 758.5 522.1 762.5 524.5Z" fill="#383B51"/>
<path d="M758 530.5L757.553 530.724L758.093 531.803L758.474 530.658L758 530.5ZM762.5 524.5L762.757 524.929L763.472 524.5L762.757 524.071L762.5 524.5ZM757.5 519L757.947 518.776L757.5 517.882L757.053 518.776L757.5 519ZM753 525L752.646 524.646L752.194 525.099L752.743 525.429L753 525ZM758.474 530.658C758.759 529.806 758.84 529.042 759.375 528.08C759.886 527.16 760.815 526.094 762.757 524.929L762.243 524.071C760.185 525.306 759.114 526.49 758.5 527.595C757.91 528.658 757.741 529.694 757.526 530.342L758.474 530.658ZM757.053 519.224C757.268 519.654 757.564 520.525 758.282 521.518C759.015 522.531 760.194 523.699 762.243 524.929L762.757 524.071C760.806 522.901 759.735 521.819 759.093 520.932C758.436 520.025 758.232 519.346 757.947 518.776L757.053 519.224ZM758.447 530.276C758.232 529.846 757.936 528.975 757.218 527.982C756.485 526.969 755.306 525.801 753.257 524.571L752.743 525.429C754.694 526.599 755.765 527.681 756.407 528.568C757.064 529.475 757.268 530.154 757.553 530.724L758.447 530.276ZM757.053 518.776C756.552 519.779 756.192 520.495 755.593 521.334C754.992 522.177 754.139 523.154 752.646 524.646L753.354 525.354C754.861 523.846 755.758 522.823 756.407 521.916C757.058 521.005 757.448 520.221 757.947 519.224L757.053 518.776Z" fill="#383B51"/>
<path d="M747.5 173.5C743.5 175.9 743.5 178 743 179.5C742.5 178.5 742 176.4 738 174C741 171 741.5 170 742.5 168C743 169 743.5 171.1 747.5 173.5Z" fill="#383B51"/>
<path d="M743 179.5L742.553 179.724L743.093 180.803L743.474 179.658L743 179.5ZM747.5 173.5L747.757 173.929L748.472 173.5L747.757 173.071L747.5 173.5ZM742.5 168L742.947 167.776L742.5 166.882L742.053 167.776L742.5 168ZM738 174L737.646 173.646L737.194 174.099L737.743 174.429L738 174ZM743.474 179.658C743.759 178.806 743.84 178.042 744.375 177.08C744.886 176.16 745.815 175.094 747.757 173.929L747.243 173.071C745.185 174.306 744.114 175.49 743.5 176.595C742.91 177.658 742.741 178.694 742.526 179.342L743.474 179.658ZM742.053 168.224C742.268 168.654 742.564 169.525 743.282 170.518C744.015 171.531 745.194 172.699 747.243 173.929L747.757 173.071C745.806 171.901 744.735 170.819 744.093 169.932C743.436 169.025 743.232 168.346 742.947 167.776L742.053 168.224ZM743.447 179.276C743.232 178.846 742.936 177.975 742.218 176.982C741.485 175.969 740.306 174.801 738.257 173.571L737.743 174.429C739.694 175.599 740.765 176.681 741.407 177.568C742.064 178.475 742.268 179.154 742.553 179.724L743.447 179.276ZM742.053 167.776C741.552 168.779 741.192 169.495 740.593 170.334C739.992 171.177 739.139 172.154 737.646 173.646L738.354 174.354C739.861 172.846 740.758 171.823 741.407 170.916C742.058 170.005 742.448 169.221 742.947 168.224L742.053 167.776Z" fill="#383B51"/>
<path d="M1279.5 277.5C1275.5 279.9 1275.5 282 1275 283.5C1274.5 282.5 1274 280.4 1270 278C1273 275 1273.5 274 1274.5 272C1275 273 1275.5 275.1 1279.5 277.5Z" fill="#383B51"/>
<path d="M1275 283.5L1274.55 283.724L1275.09 284.803L1275.47 283.658L1275 283.5ZM1279.5 277.5L1279.76 277.929L1280.47 277.5L1279.76 277.071L1279.5 277.5ZM1274.5 272L1274.95 271.776L1274.5 270.882L1274.05 271.776L1274.5 272ZM1270 278L1269.65 277.646L1269.19 278.099L1269.74 278.429L1270 278ZM1275.47 283.658C1275.76 282.806 1275.84 282.042 1276.37 281.08C1276.89 280.16 1277.82 279.094 1279.76 277.929L1279.24 277.071C1277.18 278.306 1276.11 279.49 1275.5 280.595C1274.91 281.658 1274.74 282.694 1274.53 283.342L1275.47 283.658ZM1274.05 272.224C1274.27 272.654 1274.56 273.525 1275.28 274.518C1276.02 275.531 1277.19 276.699 1279.24 277.929L1279.76 277.071C1277.81 275.901 1276.73 274.819 1276.09 273.932C1275.44 273.025 1275.23 272.346 1274.95 271.776L1274.05 272.224ZM1275.45 283.276C1275.23 282.846 1274.94 281.975 1274.22 280.982C1273.48 279.969 1272.31 278.801 1270.26 277.571L1269.74 278.429C1271.69 279.599 1272.77 280.681 1273.41 281.568C1274.06 282.475 1274.27 283.154 1274.55 283.724L1275.45 283.276ZM1274.05 271.776C1273.55 272.779 1273.19 273.495 1272.59 274.334C1271.99 275.177 1271.14 276.154 1269.65 277.646L1270.35 278.354C1271.86 276.846 1272.76 275.823 1273.41 274.916C1274.06 274.005 1274.45 273.221 1274.95 272.224L1274.05 271.776Z" fill="#383B51"/>
<path d="M951.5 124.5C947.5 126.9 947.5 129 947 130.5C946.5 129.5 946 127.4 942 125C945 122 945.5 121 946.5 119C947 120 947.5 122.1 951.5 124.5Z" fill="#383B51"/>
<path d="M947 130.5L946.553 130.724L947.093 131.803L947.474 130.658L947 130.5ZM951.5 124.5L951.757 124.929L952.472 124.5L951.757 124.071L951.5 124.5ZM946.5 119L946.947 118.776L946.5 117.882L946.053 118.776L946.5 119ZM942 125L941.646 124.646L941.194 125.099L941.743 125.429L942 125ZM947.474 130.658C947.759 129.806 947.84 129.042 948.375 128.08C948.886 127.16 949.815 126.094 951.757 124.929L951.243 124.071C949.185 125.306 948.114 126.49 947.5 127.595C946.91 128.658 946.741 129.694 946.526 130.342L947.474 130.658ZM946.053 119.224C946.268 119.654 946.564 120.525 947.282 121.518C948.015 122.531 949.194 123.699 951.243 124.929L951.757 124.071C949.806 122.901 948.735 121.819 948.093 120.932C947.436 120.025 947.232 119.346 946.947 118.776L946.053 119.224ZM947.447 130.276C947.232 129.846 946.936 128.975 946.218 127.982C945.485 126.969 944.306 125.801 942.257 124.571L941.743 125.429C943.694 126.599 944.765 127.681 945.407 128.568C946.064 129.475 946.268 130.154 946.553 130.724L947.447 130.276ZM946.053 118.776C945.552 119.779 945.192 120.495 944.593 121.334C943.992 122.177 943.139 123.154 941.646 124.646L942.354 125.354C943.861 123.846 944.758 122.823 945.407 121.916C946.058 121.005 946.448 120.221 946.947 119.224L946.053 118.776Z" fill="#383B51"/>
<path d="M206.5 212.5C202.5 214.9 202.5 217 202 218.5C201.5 217.5 201 215.4 197 213C200 210 200.5 209 201.5 207C202 208 202.5 210.1 206.5 212.5Z" fill="#383B51"/>
<path d="M202 218.5L201.553 218.724L202.093 219.803L202.474 218.658L202 218.5ZM206.5 212.5L206.757 212.929L207.472 212.5L206.757 212.071L206.5 212.5ZM201.5 207L201.947 206.776L201.5 205.882L201.053 206.776L201.5 207ZM197 213L196.646 212.646L196.194 213.099L196.743 213.429L197 213ZM202.474 218.658C202.759 217.806 202.84 217.042 203.375 216.08C203.886 215.16 204.815 214.094 206.757 212.929L206.243 212.071C204.185 213.306 203.114 214.49 202.5 215.595C201.91 216.658 201.741 217.694 201.526 218.342L202.474 218.658ZM201.053 207.224C201.268 207.654 201.564 208.525 202.282 209.518C203.015 210.531 204.194 211.699 206.243 212.929L206.757 212.071C204.806 210.901 203.735 209.819 203.093 208.932C202.436 208.025 202.232 207.346 201.947 206.776L201.053 207.224ZM202.447 218.276C202.232 217.846 201.936 216.975 201.218 215.982C200.485 214.969 199.306 213.801 197.257 212.571L196.743 213.429C198.694 214.599 199.765 215.681 200.407 216.568C201.064 217.475 201.268 218.154 201.553 218.724L202.447 218.276ZM201.053 206.776C200.552 207.779 200.192 208.495 199.593 209.334C198.992 210.177 198.139 211.154 196.646 212.646L197.354 213.354C198.861 211.846 199.758 210.823 200.407 209.916C201.058 209.005 201.448 208.221 201.947 207.224L201.053 206.776Z" fill="#383B51"/>
<path d="M439.5 309.5C435.5 311.9 435.5 314 435 315.5C434.5 314.5 434 312.4 430 310C433 307 433.5 306 434.5 304C435 305 435.5 307.1 439.5 309.5Z" fill="#383B51"/>
<path d="M435 315.5L434.553 315.724L435.093 316.803L435.474 315.658L435 315.5ZM439.5 309.5L439.757 309.929L440.472 309.5L439.757 309.071L439.5 309.5ZM434.5 304L434.947 303.776L434.5 302.882L434.053 303.776L434.5 304ZM430 310L429.646 309.646L429.194 310.099L429.743 310.429L430 310ZM435.474 315.658C435.759 314.806 435.84 314.042 436.375 313.08C436.886 312.16 437.815 311.094 439.757 309.929L439.243 309.071C437.185 310.306 436.114 311.49 435.5 312.595C434.91 313.658 434.741 314.694 434.526 315.342L435.474 315.658ZM434.053 304.224C434.268 304.654 434.564 305.525 435.282 306.518C436.015 307.531 437.194 308.699 439.243 309.929L439.757 309.071C437.806 307.901 436.735 306.819 436.093 305.932C435.436 305.025 435.232 304.346 434.947 303.776L434.053 304.224ZM435.447 315.276C435.232 314.846 434.936 313.975 434.218 312.982C433.485 311.969 432.306 310.801 430.257 309.571L429.743 310.429C431.694 311.599 432.765 312.681 433.407 313.568C434.064 314.475 434.268 315.154 434.553 315.724L435.447 315.276ZM434.053 303.776C433.552 304.779 433.192 305.495 432.593 306.334C431.992 307.177 431.139 308.154 429.646 309.646L430.354 310.354C431.861 308.846 432.758 307.823 433.407 306.916C434.058 306.005 434.448 305.221 434.947 304.224L434.053 303.776Z" fill="#383B51"/>
<path d="M397.5 88.5C393.5 90.9 393.5 93 393 94.5C392.5 93.5 392 91.4 388 89C391 86 391.5 85 392.5 83C393 84 393.5 86.1 397.5 88.5Z" fill="#383B51"/>
<path d="M393 94.5L392.553 94.7236L393.093 95.8033L393.474 94.6581L393 94.5ZM397.5 88.5L397.757 88.9287L398.472 88.5L397.757 88.0713L397.5 88.5ZM392.5 83L392.947 82.7764L392.5 81.882L392.053 82.7764L392.5 83ZM388 89L387.646 88.6464L387.194 89.0993L387.743 89.4287L388 89ZM393.474 94.6581C393.759 93.8056 393.84 93.0419 394.375 92.0803C394.886 91.1604 395.815 90.094 397.757 88.9287L397.243 88.0713C395.185 89.306 394.114 90.4896 393.5 91.5947C392.91 92.6581 392.741 93.6944 392.526 94.3419L393.474 94.6581ZM392.053 83.2236C392.268 83.6539 392.564 84.525 393.282 85.5181C394.015 86.5306 395.194 87.6992 397.243 88.9287L397.757 88.0713C395.806 86.9008 394.735 85.8194 394.093 84.9319C393.436 84.025 393.232 83.3461 392.947 82.7764L392.053 83.2236ZM393.447 94.2764C393.232 93.8461 392.936 92.975 392.218 91.9819C391.485 90.9694 390.306 89.8008 388.257 88.5713L387.743 89.4287C389.694 90.5992 390.765 91.6806 391.407 92.5681C392.064 93.475 392.268 94.1539 392.553 94.7236L393.447 94.2764ZM392.053 82.7764C391.552 83.7785 391.192 84.4954 390.593 85.3344C389.992 86.1766 389.139 87.1541 387.646 88.6464L388.354 89.3536C389.861 87.8459 390.758 86.8234 391.407 85.9156C392.058 85.0046 392.448 84.2215 392.947 83.2236L392.053 82.7764Z" fill="#383B51"/>
<path d="M40.5 277.5C36.5 279.9 36.5 282 36 283.5C35.5 282.5 35 280.4 31 278C34 275 34.5 274 35.5 272C36 273 36.5 275.1 40.5 277.5Z" fill="#383B51"/>
<path d="M36 283.5L35.5528 283.724L36.0926 284.803L36.4743 283.658L36 283.5ZM40.5 277.5L40.7572 277.929L41.4718 277.5L40.7572 277.071L40.5 277.5ZM35.5 272L35.9472 271.776L35.5 270.882L35.0528 271.776L35.5 272ZM31 278L30.6464 277.646L30.1936 278.099L30.7428 278.429L31 278ZM36.4743 283.658C36.7585 282.806 36.8404 282.042 37.3746 281.08C37.8857 280.16 38.8152 279.094 40.7572 277.929L40.2428 277.071C38.1848 278.306 37.1143 279.49 36.5004 280.595C35.9096 281.658 35.7415 282.694 35.5257 283.342L36.4743 283.658ZM35.0528 272.224C35.2679 272.654 35.5637 273.525 36.2824 274.518C37.0151 275.531 38.1936 276.699 40.2428 277.929L40.7572 277.071C38.8064 275.901 37.7349 274.819 37.0926 273.932C36.4363 273.025 36.2321 272.346 35.9472 271.776L35.0528 272.224ZM36.4472 283.276C36.2321 282.846 35.9363 281.975 35.2176 280.982C34.4849 279.969 33.3064 278.801 31.2572 277.571L30.7428 278.429C32.6936 279.599 33.7651 280.681 34.4074 281.568C35.0637 282.475 35.2679 283.154 35.5528 283.724L36.4472 283.276ZM35.0528 271.776C34.5517 272.779 34.1924 273.495 33.5931 274.334C32.9916 275.177 32.1388 276.154 30.6464 277.646L31.3536 278.354C32.8612 276.846 33.7584 275.823 34.4069 274.916C35.0576 274.005 35.4483 273.221 35.9472 272.224L35.0528 271.776Z" fill="#383B51"/>
<path d="M34.5 568.5C30.5 570.9 30.5 573 30 574.5C29.5 573.5 29 571.4 25 569C28 566 28.5 565 29.5 563C30 564 30.5 566.1 34.5 568.5Z" fill="#383B51"/>
<path d="M30 574.5L29.5528 574.724L30.0926 575.803L30.4743 574.658L30 574.5ZM34.5 568.5L34.7572 568.929L35.4718 568.5L34.7572 568.071L34.5 568.5ZM29.5 563L29.9472 562.776L29.5 561.882L29.0528 562.776L29.5 563ZM25 569L24.6464 568.646L24.1936 569.099L24.7428 569.429L25 569ZM30.4743 574.658C30.7585 573.806 30.8404 573.042 31.3746 572.08C31.8857 571.16 32.8152 570.094 34.7572 568.929L34.2428 568.071C32.1848 569.306 31.1143 570.49 30.5004 571.595C29.9096 572.658 29.7415 573.694 29.5257 574.342L30.4743 574.658ZM29.0528 563.224C29.2679 563.654 29.5637 564.525 30.2824 565.518C31.0151 566.531 32.1936 567.699 34.2428 568.929L34.7572 568.071C32.8064 566.901 31.7349 565.819 31.0926 564.932C30.4363 564.025 30.2321 563.346 29.9472 562.776L29.0528 563.224ZM30.4472 574.276C30.2321 573.846 29.9363 572.975 29.2176 571.982C28.4849 570.969 27.3064 569.801 25.2572 568.571L24.7428 569.429C26.6936 570.599 27.7651 571.681 28.4074 572.568C29.0637 573.475 29.2679 574.154 29.5528 574.724L30.4472 574.276ZM29.0528 562.776C28.5517 563.779 28.1924 564.495 27.5931 565.334C26.9916 566.177 26.1388 567.154 24.6464 568.646L25.3536 569.354C26.8612 567.846 27.7584 566.823 28.4069 565.916C29.0576 565.005 29.4483 564.221 29.9472 563.224L29.0528 562.776Z" fill="#383B51"/>
<path d="M336.5 791.5C332.5 793.9 332.5 796 332 797.5C331.5 796.5 331 794.4 327 792C330 789 330.5 788 331.5 786C332 787 332.5 789.1 336.5 791.5Z" fill="#383B51"/>
<path d="M332 797.5L331.553 797.724L332.093 798.803L332.474 797.658L332 797.5ZM336.5 791.5L336.757 791.929L337.472 791.5L336.757 791.071L336.5 791.5ZM331.5 786L331.947 785.776L331.5 784.882L331.053 785.776L331.5 786ZM327 792L326.646 791.646L326.194 792.099L326.743 792.429L327 792ZM332.474 797.658C332.759 796.806 332.84 796.042 333.375 795.08C333.886 794.16 334.815 793.094 336.757 791.929L336.243 791.071C334.185 792.306 333.114 793.49 332.5 794.595C331.91 795.658 331.741 796.694 331.526 797.342L332.474 797.658ZM331.053 786.224C331.268 786.654 331.564 787.525 332.282 788.518C333.015 789.531 334.194 790.699 336.243 791.929L336.757 791.071C334.806 789.901 333.735 788.819 333.093 787.932C332.436 787.025 332.232 786.346 331.947 785.776L331.053 786.224ZM332.447 797.276C332.232 796.846 331.936 795.975 331.218 794.982C330.485 793.969 329.306 792.801 327.257 791.571L326.743 792.429C328.694 793.599 329.765 794.681 330.407 795.568C331.064 796.475 331.268 797.154 331.553 797.724L332.447 797.276ZM331.053 785.776C330.552 786.779 330.192 787.495 329.593 788.334C328.992 789.177 328.139 790.154 326.646 791.646L327.354 792.354C328.861 790.846 329.758 789.823 330.407 788.916C331.058 788.005 331.448 787.221 331.947 786.224L331.053 785.776Z" fill="#383B51"/>
<path d="M136.5 735.5C132.5 737.9 132.5 740 132 741.5C131.5 740.5 131 738.4 127 736C130 733 130.5 732 131.5 730C132 731 132.5 733.1 136.5 735.5Z" fill="#383B51"/>
<path d="M132 741.5L131.553 741.724L132.093 742.803L132.474 741.658L132 741.5ZM136.5 735.5L136.757 735.929L137.472 735.5L136.757 735.071L136.5 735.5ZM131.5 730L131.947 729.776L131.5 728.882L131.053 729.776L131.5 730ZM127 736L126.646 735.646L126.194 736.099L126.743 736.429L127 736ZM132.474 741.658C132.759 740.806 132.84 740.042 133.375 739.08C133.886 738.16 134.815 737.094 136.757 735.929L136.243 735.071C134.185 736.306 133.114 737.49 132.5 738.595C131.91 739.658 131.741 740.694 131.526 741.342L132.474 741.658ZM131.053 730.224C131.268 730.654 131.564 731.525 132.282 732.518C133.015 733.531 134.194 734.699 136.243 735.929L136.757 735.071C134.806 733.901 133.735 732.819 133.093 731.932C132.436 731.025 132.232 730.346 131.947 729.776L131.053 730.224ZM132.447 741.276C132.232 740.846 131.936 739.975 131.218 738.982C130.485 737.969 129.306 736.801 127.257 735.571L126.743 736.429C128.694 737.599 129.765 738.681 130.407 739.568C131.064 740.475 131.268 741.154 131.553 741.724L132.447 741.276ZM131.053 729.776C130.552 730.779 130.192 731.495 129.593 732.334C128.992 733.177 128.139 734.154 126.646 735.646L127.354 736.354C128.861 734.846 129.758 733.823 130.407 732.916C131.058 732.005 131.448 731.221 131.947 730.224L131.053 729.776Z" fill="#383B51"/>
<path d="M1325.5 506.5C1321.5 508.9 1321.5 511 1321 512.5C1320.5 511.5 1320 509.4 1316 507C1319 504 1319.5 503 1320.5 501C1321 502 1321.5 504.1 1325.5 506.5Z" fill="#383B51"/>
<path d="M1321 512.5L1320.55 512.724L1321.09 513.803L1321.47 512.658L1321 512.5ZM1325.5 506.5L1325.76 506.929L1326.47 506.5L1325.76 506.071L1325.5 506.5ZM1320.5 501L1320.95 500.776L1320.5 499.882L1320.05 500.776L1320.5 501ZM1316 507L1315.65 506.646L1315.19 507.099L1315.74 507.429L1316 507ZM1321.47 512.658C1321.76 511.806 1321.84 511.042 1322.37 510.08C1322.89 509.16 1323.82 508.094 1325.76 506.929L1325.24 506.071C1323.18 507.306 1322.11 508.49 1321.5 509.595C1320.91 510.658 1320.74 511.694 1320.53 512.342L1321.47 512.658ZM1320.05 501.224C1320.27 501.654 1320.56 502.525 1321.28 503.518C1322.02 504.531 1323.19 505.699 1325.24 506.929L1325.76 506.071C1323.81 504.901 1322.73 503.819 1322.09 502.932C1321.44 502.025 1321.23 501.346 1320.95 500.776L1320.05 501.224ZM1321.45 512.276C1321.23 511.846 1320.94 510.975 1320.22 509.982C1319.48 508.969 1318.31 507.801 1316.26 506.571L1315.74 507.429C1317.69 508.599 1318.77 509.681 1319.41 510.568C1320.06 511.475 1320.27 512.154 1320.55 512.724L1321.45 512.276ZM1320.05 500.776C1319.55 501.779 1319.19 502.495 1318.59 503.334C1317.99 504.177 1317.14 505.154 1315.65 506.646L1316.35 507.354C1317.86 505.846 1318.76 504.823 1319.41 503.916C1320.06 503.005 1320.45 502.221 1320.95 501.224L1320.05 500.776Z" fill="#383B51"/>
<path d="M1378.5 196.5C1374.5 198.9 1374.5 201 1374 202.5C1373.5 201.5 1373 199.4 1369 197C1372 194 1372.5 193 1373.5 191C1374 192 1374.5 194.1 1378.5 196.5Z" fill="#383B51"/>
<path d="M1374 202.5L1373.55 202.724L1374.09 203.803L1374.47 202.658L1374 202.5ZM1378.5 196.5L1378.76 196.929L1379.47 196.5L1378.76 196.071L1378.5 196.5ZM1373.5 191L1373.95 190.776L1373.5 189.882L1373.05 190.776L1373.5 191ZM1369 197L1368.65 196.646L1368.19 197.099L1368.74 197.429L1369 197ZM1374.47 202.658C1374.76 201.806 1374.84 201.042 1375.37 200.08C1375.89 199.16 1376.82 198.094 1378.76 196.929L1378.24 196.071C1376.18 197.306 1375.11 198.49 1374.5 199.595C1373.91 200.658 1373.74 201.694 1373.53 202.342L1374.47 202.658ZM1373.05 191.224C1373.27 191.654 1373.56 192.525 1374.28 193.518C1375.02 194.531 1376.19 195.699 1378.24 196.929L1378.76 196.071C1376.81 194.901 1375.73 193.819 1375.09 192.932C1374.44 192.025 1374.23 191.346 1373.95 190.776L1373.05 191.224ZM1374.45 202.276C1374.23 201.846 1373.94 200.975 1373.22 199.982C1372.48 198.969 1371.31 197.801 1369.26 196.571L1368.74 197.429C1370.69 198.599 1371.77 199.681 1372.41 200.568C1373.06 201.475 1373.27 202.154 1373.55 202.724L1374.45 202.276ZM1373.05 190.776C1372.55 191.779 1372.19 192.495 1371.59 193.334C1370.99 194.177 1370.14 195.154 1368.65 196.646L1369.35 197.354C1370.86 195.846 1371.76 194.823 1372.41 193.916C1373.06 193.005 1373.45 192.221 1373.95 191.224L1373.05 190.776Z" fill="#383B51"/>
<path d="M1052.5 77.5C1048.5 79.9 1048.5 82 1048 83.5C1047.5 82.5 1047 80.4 1043 78C1046 75 1046.5 74 1047.5 72C1048 73 1048.5 75.1 1052.5 77.5Z" fill="#383B51"/>
<path d="M1048 83.5L1047.55 83.7236L1048.09 84.8033L1048.47 83.6581L1048 83.5ZM1052.5 77.5L1052.76 77.9287L1053.47 77.5L1052.76 77.0713L1052.5 77.5ZM1047.5 72L1047.95 71.7764L1047.5 70.882L1047.05 71.7764L1047.5 72ZM1043 78L1042.65 77.6464L1042.19 78.0993L1042.74 78.4287L1043 78ZM1048.47 83.6581C1048.76 82.8056 1048.84 82.0419 1049.37 81.0803C1049.89 80.1604 1050.82 79.094 1052.76 77.9287L1052.24 77.0713C1050.18 78.306 1049.11 79.4896 1048.5 80.5947C1047.91 81.6581 1047.74 82.6944 1047.53 83.3419L1048.47 83.6581ZM1047.05 72.2236C1047.27 72.6539 1047.56 73.525 1048.28 74.5181C1049.02 75.5306 1050.19 76.6992 1052.24 77.9287L1052.76 77.0713C1050.81 75.9008 1049.73 74.8194 1049.09 73.9319C1048.44 73.025 1048.23 72.3461 1047.95 71.7764L1047.05 72.2236ZM1048.45 83.2764C1048.23 82.8461 1047.94 81.975 1047.22 80.9819C1046.48 79.9694 1045.31 78.8008 1043.26 77.5713L1042.74 78.4287C1044.69 79.5992 1045.77 80.6806 1046.41 81.5681C1047.06 82.475 1047.27 83.1539 1047.55 83.7236L1048.45 83.2764ZM1047.05 71.7764C1046.55 72.7785 1046.19 73.4954 1045.59 74.3344C1044.99 75.1766 1044.14 76.1541 1042.65 77.6464L1043.35 78.3536C1044.86 76.8459 1045.76 75.8234 1046.41 74.9156C1047.06 74.0046 1047.45 73.2215 1047.95 72.2236L1047.05 71.7764Z" fill="#383B51"/>
<path d="M1073.5 261.5C1069.5 263.9 1069.5 266 1069 267.5C1068.5 266.5 1068 264.4 1064 262C1067 259 1067.5 258 1068.5 256C1069 257 1069.5 259.1 1073.5 261.5Z" fill="#383B51"/>
<path d="M1069 267.5L1068.55 267.724L1069.09 268.803L1069.47 267.658L1069 267.5ZM1073.5 261.5L1073.76 261.929L1074.47 261.5L1073.76 261.071L1073.5 261.5ZM1068.5 256L1068.95 255.776L1068.5 254.882L1068.05 255.776L1068.5 256ZM1064 262L1063.65 261.646L1063.19 262.099L1063.74 262.429L1064 262ZM1069.47 267.658C1069.76 266.806 1069.84 266.042 1070.37 265.08C1070.89 264.16 1071.82 263.094 1073.76 261.929L1073.24 261.071C1071.18 262.306 1070.11 263.49 1069.5 264.595C1068.91 265.658 1068.74 266.694 1068.53 267.342L1069.47 267.658ZM1068.05 256.224C1068.27 256.654 1068.56 257.525 1069.28 258.518C1070.02 259.531 1071.19 260.699 1073.24 261.929L1073.76 261.071C1071.81 259.901 1070.73 258.819 1070.09 257.932C1069.44 257.025 1069.23 256.346 1068.95 255.776L1068.05 256.224ZM1069.45 267.276C1069.23 266.846 1068.94 265.975 1068.22 264.982C1067.48 263.969 1066.31 262.801 1064.26 261.571L1063.74 262.429C1065.69 263.599 1066.77 264.681 1067.41 265.568C1068.06 266.475 1068.27 267.154 1068.55 267.724L1069.45 267.276ZM1068.05 255.776C1067.55 256.779 1067.19 257.495 1066.59 258.334C1065.99 259.177 1065.14 260.154 1063.65 261.646L1064.35 262.354C1065.86 260.846 1066.76 259.823 1067.41 258.916C1068.06 258.005 1068.45 257.221 1068.95 256.224L1068.05 255.776Z" fill="#383B51"/>
<mask id="mask0_310_7" style="mask-type:alpha" maskUnits="userSpaceOnUse" x="611" y="507" width="1018" height="1030">
<path fill-rule="evenodd" clip-rule="evenodd" d="M1077.64 520.937C1075.81 517.952 1075.58 514.801 1078.57 511.611C1086.68 502.961 1110.93 508.407 1139.77 514.882C1150.05 517.19 1160.92 519.629 1171.84 521.607C1428.6 547.58 1629 764.387 1629 1028C1629 1309.11 1401.11 1537 1120 1537C838.887 1537 611 1309.11 611 1028C611 928.349 611.092 871.357 660.585 792.863C705.202 712.384 772.027 645.489 849.749 597.962C859.888 589.344 879.176 572.63 888.013 563.793C898.175 553.631 908.474 555.996 913.907 564.24C966.281 540.935 1021.82 526.011 1077.64 520.937Z" fill="url(#paint3_linear_310_7)"/>
</mask>
<g mask="url(#mask0_310_7)">
<path d="M1073.45 717.071C870.768 790.368 690.226 723.389 723.763 619.054C834.819 196.348 1247.78 461.967 1249.16 491.12C1250.55 520.272 1326.79 625.449 1073.45 717.071Z" fill="url(#paint4_radial_310_7)"/>
<g filter="url(#filter0_f_310_7)">
<path d="M1434.81 988.913C1287.59 1177.65 1107.4 1175.29 1074.9 1043.51C955.023 557.452 1438.7 588.165 1475.79 694.329C1487.84 728.837 1618.82 752.993 1434.81 988.913Z" fill="url(#paint5_radial_310_7)"/>
</g>
</g>
<mask id="mask1_310_7" style="mask-type:alpha" maskUnits="userSpaceOnUse" x="611" y="519" width="1018" height="1018">
<path d="M1629 1028C1629 1309.11 1401.11 1537 1120 1537C838.887 1537 611 1309.11 611 1028C611 938.787 622.876 860.765 663.197 787.857C749.928 631.026 928.1 519 1120 519C1401.11 519 1629 746.887 1629 1028Z" fill="url(#paint6_linear_310_7)"/>
</mask>
<g mask="url(#mask1_310_7)">
<ellipse cx="821.836" cy="885.083" rx="298.437" ry="288.041" transform="rotate(56.6945 821.836 885.083)" fill="url(#paint7_radial_310_7)"/>
</g>
<path d="M1016.57 513.139C1086.15 503.341 1147.5 502.627 1139.78 533.165C1132.05 563.703 1086.15 604.149 1016.57 613.947C946.991 623.744 868.326 613.937 876.05 583.399C883.775 552.861 946.991 522.937 1016.57 513.139Z" fill="url(#paint8_radial_310_7)"/>
<mask id="mask2_310_7" style="mask-type:alpha" maskUnits="userSpaceOnUse" x="875" y="507" width="266" height="111">
<path d="M1016.57 513.139C1086.15 503.341 1147.5 502.627 1139.78 533.165C1132.05 563.703 1086.15 604.149 1016.57 613.947C946.991 623.744 868.326 613.937 876.05 583.399C883.775 552.861 946.991 522.937 1016.57 513.139Z" fill="url(#paint9_radial_310_7)"/>
</mask>
<g mask="url(#mask2_310_7)">
<g filter="url(#filter1_f_310_7)">
<path d="M1123.01 560.406C1147 487.946 813.208 563.282 948.896 610.399C935.749 623.547 847.395 591.584 836.195 552.142C824.996 512.7 855.186 529.256 902.419 496.144C949.652 463.032 1086.97 467.902 1136.15 468.875C1185.33 469.849 1177.54 505.883 1181.92 522.926C1185.43 536.56 1131.29 546.285 1123.01 560.406Z" fill="url(#paint10_radial_310_7)"/>
</g>
</g>
<ellipse rx="131.174" ry="161.838" transform="matrix(0.960901 0.276894 -0.234256 0.972175 738.245 915.867)" fill="#2C2F41"/>
<ellipse rx="181.362" ry="198.028" transform="matrix(0.863252 0.504773 0.483855 -0.875148 1338.78 899.721)" fill="#2C2F42"/>
<ellipse rx="121.363" ry="149.733" transform="matrix(0.960901 0.276894 -0.234256 0.972175 738.245 915.867)" fill="url(#paint11_radial_310_7)"/>
<ellipse rx="170.29" ry="185.939" transform="matrix(0.862992 0.505218 0.483363 -0.87542 1337.73 895.813)" fill="url(#paint12_radial_310_7)"/>
<path d="M1015.96 515.563C1050.7 510.671 1083.19 508.079 1105.98 510.463C1117.39 511.657 1126.17 514.08 1131.61 517.934C1137 521.748 1138.99 526.85 1137.3 533.514C1133.69 547.807 1121.01 564.809 1100.42 579.569C1079.87 594.303 1051.56 606.683 1017.18 611.523C982.614 616.391 945.802 616.381 918.654 611.383C905.068 608.882 894.037 605.155 886.907 600.262C879.723 595.333 876.891 589.514 878.526 583.05C880.252 576.229 885.103 569.273 892.794 562.386C900.509 555.478 910.953 548.765 923.485 542.602C948.54 530.282 981.394 520.43 1015.96 515.563Z" stroke="#2C2F41" stroke-width="5"/>
<g filter="url(#filter2_f_310_7)">
<path d="M1149.32 727.081C1059.08 809.254 1122.33 1048.89 1128.92 1052.79C1212.54 1258.44 946.2 1138.17 993.341 894.529C1040.48 650.888 1239.55 644.909 1149.32 727.081Z" fill="#2C2F41"/>
</g>
<path d="M1283.84 553.538C1276.1 553.538 1265.6 549.764 1262.29 546.332C1255.91 539.712 1277.19 533.685 1284.64 538.909C1292.09 544.134 1287.87 553.538 1283.84 553.538Z" fill="#313447"/>
<path d="M1078.13 684.098C1090.24 680.558 1102.7 679.772 1108.04 688.049C1115.74 699.977 1104.83 702.811 1096.08 710.104C1087.71 717.089 1083.48 729.119 1073.47 719.441C1061.57 707.942 1071.84 685.939 1078.13 684.098Z" fill="#313447"/>
<path d="M911.752 741.528C914.141 743.68 915.978 746.278 914.897 748.545C912.813 752.915 902.559 749.363 903.461 745.244C904.364 741.124 910.511 740.409 911.752 741.528Z" fill="#313447"/>
<path d="M1259.9 630.884C1262.29 633.037 1264.12 635.635 1263.04 637.901C1260.96 642.272 1250.7 638.72 1251.61 634.6C1252.51 630.481 1258.66 629.765 1259.9 630.884Z" fill="#313447"/>
<path d="M810.77 680.539C806.719 679.244 808.503 675.171 810.77 670.976C815.14 662.885 830.68 661.832 825.621 668.943C820.347 676.356 814.604 681.765 810.77 680.539Z" fill="#313447"/>
<path d="M1044.49 922.331C1039.62 931.752 1028.04 926.703 1016.23 920.479C993.439 908.476 1011.88 889.413 1036.48 893.178C1061.08 896.943 1049.09 913.412 1044.49 922.331Z" fill="#313447"/>
<path d="M1154.82 524.922C1154.5 527.615 1153.68 530.215 1151.81 530.816C1148.21 531.974 1146.03 523.606 1148.97 521.855C1151.91 520.103 1154.98 523.522 1154.82 524.922Z" fill="#383B51"/>
<path d="M870.051 593.47C872.104 595.24 873.794 597.381 873.244 599.263C872.184 602.892 864.034 600.003 864.232 596.588C864.431 593.173 868.983 592.55 870.051 593.47Z" fill="#383B51"/>
<path fill-rule="evenodd" clip-rule="evenodd" d="M138.26 129.733C145.13 118.424 154.776 112.532 158.74 111C160.454 114.888 163.095 125.878 159.941 138.729C155.999 154.793 142.051 186.22 140.956 186.673C140.895 186.699 140.846 186.796 140.808 186.957L145.935 219.315L126.985 212.042C121.296 224.514 109.647 243.876 107.134 235.723C105.435 230.208 107.635 217.293 110.376 205.667L93 198.998L105.433 188.929C107.597 186.797 110.041 184.577 112.177 182.637C115.383 179.726 117.895 177.444 117.725 177.034C117.272 175.939 129.671 143.869 138.26 129.733Z" fill="url(#paint13_linear_310_7)"/>
<path fill-rule="evenodd" clip-rule="evenodd" d="M852.26 82.7325C859.13 71.4237 868.776 65.5322 872.74 64C874.454 67.8884 877.095 78.8778 873.941 91.7289C869.999 107.793 856.051 139.22 854.956 139.673C854.895 139.699 854.846 139.796 854.808 139.957L859.935 172.315L840.985 165.042C835.296 177.514 823.647 196.876 821.134 188.723C819.435 183.208 821.635 170.293 824.376 158.667L807 151.998L819.433 141.929C821.597 139.797 824.041 137.577 826.177 135.637C829.383 132.726 831.895 130.444 831.725 130.034C831.272 128.939 843.671 96.8686 852.26 82.7325Z" fill="url(#paint14_linear_310_7)"/>
</g>
<defs>
<filter id="filter0_f_310_7" x="1035.85" y="609.505" width="516.356" height="547.703" filterUnits="userSpaceOnUse" color-interpolation-filters="sRGB">
<feFlood flood-opacity="0" result="BackgroundImageFix"/>
<feBlend mode="normal" in="SourceGraphic" in2="BackgroundImageFix" result="shape"/>
<feGaussianBlur stdDeviation="10" result="effect1_foregroundBlur_310_7"/>
</filter>
<filter id="filter1_f_310_7" x="823.858" y="458.059" width="368.227" height="165.343" filterUnits="userSpaceOnUse" color-interpolation-filters="sRGB">
<feFlood flood-opacity="0" result="BackgroundImageFix"/>
<feBlend mode="normal" in="SourceGraphic" in2="BackgroundImageFix" result="shape"/>
<feGaussianBlur stdDeviation="5" result="effect1_foregroundBlur_310_7"/>
</filter>
<filter id="filter2_f_310_7" x="967.702" y="659.582" width="224.796" height="518.064" filterUnits="userSpaceOnUse" color-interpolation-filters="sRGB">
<feFlood flood-opacity="0" result="BackgroundImageFix"/>
<feBlend mode="normal" in="SourceGraphic" in2="BackgroundImageFix" result="shape"/>
<feGaussianBlur stdDeviation="10" result="effect1_foregroundBlur_310_7"/>
</filter>
<radialGradient id="paint0_radial_310_7" cx="0" cy="0" r="1" gradientUnits="userSpaceOnUse" gradientTransform="translate(908.5 322.5) rotate(143.655) scale(1230.08 1803.95)">
<stop stop-color="#242535"/>
<stop offset="0.861983" stop-color="#242535"/>
<stop offset="1" stop-color="#242535"/>
</radialGradient>
<linearGradient id="paint1_linear_310_7" x1="993.5" y1="528.887" x2="1343.07" y2="1266.81" gradientUnits="userSpaceOnUse">
<stop stop-color="#2C2F41"/>
<stop offset="0.283302" stop-color="#2C2F41"/>
<stop offset="0.51521" stop-color="#2C2F41"/>
<stop offset="1" stop-color="#2C2F41"/>
</linearGradient>
<linearGradient id="paint2_linear_310_7" x1="499.166" y1="758.417" x2="474" y2="907.5" gradientUnits="userSpaceOnUse">
<stop stop-color="#383B51"/>
<stop offset="1" stop-color="#383B51"/>
</linearGradient>
<linearGradient id="paint3_linear_310_7" x1="993.5" y1="528.888" x2="1343.07" y2="1266.81" gradientUnits="userSpaceOnUse">
<stop stop-color="#3C417C"/>
<stop offset="1" stop-color="#0C0D1C"/>
</linearGradient>
<radialGradient id="paint4_radial_310_7" cx="0" cy="0" r="1" gradientUnits="userSpaceOnUse" gradientTransform="translate(991.021 578.289) rotate(87.0275) scale(207.824 373.461)">
<stop stop-color="#2B2E41"/>
<stop offset="0.332336" stop-color="#2C2E41"/>
<stop offset="0.581437" stop-color="#2D3041"/>
</radialGradient>
<radialGradient id="paint5_radial_310_7" cx="0" cy="0" r="1" gradientUnits="userSpaceOnUse" gradientTransform="translate(1497.03 994.791) rotate(-138.513) scale(446.825 699.472)">
<stop stop-color="#303361" stop-opacity="0.83"/>
<stop offset="0.983218" stop-color="#191B34" stop-opacity="0"/>
</radialGradient>
<linearGradient id="paint6_linear_310_7" x1="993.5" y1="540.5" x2="1336.5" y2="1273" gradientUnits="userSpaceOnUse">
<stop stop-color="#3C417C"/>
<stop offset="1" stop-color="#0C0D1C"/>
</linearGradient>
<radialGradient id="paint7_radial_310_7" cx="0" cy="0" r="1" gradientUnits="userSpaceOnUse" gradientTransform="translate(791.014 899.454) rotate(-84.6361) scale(303.131 313.29)">
<stop offset="0.477659" stop-color="#292C3E"/>
<stop offset="1" stop-color="#2D3044" stop-opacity="0"/>
</radialGradient>
<radialGradient id="paint8_radial_310_7" cx="0" cy="0" r="1" gradientUnits="userSpaceOnUse" gradientTransform="translate(1006.22 565.001) rotate(174.18) scale(126.371 47.9897)">
<stop stop-color="#2C2F42"/>
<stop offset="0.52458" stop-color="#2B2E40"/>
<stop offset="0.974002" stop-color="#262837"/>
</radialGradient>
<radialGradient id="paint9_radial_310_7" cx="0" cy="0" r="1" gradientUnits="userSpaceOnUse" gradientTransform="translate(1006.22 565.001) rotate(173.891) scale(130.834 49.6844)">
<stop stop-color="#2C2F42"/>
<stop offset="0.791667" stop-color="#313567"/>
<stop offset="1" stop-color="#2E3263"/>
</radialGradient>
<radialGradient id="paint10_radial_310_7" cx="0" cy="0" r="1" gradientUnits="userSpaceOnUse" gradientTransform="translate(1001.4 508.896) rotate(72.7185) scale(95.5486 205.205)">
<stop offset="0.140928" stop-color="#252737"/>
<stop offset="1" stop-color="#272A3B"/>
</radialGradient>
<radialGradient id="paint11_radial_310_7" cx="0" cy="0" r="1" gradientUnits="userSpaceOnUse" gradientTransform="translate(128.558 181.983) rotate(-97.2568) scale(182.491 148.312)">
<stop stop-color="#2D3041"/>
<stop offset="0.596662" stop-color="#2B2E41"/>
<stop offset="1" stop-color="#242635"/>
</radialGradient>
<radialGradient id="paint12_radial_310_7" cx="0" cy="0" r="1" gradientUnits="userSpaceOnUse" gradientTransform="translate(302.492 138.575) rotate(142.397) scale(318.966 300.84)">
<stop stop-color="#252737"/>
<stop offset="0.60513" stop-color="#2C2F42"/>
<stop offset="0.841688" stop-color="#262838"/>
<stop offset="1" stop-color="#252737"/>
</radialGradient>
<linearGradient id="paint13_linear_310_7" x1="127.206" y1="111" x2="102.041" y2="260.083" gradientUnits="userSpaceOnUse">
<stop stop-color="#383B51"/>
<stop offset="1" stop-color="#383B51"/>
</linearGradient>
<linearGradient id="paint14_linear_310_7" x1="841.206" y1="64" x2="816.041" y2="213.083" gradientUnits="userSpaceOnUse">
<stop stop-color="#383B51"/>
<stop offset="1" stop-color="#383B51"/>
</linearGradient>
<clipPath id="clip0_310_7">
<rect width="1424" height="971" fill="white"/>
</clipPath>
</defs>
</svg>
