<svg width="518" height="445" viewBox="0 0 518 445" fill="none" xmlns="http://www.w3.org/2000/svg">
<g clip-path="url(#clip0_711_213)">
<path d="M331.871 355.378L336.848 365.851C332.802 365.246 329.039 368.489 328.955 372.653C328.87 376.817 332.479 381.149 336.526 381.741C335.752 384.974 332.415 386.399 329.518 387.706C326.622 389.012 323.5 391.179 323.715 394.624C323.888 397.39 326.326 399.832 328.914 400.814C331.503 401.796 334.219 401.645 336.841 401.48C332.868 405.379 332.481 412.709 335.97 417.967C339.459 423.226 346.426 425.814 351.643 423.79C347.957 428.093 348.758 435.972 353.333 440.413C357.945 444.889 364.628 445.322 370.471 444.851C385.35 443.67 399.528 438.398 411.23 429.694C415.697 426.364 419.869 422.447 422.417 417.338C424.965 412.229 425.716 405.76 423.343 399.946C423.983 407.229 431.752 412.982 438.741 413.304C445.73 413.626 451.832 409.932 457.018 405.72C463.914 400.118 470.299 392.266 469.353 382.577C468.884 377.781 466.651 373.168 464.462 368.7L460.217 360.038C458.503 356.541 456.75 352.985 454.171 350.05C451.591 347.115 448.011 344.844 444.428 344.865C445.247 341.353 446.07 337.711 445.383 333.979C444.697 330.248 442.068 326.385 438.493 325.511C433.943 324.399 430.086 328.339 425.511 327.967C421.108 327.61 417.469 323.464 413.193 321.821C411.433 321.106 409.489 320.889 407.599 321.196C405.709 321.503 403.955 322.32 402.553 323.548C399.842 326.03 398.712 330.225 399.685 334.194C400.537 337.671 402.805 340.738 404.181 344.091C405.557 347.444 405.771 351.756 403.128 353.588C399.938 355.797 395.083 352.79 392.591 349.152C390.099 345.514 388.668 341.109 385.517 338.049C381.798 334.438 375.976 333.592 372.147 336.106C368.318 338.62 366.853 344.249 368.784 349.034C370.362 352.947 373.978 356.905 372.724 360.59C371.399 364.484 365.599 363.991 362.101 361.239C358.602 358.487 356.28 354.341 352.824 351.528C349.314 348.67 344.731 347.418 340.708 348.217C338.667 348.662 336.778 349.581 335.216 350.891C333.654 352.201 332.468 353.859 331.769 355.712" fill="#E6E6E6"/>
<path d="M412.461 325.948L402.133 330.451C400.58 331.17 398.819 331.393 397.119 331.085C395.62 330.752 394.607 329.892 394.341 328.724L391.937 318.192C391.484 316.205 393.237 313.854 396.107 312.603L401.811 310.117C404.68 308.866 407.726 309.124 409.051 310.731L416.08 319.247C416.859 320.191 416.906 321.472 416.21 322.762C415.365 324.18 414.048 325.299 412.461 325.948Z" fill="#3F3D56"/>
<path d="M92.2092 131.292C101.919 106.356 117.071 83.5976 136.696 64.4741C153.346 48.2557 179.259 48.9296 179.259 48.9296L179.407 48.7573C185.644 41.5409 194.013 36.2133 203.464 33.4429C212.916 30.6725 223.028 30.5828 232.534 33.1848C235.005 33.8501 236.905 34.145 237.809 33.8487C254.287 28.4372 253.513 16.2232 267.73 6.38363C292.623 -10.8449 375.191 8.89003 386.834 40.5925C396.271 66.2866 438.392 78.7404 454.129 98.3943C456.59 101.467 459.004 104.576 461.372 107.721C462.482 109.181 463.58 110.653 464.665 112.136C475.815 127.286 485.817 143.152 494.599 159.617C500.357 170.374 505.362 181.472 509.581 192.841C525.992 237.858 520.38 271.399 475.128 263.113C469.771 262.129 464.543 261.249 459.444 260.473C452.06 259.342 444.933 258.413 438.064 257.685C428.814 256.698 420.013 256.051 411.663 255.745C408.855 255.639 406.099 255.568 403.394 255.532C363.402 255.012 333.738 262.074 311.139 273.038C307.308 274.891 303.678 276.852 300.248 278.921C295.01 282.063 290.008 285.54 285.278 289.326C278.733 294.597 272.697 300.4 267.241 306.668L266.941 307.012C240.509 337.35 231.81 370.935 213.424 376.848C134.826 402.131 85.1166 310.481 80.0187 220.828C79.7613 216.311 79.6191 211.806 79.5922 207.314C79.5762 205.306 79.5867 203.304 79.6237 201.306C79.7044 196.096 79.9492 190.92 80.3591 185.806C80.5122 183.85 80.6898 181.905 80.8918 179.971C81.1145 177.884 81.3567 175.811 81.6367 173.75C83.6361 158.644 87.134 144.272 92.2092 131.292Z" fill="#6C63FF"/>
<path d="M335.822 180.618C329.545 183.36 329.442 195.642 331.41 199.622L334.977 206.826L357.713 196.914L354.147 189.71C352.174 185.732 342.104 177.885 335.822 180.618Z" fill="#3F3D56"/>
<path d="M274.724 284.039C274.324 284.039 273.93 283.948 273.575 283.775C273.22 283.602 272.915 283.35 272.686 283.043C272.456 282.735 272.31 282.38 272.258 282.008C272.206 281.636 272.251 281.257 272.388 280.905C272.499 280.617 272.67 280.352 272.891 280.126C273.112 279.901 273.379 279.719 273.675 279.59L391.092 228.402C391.388 228.273 391.708 228.2 392.034 228.187C392.36 228.174 392.686 228.221 392.993 228.326C393.299 228.432 393.581 228.592 393.821 228.8C394.061 229.007 394.256 229.256 394.394 229.534C394.67 230.095 394.699 230.736 394.473 231.317C394.246 231.898 393.784 232.371 393.187 232.632H393.186L275.77 283.82C275.442 283.964 275.085 284.039 274.724 284.039Z" fill="#3F3D56"/>
<path d="M366.57 201.508L333.007 216.14L385.656 322.468L419.219 307.836L366.57 201.508Z" fill="#E6E6E6"/>
<path d="M240.577 67.6584C234.3 70.4005 234.196 82.6828 236.165 86.6625L239.731 93.8659L262.468 83.9539L258.901 76.7505C256.929 72.7725 246.858 64.9255 240.577 67.6584Z" fill="#3F3D56"/>
<path d="M381.219 338.171L370.891 342.674C369.338 343.393 367.577 343.616 365.877 343.308C364.378 342.975 363.365 342.115 363.098 340.947L360.695 330.415C360.241 328.429 361.995 326.078 364.865 324.827L370.568 322.34C373.438 321.089 376.484 321.348 377.809 322.954L384.838 331.47C385.617 332.414 385.664 333.696 384.968 334.985C384.123 336.403 382.806 337.522 381.219 338.171Z" fill="#3F3D56"/>
<path d="M349.465 352.954L339.137 357.456C337.584 358.176 335.823 358.399 334.123 358.091C332.624 357.758 331.611 356.898 331.345 355.73L328.941 345.198C328.488 343.211 330.241 340.86 333.111 339.609L338.815 337.123C341.684 335.872 344.73 336.13 346.055 337.737L353.084 346.252C353.863 347.197 353.91 348.478 353.215 349.768C352.369 351.186 351.052 352.305 349.465 352.954Z" fill="#3F3D56"/>
<path d="M296.122 123.835L250.645 143.661C247.75 139.434 239.022 117.775 240.982 111.349L239.511 105.221L270.911 91.5316L275.114 96.383C281.353 98.1792 293.499 118.523 296.122 123.835Z" fill="#CCCCCC"/>
<path d="M272.755 91.4377L239.192 106.07L353.14 336.196L386.703 321.564L272.755 91.4377Z" fill="#E6E6E6"/>
<path d="M315.105 217.43L311.339 209.655L313.507 208.716L317.262 216.467L371.629 329.578L369.463 330.522" fill="#3F3D56"/>
<path d="M357.582 210.967L353.816 203.191L355.984 202.253L359.739 210.004L414.106 323.115L411.94 324.059" fill="#3F3D56"/>
<path d="M272.224 91.7938L239.82 105.92C238.624 106.442 237.35 106.25 236.975 105.492C236.921 105.383 236.888 105.266 236.876 105.146L235.199 88.3586C235.127 87.6398 235.783 86.8252 236.784 86.3886L258.273 77.0203C259.275 76.5838 260.361 76.6392 260.9 77.1543L273.492 89.1833C274.136 89.7986 273.786 90.8517 272.71 91.5355C272.556 91.6337 272.393 91.72 272.224 91.7938Z" fill="#E6E6E6"/>
<path d="M297.639 223.315C297.288 223.316 296.938 223.278 296.598 223.2C296.117 223.107 295.666 222.911 295.278 222.629C294.89 222.346 294.577 221.985 294.361 221.571L274.55 181.562C273.73 179.905 274.831 177.787 277.004 176.84L306.012 164.193C308.185 163.246 310.62 163.823 311.44 165.479L331.251 205.489C331.449 205.91 331.542 206.368 331.522 206.828C331.502 207.289 331.37 207.738 331.136 208.143C330.627 209.06 329.803 209.789 328.797 210.21L299.789 222.856C299.116 223.154 298.383 223.311 297.639 223.315Z" fill="#3F3D56"/>
<path d="M301.606 229.372L268.042 244.004L320.691 350.332L354.255 335.7L301.606 229.372Z" fill="#E6E6E6"/>
<path d="M260.257 93.5476L250.414 97.8385C248.515 98.6665 245.952 97.2868 244.703 94.7632C243.453 92.2397 243.982 89.5123 245.881 88.6843L255.724 84.3934C257.623 83.5654 260.186 84.9451 261.435 87.4687C262.685 89.9922 262.156 92.7196 260.257 93.5476Z" fill="#3F3D56"/>
<path d="M271.513 208.197C265.236 210.939 265.132 223.221 267.101 227.201L270.667 234.404L293.404 224.492L289.837 217.289C287.865 213.311 277.794 205.464 271.513 208.197Z" fill="#3F3D56"/>
<path d="M167.245 183.68C165.028 185.066 162.759 181.767 165.018 180.443C167.235 179.057 169.504 182.356 167.245 183.68Z" fill="#E6E6E6"/>
<path d="M397.998 136.283C395.781 137.668 393.512 134.37 395.772 133.045C397.989 131.66 400.257 134.958 397.998 136.283Z" fill="#E6E6E6"/>
<path d="M240.718 173.985C238.502 175.371 236.233 172.072 238.492 170.748C240.709 169.362 242.978 172.661 240.718 173.985Z" fill="#E6E6E6"/>
<path d="M167.245 303.25C165.028 304.636 162.759 301.338 165.018 300.013C167.235 298.627 169.504 301.926 167.245 303.25Z" fill="#E6E6E6"/>
<path d="M280.325 33.4088C278.109 34.7947 275.84 31.4961 278.099 30.1717C280.316 28.7858 282.585 32.0845 280.325 33.4088Z" fill="#E6E6E6"/>
<path d="M171.263 96.9643C169.046 98.3503 166.777 95.0516 169.037 93.7272C171.253 92.3413 173.522 95.64 171.263 96.9643Z" fill="#E6E6E6"/>
<path d="M328.128 78.7442L326.718 78.4539L327.027 77.13L326.086 76.9366L325.777 78.2605L324.367 77.9708L324.161 78.853L325.571 79.1433L325.262 80.4667L326.202 80.66L326.512 79.3361L327.922 79.6264L328.128 78.7442Z" fill="#E6E6E6"/>
<path d="M98.4672 189.039L97.0568 188.749L97.3657 187.425L96.4254 187.232L96.116 188.555L94.7051 188.265L94.499 189.148L95.91 189.438L95.6011 190.762L96.5414 190.955L96.8508 189.631L98.2611 189.921L98.4672 189.039Z" fill="#E6E6E6"/>
<path d="M387.705 245.301C386.532 245.811 385.19 245.863 383.975 245.447C382.76 245.03 381.771 244.178 381.225 243.078L375.42 231.355C374.877 230.254 374.821 228.996 375.266 227.856C375.711 226.717 376.619 225.79 377.792 225.279C378.964 224.768 380.305 224.714 381.52 225.13C382.734 225.546 383.723 226.397 384.27 227.497L390.074 239.22C390.618 240.321 390.674 241.58 390.23 242.72C389.786 243.86 388.878 244.788 387.705 245.301Z" fill="#3F3D56"/>
<path d="M288.975 288.389C287.801 288.899 286.46 288.952 285.245 288.535C284.03 288.118 283.041 287.267 282.494 286.166L276.689 274.443C276.146 273.342 276.091 272.084 276.535 270.945C276.98 269.806 277.888 268.879 279.061 268.368C280.234 267.856 281.575 267.803 282.789 268.219C284.004 268.634 284.993 269.486 285.539 270.585L291.344 282.308C291.888 283.41 291.944 284.668 291.499 285.808C291.055 286.948 290.147 287.877 288.975 288.389Z" fill="#3F3D56"/>
<path d="M378.763 219.687L339.842 236.655C337.364 233.038 329.894 214.501 331.571 209.001L332.394 202.849L355.634 192.15L360.784 196.193C368.039 193.891 378.704 210.761 378.763 219.687Z" fill="#E6E6E6"/>
<path d="M360.693 218.511L350.851 222.802C348.951 223.63 346.061 221.589 344.409 218.252C342.757 214.916 342.958 211.527 344.858 210.699L354.7 206.408C356.6 205.58 359.489 207.621 361.142 210.958C362.794 214.294 362.592 217.683 360.693 218.511Z" fill="#3F3D56"/>
<path d="M277.22 240.59L273.454 232.815L275.622 231.876L279.377 239.627L333.744 352.738L331.579 353.682" fill="#3F3D56"/>
<path d="M314.454 247.266L275.532 264.234C269.79 261.452 261.015 243.249 267.262 236.58L268.085 230.427L291.325 219.729L296.474 223.771C301.814 225.308 312.209 242.72 314.454 247.266Z" fill="#E6E6E6"/>
<path d="M295.583 244.472L285.74 248.762C283.841 249.591 281.131 247.912 279.699 245.022C278.268 242.131 278.649 239.105 280.548 238.277L290.391 233.986C292.29 233.158 295 234.837 296.432 237.727C297.863 240.618 297.482 243.644 295.583 244.472Z" fill="#3F3D56"/>
<path d="M98.3235 165.807C130.976 165.807 157.447 140.969 157.447 110.331C157.447 79.6919 130.976 54.8542 98.3235 54.8542C65.6706 54.8542 39.2002 79.6919 39.2002 110.331C39.2002 140.969 65.6706 165.807 98.3235 165.807Z" fill="#FF6584"/>
<path opacity="0.3" d="M340.738 168.112L376.667 69.6498L337.214 166.933C337.019 167.164 336.885 167.435 336.824 167.724C336.763 168.013 336.777 168.312 336.863 168.595C336.949 168.879 337.107 169.138 337.322 169.353C337.537 169.568 337.803 169.732 338.099 169.831C338.395 169.93 338.711 169.961 339.023 169.922C339.334 169.884 339.631 169.776 339.889 169.608C340.147 169.439 340.358 169.216 340.506 168.956C340.654 168.696 340.733 168.406 340.737 168.112H340.738Z" fill="#F0F0F0"/>
<path d="M432.323 109.422C425.29 111.615 417.493 113.77 408.931 115.886C364.649 126.825 305.294 135.359 241.799 139.915C178.304 144.47 118.255 144.503 72.7153 140.008C50.5313 137.819 32.985 134.669 20.5641 130.647C7.41381 126.389 0.503953 121.258 0.0262132 115.397C-0.904113 103.979 23.1088 93.9289 43.417 87.509L43.967 89.0402C16.0784 97.8564 1.08326 107.173 1.74349 115.274C2.58401 125.591 28.518 134.021 72.8954 138.401C118.335 142.886 178.273 142.852 241.668 138.304C305.062 133.755 364.308 125.239 408.493 114.323C451.644 103.664 475.911 91.6321 475.07 81.3144C474.372 72.7481 456.376 65.42 424.398 60.6791L424.667 59.0833C447.903 62.528 475.807 69.1596 476.788 81.1913C477.265 87.0523 471.267 93.1092 458.959 99.1936C451.944 102.662 443.029 106.084 432.323 109.422Z" fill="#3F3D56"/>
<path d="M449.697 207.815C453.089 207.815 455.84 205.234 455.84 202.051C455.84 198.867 453.089 196.286 449.697 196.286C446.304 196.286 443.553 198.867 443.553 202.051C443.553 205.234 446.304 207.815 449.697 207.815Z" fill="#FF6584"/>
<path d="M488.729 364.011C492.122 364.011 494.872 361.43 494.872 358.246C494.872 355.063 492.122 352.482 488.729 352.482C485.336 352.482 482.586 355.063 482.586 358.246C482.586 361.43 485.336 364.011 488.729 364.011Z" fill="#F2F2F2"/>
<path d="M279.214 399.108C285.829 399.108 291.192 394.077 291.192 387.87C291.192 381.663 285.829 376.631 279.214 376.631C272.599 376.631 267.237 381.663 267.237 387.87C267.237 394.077 272.599 399.108 279.214 399.108Z" fill="#F2F2F2"/>
<path d="M187.946 250.365C191.339 250.365 194.09 247.784 194.09 244.601C194.09 241.417 191.339 238.836 187.946 238.836C184.554 238.836 181.803 241.417 181.803 244.601C181.803 247.784 184.554 250.365 187.946 250.365Z" fill="#3F3D56"/>
<path d="M394.477 257.867L420.982 264.305L437.239 294.267L409.755 295.278L394.477 257.867Z" fill="#E6E6E6"/>
<path d="M333.298 214.674L347.886 228.37L384.937 303.535L378.115 309.065L333.298 214.674Z" fill="#CCCCCC"/>
<path d="M301.579 227.089L302.723 246.423L337.694 322.46L346.635 321.38L301.579 227.089Z" fill="#CCCCCC"/>
<path d="M300.624 305.194L286.349 327.116L296.872 359.255L317.372 342.048L300.624 305.194Z" fill="#E6E6E6"/>
<path d="M426.724 318.665C419.312 318.665 411.189 318.402 402.353 317.876C356.654 315.153 297.46 305.686 235.674 291.219C173.888 276.753 116.893 259.014 75.1881 241.272C54.8723 232.629 39.2801 224.448 28.845 216.955C17.7969 209.023 12.9643 202.109 14.4809 196.406C17.4359 185.295 43.6012 182.864 65.0308 182.782L65.0381 184.398C35.6095 184.511 18.2482 188.915 16.152 196.797C13.4817 206.837 35.2589 222.511 75.8992 239.8C117.513 257.503 174.403 275.208 236.091 289.652C297.779 304.096 356.864 313.546 402.463 316.264C446.994 318.918 474.067 314.681 476.737 304.642C478.954 296.306 464.339 284.026 435.586 270.064L436.378 268.629C457.27 278.774 481.521 293.325 478.408 305.033C476.891 310.736 469.163 314.709 455.439 316.841C447.615 318.056 438.006 318.665 426.724 318.665Z" fill="#3F3D56"/>
</g>
<defs>
<clipPath id="clip0_711_213">
<rect width="518" height="445" fill="white"/>
</clipPath>
</defs>
</svg>
