<svg width="192" height="51" viewBox="0 0 192 51" fill="none" xmlns="http://www.w3.org/2000/svg">
<path d="M20.7336 15.9235L16.5683 16.1704L14.7243 18.5964L13.9567 21.824L16.7967 27.4575L19.7779 30.4369L21.1206 31.4328L18.5711 33.3806L15.4807 32.8984L10.8587 34.1704L10.2409 34.8247L14.0932 35.6243L15.0536 36.6511L14.864 37.32L13.8718 37.8551L13.3066 38.7852L12.8746 39.9127L12.8336 40.1751L10.788 39.4862L8.5253 39.6629L6.36543 41.1657L5.2359 42.7635L3.00485 45.5787L2.19873 46.5081L5.1709 46.2942L9.98808 46.7424L12.5058 46.3302L13.8347 45.1793L14.4409 43.9867L15.1233 44.0545L15.389 44.6591L16.5786 45.1879L18.3594 45.0097L19.7764 45.5522L25.0632 45.6606L27.9155 45.2626L31.8806 44.3036L36.6645 42.6122L40.0303 40.7194L42.7277 38.5489L48.0241 31.5561L48.378 29.7458L47.1269 28.7123L43.8458 27.7461L40.0908 26.9733L37.3097 26.5191L36.1667 25.838L33.7856 24.6054L33.5995 23.621L33.3858 22.3858L32.8512 20.8898L36.4412 19.9822L40.1848 18.4345L43.0519 15.7333L43.5324 13.4886L42.9517 11.612L41.7413 11.274L40.3761 11.9566L39.7121 12.4186L38.7684 11.5803L38.0101 11.9307L37.8733 13.2482L36.8288 14.3031L34.9143 15.1139L31.9375 16.6082L26.9363 17.7992L23.4744 17.1387L20.7336 15.9235Z" fill="white" stroke="white" stroke-width="0.104973"/>
<path d="M17.9258 11.9682C19.009 11.9682 19.8872 10.8269 19.8872 9.41908C19.8872 8.01122 19.009 6.86993 17.9258 6.86993C16.8425 6.86993 15.9644 8.01122 15.9644 9.41908C15.9644 10.8269 16.8425 11.9682 17.9258 11.9682Z" fill="white"/>
<path d="M27.1456 17.8137C32.4716 17.8137 36.7893 13.844 36.7893 8.94703C36.7893 4.05008 32.4716 0.0803223 27.1456 0.0803223C21.8196 0.0803223 17.502 4.05008 17.502 8.94703C17.502 13.844 21.8196 17.8137 27.1456 17.8137Z" fill="white"/>
<path d="M36.6684 11.0985C37.7517 11.0985 38.6298 9.95723 38.6298 8.54938C38.6298 7.14153 37.7517 6.00024 36.6684 6.00024C35.5852 6.00024 34.707 7.14153 34.707 8.54938C34.707 9.95723 35.5852 11.0985 36.6684 11.0985Z" fill="white"/>
<path d="M16.4564 49.898C16.4564 49.8216 16.7387 49.3735 17.0836 48.9022C18.0533 47.5775 18.7109 46.2544 18.7109 45.6283C18.7109 45.3996 18.6756 45.3808 18.3446 45.433C17.3102 45.5962 16.9061 45.612 16.4751 45.5058C15.9549 45.3778 15.3201 44.9204 15.0219 44.4589C14.9162 44.2952 14.8011 44.1612 14.7663 44.1612C14.7314 44.1612 14.5577 44.4662 14.3801 44.8389C13.9288 45.7862 13.1362 46.5463 12.1343 46.9928C10.8062 47.5846 9.69092 47.6413 7.88922 47.2087C7.54823 47.1269 6.83806 46.9557 6.31106 46.8284C4.56771 46.4073 2.59523 46.5202 0.864688 47.14C0.690152 47.2025 0.423837 47.2536 0.272874 47.2536C-0.243204 47.2536 -0.00798565 46.9614 0.815662 46.5792C2.86176 45.6299 3.82249 44.7031 5.35267 42.2027C6.45323 40.4042 7.68119 39.497 9.4105 39.2047C10.4507 39.0288 11.2936 39.1747 12.8079 39.7925C12.8939 39.8276 12.9507 39.6153 12.9818 39.1424C13.0407 38.2441 13.34 37.809 14.2915 37.238C14.7228 36.9792 14.9881 36.7513 14.9679 36.6571C14.8861 36.2757 13.0204 35.5551 11.0516 35.1443C10.0477 34.9349 9.97228 34.9013 9.93955 34.6494C9.91074 34.4276 9.99171 34.3286 10.3905 34.0977C11.2271 33.6133 12.8702 32.9623 13.751 32.7662C15.2744 32.427 16.3776 32.523 17.9886 33.1351C18.3275 33.2638 18.3582 33.2512 19.099 32.6765C19.5181 32.3514 20.1094 31.9222 20.4132 31.7226C20.7169 31.5231 20.9655 31.3184 20.9655 31.2677C20.9655 31.217 20.6207 31.0168 20.1993 30.8228C19.1753 30.3512 18.3349 29.7288 17.985 29.1827C17.7142 28.7603 17.6366 28.7163 16.6194 28.4091C14.8539 27.8757 13.8134 27.0959 13.5125 26.0803C13.4322 25.8096 13.4074 25.0294 13.4434 23.9058C13.505 21.9804 13.7226 20.807 14.3321 19.1125C15.0184 17.2048 15.6932 16.2266 16.5999 15.8252C17.2576 15.5341 18.5875 15.3804 19.5336 15.4863C19.9551 15.5335 20.3174 15.5453 20.3389 15.5126C20.3603 15.4799 20.0538 15.0845 19.6579 14.634C19.2619 14.1834 18.7752 13.5277 18.5763 13.1768C18.228 12.5627 18.1927 12.5344 17.632 12.4196C16.9042 12.2707 16.214 11.7504 15.9531 11.1542C15.8256 10.8629 15.7401 10.2799 15.6981 9.41494C15.6364 8.14746 15.6426 8.10079 15.9356 7.6087C16.2624 7.05997 16.7655 6.68735 17.3936 6.52876C17.7174 6.44699 17.8196 6.35457 17.9295 6.04407C18.6901 3.8952 20.6371 1.87975 22.9347 0.862792C24.5286 0.157303 25.282 0.00569951 27.2218 0.000120437C29.2089 -0.0055765 30.1613 0.189247 31.7345 0.9233C33.4302 1.71451 34.7229 2.8406 35.7866 4.45297C36.3343 5.28313 36.3949 5.3382 36.8881 5.45271C37.586 5.61474 38.1468 5.9817 38.4497 6.47454C38.6446 6.79175 38.7239 7.16482 38.8144 8.19043C38.9178 9.36313 38.9087 9.55194 38.7276 9.98557C38.4622 10.6211 37.9107 11.1123 37.2674 11.286C36.8257 11.4052 36.7293 11.4803 36.6195 11.7903C36.4196 12.3549 35.7481 13.5446 35.3174 14.0974C35.1032 14.3723 34.9601 14.6265 34.9993 14.6623C35.0858 14.7414 36.5686 14.0543 37.1674 13.6577C37.5757 13.3872 37.6058 13.3284 37.7254 12.5696C37.878 11.6009 38.1279 11.2398 38.6757 11.1963C38.9908 11.1713 39.1299 11.2316 39.4475 11.5313C39.6606 11.7323 39.8753 11.8968 39.9246 11.8968C39.9739 11.8968 40.2397 11.7394 40.5153 11.5471C40.7909 11.3547 41.2495 11.1159 41.5345 11.0164C43.2309 10.424 44.3909 12.3731 43.8069 14.8346C43.5945 15.7302 43.2424 16.2842 42.3508 17.1257C40.4736 18.8973 37.4487 20.2509 34.3392 20.7108C33.7861 20.7926 33.3063 20.8845 33.2729 20.9151C33.2395 20.9456 33.2974 21.1339 33.4015 21.3335C33.5056 21.5332 33.5908 21.8356 33.5908 22.0056C33.5908 22.1756 33.6669 22.4812 33.7599 22.6847C33.8529 22.8882 33.929 23.3393 33.929 23.6871V24.3195L35.2999 24.9362C36.0539 25.2755 37.0304 25.7732 37.4699 26.0423C38.2287 26.507 38.3079 26.5317 39.0435 26.533C42.8445 26.5396 49.0343 28.6066 49.0343 29.8693C49.0343 30.2048 48.0329 32.5222 47.4916 33.4392C45.4851 36.839 42.4199 39.6759 38.3897 41.8635C34.117 44.1828 29.3254 45.5809 24.6784 45.8642L23.6005 45.9299L23.2764 46.6175C22.8689 47.4819 21.6862 48.5981 20.6527 49.0938C19.478 49.6573 18.0982 50.0368 17.2243 50.0368C16.6557 50.0368 16.4564 50.0008 16.4564 49.898V49.898ZM4.18339 45.2738C4.59939 44.8653 5.08344 44.3096 5.25905 44.0389C5.43466 43.7683 5.6037 43.5471 5.63471 43.5474C5.66572 43.5477 5.7835 43.7314 5.89647 43.9555C6.10858 44.3762 6.07627 44.5288 5.72615 44.7598C5.36887 44.9955 5.5028 45.0763 6.22652 45.0616C6.78934 45.0502 7.15103 45.1236 8.02468 45.4262C9.28388 45.8623 10.4304 46.0593 11.1583 45.9646C12.7575 45.7566 13.5746 45.2743 13.9716 44.3039C14.2519 43.6189 14.2566 43.4485 14.0082 42.9722C13.8728 42.7124 13.7196 42.5835 13.4986 42.5431C13.0739 42.4654 13.0387 42.3817 13.2558 41.9654C13.427 41.637 13.427 41.5734 13.2562 41.1031C13.099 40.6704 12.9844 40.5477 12.4813 40.2729C11.8159 39.9095 10.8536 39.6256 10.2873 39.6256C9.55157 39.6256 8.43049 39.9609 7.73363 40.3893C6.95969 40.8651 6.39848 41.4952 5.8019 42.5583C5.23526 43.5679 3.99769 45.2304 3.53794 45.5996C3.12728 45.9293 3.07551 46.0167 3.29083 46.0167C3.36571 46.0167 3.76734 45.6824 4.18334 45.2738H4.18339ZM27.4366 44.9899C31.2575 44.3642 34.9554 43.0899 38.3235 41.2384C39.3489 40.6747 41.1932 39.451 41.9104 38.8586L42.3494 38.4959L42.0803 37.3341C41.4382 34.5627 40.7147 32.6463 39.4037 30.2453C38.2119 28.0622 37.5382 27.1013 37.1996 27.1013C36.959 27.1013 36.9267 27.1491 36.9165 27.5209C36.8936 28.3538 36.027 29.3123 34.8359 29.8218C34.3381 30.0348 34.0385 30.0894 33.3653 30.0899C32.3053 30.0907 31.7522 29.8224 30.8154 28.8527C30.4598 28.4847 30.1019 28.1836 30.0199 28.1836C29.8079 28.1836 29.824 28.2254 30.2762 28.8482C30.6424 29.3525 31.1108 30.6066 31.1108 31.0826C31.1108 31.347 31.3215 31.4233 31.5437 31.2394C31.65 31.1515 32.0399 30.9498 32.4102 30.7912C33.0167 30.5315 33.2009 30.5034 34.2671 30.5075C35.3745 30.5118 35.5014 30.5345 36.2367 30.8588C37.2597 31.3099 38.1149 32.0902 38.5858 33.0022C38.925 33.6592 38.9453 33.7654 38.9453 34.8839C38.9452 36.0624 38.9429 36.0737 38.5101 36.814C37.3892 38.7324 35.0855 39.6288 32.8784 39.0054C32.4736 38.891 31.8826 38.6376 31.5651 38.4423C31.0613 38.1322 30.9796 38.1095 30.923 38.2636C30.5602 39.252 29.9916 39.7597 28.8722 40.0945C27.111 40.6213 24.8974 39.6884 23.9683 38.0279C23.4472 37.0964 23.3253 36.4289 23.3471 34.6262C23.3724 32.5405 23.2233 32.1597 22.2194 31.7457L21.7947 31.5706L21.1265 31.9794C19.4543 33.0025 17.3019 34.8841 16.1964 36.2893C15.7277 36.885 15.6706 37.3333 15.906 38.5695C16.0441 39.2945 15.9737 39.2668 16.8944 38.9581C17.5611 38.7346 18.9461 38.6539 19.8239 38.7874C20.823 38.9394 21.5291 39.2003 21.5291 39.4175C21.5291 39.6549 20.7453 40.7495 20.151 41.3422C19.567 41.9244 18.694 42.4526 18.0557 42.6098C17.7961 42.6737 17.5837 42.7601 17.5837 42.8017C17.5837 42.9113 18.3314 43.9359 18.7694 44.4265C19.1748 44.8805 19.5807 45.0103 21.1724 45.1947C22.4906 45.3475 25.9419 45.2347 27.4366 44.9899V44.9899ZM17.9703 44.7914C18.1014 44.5974 17.7094 44.456 17.2244 44.5223C16.9517 44.5595 16.5952 44.5388 16.4126 44.4751C15.9804 44.3244 15.8832 44.4358 16.2326 44.6814C16.4378 44.8255 16.6996 44.8788 17.2107 44.8805C17.5945 44.8816 17.9363 44.8416 17.9703 44.7914V44.7914ZM15.2643 41.1314C15.8337 40.6107 16.3411 40.2598 16.8665 40.0233C17.6092 39.689 17.6826 39.677 19.0148 39.6721C19.7735 39.6693 20.4225 39.6411 20.4572 39.6094C20.5986 39.4801 19.1156 39.292 18.3219 39.3386C17.6741 39.3766 17.3078 39.4646 16.7469 39.7171C16.0263 40.0415 14.9698 40.8876 14.4471 41.5588C14 42.133 14.3948 41.9265 15.2643 41.1314V41.1314ZM15.2246 39.2073C15.1611 38.9555 15.108 38.5086 15.1065 38.2143C15.1049 37.92 15.0593 37.6542 15.0051 37.6235C14.8695 37.5469 14.0277 38.1183 13.7924 38.4467C13.6206 38.6864 13.6143 38.812 13.7332 39.6287C13.9323 40.9959 13.9051 40.9773 14.6744 40.2738L15.34 39.6652L15.2246 39.2073ZM29.1571 39.2625C29.9092 38.9199 30.1113 38.6978 30.1802 38.1383C30.2535 37.5436 30.0752 36.8905 29.5665 35.8908C29.1826 35.1366 29.1452 35.0979 28.8677 35.1693C28.7064 35.2107 28.2084 35.2447 27.7611 35.2447C27.1366 35.2447 26.9018 35.2028 26.7505 35.0643C26.5629 34.8925 26.5788 34.8839 27.0837 34.8839C28.6883 34.8839 30.0652 33.7991 30.3434 32.3158C30.5969 30.9639 30.159 29.6001 29.1988 28.7506C28.7423 28.3468 28.716 28.3383 27.9209 28.3396C26.9902 28.3412 26.1216 28.6489 25.2907 29.2715C24.3895 29.9468 23.7607 31.6574 24.0224 32.7222C24.0808 32.9602 24.1144 33.8802 24.097 34.7667C24.0679 36.2535 24.0866 36.4322 24.3382 37.07C24.7861 38.2051 25.6496 39.0713 26.6581 39.397C26.8441 39.4571 27.3541 39.5099 27.7914 39.5144C28.4274 39.5209 28.7008 39.4705 29.1571 39.2625V39.2625ZM35.0076 36.8972C36.5016 36.4904 37.2247 34.8818 36.4248 33.7444C35.9831 33.1163 35.6602 32.8728 34.9999 32.6697C33.6274 32.2477 32.2298 33.0316 31.8918 34.413C31.7028 35.1852 31.9585 35.866 32.6452 36.4187C33.3846 37.0138 34.0697 37.1526 35.0076 36.8972ZM12.1491 34.3801C12.8342 34.0614 14.0249 33.7639 14.9017 33.6922C15.638 33.632 16.0747 33.6735 17.2737 33.9172C17.5108 33.9654 17.5837 33.9417 17.5837 33.8162C17.5837 33.3959 15.9458 33.0669 14.6742 33.2318C13.4877 33.3857 11.1583 34.2082 11.1583 34.4733C11.1583 34.6396 11.7012 34.5885 12.1491 34.3801ZM31.7119 32.2639C32.8551 31.4074 34.5827 31.1969 36.1271 31.726C36.9778 32.0175 36.8793 31.8738 35.9017 31.3972C35.4052 31.1552 35.2104 31.1224 34.2671 31.1219C33.3505 31.1215 33.1069 31.1598 32.5762 31.3875C31.9418 31.6597 31.1108 32.2903 31.1108 32.4994C31.1108 32.6804 31.2057 32.6433 31.7119 32.2639V32.2639ZM23.5494 31.0624C23.9717 29.5556 25.4543 28.2613 27.1372 27.9301C27.3387 27.8905 27.5036 27.8212 27.5036 27.7763C27.5036 27.7313 27.2695 27.6018 26.9834 27.4886C26.3435 27.2353 26.4771 27.1306 27.289 27.2492C27.624 27.2981 27.9117 27.3266 27.9283 27.3124C27.9449 27.2982 27.6647 27.1434 27.3057 26.9684C26.8062 26.725 26.4417 26.6334 25.7537 26.5785C25.2591 26.5391 24.7663 26.4653 24.6584 26.4144C24.4165 26.3005 24.1218 25.7967 24.1218 25.4972C24.1218 25.2953 24.0821 25.2814 23.6991 25.3485C22.0929 25.63 19.7631 25.569 18.519 25.2129C18.1344 25.1028 17.792 25.0381 17.7581 25.0692C17.6453 25.1723 17.7021 26.2657 17.8633 27.093C17.9508 27.5419 18.1811 28.204 18.3751 28.5643C18.8226 29.3957 19.4198 29.8191 21.3063 30.6426C22.0798 30.9802 22.8142 31.329 22.9382 31.4176C23.2974 31.6743 23.3935 31.6184 23.5494 31.0624V31.0624ZM45.5398 29.9589C45.5398 29.599 45.2831 29.2583 44.8622 29.0592C44.393 28.8374 43.992 28.8613 43.9035 29.1164C43.7976 29.4213 44.1081 29.792 44.6659 30.0264C45.3584 30.3175 45.5398 30.3035 45.5398 29.9589V29.9589ZM47.907 29.5174C47.0574 28.8909 44.8244 28.0605 42.7744 27.6088C41.6046 27.351 38.5999 27.0098 38.4159 27.1138C38.1653 27.2554 38.6277 27.4478 39.3727 27.512C42.5192 27.7831 43.9835 28.139 47.3997 29.4628C48.2164 29.7793 48.2699 29.7851 47.907 29.5174V29.5174ZM43.4583 29.4147C43.6066 29.1953 43.3831 28.796 42.9731 28.5484C42.3794 28.1897 41.1264 28.0105 40.5234 28.198C40.1655 28.3093 40.0653 28.3954 40.0375 28.6153C39.9891 28.9986 40.3402 29.1841 41.3658 29.3171C41.8251 29.3767 42.225 29.4475 42.2545 29.4745C42.3612 29.572 43.3864 29.5211 43.4583 29.4147ZM34.3553 29.2612C34.5858 29.1735 34.9642 28.9819 35.1963 28.8354C35.651 28.5483 36.2962 27.7414 36.2962 27.4599C36.2962 26.9637 34.7747 25.6909 32.4176 24.215C31.8743 23.8748 30.9395 23.2831 30.3403 22.9001C29.1249 22.1232 28.9985 22.1052 28.0955 22.5801C27.3179 22.989 26.348 24.3144 26.1978 25.1732L26.1261 25.5834L26.7867 25.9312C27.7351 26.4304 28.8033 26.901 29.6327 27.1851C30.3392 27.4271 30.8636 27.8028 31.4177 28.4638C31.5706 28.6463 31.9279 28.9362 32.2117 29.1081C32.6251 29.3585 32.8477 29.4206 33.3319 29.4206C33.6643 29.4206 34.1248 29.3489 34.3553 29.2612ZM36.7471 26.3907C36.7471 26.2353 36.4198 26.0777 36.3084 26.1795C36.2709 26.2138 36.3386 26.3077 36.4588 26.3881C36.7292 26.5689 36.7471 26.5691 36.7471 26.3909V26.3907ZM25.9537 24.1892C26.4713 23.2024 27.5584 22.0677 28.1068 21.9419C28.271 21.9042 28.4054 21.8154 28.4054 21.7446C28.4054 21.6738 28.0291 21.3335 27.5691 20.9883C26.4659 20.1602 25.2178 18.7975 25.4055 18.6258C25.5013 18.5383 25.8785 18.7994 27.2084 19.8738L28.4351 20.8649H30.0553H31.6754L31.6014 19.6794C31.5528 18.9014 31.5667 18.494 31.6418 18.494C31.7535 18.494 32.039 19.2407 32.1837 19.9114C32.2235 20.0956 32.3154 20.2505 32.3879 20.2555C33.3619 20.3232 36.6344 19.7575 36.6344 19.5216C36.6344 19.4811 36.5323 19.237 36.4076 18.9791C36.0792 18.3002 35.7477 17.0183 35.6616 16.0941C35.6205 15.653 35.5519 15.2723 35.5092 15.2481C35.3436 15.1545 33.6165 15.8548 33.0429 16.2481C32.2081 16.8205 30.555 17.5103 29.4763 17.7362C28.288 17.9852 26.1745 17.9905 25.0703 17.7474C24.1407 17.5427 22.869 17.0655 22.1001 16.6329C21.8033 16.4659 21.5154 16.3296 21.4603 16.3301C21.3276 16.3312 19.9645 18.2634 19.4976 19.1125C19.1158 19.8067 18.26 21.9041 18.26 22.1455C18.26 22.2211 18.3995 22.3336 18.57 22.3954C18.9394 22.5293 20.679 22.7974 21.4727 22.8427C21.984 22.872 22.0397 22.8534 22.0724 22.643C22.0922 22.5155 22.1391 22.4111 22.1767 22.4111C22.2143 22.4111 22.9158 23.0141 23.7357 23.7511C24.5555 24.4882 25.2835 25.0912 25.3535 25.0912C25.4234 25.0912 25.6935 24.6853 25.9537 24.1892V24.1892ZM33.4048 23.4543C33.3719 22.8197 32.8463 22.4115 32.4861 22.7409C32.2214 22.983 32.3351 23.3216 32.7722 23.5932C33.2852 23.912 33.4269 23.8809 33.4048 23.4543ZM16.7587 20.7876C17.1092 19.8803 17.6686 18.6806 17.9302 18.275C18.1061 18.0021 18.2063 17.7543 18.153 17.7241C17.9621 17.6162 16.3965 17.1554 16.2185 17.1547C15.9447 17.1535 15.0237 19.0716 14.8191 20.0691C14.7465 20.4229 14.761 20.4529 15.0066 20.4574C15.153 20.4601 15.5518 20.5719 15.8928 20.7061C16.6593 21.0076 16.6731 21.0089 16.7587 20.7876V20.7876ZM38.7198 18.6799C39.8216 18.1547 40.5883 17.6802 41.4162 17.0112C42.7316 15.9482 43.2903 14.9032 43.2791 13.5267C43.2712 12.5544 43.014 11.9227 42.5181 11.6579C42.1626 11.468 42.1275 11.4671 41.6417 11.6368C41.3634 11.734 40.8816 12.0294 40.5712 12.2933L40.0067 12.773L40.1145 13.2867C40.2257 13.8162 40.1923 14.0065 40.0068 13.9016C39.838 13.8062 39.4899 13.1167 39.411 12.7215C39.3251 12.2919 38.8673 11.7301 38.6863 11.8324C38.5091 11.9325 38.3267 12.5835 38.3259 13.1182C38.3251 13.6566 38.0112 13.9692 36.9012 14.5369C36.0824 14.9556 36.0873 14.9402 36.3023 16.3992C36.4786 17.5954 36.745 18.3958 37.1097 18.8245C37.4805 19.2605 37.5069 19.2581 38.7198 18.6799V18.6799ZM29.4199 17.0805C30.1965 16.9113 32.0913 16.1607 31.9856 16.0641C31.9513 16.0327 31.4994 16.1215 30.9815 16.2615C29.6997 16.6079 29.5778 16.6296 28.2612 16.7448C26.8434 16.8689 25.243 16.7372 23.8331 16.3806C22.6457 16.0802 22.5205 16.0682 22.8632 16.2877C23.4504 16.6639 25.2016 17.1654 26.3763 17.2939C27.0225 17.3646 28.635 17.2515 29.4199 17.0805V17.0805ZM19.0998 16.6896C19.4488 16.3003 19.4861 16.2149 19.3315 16.1606C19.0511 16.0622 17.4713 16.2193 17.1418 16.3784L16.851 16.5188L17.4146 16.7435C18.3194 17.1042 18.4222 17.1405 18.5564 17.1474C18.6265 17.151 18.871 16.945 19.0998 16.6896V16.6896ZM32.5956 12.1385C32.8296 11.9449 32.8718 11.3836 32.6664 11.1959C32.4422 10.9908 31.9305 11.0489 31.7372 11.3013C31.2477 11.9404 31.9762 12.6511 32.5956 12.1385ZM17.7614 11.5618C17.5474 10.8911 17.4539 9.87154 17.4886 8.58793C17.5233 7.30287 17.5078 7.15496 17.3387 7.15502C17.0648 7.15512 16.4948 7.71552 16.3442 8.13289C16.1805 8.58639 16.3832 10.6438 16.6356 11.09C16.8079 11.3946 17.3996 11.7926 17.6814 11.7934C17.7879 11.7937 17.8126 11.7223 17.7614 11.5618V11.5618ZM21.0969 8.95381C22.2352 6.61006 23.2076 5.80155 26.7145 4.28306C27.2256 4.06174 25.1737 4.24357 24.0977 4.51494C21.9162 5.06512 20.3128 6.10682 19.9006 7.24163C19.5903 8.0959 19.4995 9.05599 19.6232 10.1748C19.6846 10.7301 19.7873 11.3099 19.8514 11.4633C19.961 11.7256 19.9866 11.69 20.2808 10.866C20.4529 10.3841 20.8201 9.52361 21.0969 8.95381ZM37.6257 10.4042C38.1657 9.98869 38.2526 9.66186 38.1841 8.30318C38.1172 6.97445 37.9612 6.5846 37.3486 6.21526C36.9553 5.97817 36.583 5.95611 36.675 6.17536C36.9208 6.76125 37.0996 8.22706 37.0661 9.38187C37.0253 10.7844 37.0568 10.8419 37.6257 10.4042V10.4042ZM34.296 9.75639C35.0122 9.13348 34.9984 7.61604 34.2734 7.26122C33.6387 6.9506 32.8267 7.44421 32.5725 8.2952C32.4281 8.77836 32.5528 9.50935 32.8319 9.81693C33.1893 10.2107 33.8029 10.1853 34.2961 9.75639H34.296ZM20.524 4.27942C22.545 3.04534 26.4617 2.44113 29.636 2.87377C31.1357 3.07817 32.6787 3.51382 33.6753 4.01424C34.5032 4.42995 34.6205 4.32842 33.8408 3.87092C32.9565 3.35201 31.6859 2.86481 30.5472 2.608C29.5967 2.39365 29.2228 2.3673 27.2218 2.37366C25.1517 2.38022 24.875 2.40328 23.84 2.65529C22.4838 2.98552 20.8655 3.70013 20.1903 4.26698C19.5677 4.78964 19.6815 4.79388 20.524 4.2794V4.27942ZM21.6074 2.78303C23.1563 2.07248 25.9227 1.61415 28.0108 1.72214C29.9421 1.82201 31.6288 2.20953 33.578 3.00122C33.9038 3.13354 33.6263 2.81108 33.0272 2.36098C32.1956 1.73637 30.923 1.1437 29.6962 0.809727C28.8512 0.579696 28.4674 0.534699 27.3345 0.532833C25.4768 0.52969 23.8397 0.937931 22.3831 1.76734C21.5026 2.26866 20.4937 3.13493 20.7902 3.13493C20.8178 3.13493 21.1855 2.97657 21.6074 2.78303V2.78303Z" fill="#3936EB"/>
<path d="M79.3951 18.9937V37.6107H74.8602V26.4458L70.6966 37.6107H67.0368L62.8466 26.4193V37.6107H58.3117V18.9937H63.6688L68.8932 31.8824L74.0646 18.9937H79.3951ZM97.7727 22.8126L88.4907 44.6385H83.611L87.0055 37.1068L80.9855 22.8126H86.0508L89.4719 32.068L92.8665 22.8126H97.7727ZM108.907 37.6107L105.035 30.5829H103.947V37.6107H99.4125V18.9937H107.024C108.491 18.9937 109.738 19.25 110.763 19.7628C111.806 20.2755 112.584 20.9827 113.097 21.8844C113.61 22.7684 113.866 23.7584 113.866 24.8546C113.866 26.0922 113.512 27.1972 112.805 28.1696C112.116 29.142 111.09 29.8315 109.729 30.2382L114.025 37.6107H108.907ZM103.947 27.374H106.759C107.59 27.374 108.208 27.1707 108.615 26.764C109.039 26.3574 109.251 25.7828 109.251 25.0402C109.251 24.333 109.039 23.7761 108.615 23.3695C108.208 22.9628 107.59 22.7595 106.759 22.7595H103.947V27.374ZM123.449 37.8229C121.999 37.8229 120.691 37.5135 119.524 36.8947C118.375 36.2759 117.464 35.3919 116.792 34.2427C116.138 33.0935 115.811 31.7498 115.811 30.2116C115.811 28.6912 116.147 27.3563 116.819 26.2071C117.491 25.0402 118.41 24.1474 119.577 23.5286C120.744 22.9098 122.052 22.6004 123.502 22.6004C124.952 22.6004 126.26 22.9098 127.427 23.5286C128.594 24.1474 129.513 25.0402 130.185 26.2071C130.857 27.3563 131.193 28.6912 131.193 30.2116C131.193 31.7321 130.848 33.0758 130.158 34.2427C129.486 35.3919 128.558 36.2759 127.374 36.8947C126.207 37.5135 124.899 37.8229 123.449 37.8229ZM123.449 33.8979C124.315 33.8979 125.049 33.5797 125.65 32.9432C126.269 32.3067 126.578 31.3962 126.578 30.2116C126.578 29.0271 126.278 28.1166 125.676 27.4801C125.093 26.8436 124.368 26.5254 123.502 26.5254C122.618 26.5254 121.884 26.8436 121.301 27.4801C120.717 28.0989 120.425 29.0094 120.425 30.2116C120.425 31.3962 120.708 32.3067 121.274 32.9432C121.858 33.5797 122.582 33.8979 123.449 33.8979ZM132.697 30.2116C132.697 28.6735 133.006 27.3298 133.625 26.1806C134.261 25.0314 135.137 24.1474 136.25 23.5286C137.382 22.9098 138.673 22.6004 140.122 22.6004C141.979 22.6004 143.526 23.0866 144.763 24.059C146.019 25.0314 146.841 26.4016 147.23 28.1696H142.403C141.996 27.0381 141.21 26.4723 140.043 26.4723C139.212 26.4723 138.549 26.7994 138.054 27.4536C137.559 28.09 137.311 29.0094 137.311 30.2116C137.311 31.4139 137.559 32.3421 138.054 32.9962C138.549 33.6327 139.212 33.951 140.043 33.951C141.21 33.951 141.996 33.3852 142.403 32.2537H147.23C146.841 33.9863 146.019 35.3477 144.763 36.3378C143.508 37.3278 141.961 37.8229 140.122 37.8229C138.673 37.8229 137.382 37.5135 136.25 36.8947C135.137 36.2759 134.261 35.3919 133.625 34.2427C133.006 33.0935 132.697 31.7498 132.697 30.2116ZM158.699 37.6107L154.19 31.405V37.6107H149.656V17.9859H154.19V28.8326L158.672 22.8126H164.268L158.115 30.2382L164.321 37.6107H158.699ZM179.999 29.973C179.999 30.3973 179.972 30.8393 179.919 31.299H169.656C169.727 32.2183 170.018 32.9255 170.531 33.4206C171.062 33.8979 171.707 34.1366 172.467 34.1366C173.599 34.1366 174.385 33.6592 174.827 32.7045H179.654C179.406 33.6769 178.956 34.5521 178.301 35.33C177.665 36.1079 176.861 36.7179 175.888 37.1599C174.916 37.6019 173.828 37.8229 172.626 37.8229C171.176 37.8229 169.886 37.5135 168.754 36.8947C167.623 36.2759 166.739 35.3919 166.102 34.2427C165.466 33.0935 165.148 31.7498 165.148 30.2116C165.148 28.6735 165.457 27.3298 166.076 26.1806C166.712 25.0314 167.596 24.1474 168.728 23.5286C169.859 22.9098 171.159 22.6004 172.626 22.6004C174.058 22.6004 175.331 22.901 176.445 23.5021C177.559 24.1032 178.425 24.9607 179.044 26.0745C179.681 27.1884 179.999 28.4878 179.999 29.973ZM175.358 28.7796C175.358 28.0016 175.093 27.3828 174.562 26.9232C174.032 26.4635 173.369 26.2336 172.573 26.2336C171.813 26.2336 171.168 26.4546 170.637 26.8966C170.124 27.3386 169.806 27.9663 169.682 28.7796H175.358ZM190.639 33.7653V37.6107H188.332C186.687 37.6107 185.406 37.2129 184.486 36.4173C183.567 35.604 183.107 34.2869 183.107 32.4658V26.5784H181.304V22.8126H183.107V19.2058H187.642V22.8126H190.612V26.5784H187.642V32.5189C187.642 32.9609 187.748 33.2791 187.96 33.4736C188.172 33.6681 188.526 33.7653 189.021 33.7653H190.639Z" fill="white"/>
</svg>
