<svg width="229" height="224" viewBox="0 0 229 224" fill="none" xmlns="http://www.w3.org/2000/svg">
<path d="M158.95 68.5939L169.199 68.8469C174.954 74.6459 182.579 76.1889 189.27 79.8563L203.499 96.4488L210.349 101.189L211.233 110.716L207.565 117.469L203.853 119.973L198.771 130.618L197.799 135.492L204.251 132.317C204.251 132.317 206.062 127.353 206.195 126.95C206.328 126.548 208.493 122.031 208.493 122.031L213.707 122.701L217.331 120.51L221.794 118.319L225.992 122.254L227.406 127.621L224.976 133.435L219.805 139.696L215.873 142.246L211.498 147.702L206.504 152.085L198.859 156.781L197.976 159.151L198.285 167.738L198.383 181.176L197.196 191.233L193.009 195.787L192.076 196.361L191.833 198.508L191.447 205.464L192.29 208.405L197.509 211.915L198.633 215.299L196.196 220.264L182.885 221.94L173.886 218.367L171.167 211.378L169.543 203.282L168.261 196.135L158.919 196.071L158.356 202.839L156.231 215.52L151.388 220.011L141.077 221.782L133.171 219.22L129.828 215.204L129.984 211.409L134.577 209.069L136.452 207.013L135.733 196.672L133.734 195.059L130.265 191.992L129.703 183.991L126.891 180.829L120.61 173.049L118.891 165.206L120.891 160.146L124.297 152.588L127.922 148.382L129.515 146.01L129.734 140.033L129.078 131.463L124.984 123.336L122.922 119.13L118.204 115.524L116.235 110.559L116.767 103.57L119.735 100.092L124.828 96.0754L128.172 90.9522L135.858 82.3504L146.795 75.0452L155.513 72.1358L157.731 70.017L158.95 68.5939Z" fill="white" stroke="white" stroke-width="0.17049"/>
<path d="M135.916 222.886C131.961 222.033 128.954 220.215 127.816 217.988C127.189 216.76 127.208 214.559 127.858 213.173C128.611 211.565 130.759 209.544 132.996 208.338L134.943 207.287L134.889 202.13L134.835 196.974L133.314 196.293C131.451 195.459 130.141 194.238 129.217 192.475C128.643 191.38 128.494 190.409 128.389 187.081L128.261 183.023L126.446 181.758C123.033 179.379 120.389 175.308 119.052 170.376C117.133 163.297 119.781 155.139 126.062 148.783L128.328 146.49L128.327 139.762L128.326 133.035L126.393 129.194C125.33 127.082 124.108 124.25 123.679 122.9C122.945 120.592 122.808 120.399 121.385 119.67C117.756 117.809 115.13 112.906 115.13 107.989C115.13 104.482 116.552 100.659 118.711 98.3599C119.974 97.0157 122.605 95.4668 123.627 95.4668C124.035 95.4668 124.553 94.7975 125.244 93.3797C126.587 90.6244 127.923 88.8956 132.016 84.6197C139.072 77.2495 145.876 73.3196 155.1 71.2872C155.67 71.1616 156.042 70.8078 156.177 70.2637C156.475 69.0636 158.263 67.1295 159.597 66.5656C160.983 65.9792 166.007 65.9126 167.626 66.4592C169.085 66.9521 170.795 68.6003 171.293 69.9951C171.613 70.8901 171.943 71.1657 173.022 71.4405C178.493 72.8326 183.801 75.0837 187.389 77.533C192.613 81.0987 200.068 88.9115 202.135 92.9856C202.847 94.3892 203.606 95.466 203.887 95.4687C204.967 95.4789 207.748 97.1062 208.904 98.4048C212.869 102.856 213.547 109.724 210.569 115.263C209.553 117.152 207.279 119.312 205.698 119.891C204.744 120.24 204.551 120.528 204.07 122.32C203.77 123.438 202.574 126.301 201.413 128.683C200.252 131.065 199.353 133.065 199.414 133.127C199.501 133.216 202.951 131.141 203.521 130.657C203.592 130.597 203.699 129.559 203.76 128.35C203.902 125.529 204.392 123.668 205.409 122.085C206.973 119.653 209.803 118.775 211.563 120.176L212.4 120.842L213.505 119.792C215.223 118.159 216.924 117.521 219.559 117.521C222.313 117.521 224.022 118.205 225.821 120.026C227.639 121.866 228.369 123.779 228.358 126.67C228.335 132.609 224.91 137.872 218.764 141.41C217.153 142.338 216.228 143.14 215.584 144.169C213.155 148.047 206.687 153.852 201.721 156.61L199.291 157.96L199.197 174.55C199.104 190.818 199.089 191.165 198.39 192.475C197.44 194.257 196.134 195.463 194.236 196.313L192.668 197.014V202.169V207.324L194.362 208.193C195.294 208.67 196.771 209.739 197.646 210.567C202.403 215.07 200.265 220.605 192.998 222.597C190.157 223.375 183.822 223.371 180.685 222.587C175.872 221.387 171.82 218.802 170.403 216.029C170.116 215.466 169.656 213.016 169.382 210.585C168.883 206.167 167.742 198.679 167.395 197.555C167.231 197.025 166.827 196.97 163.69 197.054L160.168 197.149L159.453 201.323C159.06 203.619 158.499 207.579 158.206 210.123C157.914 212.667 157.469 215.247 157.217 215.856C156.138 218.47 152.117 221.192 147.569 222.387C144.23 223.265 138.765 223.498 135.917 222.884L135.916 222.886ZM192.633 219.841C194.588 219.25 196.96 217.813 196.952 217.225C196.948 216.982 196.857 216.996 196.689 217.263C196.171 218.089 191.621 218.507 187.907 218.07C181.739 217.345 181.036 216.974 178.793 213.262C177.829 211.667 177.118 211.175 177.344 212.26C177.411 212.582 177.709 214.01 178.006 215.434C178.304 216.858 178.683 218.108 178.849 218.212C179.015 218.316 179.076 218.524 178.984 218.674C178.66 219.204 179.716 219.683 182.3 220.177C185.417 220.774 190.05 220.623 192.633 219.841V219.841ZM152.072 217.396C154.242 215.938 154.959 214.778 155.253 212.249L155.474 210.341H153.795C151.083 210.341 150.506 210.771 150.266 212.974C150.154 214.005 149.79 215.793 149.458 216.947L148.855 219.045L149.562 218.826C149.951 218.706 151.081 218.062 152.072 217.396V217.396ZM195.164 214.865C195.751 214.476 195.967 214.031 195.967 213.212C195.967 211.884 195.647 211.581 192.549 209.986L190.193 208.773L190.317 205.341C190.386 203.445 190.312 201.972 190.152 202.051C184.564 204.801 183.062 205.144 176.583 205.155C170.827 205.165 170.954 205.123 171.423 206.892C171.595 207.541 171.83 207.616 173.645 207.595C174.793 207.582 176.198 207.797 176.876 208.089C178.495 208.786 180.695 210.847 181.478 212.4C182.365 214.16 183.216 214.622 186.599 215.178C190.121 215.758 194.034 215.615 195.164 214.865V214.865ZM143.319 214.634C144.748 214.237 145.066 213.975 145.908 212.511C147.879 209.08 149.601 207.983 153.404 207.738C156.002 207.57 156.36 207.36 156.368 206L156.373 205.165L150.846 205.158C144.731 205.15 142.679 204.764 139.129 202.95L137.176 201.952L137.288 205.395L137.401 208.838L135.74 209.673C132.267 211.418 131.627 211.967 131.627 213.196C131.627 215.052 132.622 215.392 137.566 215.226C139.834 215.149 142.423 214.883 143.319 214.634L143.319 214.634ZM156.263 201.85C156.871 201.614 156.817 200.99 156.189 200.99C155.906 200.99 155.744 201.103 155.829 201.241C155.913 201.379 154.82 201.443 153.398 201.383C151.006 201.283 150.825 201.322 150.975 201.901C151.122 202.471 151.349 202.505 153.48 202.274C154.769 202.135 156.021 201.944 156.263 201.85H156.263ZM182.597 201.933C182.65 201.874 182.577 201.518 182.436 201.142C182.192 200.489 182.063 200.474 179.612 200.817C177.17 201.158 176.206 201.729 177.115 202.298C177.45 202.507 182.379 202.179 182.597 201.933V201.933ZM142.504 200.345C142.964 199.475 142.938 196.218 142.463 195.163C142.034 194.211 139.624 192.642 138.591 192.642C137.628 192.642 137.236 193.63 137.236 196.063C137.236 198.467 137.509 198.988 139.381 200.15C140.98 201.143 142.046 201.21 142.504 200.345H142.504ZM188.04 200.327C189.904 199.365 190.358 198.527 190.358 196.052C190.358 193.525 189.97 192.642 188.857 192.642C187.804 192.642 185.936 193.883 185.269 195.026C184.565 196.233 184.564 199.754 185.268 200.466C185.948 201.155 186.489 201.128 188.04 200.327H188.04ZM157.244 197.883C157.639 197.483 157.281 197.408 154.146 197.235C151.26 197.076 151.094 197.103 151.094 197.734C151.094 198.361 151.268 198.392 154.055 198.257C155.683 198.179 157.119 198.01 157.244 197.883ZM180.373 197.639C181.642 197.363 181.968 197.154 181.968 196.617C181.968 196.099 181.811 195.984 181.296 196.126C180.927 196.228 179.707 196.476 178.584 196.678C177.055 196.952 176.589 197.162 176.723 197.515C176.934 198.072 178.18 198.115 180.373 197.639V197.639ZM166.272 194.195C166.272 194.13 166.109 193.604 165.91 193.026C165.563 192.021 165.469 191.974 163.757 191.974C162.138 191.974 161.935 192.057 161.644 192.831C161.467 193.302 161.323 193.828 161.323 194C161.323 194.171 162.436 194.312 163.797 194.312C165.158 194.312 166.272 194.259 166.272 194.195V194.195ZM194.78 193.294C197.025 191.299 197.049 191.088 196.907 174.649C196.838 166.57 196.704 159.882 196.61 159.787C196.404 159.579 188.302 162.396 188.5 162.607C188.575 162.689 189.171 165.76 189.822 169.434C191.146 176.893 192.169 184.904 192.52 190.555C192.782 194.776 192.922 194.945 194.78 193.294V193.294ZM134.72 192.392C134.821 191.519 134.999 189.415 135.115 187.717L135.327 184.628L134.384 184.624C133.866 184.622 132.885 184.527 132.205 184.413L130.967 184.206L130.981 187.339C130.997 190.865 131.486 192.228 133.129 193.324C133.664 193.681 134.199 193.974 134.318 193.976C134.437 193.976 134.618 193.264 134.72 192.392L134.72 192.392ZM153.404 190.188C153.404 190.124 152.289 189.515 150.926 188.833C149.564 188.151 147.328 186.692 145.957 185.59C143.863 183.905 143.482 183.448 143.568 182.721C143.763 181.077 144.597 181.028 146.316 182.559C151.78 187.427 157.873 189.582 165.111 189.205C167.438 189.084 169.578 188.755 171.056 188.291C174.26 187.285 178.649 184.932 180.678 183.132C182.538 181.483 183.589 181.222 183.935 182.325C184.102 182.858 183.848 183.353 182.885 184.371C181.485 185.852 177.938 188.31 175.757 189.312C174.564 189.86 174.481 189.957 175.201 189.963C178.278 189.99 185.172 187.029 187.941 184.491L189.443 183.115L188.945 179.676C188.671 177.785 188.381 176.171 188.302 176.09C188.222 176.01 187.311 176.238 186.278 176.598C183.762 177.474 177.72 178.803 173.861 179.33C172.095 179.57 167.485 179.757 163.302 179.757C155.562 179.757 151.052 179.29 145.837 177.948C144.488 177.602 143.274 177.386 143.14 177.47C143.006 177.554 142.792 178.102 142.665 178.689C142.521 179.349 141.701 180.496 140.51 181.702L138.586 183.649L140.633 185.187C141.759 186.033 143.641 187.184 144.815 187.746C147.274 188.922 153.404 190.665 153.404 190.188V190.188ZM140.227 177.382C141.19 174.43 139.782 171.192 136.809 169.523C135.681 168.889 135.441 168.59 135.528 167.92C135.664 166.867 136.515 166.2 137.384 166.464C137.948 166.636 137.989 166.594 137.632 166.215C136.836 165.373 133.977 165.684 131.957 166.832C130.959 167.399 130.142 168.022 130.142 168.216C130.142 168.993 132.827 171.743 135.588 173.794C138.607 176.037 139.527 177.391 138.998 178.816C138.792 179.371 138.831 179.395 139.302 179.008C139.599 178.763 140.015 178.032 140.227 177.382V177.382ZM172.801 176.928C177.099 176.454 182.03 175.427 185.244 174.336C187.765 173.481 187.881 173.398 187.816 172.482C187.779 171.954 187.674 171.448 187.583 171.356C187.493 171.264 186.261 171.499 184.846 171.877C179.7 173.254 170.308 174.273 162.743 174.275C156.879 174.276 147.947 173.378 143.918 172.383C143.332 172.238 143.175 172.343 143.175 172.876C143.175 174.057 143.534 174.568 144.607 174.913C146.362 175.478 152.74 176.606 155.878 176.907C160.227 177.323 169.117 177.334 172.801 176.928V176.928ZM124.052 171.354C124.704 170.011 125.89 168.349 126.985 167.243C128.775 165.435 132.422 163.256 133.66 163.256C134.777 163.256 134.283 162.656 132.723 162.118C130.724 161.429 127.223 161.439 125.192 162.139C123.228 162.816 120.739 165.198 120.739 166.4C120.739 167.497 121.277 167.784 121.729 166.928C122.091 166.244 124.564 164.258 125.054 164.258C125.394 164.258 126.348 165.233 126.348 165.58C126.348 165.731 125.568 166.659 124.616 167.644C122.625 169.702 121.874 171.404 122.373 172.733C122.554 173.214 122.76 173.608 122.83 173.608C122.9 173.608 123.45 172.593 124.052 171.354V171.354ZM178.431 170.625C182.838 169.933 186.314 169.093 186.847 168.593C187.217 168.245 186.028 162.698 184.236 156.41C182.457 150.167 181.093 146.705 180.445 146.786C180.181 146.82 178.439 147.184 176.575 147.597L173.185 148.348L174.71 149.092C176.736 150.08 178.031 151.385 178.632 153.044C178.903 153.793 179.591 156.868 180.161 159.876C181.329 166.038 181.227 167.218 179.395 168.778C177.684 170.235 176.757 170.317 163.137 170.206C150.851 170.106 150.217 170.07 149.116 169.415C147.623 168.528 146.475 166.785 146.475 165.406C146.475 163.878 148.346 154.147 148.896 152.815C149.568 151.186 151.248 149.655 153.088 148.994L154.716 148.409L151.338 147.683C149.48 147.283 147.71 146.855 147.405 146.731C147.003 146.568 146.711 146.775 146.351 147.48C144.739 150.635 140.114 168.002 140.734 168.572C141.555 169.326 150.01 170.974 155.219 171.396C156.126 171.469 160.729 171.481 165.447 171.423C172.075 171.341 175.028 171.16 178.431 170.625V170.625ZM177.004 167.398C177.466 167.281 178.058 166.764 178.321 166.25C178.753 165.405 178.703 164.807 177.804 160.028C176.622 153.749 176.4 153.115 175.004 152.037C173.523 150.894 171.982 150.777 162.197 151.062L153.758 151.309L152.566 152.357C151.277 153.489 150.928 154.622 149.58 162.035C149.045 164.973 149.034 165.418 149.472 166.21C149.803 166.808 150.333 167.161 151.106 167.295C152.682 167.569 175.966 167.662 177.004 167.398V167.398ZM169.349 165.106C167.351 164.226 166.428 161.592 167.396 159.528C168.781 156.574 173.242 156.423 174.703 159.282C175.725 161.284 175.127 163.538 173.23 164.832C171.963 165.696 170.865 165.774 169.349 165.106V165.106ZM172.332 162.216C172.869 161.44 172.727 160.644 171.937 160C171.253 159.443 170.716 159.474 170.09 160.107C169.087 161.122 169.814 162.922 171.226 162.922C171.566 162.922 172.064 162.604 172.332 162.216ZM153.253 164.476C152.806 164.146 152.705 163.794 152.867 163.141L153.086 162.254H156.812C160.783 162.254 161.827 162.586 161.603 163.779C161.506 164.289 161.102 164.47 159.669 164.642C156.52 165.02 153.896 164.952 153.253 164.476V164.476ZM152.871 159.769C152.77 159.504 152.74 159.016 152.803 158.684C152.906 158.14 153.324 158.08 157.002 158.08C160.454 158.08 161.139 158.166 161.433 158.636C161.684 159.04 161.66 159.338 161.346 159.721C160.736 160.465 153.151 160.508 152.871 159.769H152.871ZM152.964 155.687C152.508 155.225 152.768 153.916 153.382 153.583C153.733 153.393 155.504 153.238 157.318 153.238C159.876 153.238 160.732 153.355 161.134 153.762C161.754 154.39 161.794 154.964 161.257 155.508C160.832 155.938 153.37 156.098 152.964 155.687V155.687ZM166.285 155.424C166.066 155.158 165.939 154.669 166.001 154.339C166.102 153.807 166.569 153.728 170.104 153.645C173.289 153.571 174.175 153.651 174.495 154.041C174.794 154.406 174.804 154.706 174.532 155.22C174.197 155.854 173.868 155.909 170.425 155.909C167.556 155.909 166.59 155.796 166.285 155.424H166.285ZM139.624 160.764C139.721 160.25 139.421 159.209 138.839 158.04C138.04 156.438 137.896 155.747 137.896 153.525C137.896 151.948 137.761 150.9 137.557 150.9C137.37 150.9 136.465 151.501 135.547 152.236C133.632 153.768 133.287 153.838 132.421 152.868C131.505 151.844 129.508 150.9 128.254 150.9C127.326 150.9 126.956 151.17 125.766 152.712C124.997 153.708 124.368 154.61 124.368 154.715C124.368 154.821 125.445 154.911 126.76 154.915C130.533 154.928 133.97 156.636 137.381 160.195C138.273 161.125 139.107 161.821 139.235 161.741C139.363 161.661 139.538 161.221 139.624 160.764V160.764ZM192.279 158.297C194.262 157.59 196.98 156.411 198.318 155.677C200.715 154.362 200.751 154.323 200.676 153.094C200.567 151.304 198.871 146.532 197.574 144.366C196.151 141.99 193.806 139.301 193.457 139.646C193.171 139.927 193.264 140.095 194.757 141.997C195.339 142.738 195.62 143.415 195.502 143.788C195.398 144.118 194.012 145.065 192.423 145.891L189.533 147.394L189.645 151.568C189.753 155.631 189.73 155.794 188.788 157.662C188.14 158.948 187.961 159.582 188.247 159.582C188.481 159.582 190.296 159.004 192.279 158.297ZM130.356 158.402C129.747 158.135 129.081 158.022 128.874 158.151C128.475 158.4 129.637 158.833 130.802 158.868C131.236 158.881 131.082 158.722 130.356 158.402ZM204.081 151.278C203.995 150.978 203.76 150.057 203.557 149.23C203.069 147.243 201.665 143.53 201.135 142.826C200.889 142.5 200.544 142.372 200.307 142.521C200 142.713 200.099 143.179 200.711 144.417C201.158 145.319 201.936 147.432 202.44 149.111C203.09 151.277 203.484 152.115 203.796 151.994C204.038 151.9 204.166 151.578 204.081 151.278V151.278ZM135.713 148.84C136.166 148.478 133.89 147.229 132.773 147.228C132.223 147.227 131.423 147.476 130.994 147.78L130.214 148.333L131.48 148.99C132.176 149.352 132.959 149.862 133.218 150.125C133.628 150.54 133.805 150.502 134.556 149.838C135.032 149.418 135.553 148.969 135.713 148.84V148.84ZM210.406 146.758C211.507 145.567 212.876 143.904 213.448 143.063L214.488 141.533L213.064 139.542C212.281 138.446 211.467 137.586 211.256 137.63C211.045 137.674 209.476 139.08 207.77 140.754L204.667 143.798L205.664 146.989L206.662 150.18L207.533 149.552C208.013 149.206 209.306 147.949 210.406 146.758V146.758ZM139.4 144.162C139.573 143.608 139.479 143.557 138.665 143.762C138.151 143.891 137.237 144.205 136.633 144.458L135.536 144.92L136.963 146.211L138.391 147.502L138.796 146.149C139.019 145.405 139.29 144.51 139.4 144.162V144.162ZM172.706 145.72C176.964 145.073 181.288 143.824 184.504 142.312C185.911 141.65 187.008 141.053 186.941 140.986C186.875 140.918 185.649 141.319 184.217 141.877C176.783 144.775 167.166 146.034 158.535 145.24C151.978 144.637 148.11 143.71 141.031 141.048L140.371 140.8L141.031 141.278C143.142 142.809 149.621 144.925 154.559 145.696C158.651 146.336 168.567 146.349 172.706 145.72V145.72ZM190.441 143.897C192.138 143.019 192.255 142.841 191.532 142.234C190.798 141.617 188.051 143.323 188.29 144.247C188.385 144.615 188.555 144.869 188.668 144.812C188.781 144.754 189.579 144.342 190.441 143.897V143.897ZM133.659 142.963L136.179 141.704L133.573 139.264L130.967 136.824V140.523C130.967 142.557 131.006 144.221 131.053 144.221C131.101 144.221 132.273 143.655 133.659 142.963H133.659ZM174.686 141.881C181.816 140.367 188.782 137.503 193.052 134.33C195.714 132.353 198.817 128.63 200.245 125.702C202.164 121.766 202.6 119.564 202.801 112.779C203.157 100.825 201.529 94.5864 196.702 89.4078C190.677 82.9442 181.55 80.4525 163.864 80.4432C143.5 80.4324 132.213 84.7548 127.641 94.3139C125.552 98.6831 125.036 101.886 125.038 110.494C125.04 118.168 125.339 120.547 126.751 124.083C129.02 129.77 134.346 134.936 141.333 138.227C145.754 140.309 150.516 141.569 158.188 142.688C158.733 142.768 161.925 142.776 165.282 142.707C169.827 142.614 172.229 142.403 174.686 141.881V141.881ZM157.586 140.553C146.934 139.189 138.367 135.489 133.042 129.953C130.506 127.315 128.977 124.806 127.797 121.344C126.966 118.905 126.876 118.154 126.747 112.615C126.543 103.79 127.326 99.2283 129.82 94.7121C132.318 90.1877 137.444 86.5763 143.905 84.7882C153.519 82.1275 169.479 81.8296 180.295 84.1088C191.561 86.4829 197.802 91.8448 199.949 100.993C200.567 103.627 200.627 104.729 200.523 111.637C200.414 118.948 200.364 119.466 199.549 121.74C196.264 130.904 186.666 137.597 173.287 140.053C169.892 140.676 160.809 140.965 157.586 140.553V140.553ZM206.766 138.468C208.267 136.957 209.495 135.615 209.495 135.487C209.495 135.358 208.829 134.797 208.014 134.241C205.184 132.307 205.457 132.308 202.467 134.232C200.979 135.189 199.703 136.022 199.631 136.083C199.559 136.144 200.103 136.855 200.84 137.664C201.578 138.474 202.42 139.604 202.712 140.176C203.004 140.748 203.422 141.216 203.64 141.216C203.859 141.216 205.265 139.979 206.766 138.468V138.468ZM218.6 138.599C223.814 135.171 226.727 129.751 225.862 125.086C225.617 123.763 223.609 121.262 222.427 120.807C220.822 120.189 217.601 123.104 216.586 126.09C216.247 127.09 216.247 127.456 216.586 128.01C217.281 129.142 217.453 130.481 217.082 131.875C216.723 133.223 216.106 133.617 214.581 133.469C213.959 133.408 213.906 133.23 214.024 131.604C214.183 129.409 213.707 128.56 211.841 127.708C210.491 127.092 210.485 127.081 210.47 125.22L210.454 123.35L209.831 124.965C209.488 125.853 209.11 127.678 208.99 129.021C208.8 131.149 208.847 131.505 209.355 131.793C210.507 132.445 214.335 136.587 215.288 138.21C215.822 139.122 216.348 139.87 216.456 139.874C216.564 139.877 217.529 139.304 218.6 138.599V138.599ZM207.64 115.46C209.26 113.545 209.981 111.244 209.981 107.989C209.981 104.732 209.26 102.433 207.636 100.514C206.544 99.2227 204.661 97.9109 204.35 98.2253C204.276 98.3002 204.374 99.1002 204.567 100.003C204.76 100.906 205.001 105.209 205.103 109.565C205.311 118.482 205.235 118.305 207.64 115.46ZM122.284 110.244C122.301 104.153 122.631 100.296 123.28 98.5846C123.574 97.8073 121.638 98.8927 120.41 100.193C118.462 102.256 117.934 103.924 117.939 107.989C117.943 111.119 118.053 111.887 118.685 113.179C119.385 114.611 121.533 117.173 122.034 117.173C122.16 117.173 122.272 114.055 122.284 110.244V110.244ZM187.691 80.6608C184.684 78.1924 177.038 74.6658 173.052 73.909L171.881 73.6867V75.874V78.0613L173.283 78.2368C174.055 78.3333 175.577 78.5047 176.665 78.6175C178.908 78.85 185.481 80.2132 186.729 80.7048C187.459 80.9926 188.062 80.965 187.691 80.6608V80.6608ZM144 79.7519C145.452 79.3993 148.681 78.8573 151.177 78.5473L155.713 77.9839V75.8459V73.708L154.641 73.9325C152.19 74.4459 147.444 76.2403 144.786 77.6589C141.949 79.1725 139.339 81.0581 140.701 80.6101C141.064 80.4907 142.548 80.1046 144 79.7519ZM169.495 74.9298C169.594 71.5526 169.053 69.9179 167.592 69.179C166.571 68.6629 161.317 68.6167 160.238 69.1144C158.797 69.7788 158.353 71.0605 158.353 74.555V77.7504L163.22 77.858C165.897 77.9171 168.384 77.9587 168.747 77.9503C169.35 77.9365 169.414 77.6769 169.495 74.9298V74.9298ZM201.845 178.723C202.083 178.626 202.367 178.638 202.477 178.749C202.587 178.86 202.392 178.939 202.044 178.924C201.66 178.908 201.581 178.829 201.845 178.723V178.723ZM202.566 170.137C202.566 170.065 202.797 169.916 203.079 169.807C203.372 169.693 203.505 169.749 203.389 169.938C203.195 170.256 202.566 170.408 202.566 170.137V170.137Z" fill="#3936EB"/>
<path d="M63.1038 49.6938C79.2721 64.1365 96.9363 75.8037 117.098 82.8361C106.9 68.2228 98.4197 52.2181 94.8506 32.2372" fill="white"/>
<path d="M63.1038 49.6938C79.2721 64.1365 96.9363 75.8037 117.098 82.8361C106.9 68.2228 98.4197 52.2181 94.8506 32.2372" stroke="#3936EB" stroke-width="0.750694"/>
<path d="M62.8657 71.1265C97.0332 71.1265 124.731 55.4282 124.731 36.0633C124.731 16.6984 97.0332 1 62.8657 1C28.6982 1 1 16.6984 1 36.0633C1 55.4282 28.6982 71.1265 62.8657 71.1265Z" fill="white" stroke="#3936EB" stroke-width="1.07159" stroke-linecap="round" stroke-linejoin="round"/>
<path d="M84.0391 64.4623L89.1089 68.5656L99.6625 68.7316L104.384 63.0173C102.824 60.2713 100.945 58.7943 99.2251 56.6828L84.0391 64.4623Z" fill="white" stroke="white" stroke-width="0.17049"/>
<path d="M22.589 24.6875V32.3765H21.819V28.7795H17.65V32.3765H16.88V24.6875H17.65V28.1415H21.819V24.6875H22.589ZM29.7798 29.0655C29.7798 29.3295 29.7725 29.5311 29.7578 29.6705H24.7748C24.7968 30.1251 24.9068 30.5138 25.1048 30.8365C25.3028 31.1591 25.5632 31.4048 25.8858 31.5735C26.2085 31.7348 26.5605 31.8155 26.9418 31.8155C27.4405 31.8155 27.8585 31.6945 28.1958 31.4525C28.5405 31.2105 28.7678 30.8841 28.8778 30.4735H29.6918C29.5452 31.0601 29.2298 31.5405 28.7458 31.9145C28.2692 32.2811 27.6678 32.4645 26.9418 32.4645C26.3772 32.4645 25.8712 32.3398 25.4238 32.0905C24.9765 31.8338 24.6245 31.4745 24.3678 31.0125C24.1185 30.5431 23.9938 29.9968 23.9938 29.3735C23.9938 28.7501 24.1185 28.2038 24.3678 27.7345C24.6172 27.2651 24.9655 26.9058 25.4128 26.6565C25.8602 26.4071 26.3698 26.2825 26.9418 26.2825C27.5138 26.2825 28.0125 26.4071 28.4378 26.6565C28.8705 26.9058 29.2005 27.2431 29.4278 27.6685C29.6625 28.0865 29.7798 28.5521 29.7798 29.0655ZM28.9988 29.0435C29.0062 28.5961 28.9145 28.2148 28.7238 27.8995C28.5405 27.5841 28.2875 27.3458 27.9648 27.1845C27.6422 27.0231 27.2902 26.9425 26.9088 26.9425C26.3368 26.9425 25.8492 27.1258 25.4458 27.4925C25.0425 27.8591 24.8188 28.3761 24.7748 29.0435H28.9988ZM31.9586 24.2365V32.3765H31.1886V24.2365H31.9586ZM34.4723 24.2365V32.3765H33.7023V24.2365H34.4723ZM38.8449 32.4645C38.2803 32.4645 37.7706 32.3398 37.3159 32.0905C36.8686 31.8338 36.5129 31.4745 36.2489 31.0125C35.9923 30.5431 35.8639 29.9968 35.8639 29.3735C35.8639 28.7501 35.9959 28.2075 36.2599 27.7455C36.5239 27.2761 36.8833 26.9168 37.3379 26.6675C37.7926 26.4108 38.3023 26.2825 38.8669 26.2825C39.4316 26.2825 39.9413 26.4108 40.3959 26.6675C40.8579 26.9168 41.2173 27.2761 41.4739 27.7455C41.7379 28.2075 41.8699 28.7501 41.8699 29.3735C41.8699 29.9895 41.7379 30.5321 41.4739 31.0015C41.2099 31.4708 40.8469 31.8338 40.3849 32.0905C39.9229 32.3398 39.4096 32.4645 38.8449 32.4645ZM38.8449 31.7935C39.2409 31.7935 39.6076 31.7055 39.9449 31.5295C40.2823 31.3461 40.5536 31.0748 40.7589 30.7155C40.9716 30.3488 41.0779 29.9015 41.0779 29.3735C41.0779 28.8455 40.9753 28.4018 40.7699 28.0425C40.5646 27.6758 40.2933 27.4045 39.9559 27.2285C39.6186 27.0451 39.2519 26.9535 38.8559 26.9535C38.4599 26.9535 38.0933 27.0451 37.7559 27.2285C37.4186 27.4045 37.1473 27.6758 36.9419 28.0425C36.7439 28.4018 36.6449 28.8455 36.6449 29.3735C36.6449 29.9015 36.7439 30.3488 36.9419 30.7155C37.1473 31.0748 37.4149 31.3461 37.7449 31.5295C38.0823 31.7055 38.4489 31.7935 38.8449 31.7935ZM43.9776 31.1005L42.8336 33.9825H42.3056L43.1196 31.1005H43.9776ZM46.934 29.2965C46.934 28.6658 47.0513 28.1121 47.286 27.6355C47.528 27.1588 47.8543 26.7921 48.265 26.5355C48.6756 26.2788 49.134 26.1505 49.64 26.1505C50.0726 26.1505 50.4503 26.2385 50.773 26.4145C51.103 26.5905 51.356 26.8215 51.532 27.1075V26.2385H53.413V32.3765H51.532V31.5075C51.3486 31.7935 51.092 32.0245 50.762 32.2005C50.4393 32.3765 50.0616 32.4645 49.629 32.4645C49.1303 32.4645 48.6756 32.3361 48.265 32.0795C47.8543 31.8155 47.528 31.4451 47.286 30.9685C47.0513 30.4845 46.934 29.9271 46.934 29.2965ZM51.532 29.3075C51.532 28.8381 51.4 28.4678 51.136 28.1965C50.8793 27.9251 50.564 27.7895 50.19 27.7895C49.816 27.7895 49.497 27.9251 49.233 28.1965C48.9763 28.4605 48.848 28.8271 48.848 29.2965C48.848 29.7658 48.9763 30.1398 49.233 30.4185C49.497 30.6898 49.816 30.8255 50.19 30.8255C50.564 30.8255 50.8793 30.6898 51.136 30.4185C51.4 30.1471 51.532 29.7768 51.532 29.3075ZM57.2708 32.4645C56.7355 32.4645 56.2588 32.3728 55.8408 32.1895C55.4228 32.0061 55.0928 31.7568 54.8508 31.4415C54.6088 31.1188 54.4731 30.7595 54.4438 30.3635H56.3028C56.3248 30.5761 56.4238 30.7485 56.5998 30.8805C56.7758 31.0125 56.9921 31.0785 57.2488 31.0785C57.4835 31.0785 57.6631 31.0345 57.7878 30.9465C57.9198 30.8511 57.9858 30.7301 57.9858 30.5835C57.9858 30.4075 57.8941 30.2791 57.7108 30.1985C57.5275 30.1105 57.2305 30.0151 56.8198 29.9125C56.3798 29.8098 56.0131 29.7035 55.7198 29.5935C55.4265 29.4761 55.1735 29.2965 54.9608 29.0545C54.7481 28.8051 54.6418 28.4715 54.6418 28.0535C54.6418 27.7015 54.7371 27.3825 54.9278 27.0965C55.1258 26.8031 55.4118 26.5721 55.7858 26.4035C56.1671 26.2348 56.6181 26.1505 57.1388 26.1505C57.9088 26.1505 58.5138 26.3411 58.9538 26.7225C59.4011 27.1038 59.6578 27.6098 59.7238 28.2405H57.9858C57.9565 28.0278 57.8611 27.8591 57.6998 27.7345C57.5458 27.6098 57.3405 27.5475 57.0838 27.5475C56.8638 27.5475 56.6951 27.5915 56.5778 27.6795C56.4605 27.7601 56.4018 27.8738 56.4018 28.0205C56.4018 28.1965 56.4935 28.3285 56.6768 28.4165C56.8675 28.5045 57.1608 28.5925 57.5568 28.6805C58.0115 28.7978 58.3818 28.9151 58.6678 29.0325C58.9538 29.1425 59.2031 29.3258 59.4158 29.5825C59.6358 29.8318 59.7495 30.1691 59.7568 30.5945C59.7568 30.9538 59.6541 31.2765 59.4488 31.5625C59.2508 31.8411 58.9611 32.0611 58.5798 32.2225C58.2058 32.3838 57.7695 32.4645 57.2708 32.4645ZM64.3286 30.7815V32.3765H63.3716C62.6896 32.3765 62.1579 32.2115 61.7766 31.8815C61.3953 31.5441 61.2046 30.9978 61.2046 30.2425V27.8005H60.4566V26.2385H61.2046V24.7425H63.0856V26.2385H64.3176V27.8005H63.0856V30.2645C63.0856 30.4478 63.1296 30.5798 63.2176 30.6605C63.3056 30.7411 63.4523 30.7815 63.6576 30.7815H64.3286ZM67.2573 27.2615C67.4773 26.9241 67.7523 26.6601 68.0823 26.4695C68.4123 26.2715 68.779 26.1725 69.1823 26.1725V28.1635H68.6653C68.196 28.1635 67.844 28.2661 67.6093 28.4715C67.3747 28.6695 67.2573 29.0215 67.2573 29.5275V32.3765H65.3763V26.2385H67.2573V27.2615ZM72.8754 32.4645C72.2741 32.4645 71.7314 32.3361 71.2474 32.0795C70.7707 31.8228 70.3931 31.4561 70.1144 30.9795C69.8431 30.5028 69.7074 29.9455 69.7074 29.3075C69.7074 28.6768 69.8467 28.1231 70.1254 27.6465C70.4041 27.1625 70.7854 26.7921 71.2694 26.5355C71.7534 26.2788 72.2961 26.1505 72.8974 26.1505C73.4987 26.1505 74.0414 26.2788 74.5254 26.5355C75.0094 26.7921 75.3907 27.1625 75.6694 27.6465C75.9481 28.1231 76.0874 28.6768 76.0874 29.3075C76.0874 29.9381 75.9444 30.4955 75.6584 30.9795C75.3797 31.4561 74.9947 31.8228 74.5034 32.0795C74.0194 32.3361 73.4767 32.4645 72.8754 32.4645ZM72.8754 30.8365C73.2347 30.8365 73.5391 30.7045 73.7884 30.4405C74.0451 30.1765 74.1734 29.7988 74.1734 29.3075C74.1734 28.8161 74.0487 28.4385 73.7994 28.1745C73.5574 27.9105 73.2567 27.7785 72.8974 27.7785C72.5307 27.7785 72.2264 27.9105 71.9844 28.1745C71.7424 28.4311 71.6214 28.8088 71.6214 29.3075C71.6214 29.7988 71.7387 30.1765 71.9734 30.4405C72.2154 30.7045 72.5161 30.8365 72.8754 30.8365ZM80.8253 26.1725C81.544 26.1725 82.116 26.4071 82.5413 26.8765C82.974 27.3385 83.1903 27.9765 83.1903 28.7905V32.3765H81.3203V29.0435C81.3203 28.6328 81.214 28.3138 81.0013 28.0865C80.7887 27.8591 80.5027 27.7455 80.1433 27.7455C79.784 27.7455 79.498 27.8591 79.2853 28.0865C79.0727 28.3138 78.9663 28.6328 78.9663 29.0435V32.3765H77.0853V26.2385H78.9663V27.0525C79.157 26.7811 79.4137 26.5685 79.7363 26.4145C80.059 26.2531 80.422 26.1725 80.8253 26.1725ZM84.1234 29.2965C84.1234 28.6658 84.2408 28.1121 84.4754 27.6355C84.7174 27.1588 85.0438 26.7921 85.4544 26.5355C85.8651 26.2788 86.3234 26.1505 86.8294 26.1505C87.2621 26.1505 87.6398 26.2385 87.9624 26.4145C88.2924 26.5905 88.5454 26.8215 88.7214 27.1075V26.2385H90.6024V32.3765H88.7214V31.5075C88.5381 31.7935 88.2814 32.0245 87.9514 32.2005C87.6288 32.3765 87.2511 32.4645 86.8184 32.4645C86.3198 32.4645 85.8651 32.3361 85.4544 32.0795C85.0438 31.8155 84.7174 31.4451 84.4754 30.9685C84.2408 30.4845 84.1234 29.9271 84.1234 29.2965ZM88.7214 29.3075C88.7214 28.8381 88.5894 28.4678 88.3254 28.1965C88.0688 27.9251 87.7534 27.7895 87.3794 27.7895C87.0054 27.7895 86.6864 27.9251 86.4224 28.1965C86.1658 28.4605 86.0374 28.8271 86.0374 29.2965C86.0374 29.7658 86.1658 30.1398 86.4224 30.4185C86.6864 30.6898 87.0054 30.8255 87.3794 30.8255C87.7534 30.8255 88.0688 30.6898 88.3254 30.4185C88.5894 30.1471 88.7214 29.7768 88.7214 29.3075ZM98.0243 26.2385V32.3765H96.1433V31.5405C95.9526 31.8118 95.6923 32.0318 95.3623 32.2005C95.0396 32.3618 94.6803 32.4425 94.2843 32.4425C93.8149 32.4425 93.4006 32.3398 93.0413 32.1345C92.6819 31.9218 92.4033 31.6175 92.2053 31.2215C92.0073 30.8255 91.9083 30.3598 91.9083 29.8245V26.2385H93.7783V29.5715C93.7783 29.9821 93.8846 30.3011 94.0973 30.5285C94.3099 30.7558 94.5959 30.8695 94.9553 30.8695C95.3219 30.8695 95.6116 30.7558 95.8243 30.5285C96.0369 30.3011 96.1433 29.9821 96.1433 29.5715V26.2385H98.0243ZM102.796 30.7815V32.3765H101.839C101.157 32.3765 100.626 32.2115 100.244 31.8815C99.863 31.5441 99.6724 30.9978 99.6724 30.2425V27.8005H98.9244V26.2385H99.6724V24.7425H101.553V26.2385H102.785V27.8005H101.553V30.2645C101.553 30.4478 101.597 30.5798 101.685 30.6605C101.773 30.7411 101.92 30.7815 102.125 30.7815H102.796ZM106.319 24.3795L106.099 29.6485H104.504L104.284 24.3795H106.319ZM105.329 32.4645C104.999 32.4645 104.728 32.3691 104.515 32.1785C104.31 31.9805 104.207 31.7385 104.207 31.4525C104.207 31.1591 104.31 30.9135 104.515 30.7155C104.728 30.5175 104.999 30.4185 105.329 30.4185C105.652 30.4185 105.916 30.5175 106.121 30.7155C106.334 30.9135 106.44 31.1591 106.44 31.4525C106.44 31.7385 106.334 31.9805 106.121 32.1785C105.916 32.3691 105.652 32.4645 105.329 32.4645Z" fill="black"/>
<path d="M44.208 43.311L42.03 51H41.172L39.236 44.444L37.256 51L36.42 51.011L34.286 43.311H35.111L36.871 50.054L38.84 43.311H39.698L41.612 50.054L43.383 43.311H44.208ZM50.8199 47.689C50.8199 47.953 50.8125 48.1547 50.7979 48.294H45.8149C45.8369 48.7487 45.9469 49.1373 46.1449 49.46C46.3429 49.7827 46.6032 50.0283 46.9259 50.197C47.2485 50.3583 47.6005 50.439 47.9819 50.439C48.4805 50.439 48.8985 50.318 49.2359 50.076C49.5805 49.834 49.8079 49.5077 49.9179 49.097H50.7319C50.5852 49.6837 50.2699 50.164 49.7859 50.538C49.3092 50.9047 48.7079 51.088 47.9819 51.088C47.4172 51.088 46.9112 50.9633 46.4639 50.714C46.0165 50.4573 45.6645 50.098 45.4079 49.636C45.1585 49.1667 45.0339 48.6203 45.0339 47.997C45.0339 47.3737 45.1585 46.8273 45.4079 46.358C45.6572 45.8887 46.0055 45.5293 46.4529 45.28C46.9002 45.0307 47.4099 44.906 47.9819 44.906C48.5539 44.906 49.0525 45.0307 49.4779 45.28C49.9105 45.5293 50.2405 45.8667 50.4679 46.292C50.7025 46.71 50.8199 47.1757 50.8199 47.689ZM50.0389 47.667C50.0462 47.2197 49.9545 46.8383 49.7639 46.523C49.5805 46.2077 49.3275 45.9693 49.0049 45.808C48.6822 45.6467 48.3302 45.566 47.9489 45.566C47.3769 45.566 46.8892 45.7493 46.4859 46.116C46.0825 46.4827 45.8589 46.9997 45.8149 47.667H50.0389ZM52.9986 42.86V51H52.2286V42.86H52.9986ZM54.3903 47.997C54.3903 47.3737 54.515 46.831 54.7643 46.369C55.0136 45.8997 55.3583 45.5403 55.7983 45.291C56.2383 45.0343 56.7406 44.906 57.3053 44.906C58.046 44.906 58.6546 45.0893 59.1313 45.456C59.6153 45.8227 59.927 46.3213 60.0663 46.952H59.2413C59.1386 46.5193 58.915 46.182 58.5703 45.94C58.233 45.6907 57.8113 45.566 57.3053 45.566C56.902 45.566 56.539 45.6577 56.2163 45.841C55.8936 46.0243 55.637 46.2993 55.4463 46.666C55.263 47.0253 55.1713 47.469 55.1713 47.997C55.1713 48.525 55.263 48.9723 55.4463 49.339C55.637 49.7057 55.8936 49.9807 56.2163 50.164C56.539 50.3473 56.902 50.439 57.3053 50.439C57.8113 50.439 58.233 50.318 58.5703 50.076C58.915 49.8267 59.1386 49.482 59.2413 49.042H60.0663C59.927 49.658 59.6153 50.153 59.1313 50.527C58.6473 50.901 58.0386 51.088 57.3053 51.088C56.7406 51.088 56.2383 50.9633 55.7983 50.714C55.3583 50.4573 55.0136 50.098 54.7643 49.636C54.515 49.1667 54.3903 48.6203 54.3903 47.997ZM64.1174 51.088C63.5527 51.088 63.0431 50.9633 62.5884 50.714C62.1411 50.4573 61.7854 50.098 61.5214 49.636C61.2647 49.1667 61.1364 48.6203 61.1364 47.997C61.1364 47.3737 61.2684 46.831 61.5324 46.369C61.7964 45.8997 62.1557 45.5403 62.6104 45.291C63.0651 45.0343 63.5747 44.906 64.1394 44.906C64.7041 44.906 65.2137 45.0343 65.6684 45.291C66.1304 45.5403 66.4897 45.8997 66.7464 46.369C67.0104 46.831 67.1424 47.3737 67.1424 47.997C67.1424 48.613 67.0104 49.1557 66.7464 49.625C66.4824 50.0943 66.1194 50.4573 65.6574 50.714C65.1954 50.9633 64.6821 51.088 64.1174 51.088ZM64.1174 50.417C64.5134 50.417 64.8801 50.329 65.2174 50.153C65.5547 49.9697 65.8261 49.6983 66.0314 49.339C66.2441 48.9723 66.3504 48.525 66.3504 47.997C66.3504 47.469 66.2477 47.0253 66.0424 46.666C65.8371 46.2993 65.5657 46.028 65.2284 45.852C64.8911 45.6687 64.5244 45.577 64.1284 45.577C63.7324 45.577 63.3657 45.6687 63.0284 45.852C62.6911 46.028 62.4197 46.2993 62.2144 46.666C62.0164 47.0253 61.9174 47.469 61.9174 47.997C61.9174 48.525 62.0164 48.9723 62.2144 49.339C62.4197 49.6983 62.6874 49.9697 63.0174 50.153C63.3547 50.329 63.7214 50.417 64.1174 50.417ZM75.696 44.884C76.4 44.884 76.972 45.1077 77.412 45.555C77.8593 45.995 78.083 46.6367 78.083 47.48V51H77.324V47.568C77.324 46.9153 77.1663 46.4167 76.851 46.072C76.5357 45.7273 76.1067 45.555 75.564 45.555C74.9993 45.555 74.5483 45.742 74.211 46.116C73.8737 46.49 73.705 47.0327 73.705 47.744V51H72.946V47.568C72.946 46.9153 72.7883 46.4167 72.473 46.072C72.1577 45.7273 71.725 45.555 71.175 45.555C70.6103 45.555 70.1593 45.742 69.822 46.116C69.4847 46.49 69.316 47.0327 69.316 47.744V51H68.546V44.994H69.316V46.028C69.5067 45.654 69.778 45.3717 70.13 45.181C70.482 44.983 70.8743 44.884 71.307 44.884C71.8277 44.884 72.2823 45.0087 72.671 45.258C73.067 45.5073 73.353 45.874 73.529 46.358C73.6903 45.8813 73.9653 45.5183 74.354 45.269C74.75 45.0123 75.1973 44.884 75.696 44.884ZM85.2271 47.689C85.2271 47.953 85.2198 48.1547 85.2051 48.294H80.2221C80.2441 48.7487 80.3541 49.1373 80.5521 49.46C80.7501 49.7827 81.0104 50.0283 81.3331 50.197C81.6558 50.3583 82.0078 50.439 82.3891 50.439C82.8878 50.439 83.3058 50.318 83.6431 50.076C83.9878 49.834 84.2151 49.5077 84.3251 49.097H85.1391C84.9924 49.6837 84.6771 50.164 84.1931 50.538C83.7164 50.9047 83.1151 51.088 82.3891 51.088C81.8244 51.088 81.3184 50.9633 80.8711 50.714C80.4238 50.4573 80.0718 50.098 79.8151 49.636C79.5658 49.1667 79.4411 48.6203 79.4411 47.997C79.4411 47.3737 79.5658 46.8273 79.8151 46.358C80.0644 45.8887 80.4128 45.5293 80.8601 45.28C81.3074 45.0307 81.8171 44.906 82.3891 44.906C82.9611 44.906 83.4598 45.0307 83.8851 45.28C84.3178 45.5293 84.6478 45.8667 84.8751 46.292C85.1098 46.71 85.2271 47.1757 85.2271 47.689ZM84.4461 47.667C84.4534 47.2197 84.3618 46.8383 84.1711 46.523C83.9878 46.2077 83.7348 45.9693 83.4121 45.808C83.0894 45.6467 82.7374 45.566 82.3561 45.566C81.7841 45.566 81.2964 45.7493 80.8931 46.116C80.4898 46.4827 80.2661 46.9997 80.2221 47.667H84.4461ZM87.6699 43.311L87.5709 48.965H86.9219L86.8339 43.311H87.6699ZM87.2849 51.055C87.1235 51.055 86.9879 51 86.8779 50.89C86.7752 50.78 86.7239 50.6443 86.7239 50.483C86.7239 50.3217 86.7752 50.1897 86.8779 50.087C86.9879 49.977 87.1235 49.922 87.2849 49.922C87.4389 49.922 87.5672 49.977 87.6699 50.087C87.7799 50.1897 87.8349 50.3217 87.8349 50.483C87.8349 50.6443 87.7799 50.78 87.6699 50.89C87.5672 51 87.4389 51.055 87.2849 51.055Z" fill="black"/>
</svg>
