<svg width="123" height="129" viewBox="0 0 123 129" fill="none" xmlns="http://www.w3.org/2000/svg">
<path d="M52.2689 41.2545L41.8726 41.8829L37.2699 48.0577L35.3539 56.2726L42.4426 70.6111L49.8836 78.1943L53.2349 80.729L46.8714 85.6867L39.1579 84.4594L27.6215 87.6968L26.0794 89.3624L35.6947 91.3975L38.0918 94.011L37.6187 95.7133L35.1421 97.0752L33.7314 99.4428L32.6532 102.312L32.5509 102.98L27.4449 101.227L21.7973 101.677L16.4063 105.501L13.5871 109.568L8.0184 116.734L6.00635 119.099L13.4248 118.555L25.4484 119.696L31.7326 118.646L35.0494 115.717L36.5625 112.682L38.2657 112.854L38.929 114.393L41.8982 115.739L46.343 115.285L49.8799 116.666L63.0755 116.942L70.1948 115.929L80.0916 113.488L92.0323 109.183L100.433 104.366L107.166 98.8411L120.386 81.0429L121.269 76.4352L118.146 73.8048L109.957 71.3456L100.584 69.3786L93.6426 68.2226L90.7897 66.489L84.8465 63.3518L84.382 60.8462L83.8487 57.7026L82.5142 53.8949L91.4749 51.5847L100.819 47.6456L107.975 40.7703L109.174 35.0572L107.725 30.2806L104.704 29.4205L101.296 31.1578L99.6391 32.3338L97.2835 30.2001L95.3908 31.0918L95.0494 34.4453L92.4422 37.1301L87.6637 39.1938L80.2338 42.9972L67.7509 46.0285L59.1099 44.3474L52.2689 41.2545Z" fill="white" stroke="white" stroke-width="0.264583"/>
<path d="M45.2599 31.1875C47.9637 31.1875 50.1555 28.2826 50.1555 24.6993C50.1555 21.116 47.9637 18.2112 45.2599 18.2112C42.5561 18.2112 40.3643 21.116 40.3643 24.6993C40.3643 28.2826 42.5561 31.1875 45.2599 31.1875Z" fill="white"/>
<path d="M68.273 46.0655C81.5667 46.0655 92.3434 35.9616 92.3434 23.4978C92.3434 11.0339 81.5667 0.929993 68.273 0.929993C54.9793 0.929993 44.2026 11.0339 44.2026 23.4978C44.2026 35.9616 54.9793 46.0655 68.273 46.0655Z" fill="white"/>
<path d="M92.0421 28.9739C94.7459 28.9739 96.9377 26.0691 96.9377 22.4858C96.9377 18.9025 94.7459 15.9976 92.0421 15.9976C89.3383 15.9976 87.1465 18.9025 87.1465 22.4858C87.1465 26.0691 89.3383 28.9739 92.0421 28.9739Z" fill="white"/>
<path d="M41.593 127.727C41.593 127.533 42.2975 126.392 43.1585 125.193C45.5787 121.821 47.2202 118.453 47.2202 116.86C47.2202 116.278 47.1319 116.23 46.3058 116.363C43.7241 116.778 42.7155 116.818 41.6396 116.548C40.3412 116.222 38.7566 115.058 38.0125 113.883C37.7486 113.467 37.4614 113.126 37.3745 113.126C37.2875 113.126 36.8538 113.902 36.4105 114.851C35.2841 117.262 33.3058 119.197 30.805 120.333C27.4901 121.839 24.7064 121.984 20.2094 120.882C19.3583 120.674 17.5857 120.239 16.2704 119.915C11.919 118.843 6.9957 119.13 2.67631 120.707C2.24067 120.867 1.57595 120.997 1.19915 120.997C-0.0889654 120.997 0.498134 120.253 2.55394 119.28C7.66097 116.864 10.0589 114.505 13.8782 108.141C16.6252 103.564 19.6902 101.254 24.0065 100.51C26.6029 100.063 28.7067 100.434 32.4863 102.007C32.7011 102.096 32.8428 101.556 32.9203 100.352C33.0675 98.0654 33.8144 96.9581 36.1894 95.5047C37.2658 94.846 37.928 94.266 37.8776 94.0261C37.6735 93.0555 33.0169 91.2213 28.1025 90.1759C25.597 89.6429 25.4087 89.5574 25.327 88.9161C25.2551 88.3516 25.4572 88.0995 26.4524 87.512C28.5408 86.2791 32.6418 84.6222 34.8403 84.123C38.6428 83.2597 41.3962 83.5041 45.4172 85.0619C46.2632 85.3896 46.3397 85.3573 48.1889 83.8946C49.2348 83.0672 50.7108 81.9747 51.469 81.4668C52.2271 80.9589 52.8475 80.4379 52.8475 80.3089C52.8475 80.18 51.9869 79.6704 50.9352 79.1765C48.3792 77.9762 46.2817 76.3921 45.4082 75.0022C44.7325 73.927 44.5388 73.8151 41.9998 73.0331C37.5932 71.6757 34.9962 69.6907 34.2449 67.106C34.0446 66.4169 33.9828 64.431 34.0726 61.5712C34.2264 56.6708 34.7694 53.6841 36.2908 49.3712C38.0037 44.5156 39.6879 42.026 41.9512 41.0043C43.5928 40.2633 46.9121 39.8723 49.2736 40.1418C50.3255 40.2618 51.23 40.2919 51.2835 40.2087C51.337 40.1254 50.5721 39.1191 49.5838 37.9724C48.5955 36.8256 47.3806 35.1567 46.884 34.2636C46.0149 32.7004 45.9268 32.6283 44.5271 32.3363C42.7106 31.9572 40.9878 30.6331 40.3366 29.1155C40.0185 28.3741 39.8052 26.8901 39.7002 24.6887C39.5463 21.4627 39.5616 21.3439 40.2931 20.0914C41.1088 18.6948 42.3644 17.7464 43.9321 17.3428C44.7405 17.1346 44.9955 16.8994 45.2698 16.1091C47.1683 10.6397 52.0279 5.50999 57.7627 2.92159C61.7411 1.12596 63.6215 0.740092 68.4631 0.725892C73.4229 0.711392 75.8001 1.20726 79.7268 3.07559C83.9592 5.08941 87.1859 7.95554 89.8408 12.0594C91.2077 14.1723 91.3591 14.3125 92.5901 14.604C94.3319 15.0164 95.7317 15.9504 96.4877 17.2048C96.9744 18.0121 97.1723 18.9617 97.398 21.5721C97.6562 24.5569 97.6334 25.0374 97.1814 26.1411C96.5189 27.7588 95.1423 29.0088 93.5368 29.4509C92.4344 29.7544 92.1937 29.9455 91.9197 30.7346C91.4207 32.1715 89.7447 35.1996 88.6696 36.6067C88.135 37.3062 87.7778 37.9532 87.8756 38.0444C88.0915 38.2458 91.7927 36.4969 93.2871 35.4874C94.3063 34.799 94.3816 34.6494 94.6799 32.7181C95.0609 30.2525 95.6846 29.3334 97.0519 29.2227C97.8385 29.159 98.1855 29.3126 98.9783 30.0754C99.5102 30.5871 100.046 31.0057 100.169 31.0057C100.292 31.0057 100.956 30.6051 101.643 30.1155C102.331 29.6259 103.476 29.018 104.187 28.7647C108.422 27.2569 111.317 32.2179 109.859 38.4831C109.329 40.7624 108.45 42.1725 106.225 44.3143C101.539 48.8235 93.9894 52.2688 86.228 53.4394C84.8475 53.6476 83.6499 53.8815 83.5666 53.9592C83.4833 54.0369 83.6277 54.5161 83.8876 55.0243C84.1474 55.5324 84.36 56.3021 84.36 56.7348C84.36 57.1674 84.5499 57.9452 84.7821 58.4633C85.0142 58.9813 85.2041 60.1294 85.2041 61.0147V62.6242L88.626 64.194C90.508 65.0573 92.9453 66.3242 94.0422 67.0092C95.9362 68.1919 96.1339 68.2548 97.97 68.2581C107.457 68.2749 122.907 73.5359 122.907 76.7498C122.907 77.6036 120.407 83.5019 119.056 85.8359C114.048 94.4891 106.397 101.71 96.3381 107.278C85.6734 113.181 73.7137 116.739 62.115 117.46L59.4246 117.628L58.6154 119.378C57.5983 121.578 54.6465 124.419 52.0668 125.681C49.1348 127.115 45.6909 128.081 43.5097 128.081C42.0903 128.081 41.593 127.989 41.593 127.727V127.727ZM10.9597 115.958C11.9981 114.918 13.2062 113.503 13.6446 112.815C14.0829 112.126 14.5048 111.563 14.5822 111.564C14.6596 111.564 14.9536 112.032 15.2356 112.602C15.765 113.673 15.6843 114.061 14.8104 114.649C13.9187 115.249 14.253 115.455 16.0593 115.418C17.4641 115.389 18.3669 115.575 20.5475 116.345C23.6905 117.455 26.5521 117.957 28.3689 117.716C32.3607 117.186 34.4 115.959 35.391 113.489C36.0906 111.745 36.1023 111.312 35.4824 110.1C35.1442 109.438 34.7621 109.11 34.2104 109.007C33.1502 108.81 33.0623 108.597 33.6042 107.537C34.0316 106.701 34.0317 106.539 33.6052 105.342C33.2129 104.241 32.927 103.929 31.6713 103.229C30.0103 102.304 27.6084 101.582 26.195 101.582C24.3586 101.582 21.5604 102.435 19.8211 103.525C17.8893 104.737 16.4885 106.34 14.9995 109.046C13.5852 111.616 10.4962 115.847 9.3487 116.787C8.32369 117.626 8.19447 117.848 8.7319 117.848C8.9188 117.848 9.92126 116.998 10.9596 115.958H10.9597ZM68.9993 115.235C78.5361 113.642 87.7661 110.399 96.1728 105.687C98.7322 104.252 103.336 101.137 105.126 99.6294L106.221 98.7063L105.55 95.7494C103.947 88.6955 102.141 83.8179 98.8691 77.7066C95.8942 72.1503 94.2127 69.7045 93.3676 69.7045C92.767 69.7045 92.6864 69.8263 92.6609 70.7725C92.6039 72.8925 90.4408 75.3319 87.4678 76.6289C86.2254 77.1709 85.4776 77.3099 83.7973 77.3113C81.1514 77.3133 79.7709 76.6304 77.4326 74.1623C76.5453 73.2256 75.6518 72.4593 75.4472 72.4593C74.918 72.4593 74.9583 72.5657 76.087 74.1509C77.0008 75.4343 78.1701 78.6264 78.1701 79.8379C78.1701 80.5108 78.6959 80.7051 79.2505 80.237C79.5158 80.0132 80.4891 79.4998 81.4134 79.0963C82.9272 78.4353 83.387 78.3637 86.0482 78.3742C88.8122 78.3851 89.1289 78.4427 90.9643 79.2681C93.5175 80.4163 95.652 82.4025 96.8274 84.7236C97.6741 86.3958 97.7247 86.6661 97.7247 89.513C97.7246 92.5126 97.7187 92.5413 96.6385 94.4256C93.8407 99.3082 88.0907 101.59 82.582 100.003C81.5715 99.7121 80.0964 99.0671 79.3039 98.5698C78.0464 97.7807 77.8425 97.7229 77.7013 98.1151C76.7958 100.631 75.3765 101.923 72.5825 102.775C68.1867 104.116 62.6616 101.742 60.3426 97.5151C59.0418 95.1444 58.7376 93.4453 58.7921 88.8571C58.8552 83.5484 58.4831 82.5792 55.9772 81.5255L54.9173 81.0798L53.2493 82.1204C49.0756 84.7243 43.7033 89.5135 40.944 93.0901C39.7742 94.6063 39.6317 95.7474 40.2192 98.8936C40.5639 100.739 40.3882 100.669 42.6862 99.8828C44.3501 99.3139 47.8071 99.1085 49.9981 99.4483C52.492 99.8351 54.2543 100.499 54.2543 101.052C54.2543 101.656 52.2981 104.442 50.8145 105.951C49.357 107.433 47.178 108.777 45.5846 109.177C44.9367 109.34 44.4066 109.56 44.4066 109.666C44.4066 109.944 46.2729 112.552 47.3662 113.801C48.3779 114.957 49.3911 115.287 53.364 115.756C56.6541 116.145 65.2686 115.858 68.9993 115.235V115.235ZM45.3716 114.73C45.6988 114.236 44.7203 113.876 43.5097 114.045C42.8292 114.14 41.9394 114.087 41.4836 113.925C40.4048 113.541 40.1622 113.825 41.0344 114.45C41.5465 114.817 42.2 114.952 43.4755 114.957C44.4336 114.96 45.2868 114.858 45.3716 114.73V114.73ZM38.6174 105.414C40.0386 104.089 41.3051 103.196 42.6166 102.594C44.4702 101.743 44.6535 101.713 47.9787 101.7C49.8723 101.693 51.4923 101.621 51.5788 101.54C51.9317 101.211 48.2301 100.733 46.2492 100.851C44.6323 100.948 43.7179 101.172 42.3181 101.815C40.5194 102.64 37.8824 104.794 36.5778 106.502C35.4618 107.963 36.4473 107.438 38.6174 105.414V105.414ZM38.5184 100.517C38.36 99.8761 38.2273 98.7388 38.2235 97.9897C38.2195 97.2407 38.1058 96.564 37.9704 96.4859C37.632 96.2909 35.5308 97.7452 34.9435 98.581C34.5147 99.1912 34.499 99.5109 34.7958 101.59C35.2927 105.069 35.225 105.022 37.1452 103.232L38.8064 101.682L38.5184 100.517ZM73.2937 100.658C75.1708 99.7854 75.6752 99.2202 75.8474 97.7963C76.0303 96.2825 75.5851 94.6202 74.3154 92.0759C73.3573 90.1561 73.2638 90.0576 72.5712 90.2393C72.1687 90.3449 70.9258 90.4313 69.8091 90.4313C68.2505 90.4313 67.6646 90.3246 67.2869 89.9721C66.8185 89.5349 66.8582 89.513 68.1184 89.513C72.1235 89.513 75.5602 86.752 76.2545 82.9767C76.8873 79.5358 75.7944 76.0644 73.3977 73.9023C72.2583 72.8745 72.1926 72.8529 70.208 72.8562C67.8851 72.8602 65.7172 73.6434 63.6432 75.2281C61.3937 76.9469 59.8244 81.3008 60.4774 84.011C60.6234 84.6167 60.7073 86.9584 60.6638 89.2148C60.591 92.999 60.6377 93.4538 61.2658 95.0772C62.3837 97.9663 64.539 100.171 67.0563 101C67.5205 101.153 68.7934 101.287 69.885 101.299C71.4723 101.315 72.1547 101.187 73.2937 100.658V100.658ZM87.8963 94.6374C91.6255 93.6019 93.4303 89.5077 91.4337 86.6127C90.3311 85.014 89.5253 84.3943 87.8771 83.8774C84.4515 82.8032 80.9631 84.7984 80.1193 88.3146C79.6476 90.2799 80.286 92.0127 81.9999 93.4195C83.8453 94.9342 85.5554 95.2874 87.8963 94.6374ZM30.8421 88.2307C32.5519 87.4197 35.524 86.6623 37.7124 86.4799C39.5501 86.3267 40.6401 86.4322 43.6328 87.0525C44.2248 87.1752 44.4066 87.1148 44.4066 86.7955C44.4066 85.7257 40.3184 84.8884 37.1447 85.3081C34.183 85.6998 28.3689 87.7932 28.3689 88.468C28.3689 88.8911 29.7239 88.7611 30.8421 88.2307ZM79.6705 82.8446C82.5237 80.6645 86.8359 80.1287 90.6907 81.4755C92.8141 82.2173 92.5681 81.8515 90.128 80.6385C88.8888 80.0225 88.4026 79.9391 86.0482 79.9379C83.7604 79.9369 83.1523 80.0342 81.8278 80.6138C80.2443 81.3066 78.1701 82.9116 78.1701 83.444C78.1701 83.9047 78.407 83.8101 79.6705 82.8446V82.8446ZM59.2968 79.7864C60.3509 75.9514 64.0515 72.657 68.252 71.814C68.755 71.7131 69.1665 71.5369 69.1665 71.4224C69.1665 71.308 68.5822 70.9785 67.8681 70.6903C66.2709 70.0456 66.6045 69.7792 68.6308 70.081C69.4671 70.2055 70.1852 70.2779 70.2266 70.2418C70.268 70.2057 69.5687 69.8117 68.6726 69.3663C67.4258 68.7467 66.5162 68.5136 64.7988 68.374C63.5644 68.2736 62.3342 68.0857 62.065 67.9563C61.4611 67.6662 60.7256 66.3841 60.7256 65.6216C60.7256 65.1079 60.6266 65.0724 59.6705 65.2432C55.6616 65.9597 49.8465 65.8044 46.7411 64.8981C45.7812 64.6179 44.9266 64.4533 44.8419 64.5323C44.5603 64.7948 44.7023 67.5778 45.1046 69.6833C45.323 70.826 45.8977 72.5112 46.3819 73.4282C47.499 75.5442 48.9896 76.6219 53.6982 78.7179C55.6289 79.5773 57.4618 80.465 57.7713 80.6905C58.6678 81.3439 58.9078 81.2017 59.2968 79.7864V79.7864ZM114.184 76.9779C114.184 76.0619 113.544 75.1946 112.493 74.6879C111.322 74.1232 110.321 74.184 110.1 74.8334C109.836 75.6096 110.611 76.5529 112.003 77.1496C113.732 77.8905 114.184 77.8549 114.184 76.9779V76.9779ZM120.093 75.8541C117.973 74.2595 112.399 72.146 107.282 70.9962C104.362 70.3401 96.8628 69.4715 96.4034 69.7363C95.778 70.0967 96.932 70.5865 98.7916 70.7499C106.645 71.4399 110.3 72.3456 118.827 75.7152C120.865 76.5207 120.999 76.5353 120.093 75.8541V75.8541ZM108.989 75.5928C109.359 75.0341 108.801 74.018 107.778 73.3877C106.296 72.4748 103.169 72.0187 101.664 72.4959C100.77 72.7792 100.52 72.9982 100.451 73.5579C100.33 74.5336 101.206 75.0057 103.766 75.3443C104.913 75.4959 105.911 75.6762 105.985 75.745C106.251 75.9931 108.81 75.8635 108.989 75.5928ZM86.2683 75.202C86.8436 74.9789 87.7882 74.4912 88.3673 74.1182C89.5023 73.3874 91.1127 71.3336 91.1127 70.6171C91.1127 69.3544 87.3151 66.1147 81.4318 62.3583C80.0758 61.4925 77.7426 59.9865 76.2469 59.0116C73.2132 57.0342 72.8978 56.9884 70.6439 58.1971C68.7031 59.2378 66.2822 62.6112 65.9073 64.7972L65.7283 65.8412L67.3771 66.7262C69.7444 67.997 72.4104 69.1948 74.4808 69.9179C76.2442 70.5338 77.5529 71.4899 78.936 73.1725C79.3178 73.6369 80.2096 74.3748 80.9179 74.8123C81.9498 75.4496 82.5053 75.6077 83.7139 75.6077C84.5435 75.6077 85.6929 75.4251 86.2683 75.202ZM92.2382 67.896C92.2382 67.5004 91.4212 67.0993 91.1432 67.3585C91.0495 67.4458 91.2185 67.6847 91.5187 67.8894C92.1935 68.3495 92.2382 68.3499 92.2382 67.8964V67.896ZM65.2981 62.2927C66.59 59.7809 69.3032 56.893 70.672 56.5726C71.082 56.4767 71.4174 56.2507 71.4174 56.0705C71.4174 55.8903 70.4781 55.024 69.3301 54.1454C66.5764 52.038 63.4612 48.5694 63.9297 48.1326C64.1687 47.9096 65.1104 48.5743 68.4298 51.309L71.4916 53.8314H75.5355H79.5793L79.3945 50.8142C79.2732 48.8338 79.3079 47.797 79.4955 47.797C79.7743 47.797 80.4868 49.6975 80.848 51.4045C80.9472 51.8735 81.1766 52.2677 81.3577 52.2805C83.7887 52.4526 91.9568 51.013 91.9568 50.4125C91.9568 50.3094 91.7021 49.688 91.3907 49.0317C90.5711 47.3039 89.7437 44.041 89.5287 41.6888C89.4261 40.5659 89.255 39.5969 89.1484 39.5355C88.735 39.2973 84.4241 41.0795 82.9925 42.0806C80.9088 43.5376 76.7828 45.2931 74.0903 45.8683C71.1243 46.5019 65.8492 46.5155 63.0931 45.8967C60.7728 45.3757 57.5987 44.1612 55.6794 43.06C54.9387 42.6351 54.2201 42.2882 54.0825 42.2893C53.7513 42.2923 50.3491 47.2101 49.1837 49.3712C48.2308 51.1382 46.0947 56.4765 46.0947 57.091C46.0947 57.2834 46.4429 57.5696 46.8685 57.7269C47.7904 58.0677 52.1326 58.7501 54.1136 58.8655C55.3896 58.9399 55.5287 58.8926 55.6103 58.3572C55.6597 58.0325 55.777 57.7669 55.8708 57.7669C55.9646 57.7669 57.7156 59.3017 59.7618 61.1776C61.8081 63.0535 63.6252 64.5883 63.7998 64.5883C63.9744 64.5883 64.6487 63.5553 65.2981 62.2926V62.2927ZM83.8958 60.4222C83.8138 58.8068 82.5018 57.768 81.6027 58.6064C80.9421 59.2225 81.2258 60.0844 82.3168 60.7757C83.5973 61.587 83.9509 61.5079 83.8958 60.4222ZM42.3473 53.6346C43.2224 51.3255 44.6186 48.2719 45.2714 47.2395C45.7105 46.5451 45.9608 45.9142 45.8276 45.8375C45.3512 45.5629 41.4433 44.3899 40.999 44.3881C40.3157 44.3851 38.017 49.2671 37.5063 51.8059C37.3251 52.7065 37.3612 52.7829 37.9743 52.7942C38.3397 52.8012 39.335 53.0858 40.1861 53.4272C42.0994 54.1948 42.1338 54.1981 42.3473 53.6346V53.6346ZM97.162 48.2702C99.9121 46.9335 101.826 45.7258 103.892 44.023C107.175 41.3174 108.57 38.6577 108.542 35.1542C108.522 32.6793 107.88 31.0715 106.642 30.3975C105.755 29.9142 105.667 29.912 104.455 30.3439C103.76 30.5912 102.558 31.3431 101.783 32.0147L100.374 33.2358L100.643 34.5434C100.921 35.891 100.837 36.3752 100.374 36.1083C99.953 35.8656 99.0841 34.1106 98.8871 33.1046C98.6729 32.0112 97.53 30.5814 97.0783 30.8417C96.636 31.0966 96.1807 32.7533 96.1788 34.1144C96.1768 35.4848 95.3934 36.2805 92.6228 37.7252C90.579 38.7911 90.5913 38.7519 91.128 42.4652C91.568 45.51 92.233 47.5471 93.1431 48.6383C94.0686 49.7479 94.1345 49.7419 97.162 48.2703V48.2702ZM73.9496 44.1993C75.888 43.7687 80.6173 41.8583 80.3536 41.6124C80.2678 41.5324 79.14 41.7584 77.8474 42.1147C74.6479 42.9966 74.3438 43.0517 71.0574 43.3449C67.5187 43.6607 63.524 43.3256 60.0051 42.4179C57.0412 41.6534 56.7287 41.6229 57.5841 42.1815C59.0499 43.1389 63.4207 44.4154 66.3528 44.7425C67.9658 44.9224 71.9905 44.6346 73.9496 44.1993V44.1993ZM48.1909 43.2045C49.0618 42.2135 49.1551 41.9961 48.7692 41.858C48.0693 41.6076 44.1261 42.0074 43.3037 42.4123L42.5777 42.7696L43.9845 43.3415C46.2431 44.2596 46.4996 44.3521 46.8346 44.3696C47.0094 44.3786 47.6197 43.8545 48.1909 43.2045V43.2045ZM81.876 31.6209C82.46 31.128 82.5654 29.6995 82.0529 29.2216C81.4932 28.6997 80.216 28.8475 79.7335 29.4899C78.5116 31.1166 80.3302 32.9254 81.876 31.6209ZM44.8502 30.153C44.3161 28.446 44.0826 25.8509 44.1692 22.5838C44.2559 19.313 44.2173 18.9366 43.7952 18.9367C43.1114 18.937 41.6889 20.3633 41.3129 21.4256C40.9044 22.5799 41.4103 27.8164 42.0401 28.952C42.4702 29.7275 43.9472 30.7405 44.6504 30.7423C44.9165 30.7431 44.978 30.5614 44.8502 30.153V30.153ZM53.1755 23.515C56.0166 17.5497 58.4437 15.4918 67.1969 11.627C68.4727 11.0636 63.3511 11.5264 60.6654 12.2171C55.2205 13.6175 51.2183 16.2688 50.1895 19.1572C49.415 21.3315 49.1884 23.7751 49.4972 26.6227C49.6505 28.0361 49.9068 29.5119 50.0668 29.9023C50.3403 30.5699 50.4041 30.4794 51.1386 28.382C51.5681 27.1555 52.4847 24.9653 53.1755 23.515ZM94.431 27.2067C95.7789 26.1491 95.9958 25.3172 95.8249 21.8591C95.6578 18.4771 95.2684 17.4849 93.7394 16.5448C92.7578 15.9414 91.8284 15.8852 92.0581 16.4433C92.6717 17.9345 93.118 21.6653 93.0343 24.6046C92.9326 28.1744 93.0112 28.3208 94.431 27.2067V27.2067ZM86.1203 25.5578C87.9078 23.9723 87.8734 20.1101 86.0638 19.207C84.4796 18.4164 82.4529 19.6728 81.8184 21.8388C81.4581 23.0685 81.7691 24.929 82.4659 25.7119C83.3579 26.7141 84.8895 26.6496 86.1204 25.5578H86.1203ZM51.7456 11.6177C56.7899 8.47667 66.566 6.93881 74.489 8.03997C78.2323 8.56022 82.0835 9.66906 84.5711 10.9427C86.6375 12.0008 86.9301 11.7424 84.9841 10.5779C82.7769 9.2572 79.6055 8.01718 76.7633 7.36354C74.3909 6.81796 73.4576 6.75091 68.4631 6.76708C63.2963 6.78378 62.6056 6.84247 60.0222 7.4839C56.6371 8.32441 52.598 10.1433 50.9127 11.586C49.3587 12.9163 49.6427 12.9271 51.7456 11.6176V11.6177ZM54.4498 7.80901C58.3158 6.00052 65.2208 4.83397 70.4326 5.10881C75.253 5.363 79.4629 6.34934 84.3281 8.36437C85.1412 8.70115 84.4488 7.88041 82.9532 6.73481C80.8778 5.14504 77.7013 3.63656 74.6392 2.78652C72.53 2.20104 71.5721 2.08652 68.7444 2.08177C64.1076 2.07377 60.0214 3.11283 56.3858 5.22386C54.1883 6.49983 51.6698 8.70468 52.4099 8.70468C52.4788 8.70468 53.3967 8.30162 54.4498 7.80901V7.80901Z" fill="#3936EB"/>
</svg>
